999
dxflib 2.2.0.0
  0
SECTION
  2
HEADER
  9
$ACADVER
  1
AC1015
  9
$HANDSEED
  5
FFFF
  9
$DIMLIM
 70
0
  9
$DIMLUNIT
 70
2
  9
$DIMTIX
 70
0
  9
$AUNITS
 70
0
  9
$QTEXTMODE
 70
0
  9
$USERR1
 40
0.0
  9
$DIMALTU
 70
2
  9
$UCSORGBOTTOM
 10
0.0
 20
0.0
 30
0.0
  9
$USERR2
 40
0.0
  9
$USERR3
 40
0.0
  9
$USERR4
 40
0.0
  9
$LIMMAX
 10
3.19195438573681
 20
5.9144543857368026
  9
$USERR5
 40
0.0
  9
$PELEVATION
 40
0.0
  9
$DIMALTZ
 70
0
  9
$DIMADEC
 70
0
  9
$JOINSTYLE
280
0
  9
$DIMATFIT
 70
3
  9
$TILEMODE
 70
1
  9
$PEXTMIN
 10
0.0
 20
0.0
 30
0.0
  9
$TDUSRTIMER
 40
0.0000106829
  9
$DWGCODEPAGE
  3
ANSI_1252
  9
$UCSORTHOVIEW
 70
0
  9
$DIMSOXD
 70
0
  9
$DIMTZIN
 70
0
  9
$SPLINETYPE
 70
6
  9
$DIMLFAC
 40
1.0
  9
$DIMSE1
 70
0
  9
$FILLETRAD
 40
0.0
  9
$DIMSE2
 70
0
  9
$PSTYLEMODE
290
1
  9
$TEXTSTYLE
  7
Standard
  9
$DIMTSZ
 40
0.0
  9
$PUCSXDIR
 10
1.0
 20
0.0
 30
0.0
  9
$DIMTXSTY
  7
Standard
  9
$PLIMMAX
 10
3.1919499999999998
 20
5.9144500000000004
  9
$DIMTM
 40
0.0
  9
$UCSORG
 10
0.0
 20
0.0
 30
0.0
  9
$DIMTP
 40
0.0
  9
$PSLTSCALE
 70
1
  9
$ANGBASE
 50
0.0
  9
$PUCSYDIR
 10
0.0
 20
1.0
 30
0.0
  9
$EXTNAMES
290
1
  9
$DIMASZ
 40
0.0708661
  9
$PUCSORTHOVIEW
 70
0
  9
$INSBASE
 10
0.0
 20
0.0
 30
0.0
  9
$UNITMODE
 70
0
  9
$MEASUREMENT
 70
0
  9
$EXTMAX
 10
3.19195438573681
 20
5.9144543857368026
 30
0.0
  9
$ELEVATION
 40
0.0
  9
$TDCREATE
 40
2456569.5957042938
  9
$DIMDEC
 70
4
  9
$CELTYPE
  6
ByLayer
  9
$MENU
  1
.
  9
$ANGDIR
 70
0
  9
$DIMALTTD
 70
2
  9
$GRIDUNIT
 10
0.0
 20
0.0
  9
$TREEDEPTH
 70
3020
  9
$LTSCALE
 40
1.0
  9
$PROXYGRAPHICS
 70
1
  9
$DIMTMOVE
 70
0
  9
$DIMAZIN
 70
0
  9
$TDUPDATE
 40
2456569.5957042938
  9
$DIMTOLJ
 70
1
  9
$DIMCEN
 40
0.09
  9
$DIMTVP
 40
0.0
  9
$TRACEWID
 40
0.05
  9
$CMLSTYLE
  2
Standard
  9
$DISPSILH
 70
0
  9
$DIMSTYLE
  2
Standard
  9
$SKETCHINC
 40
0.1
  9
$FILLMODE
 70
1
  9
$PLINEGEN
 70
0
  9
$DIMLWD
 70
-2
  9
$THICKNESS
 40
0.0
  9
$DIMLWE
 70
-2
  9
$CELTSCALE
 40
1.0
  9
$PUCSORG
 10
0.0
 20
0.0
 30
0.0
  9
$DIMALTTZ
 70
0
  9
$INSUNITS
 70
1
  9
$UCSORGBACK
 10
0.0
 20
0.0
 30
0.0
  9
$PLINEWID
 40
0.0
  9
$PEXTMAX
 10
3.19195438573681
 20
5.9144543857368026
 30
0.0
  9
$DIMJUST
 70
0
  9
$UCSYDIR
 10
0.0
 20
1.0
 30
0.0
  9
$PUCSORGBACK
 10
0.0
 20
0.0
 30
0.0
  9
$GRIDMODE
 70
1
  9
$PDSIZE
 40
0.0
  9
$PUCSORGBOTTOM
 10
0.0
 20
0.0
 30
0.0
  9
$DIMUPT
 70
0
  9
$DIMTAD
 70
0
  9
$UCSXDIR
 10
1.0
 20
0.0
 30
0.0
  9
$MAXACTVP
 70
64
  9
$DIMSAH
 70
0
  9
$TDUCREATE
 40
2456569.7623709608
  9
$DIMFRAC
 70
0
  9
$USERI1
 70
0
  9
$USERI2
 70
0
  9
$UCSORGRIGHT
 10
0.0
 20
0.0
 30
0.0
  9
$USERI3
 70
0
  9
$CELWEIGHT
370
-1
  9
$LWDISPLAY
290
0
  9
$SKPOLY
 70
0
  9
$USERI4
 70
0
  9
$USERI5
 70
0
  9
$UCSORGTOP
 10
0.0
 20
0.0
 30
0.0
  9
$LIMMIN
 10
0.0
 20
0.0
  9
$ACADMAINTVER
 70
18
  9
$MIRRTEXT
 70
0
  9
$TDUUPDATE
 40
2456569.7623709608
  9
$TEXTSIZE
 40
0.2
  9
$DIMGAP
 40
0.09
  9
$LUPREC
 70
4
  9
$CECOLOR
 62
256
  9
$DIMSD1
 70
0
  9
$DIMSD2
 70
0
  9
$WORLDVIEW
 70
1
  9
$PUCSORGRIGHT
 10
0.0
 20
0.0
 30
0.0
  9
$PLIMCHECK
 70
0
  9
$DIMTFAC
 40
1.0
  9
$CMLJUST
 70
0
  9
$USRTIMER
 70
1
  9
$SURFU
 70
6
  9
$SURFV
 70
6
  9
$DIMASO
 70
1
  9
$DIMDLE
 40
0.0
  9
$EXTMIN
 10
0.0
 20
0.0
 30
0.0
  9
$UCSORGLEFT
 10
0.0
 20
0.0
 30
0.0
  9
$OLESTARTUP
290
0
  9
$PUCSORGFRONT
 10
0.0
 20
0.0
 30
0.0
  9
$DIMDLI
 40
0.38
  9
$LUNITS
 70
2
  9
$DIMCLRD
 70
0
  9
$SHADEDIF
 70
70
  9
$DIMCLRE
 70
0
  9
$SPLINESEGS
 70
8
  9
$PUCSORGLEFT
 10
0.0
 20
0.0
 30
0.0
  9
$DIMALTRND
 40
0.0
  9
$DIMRND
 40
0.0
  9
$DIMALT
 70
0
  9
$FINGERPRINTGUID
  2
{256AA5B6-87E4-4AB6-A3C8-5F2BF66CEFB4}
  9
$DIMCLRT
 70
0
  9
$PUCSORGTOP
 10
0.0
 20
0.0
 30
0.0
  9
$DIMTOH
 70
1
  9
$UCSORGFRONT
 10
0.0
 20
0.0
 30
0.0
  9
$VISRETAIN
 70
1
  9
$SHADEDGE
 70
3
  9
$DIMTOL
 70
0
  9
$SURFTYPE
 70
6
  9
$VERSIONGUID
  2
{5F849D04-195A-45D0-A4E2-2B49FAB645FE}
  9
$CHAMFERA
 40
0.0
  9
$SURFTAB1
 70
6
  9
$CHAMFERB
 40
0.0
  9
$SURFTAB2
 70
6
  9
$CHAMFERC
 40
0.0
  9
$AUPREC
 70
0
  9
$CHAMFERD
 40
0.0
  9
$DIMTDEC
 70
4
  9
$PDMODE
 70
0
  9
$SPLFRAME
 70
0
  9
$PLIMMIN
 10
0.0
 20
0.0
  9
$XEDIT
290
1
  9
$DIMDSEP
 70
46
  9
$LIMCHECK
 70
0
  9
$PINSBASE
 10
0.0
 20
0.0
 30
0.0
  9
$ORTHOMODE
 70
0
  9
$PSVPSCALE
 40
0.0
  9
$CLAYER
  8
0
  9
$DIMSHO
 70
1
  9
$DIMTOFL
 70
0
  9
$DIMTXT
 40
0.0708661
  9
$DIMEXE
 40
0.18
  9
$TDINDWG
 40
0.0000106829
  9
$REGENMODE
 70
1
  9
$ATTMODE
 70
1
  9
$CMLSCALE
 40
1.0
  9
$DIMTIH
 70
1
  9
$DIMZIN
 70
0
  9
$CEPSNTYPE
380
0
  9
$DIMSCALE
 40
1.0
  9
$DIMALTD
 70
2
  9
$DIMAUNIT
 70
0
  9
$DIMALTF
 40
25.399999999999999
  9
$DIMEXO
 40
0.0625
  9
$ENDCAPS
280
0
  0
ENDSEC
  0
SECTION
  2
TABLES
  0
TABLE
  2
VPORT
  5
8
100
AcDbSymbolTable
 70
1
  0
VPORT
  5
30
100
AcDbSymbolTableRecord
100
AcDbViewportTableRecord
  2
*Active
 70
0
 10
0.0
 20
0.0
 11
1.0
 21
1.0
 12
286.30555555555549
 22
148.5
 13
0.0
 23
0.0
 14
10.0
 24
10.0
 15
10.0
 25
10.0
 16
0.0
 26
0.0
 36
1.0
 17
0.0
 27
0.0
 37
0.0
 40
297.0
 41
1.92798353909465
 42
50.0
 43
0.0
 44
0.0
 50
0.0
 51
0.0
 71
0
 72
100
 73
1
 74
3
 75
1
 76
1
 77
0
 78
0
281
0
 65
1
110
0.0
120
0.0
130
0.0
111
1.0
121
0.0
131
0.0
112
0.0
122
1.0
132
0.0
 79
0
146
0.0
  0
ENDTAB
  0
TABLE
  2
LTYPE
  5
5
100
AcDbSymbolTable
 70
21
  0
LTYPE
  5
14
100
AcDbSymbolTableRecord
100
AcDbLinetypeTableRecord
  2
ByBlock
 70
0
  3

 72
65
 73
0
 40
0.0
  0
LTYPE
  5
15
100
AcDbSymbolTableRecord
100
AcDbLinetypeTableRecord
  2
ByLayer
 70
0
  3

 72
65
 73
0
 40
0.0
  0
LTYPE
  5
16
100
AcDbSymbolTableRecord
100
AcDbLinetypeTableRecord
  2
CONTINUOUS
 70
0
  3
Solid line
 72
65
 73
0
 40
0.0
  0
LTYPE
  5
31
100
AcDbSymbolTableRecord
100
AcDbLinetypeTableRecord
  2
DOT
 70
0
  3
Dot . . . . . . . . . . . . . . . . . . . . . .
 72
65
 73
2
 40
6.3499999999999996
 49
0.0
 74
0
 49
-6.3499999999999996
 74
0
  0
LTYPE
  5
32
100
AcDbSymbolTableRecord
100
AcDbLinetypeTableRecord
  2
DOT2
 70
0
  3
Dot (.5x) .....................................
 72
65
 73
2
 40
3.1749999999999998
 49
0.0
 74
0
 49
-3.1749999999999998
 74
0
  0
LTYPE
  5
33
100
AcDbSymbolTableRecord
100
AcDbLinetypeTableRecord
  2
DOTX2
 70
0
  3
Dot (2x) .  .  .  .  .  .  .  .  .  .  .  .  .
 72
65
 73
2
 40
12.699999999999999
 49
0.0
 74
0
 49
-12.699999999999999
 74
0
  0
LTYPE
  5
34
100
AcDbSymbolTableRecord
100
AcDbLinetypeTableRecord
  2
DASHED
 70
0
  3
Dashed __ __ __ __ __ __ __ __ __ __ __ __ __ _
 72
65
 73
2
 40
19.050000000000001
 49
12.699999999999999
 74
0
 49
-6.3499999999999996
 74
0
  0
LTYPE
  5
35
100
AcDbSymbolTableRecord
100
AcDbLinetypeTableRecord
  2
DASHED2
 70
0
  3
Dashed (.5x) _ _ _ _ _ _ _ _ _ _ _ _ _ _ _ _ _
 72
65
 73
2
 40
9.5250000000000004
 49
6.3499999999999996
 74
0
 49
-3.1749999999999998
 74
0
  0
LTYPE
  5
36
100
AcDbSymbolTableRecord
100
AcDbLinetypeTableRecord
  2
DASHEDX2
 70
0
  3
Dashed (2x) ____  ____  ____  ____  ____  ___
 72
65
 73
2
 40
38.100000000000001
 49
25.399999999999999
 74
0
 49
-12.699999999999999
 74
0
  0
LTYPE
  5
37
100
AcDbSymbolTableRecord
100
AcDbLinetypeTableRecord
  2
DASHDOT
 70
0
  3
Dash dot __ . __ . __ . __ . __ . __ . __ . __
 72
65
 73
4
 40
25.399999999999999
 49
12.699999999999999
 74
0
 49
-6.3499999999999996
 74
0
 49
0.0
 74
0
 49
-6.3499999999999996
 74
0
  0
LTYPE
  5
38
100
AcDbSymbolTableRecord
100
AcDbLinetypeTableRecord
  2
DASHDOT2
 70
0
  3
Dash dot (.5x) _._._._._._._._._._._._._._._.
 72
65
 73
4
 40
12.699999999999999
 49
6.3499999999999996
 74
0
 49
-3.1749999999999998
 74
0
 49
0.0
 74
0
 49
-3.1749999999999998
 74
0
  0
LTYPE
  5
39
100
AcDbSymbolTableRecord
100
AcDbLinetypeTableRecord
  2
DASHDOTX2
 70
0
  3
Dash dot (2x) ____  .  ____  .  ____  .  ___
 72
65
 73
4
 40
50.799999999999997
 49
25.399999999999999
 74
0
 49
-12.699999999999999
 74
0
 49
0.0
 74
0
 49
-12.699999999999999
 74
0
  0
LTYPE
  5
3A
100
AcDbSymbolTableRecord
100
AcDbLinetypeTableRecord
  2
DIVIDE
 70
0
  3
Divide ____ . . ____ . . ____ . . ____ . . ____
 72
65
 73
6
 40
31.75
 49
12.699999999999999
 74
0
 49
-6.3499999999999996
 74
0
 49
0.0
 74
0
 49
-6.3499999999999996
 74
0
 49
0.0
 74
0
 49
-6.3499999999999996
 74
0
  0
LTYPE
  5
3B
100
AcDbSymbolTableRecord
100
AcDbLinetypeTableRecord
  2
DIVIDE2
 70
0
  3
Divide (.5x) __..__..__..__..__..__..__..__.._
 72
65
 73
6
 40
15.875
 49
6.3499999999999996
 74
0
 49
-3.1749999999999998
 74
0
 49
0.0
 74
0
 49
-3.1749999999999998
 74
0
 49
0.0
 74
0
 49
-3.1749999999999998
 74
0
  0
LTYPE
  5
3C
100
AcDbSymbolTableRecord
100
AcDbLinetypeTableRecord
  2
DIVIDEX2
 70
0
  3
Divide (2x) ________  .  .  ________  .  .  _
 72
65
 73
6
 40
63.5
 49
25.399999999999999
 74
0
 49
-12.699999999999999
 74
0
 49
0.0
 74
0
 49
-12.699999999999999
 74
0
 49
0.0
 74
0
 49
-12.699999999999999
 74
0
  0
LTYPE
  5
3D
100
AcDbSymbolTableRecord
100
AcDbLinetypeTableRecord
  2
CENTER
 70
0
  3
Center ____ _ ____ _ ____ _ ____ _ ____ _ ____
 72
65
 73
4
 40
50.799999999999997
 49
31.75
 74
0
 49
-6.3499999999999996
 74
0
 49
6.3499999999999996
 74
0
 49
-6.3499999999999996
 74
0
  0
LTYPE
  5
3E
100
AcDbSymbolTableRecord
100
AcDbLinetypeTableRecord
  2
CENTER2
 70
0
  3
Center (.5x) ___ _ ___ _ ___ _ ___ _ ___ _ ___
 72
65
 73
4
 40
28.574999999999999
 49
19.050000000000001
 74
0
 49
-3.1749999999999998
 74
0
 49
3.1749999999999998
 74
0
 49
-3.1749999999999998
 74
0
  0
LTYPE
  5
3F
100
AcDbSymbolTableRecord
100
AcDbLinetypeTableRecord
  2
CENTERX2
 70
0
  3
Center (2x) ________  __  ________  __  _____
 72
65
 73
4
 40
101.59999999999999
 49
63.5
 74
0
 49
-12.699999999999999
 74
0
 49
12.699999999999999
 74
0
 49
-12.699999999999999
 74
0
  0
LTYPE
  5
40
100
AcDbSymbolTableRecord
100
AcDbLinetypeTableRecord
  2
BORDER
 70
0
  3
Border __ __ . __ __ . __ __ . __ __ . __ __ .
 72
65
 73
6
 40
44.450000000000003
 49
12.699999999999999
 74
0
 49
-6.3499999999999996
 74
0
 49
12.699999999999999
 74
0
 49
-6.3499999999999996
 74
0
 49
0.0
 74
0
 49
-6.3499999999999996
 74
0
  0
LTYPE
  5
41
100
AcDbSymbolTableRecord
100
AcDbLinetypeTableRecord
  2
BORDER2
 70
0
  3
Border (.5x) __.__.__.__.__.__.__.__.__.__.__.
 72
65
 73
6
 40
22.225000000000001
 49
6.3499999999999996
 74
0
 49
-3.1749999999999998
 74
0
 49
6.3499999999999996
 74
0
 49
-3.1749999999999998
 74
0
 49
0.0
 74
0
 49
-3.1749999999999998
 74
0
  0
LTYPE
  5
42
100
AcDbSymbolTableRecord
100
AcDbLinetypeTableRecord
  2
BORDERX2
 70
0
  3
Border (2x) ____  ____  .  ____  ____  .  ___
 72
65
 73
6
 40
88.900000000000006
 49
25.399999999999999
 74
0
 49
-12.699999999999999
 74
0
 49
25.399999999999999
 74
0
 49
-12.699999999999999
 74
0
 49
0.0
 74
0
 49
-12.699999999999999
 74
0
  0
ENDTAB
  0
TABLE
  2
LAYER
  5
2
100
AcDbSymbolTable
 70
1
  0
LAYER
  5
10
100
AcDbSymbolTableRecord
100
AcDbLayerTableRecord
  2
0
 70
0
 62
7
  6
CONTINUOUS
370
-3
390
F
  0
ENDTAB
  0
TABLE
  2
STYLE
  5
3
100
AcDbSymbolTable
 70
1
  0
STYLE
  5
11
100
AcDbSymbolTableRecord
100
AcDbTextStyleTableRecord
  2
Standard
 70
0
 40
0.0
 41
0.75
 50
0.0
 71
0
 42
2.5
  3
txt
  4

  0
ENDTAB
  0
TABLE
  2
VIEW
  5
6
100
AcDbSymbolTable
 70
0
  0
ENDTAB
  0
TABLE
  2
UCS
  5
7
100
AcDbSymbolTable
 70
0
  0
ENDTAB
  0
TABLE
  2
APPID
  5
9
100
AcDbSymbolTable
 70
1
  0
APPID
  5
12
100
AcDbSymbolTableRecord
100
AcDbRegAppTableRecord
  2
ACAD
 70
0
  0
ENDTAB
  0
TABLE
  2
DIMSTYLE
  5
A
100
AcDbSymbolTable
 70
1
100
AcDbDimStyleTable
 71
0
  0
DIMSTYLE
105
27
100
AcDbSymbolTableRecord
100
AcDbDimStyleTableRecord
  2
Standard
 41
0.0708661
 42
0.0625
 43
3.75
 44
0.18
 70
0
 73
0
 74
0
 77
1
 78
8
140
0.0708661
141
2.5
143
0.03937007874016
147
0.09
171
3
172
1
271
2
272
2
274
3
278
44
283
0
284
8
340
11
  0
ENDTAB
  0
TABLE
  2
BLOCK_RECORD
  5
1
100
AcDbSymbolTable
 70
1
  0
BLOCK_RECORD
  5
1F
100
AcDbSymbolTableRecord
100
AcDbBlockTableRecord
  2
*Model_Space
340
22
  0
BLOCK_RECORD
  5
1B
100
AcDbSymbolTableRecord
100
AcDbBlockTableRecord
  2
*Paper_Space
340
1E
  0
BLOCK_RECORD
  5
23
100
AcDbSymbolTableRecord
100
AcDbBlockTableRecord
  2
*Paper_Space0
340
26
  0
ENDTAB
  0
ENDSEC
  0
SECTION
  2
BLOCKS
  0
BLOCK
  5
20
100
AcDbEntity
  8
0
100
AcDbBlockBegin
  2
*Model_Space
 70
0
 10
0.0
 20
0.0
 30
0.0
  3
*Model_Space
  1

  0
ENDBLK
  5
21
100
AcDbEntity
  8
0
100
AcDbBlockEnd
  0
BLOCK
  5
1C
100
AcDbEntity
 67
1
  8
0
100
AcDbBlockBegin
  2
*Paper_Space
 70
0
 10
0.0
 20
0.0
 30
0.0
  3
*Paper_Space
  1

  0
ENDBLK
  5
1D
100
AcDbEntity
 67
1
  8
0
100
AcDbBlockEnd
  0
BLOCK
  5
24
100
AcDbEntity
  8
0
100
AcDbBlockBegin
  2
*Paper_Space0
 70
0
 10
0.0
 20
0.0
 30
0.0
  3
*Paper_Space0
  1

  0
ENDBLK
  5
25
100
AcDbEntity
  8
0
100
AcDbBlockEnd
  0
ENDSEC
  0
SECTION
  2
ENTITIES
  0
LWPOLYLINE
  5
43
  8
0
 62
256
370
-1
  6
ByLayer
100
AcDbEntity
100
AcDbPolyline
 90
14
 70
1
 10
2.7999999999999972
 20
-5.3999999999999879
 42
0.414213562373095
 10
2.9249999999999972
 20
-5.2749999999999879
 10
2.9249999999999963
 20
-0.2000000000000002
 42
0.414213562373095
 10
2.7999999999999963
 20
-0.0750000000000002
 10
1.8749999999999973
 20
-0.0750000000000002
 42
0.4142135623730935
 10
1.7499999999999976
 20
-0.2000000000000002
 10
1.7499999999999969
 20
-0.4499999999999982
 10
1.2499999999999969
 20
-0.4499999999999982
 10
1.2499999999999978
 20
-0.2000000000000011
 42
0.4142135623730967
 10
1.124999999999998
 20
-0.0750000000000001
 10
0.2000000000000002
 20
-0.0750000000000002
 42
0.414213562373095
 10
0.0750000000000012
 20
-0.2000000000000002
 10
0.0750000000000022
 20
-5.2749999999999879
 42
0.414213562373095
 10
0.2000000000000022
 20
-5.3999999999999879
  0
LWPOLYLINE
  5
44
  8
0
 62
256
370
-1
  6
ByLayer
100
AcDbEntity
100
AcDbPolyline
 90
4
 70
1
 10
2.7374999999999963
 20
-1.374999999999996
 10
2.7374999999999963
 20
-1.8749999999999956
 10
2.6124999999999963
 20
-1.8749999999999956
 10
2.6124999999999963
 20
-1.374999999999996
  0
LWPOLYLINE
  5
45
  8
0
 62
256
370
-1
  6
ByLayer
100
AcDbEntity
100
AcDbPolyline
 90
4
 70
1
 10
2.7374999999999963
 20
-3.599999999999989
 10
2.7374999999999963
 20
-4.0999999999999908
 10
2.6124999999999963
 20
-4.0999999999999908
 10
2.6124999999999963
 20
-3.5999999999999899
  0
LWPOLYLINE
  5
46
  8
0
 62
256
370
-1
  6
ByLayer
100
AcDbEntity
100
AcDbPolyline
 90
4
 70
1
 10
0.3875000000000013
 20
-1.374999999999996
 10
0.3875000000000013
 20
-1.8749999999999962
 10
0.2625000000000013
 20
-1.8749999999999962
 10
0.2625000000000013
 20
-1.374999999999996
  0
LWPOLYLINE
  5
47
  8
0
 62
256
370
-1
  6
ByLayer
100
AcDbEntity
100
AcDbPolyline
 90
4
 70
1
 10
0.3875000000000013
 20
-3.5999999999999912
 10
0.3875000000000022
 20
-4.0999999999999908
 10
0.2625000000000013
 20
-4.0999999999999908
 10
0.2625000000000013
 20
-3.5999999999999912
  0
LWPOLYLINE
  5
48
  8
0
 62
256
370
-1
  6
ByLayer
100
AcDbEntity
100
AcDbPolyline
 90
4
 70
1
 10
2.4874999999999972
 20
-5.0874999999999879
 10
2.4874999999999972
 20
-5.2124999999999879
 10
1.9874999999999972
 20
-5.2124999999999879
 10
1.9874999999999972
 20
-5.0874999999999879
  0
LWPOLYLINE
  5
49
  8
0
 62
256
370
-1
  6
ByLayer
100
AcDbEntity
100
AcDbPolyline
 90
4
 70
1
 10
1.0125000000000008
 20
-5.0874999999999888
 10
1.0125000000000008
 20
-5.212499999999987
 10
0.5125000000000008
 20
-5.2124999999999888
 10
0.5125000000000011
 20
-5.0874999999999879
  0
LWPOLYLINE
  5
4A
  8
0
 62
256
370
-1
  6
ByLayer
100
AcDbEntity
100
AcDbPolyline
 90
4
 70
1
 10
2.7374999999999963
 20
-2.4874999999999945
 10
2.7374999999999963
 20
-2.9874999999999932
 10
2.6124999999999963
 20
-2.9874999999999932
 10
2.6124999999999963
 20
-2.4874999999999945
  0
LWPOLYLINE
  5
4B
  8
0
 62
256
370
-1
  6
ByLayer
100
AcDbEntity
100
AcDbPolyline
 90
4
 70
1
 10
2.7374999999999963
 20
-4.7124999999999879
 10
2.7374999999999963
 20
-5.2124999999999888
 10
2.6124999999999963
 20
-5.2124999999999888
 10
2.6124999999999963
 20
-4.7124999999999879
  0
LWPOLYLINE
  5
4C
  8
0
 62
256
370
-1
  6
ByLayer
100
AcDbEntity
100
AcDbPolyline
 90
4
 70
1
 10
2.7374999999999963
 20
-0.2624999999999991
 10
2.7374999999999963
 20
-0.7624999999999991
 10
2.6124999999999963
 20
-0.7624999999999991
 10
2.6124999999999963
 20
-0.2624999999999991
  0
LWPOLYLINE
  5
4D
  8
0
 62
256
370
-1
  6
ByLayer
100
AcDbEntity
100
AcDbPolyline
 90
4
 70
1
 10
2.4874999999999967
 20
-0.2625000000000002
 10
2.4874999999999967
 20
-0.3874999999999991
 10
1.9874999999999958
 20
-0.3874999999999991
 10
1.9874999999999958
 20
-0.2625000000000002
  0
LWPOLYLINE
  5
4E
  8
0
 62
256
370
-1
  6
ByLayer
100
AcDbEntity
100
AcDbPolyline
 90
4
 70
1
 10
1.0125000000000013
 20
-0.2624999999999991
 10
1.0125000000000013
 20
-0.3874999999999991
 10
0.5125000000000011
 20
-0.3874999999999991
 10
0.5125000000000012
 20
-0.2625000000000002
  0
LWPOLYLINE
  5
4F
  8
0
 62
256
370
-1
  6
ByLayer
100
AcDbEntity
100
AcDbPolyline
 90
4
 70
1
 10
0.3875000000000013
 20
-0.2625000000000002
 10
0.3875000000000013
 20
-0.7624999999999991
 10
0.2625000000000013
 20
-0.7624999999999991
 10
0.2625000000000013
 20
-0.2624999999999991
  0
LWPOLYLINE
  5
50
  8
0
 62
256
370
-1
  6
ByLayer
100
AcDbEntity
100
AcDbPolyline
 90
4
 70
1
 10
0.3875000000000022
 20
-2.487499999999994
 10
0.3875000000000022
 20
-2.987499999999994
 10
0.2625000000000013
 20
-2.9874999999999932
 10
0.2625000000000013
 20
-2.487499999999994
  0
LWPOLYLINE
  5
51
  8
0
 62
256
370
-1
  6
ByLayer
100
AcDbEntity
100
AcDbPolyline
 90
4
 70
1
 10
0.3875000000000022
 20
-4.7124999999999879
 10
0.3875000000000022
 20
-5.2124999999999879
 10
0.2625000000000022
 20
-5.2124999999999879
 10
0.2625000000000013
 20
-4.7124999999999879
  0
LWPOLYLINE
  5
52
  8
0
 62
256
370
-1
  6
ByLayer
100
AcDbEntity
100
AcDbPolyline
 90
4
 70
1
 10
2.2999999999999967
 20
-0.6999999999999991
 10
2.2999999999999972
 20
-4.8999999999999879
 10
0.7000000000000015
 20
-4.8999999999999879
 10
0.7000000000000001
 20
-0.7000000000000002
  0
CIRCLE
  5
53
100
AcDbEntity
100
AcDbCircle
  8
0
 62
256
370
-1
  6
ByLayer
 10
2.4499999999999997
 20
-4.3499999999999881
 30
0.0
 40
0.0649999999999999
  0
CIRCLE
  5
54
100
AcDbEntity
100
AcDbCircle
  8
0
 62
256
370
-1
  6
ByLayer
 10
2.4499999999999966
 20
-1.0999999999999972
 30
0.0
 40
0.0649999999999999
  0
CIRCLE
  5
55
100
AcDbEntity
100
AcDbCircle
  8
0
 62
256
370
-1
  6
ByLayer
 10
0.5499999999999996
 20
-1.349999999999997
 30
0.0
 40
0.0649999999999999
  0
CIRCLE
  5
56
100
AcDbEntity
100
AcDbCircle
  8
0
 62
256
370
-1
  6
ByLayer
 10
0.5500000000000026
 20
-4.2999999999999892
 30
0.0
 40
0.0649999999999999
  0
LWPOLYLINE
  5
57
  8
0
 62
256
370
-1
  6
ByLayer
100
AcDbEntity
100
AcDbPolyline
 90
36
 70
1
 10
7.5499999999999883
 20
-0.1000000000000002
 10
7.5499999999999883
 20
-0.225
 10
6.9374999999999929
 20
-0.2249999999999998
 10
6.9374999999999929
 20
-0.1000000000000001
 10
6.4374999999999929
 20
-0.1000000000000002
 10
6.4374999999999929
 20
-0.225
 10
5.824999999999994
 20
-0.2249999999999998
 10
5.824999999999994
 20
-0.1000000000000001
 10
5.3249999999999957
 20
-0.1000000000000002
 10
5.3249999999999957
 20
-0.225
 10
4.7124999999999986
 20
-0.2249999999999998
 10
4.7124999999999986
 20
-0.1000000000000001
 10
4.2124999999999968
 20
-0.1000000000000002
 10
4.2124999999999968
 20
-0.225
 10
3.600000000000001
 20
-0.2249999999999998
 10
3.600000000000001
 20
-0.1000000000000001
 10
3.1000000000000001
 20
-0.1000000000000002
 10
3.1000000000000001
 20
-1.6049999999999969
 10
3.600000000000001
 20
-1.6049999999999969
 10
3.600000000000001
 20
-1.4799999999999969
 10
4.2124999999999968
 20
-1.4799999999999969
 10
4.2124999999999968
 20
-1.6049999999999969
 10
4.7124999999999986
 20
-1.6049999999999969
 10
4.7124999999999986
 20
-1.4799999999999969
 10
5.3249999999999957
 20
-1.4799999999999969
 10
5.3249999999999957
 20
-1.6049999999999969
 10
5.824999999999994
 20
-1.6049999999999969
 10
5.824999999999994
 20
-1.4799999999999969
 10
6.4374999999999929
 20
-1.4799999999999969
 10
6.4374999999999929
 20
-1.6049999999999969
 10
6.9374999999999929
 20
-1.6049999999999969
 10
6.9374999999999929
 20
-1.4799999999999969
 10
7.5499999999999883
 20
-1.4799999999999969
 10
7.5499999999999883
 20
-1.6049999999999969
 10
8.0499999999999883
 20
-1.6049999999999969
 10
8.0499999999999883
 20
-0.1000000000000001
  0
LWPOLYLINE
  5
58
  8
0
 62
256
370
-1
  6
ByLayer
100
AcDbEntity
100
AcDbPolyline
 90
36
 70
1
 10
7.5499999999999883
 20
-1.7
 10
7.5499999999999883
 20
-1.8249999999999997
 10
6.9374999999999929
 20
-1.8249999999999995
 10
6.9374999999999929
 20
-1.7
 10
6.4374999999999929
 20
-1.7
 10
6.4374999999999929
 20
-1.8249999999999997
 10
5.824999999999994
 20
-1.8249999999999995
 10
5.824999999999994
 20
-1.7
 10
5.3249999999999957
 20
-1.7
 10
5.3249999999999957
 20
-1.8249999999999997
 10
4.7124999999999986
 20
-1.8249999999999995
 10
4.7124999999999986
 20
-1.7
 10
4.2124999999999968
 20
-1.7
 10
4.2124999999999968
 20
-1.8249999999999997
 10
3.600000000000001
 20
-1.8249999999999995
 10
3.600000000000001
 20
-1.7
 10
3.1000000000000001
 20
-1.7
 10
3.1000000000000001
 20
-3.2049999999999965
 10
3.600000000000001
 20
-3.2049999999999965
 10
3.600000000000001
 20
-3.0799999999999965
 10
4.2124999999999968
 20
-3.0799999999999965
 10
4.2124999999999968
 20
-3.2049999999999965
 10
4.7124999999999986
 20
-3.2049999999999965
 10
4.7124999999999986
 20
-3.0799999999999965
 10
5.3249999999999957
 20
-3.0799999999999965
 10
5.3249999999999957
 20
-3.2049999999999965
 10
5.824999999999994
 20
-3.2049999999999965
 10
5.824999999999994
 20
-3.0799999999999965
 10
6.4374999999999929
 20
-3.0799999999999965
 10
6.4374999999999929
 20
-3.2049999999999965
 10
6.9374999999999929
 20
-3.2049999999999965
 10
6.9374999999999929
 20
-3.0799999999999965
 10
7.5499999999999883
 20
-3.0799999999999965
 10
7.5499999999999883
 20
-3.2049999999999965
 10
8.0499999999999883
 20
-3.2049999999999965
 10
8.0499999999999883
 20
-1.7
  0
LWPOLYLINE
  5
59
  8
0
 62
256
370
-1
  6
ByLayer
100
AcDbEntity
100
AcDbPolyline
 90
4
 70
1
 10
4.0475551181102336
 20
-3.8640000000000034
 10
4.0475551181102336
 20
-4.3870000000000031
 10
3.470555118110235
 20
-4.3870000000000022
 10
3.470555118110235
 20
-3.8640000000000025
  0
LWPOLYLINE
  5
5A
  8
0
 62
256
370
-1
  6
ByLayer
100
AcDbEntity
100
AcDbPolyline
 90
20
 70
1
 10
3.7215551181102318
 20
-4.7800000000000029
 10
3.7215551181102318
 20
-4.655000000000002
 10
4.6965551181102283
 20
-4.6550000000000038
 10
4.6965551181102283
 20
-4.7800000000000065
 10
5.1965551181102274
 20
-4.7800000000000065
 10
5.1965551181102274
 20
-4.6550000000000047
 10
5.3215551181102274
 20
-4.6550000000000047
 10
5.3215551181102274
 20
-3.3999999999999999
 10
5.1965551181102301
 20
-3.4000000000000079
 10
5.1965551181102301
 20
-3.2750000000000061
 10
4.696555118110231
 20
-3.2750000000000061
 10
4.696555118110231
 20
-3.4000000000000079
 10
3.721555118110234
 20
-3.400000000000003
 10
3.721555118110234
 20
-3.2750000000000012
 10
3.2215551181102344
 20
-3.2750000000000012
 10
3.2215551181102344
 20
-3.400000000000003
 10
3.1000000000000001
 20
-3.3999999999999999
 10
3.1000000000000001
 20
-4.6550000000000047
 10
3.2215551181102322
 20
-4.655000000000002
 10
3.2215551181102322
 20
-4.7800000000000029
  0
LWPOLYLINE
  5
5B
  8
0
 62
256
370
-1
  6
ByLayer
100
AcDbEntity
100
AcDbPolyline
 90
24
 70
1
 10
6.3624999999999972
 20
-3.5780000000000016
 10
6.3624999999999963
 20
-3.3999999999999999
 10
6.125
 20
-3.3999999999999995
 10
6.125
 20
-3.2749999999999977
 10
5.6249999999999991
 20
-3.2749999999999977
 10
5.6249999999999991
 20
-3.3999999999999995
 10
5.5
 20
-3.3999999999999999
 10
5.5
 20
-4.6549999999999931
 10
5.6250000000000018
 20
-4.6549999999999967
 10
5.6250000000000018
 20
-4.7799999999999967
 10
6.1250000000000027
 20
-4.7799999999999967
 10
6.1250000000000027
 20
-4.6549999999999967
 10
7.0999999999999961
 20
-4.654999999999994
 10
7.0999999999999961
 20
-4.7799999999999931
 10
7.599999999999997
 20
-4.7799999999999931
 10
7.599999999999997
 20
-4.654999999999994
 10
7.724999999999997
 20
-4.6549999999999931
 10
7.724999999999997
 20
-3.3999999999999999
 10
7.5999999999999943
 20
-3.3999999999999946
 10
7.5999999999999943
 20
-3.2749999999999928
 10
7.0999999999999943
 20
-3.2749999999999928
 10
7.0999999999999943
 20
-3.3999999999999946
 10
6.8624999999999972
 20
-3.3999999999999999
 10
6.8624999999999972
 20
-3.5780000000000016
 42
-0.9999999999999999
  0
ENDSEC
  0
SECTION
  2
OBJECTS
  0
DICTIONARY
  5
C
100
AcDbDictionary
280
0
281
1
  3
ACAD_GROUP
350
D
  3
ACAD_LAYOUT
350
1A
  3
ACAD_MLINESTYLE
350
17
  3
ACAD_PLOTSETTINGS
350
19
  3
ACAD_PLOTSTYLENAME
350
E
  3
AcDbVariableDictionary
350
5C
  0
DICTIONARY
  5
D
100
AcDbDictionary
280
0
281
1
  0
ACDBDICTIONARYWDFLT
  5
E
100
AcDbDictionary
281
1
  3
Normal
350
F
100
AcDbDictionaryWithDefault
340
F
  0
ACDBPLACEHOLDER
  5
F
  0
DICTIONARY
  5
17
100
AcDbDictionary
280
0
281
1
  3
Standard
350
18
  0
MLINESTYLE
  5
18
100
AcDbMlineStyle
  2
STANDARD
 70
0
  3

 62
256
 51
90.0
 52
90.0
 71
2
 49
0.5
 62
256
  6
BYLAYER
 49
-0.5
 62
256
  6
BYLAYER
  0
DICTIONARY
  5
19
100
AcDbDictionary
280
0
281
1
  0
DICTIONARY
  5
1A
100
AcDbDictionary
281
1
  3
Layout1
350
1E
  3
Layout2
350
26
  3
Model
350
22
  0
LAYOUT
  5
1E
100
AcDbPlotSettings
  1

  2
C:\Program Files\AutoCAD 2002\plotters\DWF ePlot (optimized for plotting).pc3
  4

  6

 40
0.0
 41
0.0
 42
0.0
 43
0.0
 44
0.0
 45
0.0
 46
0.0
 47
0.0
 48
0.0
 49
0.0
140
0.0
141
0.0
142
1.0
143
1.0
 70
688
 72
0
 73
0
 74
5
  7

 75
16
147
1.0
148
0.0
149
0.0
100
AcDbLayout
  1
Layout1
 70
1
 71
1
 10
0.0
 20
0.0
 11
420.0
 21
297.0
 12
0.0
 22
0.0
 32
0.0
 14
100000000000000000000.0
 24
100000000000000000000.0
 34
100000000000000000000.0
 15
-100000000000000000000.0
 25
-100000000000000000000.0
 35
-100000000000000000000.0
146
0.0
 13
0.0
 23
0.0
 33
0.0
 16
1.0
 26
0.0
 36
0.0
 17
0.0
 27
1.0
 37
0.0
 76
0
330
1B
  0
LAYOUT
  5
22
100
AcDbPlotSettings
  1

  2
C:\Program Files\AutoCAD 2002\plotters\DWF ePlot (optimized for plotting).pc3
  4

  6

 40
0.0
 41
0.0
 42
0.0
 43
0.0
 44
0.0
 45
0.0
 46
0.0
 47
0.0
 48
0.0
 49
0.0
140
0.0
141
0.0
142
1.0
143
1.0
 70
1712
 72
0
 73
0
 74
0
  7

 75
0
147
1.0
148
0.0
149
0.0
100
AcDbLayout
  1
Model
 70
1
 71
0
 10
0.0
 20
0.0
 11
12.0
 21
9.0
 12
0.0
 22
0.0
 32
0.0
 14
0.0
 24
0.0
 34
0.0
 15
0.0
 25
0.0
 35
0.0
146
0.0
 13
0.0
 23
0.0
 33
0.0
 16
1.0
 26
0.0
 36
0.0
 17
0.0
 27
1.0
 37
0.0
 76
0
330
1F
  0
LAYOUT
  5
26
100
AcDbPlotSettings
  1

  2
C:\Program Files\AutoCAD 2002\plotters\DWF ePlot (optimized for plotting).pc3
  4

  6

 40
0.0
 41
0.0
 42
0.0
 43
0.0
 44
0.0
 45
0.0
 46
0.0
 47
0.0
 48
0.0
 49
0.0
140
0.0
141
0.0
142
1.0
143
1.0
 70
688
 72
0
 73
0
 74
5
  7

 75
16
147
1.0
148
0.0
149
0.0
100
AcDbLayout
  1
Layout2
 70
1
 71
2
 10
0.0
 20
0.0
 11
12.0
 21
9.0
 12
0.0
 22
0.0
 32
0.0
 14
0.0
 24
0.0
 34
0.0
 15
0.0
 25
0.0
 35
0.0
146
0.0
 13
0.0
 23
0.0
 33
0.0
 16
1.0
 26
0.0
 36
0.0
 17
0.0
 27
1.0
 37
0.0
 76
0
330
23
  0
DICTIONARY
  5
5C
100
AcDbDictionary
281
1
  3
DIMASSOC
350
5E
  3
HIDETEXT
350
5D
  0
DICTIONARYVAR
  5
5D
100
DictionaryVariables
280
0
  1
2
  0
DICTIONARYVAR
  5
5E
100
DictionaryVariables
280
0
  1
1
  0
ENDSEC
  0
EOF
