G04 (created by PCBNEW-RS274X (2011-05-25)-stable) date Wed 08 May 2013 01:19:30 PM EDT*
G01*
G70*
G90*
%MOIN*%
G04 Gerber Fmt 3.4, Leading zero omitted, Abs format*
%FSLAX34Y34*%
G04 APERTURE LIST*
%ADD10C,0.006000*%
%ADD11C,0.009000*%
%ADD12C,0.076000*%
%ADD13C,0.140000*%
%ADD14C,0.160000*%
%ADD15C,0.155000*%
%ADD16O,0.060000X0.100000*%
%ADD17C,0.060000*%
%ADD18C,0.073000*%
%ADD19R,0.073000X0.073000*%
%ADD20C,0.035000*%
%ADD21C,0.036000*%
%ADD22C,0.008000*%
%ADD23C,0.010000*%
G04 APERTURE END LIST*
G54D10*
G54D11*
X89500Y-30500D02*
X49500Y-30500D01*
X89500Y-51500D02*
X89500Y-30500D01*
X49500Y-51500D02*
X89500Y-51500D01*
X49500Y-30500D02*
X49500Y-51500D01*
G54D12*
X88320Y-41000D03*
G54D13*
X87140Y-41000D03*
G54D14*
X84780Y-41000D03*
G54D13*
X87530Y-39230D03*
X87530Y-42770D03*
G54D15*
X50500Y-50500D03*
X51000Y-31500D03*
X83000Y-50500D03*
X80500Y-31500D03*
G54D16*
X56000Y-50500D03*
X57000Y-50500D03*
X58000Y-50500D03*
X59000Y-50500D03*
X60000Y-50500D03*
X61000Y-50500D03*
X62000Y-50500D03*
X63000Y-50500D03*
X65000Y-50500D03*
X66000Y-50500D03*
X67000Y-50500D03*
X68000Y-50500D03*
X69000Y-50500D03*
X70000Y-50500D03*
X71000Y-50500D03*
X72000Y-50500D03*
X74000Y-50500D03*
X75000Y-50500D03*
X76000Y-50500D03*
X77000Y-50500D03*
X78000Y-50500D03*
X79000Y-50500D03*
X80000Y-50500D03*
X81000Y-50500D03*
X52400Y-31500D03*
X53400Y-31500D03*
X54400Y-31500D03*
X55400Y-31500D03*
X56400Y-31500D03*
X57400Y-31500D03*
X58400Y-31500D03*
X59400Y-31500D03*
X60400Y-31500D03*
X61400Y-31500D03*
X63000Y-31500D03*
X70000Y-31500D03*
X69000Y-31500D03*
X68000Y-31500D03*
X67000Y-31500D03*
X66000Y-31500D03*
X65000Y-31500D03*
X64000Y-31500D03*
X72000Y-31500D03*
X73000Y-31500D03*
X74000Y-31500D03*
X75000Y-31500D03*
X76000Y-31500D03*
X77000Y-31500D03*
X78000Y-31500D03*
X79000Y-31500D03*
G54D17*
X82000Y-31500D03*
X83000Y-31500D03*
X82000Y-32500D03*
X83000Y-32500D03*
X82000Y-33500D03*
X83000Y-33500D03*
X82000Y-34500D03*
X83000Y-34500D03*
X82000Y-35500D03*
X83000Y-35500D03*
X82000Y-36500D03*
X83000Y-36500D03*
X82000Y-37500D03*
X83000Y-37500D03*
X82000Y-38500D03*
X83000Y-38500D03*
X82000Y-39500D03*
X83000Y-39500D03*
X82000Y-40500D03*
X83000Y-40500D03*
X82000Y-41500D03*
X83000Y-41500D03*
X82000Y-42500D03*
X83000Y-42500D03*
X82000Y-43500D03*
X83000Y-43500D03*
X82000Y-44500D03*
X83000Y-44500D03*
X82000Y-45500D03*
X83000Y-45500D03*
X82000Y-46500D03*
X83000Y-46500D03*
X82000Y-47500D03*
X83000Y-47500D03*
X82000Y-48500D03*
X83000Y-48500D03*
G54D18*
X63250Y-45750D03*
X63250Y-46750D03*
G54D19*
X63250Y-44750D03*
G54D18*
X68250Y-45750D03*
X68250Y-46750D03*
G54D19*
X68250Y-44750D03*
G54D18*
X58250Y-45750D03*
X58250Y-46750D03*
G54D19*
X58250Y-44750D03*
G54D18*
X53250Y-45750D03*
X53250Y-46750D03*
G54D19*
X53250Y-44750D03*
G54D18*
X50500Y-36250D03*
G54D19*
X51500Y-36250D03*
G54D18*
X54500Y-36250D03*
G54D19*
X55500Y-36250D03*
G54D18*
X58500Y-36250D03*
G54D19*
X59500Y-36250D03*
G54D18*
X62500Y-36250D03*
G54D19*
X63500Y-36250D03*
G54D18*
X66500Y-36250D03*
G54D19*
X67500Y-36250D03*
G54D18*
X70500Y-36250D03*
G54D19*
X71500Y-36250D03*
G54D18*
X74500Y-36250D03*
G54D19*
X75500Y-36250D03*
G54D18*
X78500Y-36250D03*
G54D19*
X79500Y-36250D03*
G54D20*
X60200Y-38004D03*
X64647Y-40916D03*
X77992Y-45660D03*
X77187Y-45398D03*
X78774Y-46499D03*
X51933Y-37750D03*
X78717Y-42750D03*
X79841Y-42285D03*
X70808Y-42132D03*
X72084Y-42750D03*
X73820Y-43494D03*
X74136Y-44019D03*
X75954Y-37750D03*
X79334Y-47108D03*
X78383Y-48250D03*
X81006Y-48682D03*
X65537Y-38338D03*
G54D21*
X60000Y-46500D02*
X60000Y-50500D01*
X58250Y-44750D02*
X60000Y-46500D01*
G54D22*
X60200Y-38800D02*
X60200Y-38004D01*
X53250Y-45750D02*
X60200Y-38800D01*
X61152Y-40916D02*
X64647Y-40916D01*
X57741Y-44327D02*
X61152Y-40916D01*
X57741Y-45241D02*
X57741Y-44327D01*
X58250Y-45750D02*
X57741Y-45241D01*
X64971Y-47471D02*
X63250Y-45750D01*
X74384Y-47471D02*
X64971Y-47471D01*
X76778Y-45077D02*
X74384Y-47471D01*
X77851Y-45077D02*
X76778Y-45077D01*
X81444Y-41484D02*
X77851Y-45077D01*
X81444Y-34056D02*
X81444Y-41484D01*
X82000Y-33500D02*
X81444Y-34056D01*
X82500Y-33000D02*
X83000Y-33500D01*
X81451Y-33000D02*
X82500Y-33000D01*
X80647Y-33804D02*
X81451Y-33000D01*
X80647Y-42020D02*
X80647Y-33804D01*
X77774Y-44893D02*
X80647Y-42020D01*
X69107Y-44893D02*
X77774Y-44893D01*
X68250Y-45750D02*
X69107Y-44893D01*
X78332Y-46000D02*
X77992Y-45660D01*
X82500Y-46000D02*
X78332Y-46000D01*
X83000Y-45500D02*
X82500Y-46000D01*
X77244Y-45341D02*
X77187Y-45398D01*
X81841Y-45341D02*
X77244Y-45341D01*
X82000Y-45500D02*
X81841Y-45341D01*
X78774Y-46500D02*
X78774Y-46499D01*
X81261Y-46500D02*
X78774Y-46500D01*
X81705Y-46944D02*
X81261Y-46500D01*
X82556Y-46944D02*
X81705Y-46944D01*
X83000Y-46500D02*
X82556Y-46944D01*
G54D21*
X51500Y-36250D02*
X52148Y-36250D01*
X76985Y-44482D02*
X78717Y-42750D01*
X72501Y-44482D02*
X76985Y-44482D01*
X65554Y-37535D02*
X72501Y-44482D01*
X52148Y-37535D02*
X65554Y-37535D01*
X52148Y-36250D02*
X52148Y-37535D01*
X52148Y-37535D02*
X51933Y-37750D01*
X79841Y-39440D02*
X79841Y-42285D01*
X75538Y-35137D02*
X79841Y-39440D01*
X53950Y-35137D02*
X75538Y-35137D01*
X53846Y-35241D02*
X53950Y-35137D01*
X53846Y-36643D02*
X53846Y-35241D01*
X54131Y-36928D02*
X53846Y-36643D01*
X54822Y-36928D02*
X54131Y-36928D01*
X55500Y-36250D02*
X54822Y-36928D01*
X59500Y-36250D02*
X60148Y-36250D01*
X65574Y-36898D02*
X70808Y-42132D01*
X60796Y-36898D02*
X65574Y-36898D01*
X60148Y-36250D02*
X60796Y-36898D01*
X65585Y-36251D02*
X72084Y-42750D01*
X65585Y-36250D02*
X65585Y-36251D01*
X63500Y-36250D02*
X65585Y-36250D01*
X67500Y-36250D02*
X67500Y-36898D01*
X73820Y-43218D02*
X73820Y-43494D01*
X67500Y-36898D02*
X73820Y-43218D01*
X71500Y-36250D02*
X71500Y-36898D01*
X74312Y-43843D02*
X74136Y-44019D01*
X74312Y-39710D02*
X74312Y-43843D01*
X71500Y-36898D02*
X74312Y-39710D01*
X75500Y-36250D02*
X75500Y-36898D01*
X75500Y-37296D02*
X75954Y-37750D01*
X75500Y-36898D02*
X75500Y-37296D01*
G54D22*
X81608Y-47108D02*
X79334Y-47108D01*
X82000Y-47500D02*
X81608Y-47108D01*
G54D21*
X64750Y-48250D02*
X63250Y-46750D01*
X78383Y-48250D02*
X64750Y-48250D01*
X78815Y-48682D02*
X81006Y-48682D01*
X78383Y-48250D02*
X78815Y-48682D01*
X58034Y-35601D02*
X58500Y-36067D01*
X54604Y-35601D02*
X58034Y-35601D01*
X54500Y-35705D02*
X54604Y-35601D01*
X54500Y-36250D02*
X54500Y-35705D01*
X58500Y-36067D02*
X58500Y-36250D01*
X58966Y-35601D02*
X58500Y-36067D01*
X61981Y-35601D02*
X58966Y-35601D01*
X62500Y-36120D02*
X61981Y-35601D01*
X62500Y-36120D02*
X62500Y-36250D01*
X66500Y-36250D02*
X66500Y-36120D01*
X63019Y-35601D02*
X62500Y-36120D01*
X65981Y-35601D02*
X63019Y-35601D01*
X66500Y-36120D02*
X65981Y-35601D01*
X67019Y-35601D02*
X66500Y-36120D01*
X70149Y-35601D02*
X67019Y-35601D01*
X70500Y-35952D02*
X70149Y-35601D01*
X70851Y-35601D02*
X70500Y-35952D01*
X73851Y-35601D02*
X70851Y-35601D01*
X74500Y-36250D02*
X73851Y-35601D01*
X70500Y-35952D02*
X70500Y-36250D01*
X65537Y-40866D02*
X65537Y-38338D01*
X62545Y-43858D02*
X65537Y-40866D01*
X62545Y-47295D02*
X62545Y-43858D01*
X64512Y-49262D02*
X62545Y-47295D01*
X83584Y-49262D02*
X64512Y-49262D01*
X84780Y-48066D02*
X83584Y-49262D01*
X84780Y-41000D02*
X84780Y-48066D01*
G54D10*
G36*
X52174Y-30795D02*
X52094Y-30828D01*
X52047Y-30874D01*
X52047Y-30875D01*
X52045Y-30876D01*
X51943Y-30980D01*
X51922Y-31028D01*
X51916Y-31035D01*
X51869Y-30920D01*
X51795Y-30846D01*
X51809Y-30832D01*
X51772Y-30795D01*
X52174Y-30795D01*
X52174Y-30795D01*
G37*
G54D23*
X52174Y-30795D02*
X52094Y-30828D01*
X52047Y-30874D01*
X52047Y-30875D01*
X52045Y-30876D01*
X51943Y-30980D01*
X51922Y-31028D01*
X51916Y-31035D01*
X51869Y-30920D01*
X51795Y-30846D01*
X51809Y-30832D01*
X51772Y-30795D01*
X52174Y-30795D01*
G54D10*
G36*
X53174Y-30795D02*
X53094Y-30828D01*
X53047Y-30874D01*
X53047Y-30875D01*
X53045Y-30876D01*
X52943Y-30980D01*
X52922Y-31028D01*
X52911Y-31043D01*
X52900Y-31080D01*
X52889Y-31043D01*
X52878Y-31030D01*
X52858Y-30980D01*
X52755Y-30878D01*
X52753Y-30875D01*
X52751Y-30874D01*
X52706Y-30829D01*
X52624Y-30795D01*
X53174Y-30795D01*
X53174Y-30795D01*
G37*
G54D23*
X53174Y-30795D02*
X53094Y-30828D01*
X53047Y-30874D01*
X53047Y-30875D01*
X53045Y-30876D01*
X52943Y-30980D01*
X52922Y-31028D01*
X52911Y-31043D01*
X52900Y-31080D01*
X52889Y-31043D01*
X52878Y-31030D01*
X52858Y-30980D01*
X52755Y-30878D01*
X52753Y-30875D01*
X52751Y-30874D01*
X52706Y-30829D01*
X52624Y-30795D01*
X53174Y-30795D01*
G54D10*
G36*
X54174Y-30795D02*
X54094Y-30828D01*
X54047Y-30874D01*
X54047Y-30875D01*
X54045Y-30876D01*
X53943Y-30980D01*
X53922Y-31028D01*
X53911Y-31043D01*
X53900Y-31080D01*
X53889Y-31043D01*
X53878Y-31030D01*
X53858Y-30980D01*
X53755Y-30878D01*
X53753Y-30875D01*
X53751Y-30874D01*
X53706Y-30829D01*
X53624Y-30795D01*
X54174Y-30795D01*
X54174Y-30795D01*
G37*
G54D23*
X54174Y-30795D02*
X54094Y-30828D01*
X54047Y-30874D01*
X54047Y-30875D01*
X54045Y-30876D01*
X53943Y-30980D01*
X53922Y-31028D01*
X53911Y-31043D01*
X53900Y-31080D01*
X53889Y-31043D01*
X53878Y-31030D01*
X53858Y-30980D01*
X53755Y-30878D01*
X53753Y-30875D01*
X53751Y-30874D01*
X53706Y-30829D01*
X53624Y-30795D01*
X54174Y-30795D01*
G54D10*
G36*
X55174Y-30795D02*
X55094Y-30828D01*
X55047Y-30874D01*
X55047Y-30875D01*
X55045Y-30876D01*
X54943Y-30980D01*
X54922Y-31028D01*
X54911Y-31043D01*
X54900Y-31080D01*
X54889Y-31043D01*
X54878Y-31030D01*
X54858Y-30980D01*
X54755Y-30878D01*
X54753Y-30875D01*
X54751Y-30874D01*
X54706Y-30829D01*
X54624Y-30795D01*
X55174Y-30795D01*
X55174Y-30795D01*
G37*
G54D23*
X55174Y-30795D02*
X55094Y-30828D01*
X55047Y-30874D01*
X55047Y-30875D01*
X55045Y-30876D01*
X54943Y-30980D01*
X54922Y-31028D01*
X54911Y-31043D01*
X54900Y-31080D01*
X54889Y-31043D01*
X54878Y-31030D01*
X54858Y-30980D01*
X54755Y-30878D01*
X54753Y-30875D01*
X54751Y-30874D01*
X54706Y-30829D01*
X54624Y-30795D01*
X55174Y-30795D01*
G54D10*
G36*
X56174Y-30795D02*
X56094Y-30828D01*
X56047Y-30874D01*
X56047Y-30875D01*
X56045Y-30876D01*
X55943Y-30980D01*
X55922Y-31028D01*
X55911Y-31043D01*
X55900Y-31080D01*
X55889Y-31043D01*
X55878Y-31030D01*
X55858Y-30980D01*
X55755Y-30878D01*
X55753Y-30875D01*
X55751Y-30874D01*
X55706Y-30829D01*
X55624Y-30795D01*
X56174Y-30795D01*
X56174Y-30795D01*
G37*
G54D23*
X56174Y-30795D02*
X56094Y-30828D01*
X56047Y-30874D01*
X56047Y-30875D01*
X56045Y-30876D01*
X55943Y-30980D01*
X55922Y-31028D01*
X55911Y-31043D01*
X55900Y-31080D01*
X55889Y-31043D01*
X55878Y-31030D01*
X55858Y-30980D01*
X55755Y-30878D01*
X55753Y-30875D01*
X55751Y-30874D01*
X55706Y-30829D01*
X55624Y-30795D01*
X56174Y-30795D01*
G54D10*
G36*
X56775Y-51205D02*
X56225Y-51205D01*
X56306Y-51172D01*
X56352Y-51125D01*
X56353Y-51125D01*
X56354Y-51123D01*
X56457Y-51020D01*
X56477Y-50971D01*
X56489Y-50957D01*
X56500Y-50919D01*
X56511Y-50957D01*
X56521Y-50969D01*
X56542Y-51020D01*
X56644Y-51121D01*
X56647Y-51125D01*
X56648Y-51125D01*
X56694Y-51171D01*
X56775Y-51205D01*
X56775Y-51205D01*
G37*
G54D23*
X56775Y-51205D02*
X56225Y-51205D01*
X56306Y-51172D01*
X56352Y-51125D01*
X56353Y-51125D01*
X56354Y-51123D01*
X56457Y-51020D01*
X56477Y-50971D01*
X56489Y-50957D01*
X56500Y-50919D01*
X56511Y-50957D01*
X56521Y-50969D01*
X56542Y-51020D01*
X56644Y-51121D01*
X56647Y-51125D01*
X56648Y-51125D01*
X56694Y-51171D01*
X56775Y-51205D01*
G54D10*
G36*
X57174Y-30795D02*
X57094Y-30828D01*
X57047Y-30874D01*
X57047Y-30875D01*
X57045Y-30876D01*
X56943Y-30980D01*
X56922Y-31028D01*
X56911Y-31043D01*
X56900Y-31080D01*
X56889Y-31043D01*
X56878Y-31030D01*
X56858Y-30980D01*
X56755Y-30878D01*
X56753Y-30875D01*
X56751Y-30874D01*
X56706Y-30829D01*
X56624Y-30795D01*
X57174Y-30795D01*
X57174Y-30795D01*
G37*
G54D23*
X57174Y-30795D02*
X57094Y-30828D01*
X57047Y-30874D01*
X57047Y-30875D01*
X57045Y-30876D01*
X56943Y-30980D01*
X56922Y-31028D01*
X56911Y-31043D01*
X56900Y-31080D01*
X56889Y-31043D01*
X56878Y-31030D01*
X56858Y-30980D01*
X56755Y-30878D01*
X56753Y-30875D01*
X56751Y-30874D01*
X56706Y-30829D01*
X56624Y-30795D01*
X57174Y-30795D01*
G54D10*
G36*
X57775Y-51205D02*
X57225Y-51205D01*
X57306Y-51172D01*
X57352Y-51125D01*
X57353Y-51125D01*
X57354Y-51123D01*
X57457Y-51020D01*
X57477Y-50971D01*
X57489Y-50957D01*
X57500Y-50918D01*
X57542Y-51020D01*
X57694Y-51171D01*
X57775Y-51205D01*
X57775Y-51205D01*
G37*
G54D23*
X57775Y-51205D02*
X57225Y-51205D01*
X57306Y-51172D01*
X57352Y-51125D01*
X57353Y-51125D01*
X57354Y-51123D01*
X57457Y-51020D01*
X57477Y-50971D01*
X57489Y-50957D01*
X57500Y-50918D01*
X57542Y-51020D01*
X57694Y-51171D01*
X57775Y-51205D01*
G54D10*
G36*
X58174Y-30795D02*
X58094Y-30828D01*
X58047Y-30874D01*
X58047Y-30875D01*
X58045Y-30876D01*
X57943Y-30980D01*
X57922Y-31028D01*
X57911Y-31043D01*
X57900Y-31080D01*
X57889Y-31043D01*
X57878Y-31030D01*
X57858Y-30980D01*
X57755Y-30878D01*
X57753Y-30875D01*
X57751Y-30874D01*
X57706Y-30829D01*
X57624Y-30795D01*
X58174Y-30795D01*
X58174Y-30795D01*
G37*
G54D23*
X58174Y-30795D02*
X58094Y-30828D01*
X58047Y-30874D01*
X58047Y-30875D01*
X58045Y-30876D01*
X57943Y-30980D01*
X57922Y-31028D01*
X57911Y-31043D01*
X57900Y-31080D01*
X57889Y-31043D01*
X57878Y-31030D01*
X57858Y-30980D01*
X57755Y-30878D01*
X57753Y-30875D01*
X57751Y-30874D01*
X57706Y-30829D01*
X57624Y-30795D01*
X58174Y-30795D01*
G54D10*
G36*
X58775Y-51205D02*
X58225Y-51205D01*
X58306Y-51172D01*
X58457Y-51020D01*
X58499Y-50918D01*
X58511Y-50957D01*
X58521Y-50969D01*
X58542Y-51020D01*
X58644Y-51121D01*
X58647Y-51125D01*
X58648Y-51125D01*
X58694Y-51171D01*
X58775Y-51205D01*
X58775Y-51205D01*
G37*
G54D23*
X58775Y-51205D02*
X58225Y-51205D01*
X58306Y-51172D01*
X58457Y-51020D01*
X58499Y-50918D01*
X58511Y-50957D01*
X58521Y-50969D01*
X58542Y-51020D01*
X58644Y-51121D01*
X58647Y-51125D01*
X58648Y-51125D01*
X58694Y-51171D01*
X58775Y-51205D01*
G54D10*
G36*
X59174Y-30795D02*
X59094Y-30828D01*
X59047Y-30874D01*
X59047Y-30875D01*
X59045Y-30876D01*
X58943Y-30980D01*
X58922Y-31028D01*
X58911Y-31043D01*
X58900Y-31080D01*
X58889Y-31043D01*
X58878Y-31030D01*
X58858Y-30980D01*
X58755Y-30878D01*
X58753Y-30875D01*
X58751Y-30874D01*
X58706Y-30829D01*
X58624Y-30795D01*
X59174Y-30795D01*
X59174Y-30795D01*
G37*
G54D23*
X59174Y-30795D02*
X59094Y-30828D01*
X59047Y-30874D01*
X59047Y-30875D01*
X59045Y-30876D01*
X58943Y-30980D01*
X58922Y-31028D01*
X58911Y-31043D01*
X58900Y-31080D01*
X58889Y-31043D01*
X58878Y-31030D01*
X58858Y-30980D01*
X58755Y-30878D01*
X58753Y-30875D01*
X58751Y-30874D01*
X58706Y-30829D01*
X58624Y-30795D01*
X59174Y-30795D01*
G54D10*
G36*
X59775Y-51205D02*
X59225Y-51205D01*
X59306Y-51172D01*
X59352Y-51125D01*
X59353Y-51125D01*
X59354Y-51123D01*
X59457Y-51020D01*
X59477Y-50971D01*
X59489Y-50957D01*
X59500Y-50918D01*
X59542Y-51020D01*
X59694Y-51171D01*
X59775Y-51205D01*
X59775Y-51205D01*
G37*
G54D23*
X59775Y-51205D02*
X59225Y-51205D01*
X59306Y-51172D01*
X59352Y-51125D01*
X59353Y-51125D01*
X59354Y-51123D01*
X59457Y-51020D01*
X59477Y-50971D01*
X59489Y-50957D01*
X59500Y-50918D01*
X59542Y-51020D01*
X59694Y-51171D01*
X59775Y-51205D01*
G54D10*
G36*
X60174Y-30795D02*
X60094Y-30828D01*
X60047Y-30874D01*
X60047Y-30875D01*
X60045Y-30876D01*
X59943Y-30980D01*
X59922Y-31028D01*
X59911Y-31043D01*
X59900Y-31080D01*
X59889Y-31043D01*
X59878Y-31030D01*
X59858Y-30980D01*
X59755Y-30878D01*
X59753Y-30875D01*
X59751Y-30874D01*
X59706Y-30829D01*
X59624Y-30795D01*
X60174Y-30795D01*
X60174Y-30795D01*
G37*
G54D23*
X60174Y-30795D02*
X60094Y-30828D01*
X60047Y-30874D01*
X60047Y-30875D01*
X60045Y-30876D01*
X59943Y-30980D01*
X59922Y-31028D01*
X59911Y-31043D01*
X59900Y-31080D01*
X59889Y-31043D01*
X59878Y-31030D01*
X59858Y-30980D01*
X59755Y-30878D01*
X59753Y-30875D01*
X59751Y-30874D01*
X59706Y-30829D01*
X59624Y-30795D01*
X60174Y-30795D01*
G54D10*
G36*
X60395Y-37105D02*
X55253Y-37105D01*
X55494Y-36864D01*
X55914Y-36864D01*
X56006Y-36826D01*
X56076Y-36756D01*
X56114Y-36665D01*
X56114Y-36566D01*
X56114Y-36031D01*
X57856Y-36031D01*
X57904Y-36079D01*
X57885Y-36127D01*
X57885Y-36372D01*
X57979Y-36598D01*
X58151Y-36771D01*
X58377Y-36865D01*
X58622Y-36865D01*
X58848Y-36771D01*
X58906Y-36713D01*
X58924Y-36756D01*
X58994Y-36826D01*
X59085Y-36864D01*
X59184Y-36864D01*
X59914Y-36864D01*
X60006Y-36826D01*
X60061Y-36771D01*
X60395Y-37105D01*
X60395Y-37105D01*
G37*
G54D23*
X60395Y-37105D02*
X55253Y-37105D01*
X55494Y-36864D01*
X55914Y-36864D01*
X56006Y-36826D01*
X56076Y-36756D01*
X56114Y-36665D01*
X56114Y-36566D01*
X56114Y-36031D01*
X57856Y-36031D01*
X57904Y-36079D01*
X57885Y-36127D01*
X57885Y-36372D01*
X57979Y-36598D01*
X58151Y-36771D01*
X58377Y-36865D01*
X58622Y-36865D01*
X58848Y-36771D01*
X58906Y-36713D01*
X58924Y-36756D01*
X58994Y-36826D01*
X59085Y-36864D01*
X59184Y-36864D01*
X59914Y-36864D01*
X60006Y-36826D01*
X60061Y-36771D01*
X60395Y-37105D01*
G54D10*
G36*
X60775Y-51205D02*
X60225Y-51205D01*
X60306Y-51172D01*
X60457Y-51020D01*
X60499Y-50917D01*
X60542Y-51020D01*
X60694Y-51171D01*
X60775Y-51205D01*
X60775Y-51205D01*
G37*
G54D23*
X60775Y-51205D02*
X60225Y-51205D01*
X60306Y-51172D01*
X60457Y-51020D01*
X60499Y-50917D01*
X60542Y-51020D01*
X60694Y-51171D01*
X60775Y-51205D01*
G54D10*
G36*
X61174Y-30795D02*
X61094Y-30828D01*
X61047Y-30874D01*
X61047Y-30875D01*
X61045Y-30876D01*
X60943Y-30980D01*
X60922Y-31028D01*
X60911Y-31043D01*
X60900Y-31080D01*
X60889Y-31043D01*
X60878Y-31030D01*
X60858Y-30980D01*
X60755Y-30878D01*
X60753Y-30875D01*
X60751Y-30874D01*
X60706Y-30829D01*
X60624Y-30795D01*
X61174Y-30795D01*
X61174Y-30795D01*
G37*
G54D23*
X61174Y-30795D02*
X61094Y-30828D01*
X61047Y-30874D01*
X61047Y-30875D01*
X61045Y-30876D01*
X60943Y-30980D01*
X60922Y-31028D01*
X60911Y-31043D01*
X60900Y-31080D01*
X60889Y-31043D01*
X60878Y-31030D01*
X60858Y-30980D01*
X60755Y-30878D01*
X60753Y-30875D01*
X60751Y-30874D01*
X60706Y-30829D01*
X60624Y-30795D01*
X61174Y-30795D01*
G54D10*
G36*
X61775Y-51205D02*
X61225Y-51205D01*
X61306Y-51172D01*
X61457Y-51020D01*
X61499Y-50917D01*
X61542Y-51020D01*
X61694Y-51171D01*
X61775Y-51205D01*
X61775Y-51205D01*
G37*
G54D23*
X61775Y-51205D02*
X61225Y-51205D01*
X61306Y-51172D01*
X61457Y-51020D01*
X61499Y-50917D01*
X61542Y-51020D01*
X61694Y-51171D01*
X61775Y-51205D01*
G54D10*
G36*
X61924Y-36468D02*
X60974Y-36468D01*
X60537Y-36031D01*
X61803Y-36031D01*
X61889Y-36117D01*
X61885Y-36127D01*
X61885Y-36372D01*
X61924Y-36468D01*
X61924Y-36468D01*
G37*
G54D23*
X61924Y-36468D02*
X60974Y-36468D01*
X60537Y-36031D01*
X61803Y-36031D01*
X61889Y-36117D01*
X61885Y-36127D01*
X61885Y-36372D01*
X61924Y-36468D01*
G54D10*
G36*
X62775Y-51205D02*
X62225Y-51205D01*
X62306Y-51172D01*
X62457Y-51020D01*
X62499Y-50918D01*
X62511Y-50957D01*
X62521Y-50969D01*
X62542Y-51020D01*
X62644Y-51121D01*
X62647Y-51125D01*
X62648Y-51125D01*
X62694Y-51171D01*
X62775Y-51205D01*
X62775Y-51205D01*
G37*
G54D23*
X62775Y-51205D02*
X62225Y-51205D01*
X62306Y-51172D01*
X62457Y-51020D01*
X62499Y-50918D01*
X62511Y-50957D01*
X62521Y-50969D01*
X62542Y-51020D01*
X62644Y-51121D01*
X62647Y-51125D01*
X62648Y-51125D01*
X62694Y-51171D01*
X62775Y-51205D01*
G54D10*
G36*
X63774Y-30795D02*
X63694Y-30828D01*
X63647Y-30874D01*
X63647Y-30875D01*
X63645Y-30876D01*
X63543Y-30980D01*
X63522Y-31028D01*
X63511Y-31043D01*
X63500Y-31080D01*
X63489Y-31043D01*
X63478Y-31030D01*
X63458Y-30980D01*
X63355Y-30878D01*
X63353Y-30875D01*
X63351Y-30874D01*
X63306Y-30829D01*
X63224Y-30795D01*
X63774Y-30795D01*
X63774Y-30795D01*
G37*
G54D23*
X63774Y-30795D02*
X63694Y-30828D01*
X63647Y-30874D01*
X63647Y-30875D01*
X63645Y-30876D01*
X63543Y-30980D01*
X63522Y-31028D01*
X63511Y-31043D01*
X63500Y-31080D01*
X63489Y-31043D01*
X63478Y-31030D01*
X63458Y-30980D01*
X63355Y-30878D01*
X63353Y-30875D01*
X63351Y-30874D01*
X63306Y-30829D01*
X63224Y-30795D01*
X63774Y-30795D01*
G54D10*
G36*
X64774Y-30795D02*
X64694Y-30828D01*
X64647Y-30874D01*
X64647Y-30875D01*
X64645Y-30876D01*
X64543Y-30980D01*
X64522Y-31028D01*
X64511Y-31043D01*
X64500Y-31080D01*
X64489Y-31043D01*
X64478Y-31030D01*
X64458Y-30980D01*
X64355Y-30878D01*
X64353Y-30875D01*
X64351Y-30874D01*
X64306Y-30829D01*
X64224Y-30795D01*
X64774Y-30795D01*
X64774Y-30795D01*
G37*
G54D23*
X64774Y-30795D02*
X64694Y-30828D01*
X64647Y-30874D01*
X64647Y-30875D01*
X64645Y-30876D01*
X64543Y-30980D01*
X64522Y-31028D01*
X64511Y-31043D01*
X64500Y-31080D01*
X64489Y-31043D01*
X64478Y-31030D01*
X64458Y-30980D01*
X64355Y-30878D01*
X64353Y-30875D01*
X64351Y-30874D01*
X64306Y-30829D01*
X64224Y-30795D01*
X64774Y-30795D01*
G54D10*
G36*
X65774Y-30795D02*
X65694Y-30828D01*
X65647Y-30874D01*
X65647Y-30875D01*
X65645Y-30876D01*
X65543Y-30980D01*
X65522Y-31028D01*
X65511Y-31043D01*
X65500Y-31080D01*
X65489Y-31043D01*
X65478Y-31030D01*
X65458Y-30980D01*
X65355Y-30878D01*
X65353Y-30875D01*
X65351Y-30874D01*
X65306Y-30829D01*
X65224Y-30795D01*
X65774Y-30795D01*
X65774Y-30795D01*
G37*
G54D23*
X65774Y-30795D02*
X65694Y-30828D01*
X65647Y-30874D01*
X65647Y-30875D01*
X65645Y-30876D01*
X65543Y-30980D01*
X65522Y-31028D01*
X65511Y-31043D01*
X65500Y-31080D01*
X65489Y-31043D01*
X65478Y-31030D01*
X65458Y-30980D01*
X65355Y-30878D01*
X65353Y-30875D01*
X65351Y-30874D01*
X65306Y-30829D01*
X65224Y-30795D01*
X65774Y-30795D01*
G54D10*
G36*
X65775Y-51205D02*
X65225Y-51205D01*
X65306Y-51172D01*
X65352Y-51125D01*
X65353Y-51125D01*
X65354Y-51123D01*
X65457Y-51020D01*
X65477Y-50971D01*
X65489Y-50957D01*
X65500Y-50919D01*
X65511Y-50957D01*
X65521Y-50969D01*
X65542Y-51020D01*
X65644Y-51121D01*
X65647Y-51125D01*
X65648Y-51125D01*
X65694Y-51171D01*
X65775Y-51205D01*
X65775Y-51205D01*
G37*
G54D23*
X65775Y-51205D02*
X65225Y-51205D01*
X65306Y-51172D01*
X65352Y-51125D01*
X65353Y-51125D01*
X65354Y-51123D01*
X65457Y-51020D01*
X65477Y-50971D01*
X65489Y-50957D01*
X65500Y-50919D01*
X65511Y-50957D01*
X65521Y-50969D01*
X65542Y-51020D01*
X65644Y-51121D01*
X65647Y-51125D01*
X65648Y-51125D01*
X65694Y-51171D01*
X65775Y-51205D01*
G54D10*
G36*
X66774Y-30795D02*
X66694Y-30828D01*
X66647Y-30874D01*
X66647Y-30875D01*
X66645Y-30876D01*
X66543Y-30980D01*
X66522Y-31028D01*
X66511Y-31043D01*
X66500Y-31080D01*
X66489Y-31043D01*
X66478Y-31030D01*
X66458Y-30980D01*
X66355Y-30878D01*
X66353Y-30875D01*
X66351Y-30874D01*
X66306Y-30829D01*
X66224Y-30795D01*
X66774Y-30795D01*
X66774Y-30795D01*
G37*
G54D23*
X66774Y-30795D02*
X66694Y-30828D01*
X66647Y-30874D01*
X66647Y-30875D01*
X66645Y-30876D01*
X66543Y-30980D01*
X66522Y-31028D01*
X66511Y-31043D01*
X66500Y-31080D01*
X66489Y-31043D01*
X66478Y-31030D01*
X66458Y-30980D01*
X66355Y-30878D01*
X66353Y-30875D01*
X66351Y-30874D01*
X66306Y-30829D01*
X66224Y-30795D01*
X66774Y-30795D01*
G54D10*
G36*
X66775Y-51205D02*
X66225Y-51205D01*
X66306Y-51172D01*
X66352Y-51125D01*
X66353Y-51125D01*
X66354Y-51123D01*
X66457Y-51020D01*
X66477Y-50971D01*
X66489Y-50957D01*
X66500Y-50919D01*
X66511Y-50957D01*
X66521Y-50969D01*
X66542Y-51020D01*
X66644Y-51121D01*
X66647Y-51125D01*
X66648Y-51125D01*
X66694Y-51171D01*
X66775Y-51205D01*
X66775Y-51205D01*
G37*
G54D23*
X66775Y-51205D02*
X66225Y-51205D01*
X66306Y-51172D01*
X66352Y-51125D01*
X66353Y-51125D01*
X66354Y-51123D01*
X66457Y-51020D01*
X66477Y-50971D01*
X66489Y-50957D01*
X66500Y-50919D01*
X66511Y-50957D01*
X66521Y-50969D01*
X66542Y-51020D01*
X66644Y-51121D01*
X66647Y-51125D01*
X66648Y-51125D01*
X66694Y-51171D01*
X66775Y-51205D01*
G54D10*
G36*
X67774Y-30795D02*
X67694Y-30828D01*
X67647Y-30874D01*
X67647Y-30875D01*
X67645Y-30876D01*
X67543Y-30980D01*
X67522Y-31028D01*
X67511Y-31043D01*
X67500Y-31080D01*
X67489Y-31043D01*
X67478Y-31030D01*
X67458Y-30980D01*
X67355Y-30878D01*
X67353Y-30875D01*
X67351Y-30874D01*
X67306Y-30829D01*
X67224Y-30795D01*
X67774Y-30795D01*
X67774Y-30795D01*
G37*
G54D23*
X67774Y-30795D02*
X67694Y-30828D01*
X67647Y-30874D01*
X67647Y-30875D01*
X67645Y-30876D01*
X67543Y-30980D01*
X67522Y-31028D01*
X67511Y-31043D01*
X67500Y-31080D01*
X67489Y-31043D01*
X67478Y-31030D01*
X67458Y-30980D01*
X67355Y-30878D01*
X67353Y-30875D01*
X67351Y-30874D01*
X67306Y-30829D01*
X67224Y-30795D01*
X67774Y-30795D01*
G54D10*
G36*
X67775Y-51205D02*
X67225Y-51205D01*
X67306Y-51172D01*
X67352Y-51125D01*
X67353Y-51125D01*
X67354Y-51123D01*
X67457Y-51020D01*
X67477Y-50971D01*
X67489Y-50957D01*
X67500Y-50919D01*
X67511Y-50957D01*
X67521Y-50969D01*
X67542Y-51020D01*
X67644Y-51121D01*
X67647Y-51125D01*
X67648Y-51125D01*
X67694Y-51171D01*
X67775Y-51205D01*
X67775Y-51205D01*
G37*
G54D23*
X67775Y-51205D02*
X67225Y-51205D01*
X67306Y-51172D01*
X67352Y-51125D01*
X67353Y-51125D01*
X67354Y-51123D01*
X67457Y-51020D01*
X67477Y-50971D01*
X67489Y-50957D01*
X67500Y-50919D01*
X67511Y-50957D01*
X67521Y-50969D01*
X67542Y-51020D01*
X67644Y-51121D01*
X67647Y-51125D01*
X67648Y-51125D01*
X67694Y-51171D01*
X67775Y-51205D01*
G54D10*
G36*
X68774Y-30795D02*
X68694Y-30828D01*
X68647Y-30874D01*
X68647Y-30875D01*
X68645Y-30876D01*
X68543Y-30980D01*
X68522Y-31028D01*
X68511Y-31043D01*
X68500Y-31080D01*
X68489Y-31043D01*
X68478Y-31030D01*
X68458Y-30980D01*
X68355Y-30878D01*
X68353Y-30875D01*
X68351Y-30874D01*
X68306Y-30829D01*
X68224Y-30795D01*
X68774Y-30795D01*
X68774Y-30795D01*
G37*
G54D23*
X68774Y-30795D02*
X68694Y-30828D01*
X68647Y-30874D01*
X68647Y-30875D01*
X68645Y-30876D01*
X68543Y-30980D01*
X68522Y-31028D01*
X68511Y-31043D01*
X68500Y-31080D01*
X68489Y-31043D01*
X68478Y-31030D01*
X68458Y-30980D01*
X68355Y-30878D01*
X68353Y-30875D01*
X68351Y-30874D01*
X68306Y-30829D01*
X68224Y-30795D01*
X68774Y-30795D01*
G54D10*
G36*
X68775Y-51205D02*
X68225Y-51205D01*
X68306Y-51172D01*
X68352Y-51125D01*
X68353Y-51125D01*
X68354Y-51123D01*
X68457Y-51020D01*
X68477Y-50971D01*
X68489Y-50957D01*
X68500Y-50919D01*
X68511Y-50957D01*
X68521Y-50969D01*
X68542Y-51020D01*
X68644Y-51121D01*
X68647Y-51125D01*
X68648Y-51125D01*
X68694Y-51171D01*
X68775Y-51205D01*
X68775Y-51205D01*
G37*
G54D23*
X68775Y-51205D02*
X68225Y-51205D01*
X68306Y-51172D01*
X68352Y-51125D01*
X68353Y-51125D01*
X68354Y-51123D01*
X68457Y-51020D01*
X68477Y-50971D01*
X68489Y-50957D01*
X68500Y-50919D01*
X68511Y-50957D01*
X68521Y-50969D01*
X68542Y-51020D01*
X68644Y-51121D01*
X68647Y-51125D01*
X68648Y-51125D01*
X68694Y-51171D01*
X68775Y-51205D01*
G54D10*
G36*
X69774Y-30795D02*
X69694Y-30828D01*
X69647Y-30874D01*
X69647Y-30875D01*
X69645Y-30876D01*
X69543Y-30980D01*
X69522Y-31028D01*
X69511Y-31043D01*
X69500Y-31080D01*
X69489Y-31043D01*
X69478Y-31030D01*
X69458Y-30980D01*
X69355Y-30878D01*
X69353Y-30875D01*
X69351Y-30874D01*
X69306Y-30829D01*
X69224Y-30795D01*
X69774Y-30795D01*
X69774Y-30795D01*
G37*
G54D23*
X69774Y-30795D02*
X69694Y-30828D01*
X69647Y-30874D01*
X69647Y-30875D01*
X69645Y-30876D01*
X69543Y-30980D01*
X69522Y-31028D01*
X69511Y-31043D01*
X69500Y-31080D01*
X69489Y-31043D01*
X69478Y-31030D01*
X69458Y-30980D01*
X69355Y-30878D01*
X69353Y-30875D01*
X69351Y-30874D01*
X69306Y-30829D01*
X69224Y-30795D01*
X69774Y-30795D01*
G54D10*
G36*
X69775Y-51205D02*
X69225Y-51205D01*
X69306Y-51172D01*
X69352Y-51125D01*
X69353Y-51125D01*
X69354Y-51123D01*
X69457Y-51020D01*
X69477Y-50971D01*
X69489Y-50957D01*
X69500Y-50919D01*
X69511Y-50957D01*
X69521Y-50969D01*
X69542Y-51020D01*
X69644Y-51121D01*
X69647Y-51125D01*
X69648Y-51125D01*
X69694Y-51171D01*
X69775Y-51205D01*
X69775Y-51205D01*
G37*
G54D23*
X69775Y-51205D02*
X69225Y-51205D01*
X69306Y-51172D01*
X69352Y-51125D01*
X69353Y-51125D01*
X69354Y-51123D01*
X69457Y-51020D01*
X69477Y-50971D01*
X69489Y-50957D01*
X69500Y-50919D01*
X69511Y-50957D01*
X69521Y-50969D01*
X69542Y-51020D01*
X69644Y-51121D01*
X69647Y-51125D01*
X69648Y-51125D01*
X69694Y-51171D01*
X69775Y-51205D01*
G54D10*
G36*
X70775Y-51205D02*
X70225Y-51205D01*
X70306Y-51172D01*
X70352Y-51125D01*
X70353Y-51125D01*
X70354Y-51123D01*
X70457Y-51020D01*
X70477Y-50971D01*
X70489Y-50957D01*
X70500Y-50919D01*
X70511Y-50957D01*
X70521Y-50969D01*
X70542Y-51020D01*
X70644Y-51121D01*
X70647Y-51125D01*
X70648Y-51125D01*
X70694Y-51171D01*
X70775Y-51205D01*
X70775Y-51205D01*
G37*
G54D23*
X70775Y-51205D02*
X70225Y-51205D01*
X70306Y-51172D01*
X70352Y-51125D01*
X70353Y-51125D01*
X70354Y-51123D01*
X70457Y-51020D01*
X70477Y-50971D01*
X70489Y-50957D01*
X70500Y-50919D01*
X70511Y-50957D01*
X70521Y-50969D01*
X70542Y-51020D01*
X70644Y-51121D01*
X70647Y-51125D01*
X70648Y-51125D01*
X70694Y-51171D01*
X70775Y-51205D01*
G54D10*
G36*
X71775Y-51205D02*
X71225Y-51205D01*
X71306Y-51172D01*
X71352Y-51125D01*
X71353Y-51125D01*
X71354Y-51123D01*
X71457Y-51020D01*
X71477Y-50971D01*
X71489Y-50957D01*
X71500Y-50919D01*
X71511Y-50957D01*
X71521Y-50969D01*
X71542Y-51020D01*
X71644Y-51121D01*
X71647Y-51125D01*
X71648Y-51125D01*
X71694Y-51171D01*
X71775Y-51205D01*
X71775Y-51205D01*
G37*
G54D23*
X71775Y-51205D02*
X71225Y-51205D01*
X71306Y-51172D01*
X71352Y-51125D01*
X71353Y-51125D01*
X71354Y-51123D01*
X71457Y-51020D01*
X71477Y-50971D01*
X71489Y-50957D01*
X71500Y-50919D01*
X71511Y-50957D01*
X71521Y-50969D01*
X71542Y-51020D01*
X71644Y-51121D01*
X71647Y-51125D01*
X71648Y-51125D01*
X71694Y-51171D01*
X71775Y-51205D01*
G54D10*
G36*
X72014Y-44603D02*
X69107Y-44603D01*
X68996Y-44625D01*
X68902Y-44688D01*
X68901Y-44688D01*
X68901Y-44689D01*
X68864Y-44726D01*
X68864Y-44336D01*
X68826Y-44244D01*
X68756Y-44174D01*
X68665Y-44136D01*
X68566Y-44136D01*
X67836Y-44136D01*
X67744Y-44174D01*
X67674Y-44244D01*
X67636Y-44335D01*
X67636Y-44434D01*
X67636Y-45164D01*
X67674Y-45256D01*
X67744Y-45326D01*
X67786Y-45343D01*
X67729Y-45401D01*
X67635Y-45627D01*
X67635Y-45872D01*
X67729Y-46098D01*
X67880Y-46250D01*
X67729Y-46401D01*
X67635Y-46627D01*
X67635Y-46872D01*
X67729Y-47098D01*
X67811Y-47181D01*
X65091Y-47181D01*
X63840Y-45930D01*
X63865Y-45873D01*
X63865Y-45628D01*
X63771Y-45402D01*
X63713Y-45343D01*
X63756Y-45326D01*
X63826Y-45256D01*
X63864Y-45165D01*
X63864Y-45066D01*
X63864Y-44336D01*
X63826Y-44244D01*
X63756Y-44174D01*
X63665Y-44136D01*
X63566Y-44136D01*
X62975Y-44136D01*
X62975Y-44036D01*
X65841Y-41170D01*
X65934Y-41031D01*
X65934Y-41030D01*
X65967Y-40866D01*
X65967Y-38556D01*
X72014Y-44603D01*
X72014Y-44603D01*
G37*
G54D23*
X72014Y-44603D02*
X69107Y-44603D01*
X68996Y-44625D01*
X68902Y-44688D01*
X68901Y-44688D01*
X68901Y-44689D01*
X68864Y-44726D01*
X68864Y-44336D01*
X68826Y-44244D01*
X68756Y-44174D01*
X68665Y-44136D01*
X68566Y-44136D01*
X67836Y-44136D01*
X67744Y-44174D01*
X67674Y-44244D01*
X67636Y-44335D01*
X67636Y-44434D01*
X67636Y-45164D01*
X67674Y-45256D01*
X67744Y-45326D01*
X67786Y-45343D01*
X67729Y-45401D01*
X67635Y-45627D01*
X67635Y-45872D01*
X67729Y-46098D01*
X67880Y-46250D01*
X67729Y-46401D01*
X67635Y-46627D01*
X67635Y-46872D01*
X67729Y-47098D01*
X67811Y-47181D01*
X65091Y-47181D01*
X63840Y-45930D01*
X63865Y-45873D01*
X63865Y-45628D01*
X63771Y-45402D01*
X63713Y-45343D01*
X63756Y-45326D01*
X63826Y-45256D01*
X63864Y-45165D01*
X63864Y-45066D01*
X63864Y-44336D01*
X63826Y-44244D01*
X63756Y-44174D01*
X63665Y-44136D01*
X63566Y-44136D01*
X62975Y-44136D01*
X62975Y-44036D01*
X65841Y-41170D01*
X65934Y-41031D01*
X65934Y-41030D01*
X65967Y-40866D01*
X65967Y-38556D01*
X72014Y-44603D01*
G54D10*
G36*
X72774Y-30795D02*
X72694Y-30828D01*
X72647Y-30874D01*
X72647Y-30875D01*
X72645Y-30876D01*
X72543Y-30980D01*
X72522Y-31028D01*
X72511Y-31043D01*
X72500Y-31080D01*
X72489Y-31043D01*
X72478Y-31030D01*
X72458Y-30980D01*
X72355Y-30878D01*
X72353Y-30875D01*
X72351Y-30874D01*
X72306Y-30829D01*
X72224Y-30795D01*
X72774Y-30795D01*
X72774Y-30795D01*
G37*
G54D23*
X72774Y-30795D02*
X72694Y-30828D01*
X72647Y-30874D01*
X72647Y-30875D01*
X72645Y-30876D01*
X72543Y-30980D01*
X72522Y-31028D01*
X72511Y-31043D01*
X72500Y-31080D01*
X72489Y-31043D01*
X72478Y-31030D01*
X72458Y-30980D01*
X72355Y-30878D01*
X72353Y-30875D01*
X72351Y-30874D01*
X72306Y-30829D01*
X72224Y-30795D01*
X72774Y-30795D01*
G54D10*
G36*
X73719Y-43912D02*
X73711Y-43934D01*
X73711Y-43994D01*
X73706Y-44019D01*
X73711Y-44043D01*
X73711Y-44052D01*
X72679Y-44052D01*
X71084Y-42457D01*
X71095Y-42445D01*
X71111Y-42435D01*
X71121Y-42419D01*
X71133Y-42407D01*
X71779Y-43053D01*
X71800Y-43067D01*
X71843Y-43110D01*
X71898Y-43132D01*
X71919Y-43147D01*
X71943Y-43151D01*
X71999Y-43175D01*
X72062Y-43175D01*
X72083Y-43179D01*
X72103Y-43175D01*
X72168Y-43175D01*
X72226Y-43151D01*
X72247Y-43147D01*
X72263Y-43135D01*
X72324Y-43111D01*
X72371Y-43063D01*
X72387Y-43053D01*
X72397Y-43037D01*
X72444Y-42991D01*
X72469Y-42930D01*
X72481Y-42913D01*
X72484Y-42892D01*
X72509Y-42835D01*
X72509Y-42769D01*
X72513Y-42749D01*
X72509Y-42728D01*
X72509Y-42666D01*
X72485Y-42609D01*
X72481Y-42585D01*
X72467Y-42564D01*
X72445Y-42510D01*
X72401Y-42466D01*
X72387Y-42445D01*
X66752Y-36810D01*
X66848Y-36771D01*
X66906Y-36713D01*
X66924Y-36756D01*
X66994Y-36826D01*
X67070Y-36857D01*
X67070Y-36898D01*
X67103Y-37063D01*
X67196Y-37202D01*
X73390Y-43396D01*
X73390Y-43494D01*
X73395Y-43519D01*
X73395Y-43578D01*
X73418Y-43634D01*
X73423Y-43659D01*
X73436Y-43679D01*
X73459Y-43734D01*
X73501Y-43776D01*
X73516Y-43798D01*
X73537Y-43812D01*
X73579Y-43854D01*
X73633Y-43876D01*
X73655Y-43891D01*
X73679Y-43895D01*
X73719Y-43912D01*
X73719Y-43912D01*
G37*
G54D23*
X73719Y-43912D02*
X73711Y-43934D01*
X73711Y-43994D01*
X73706Y-44019D01*
X73711Y-44043D01*
X73711Y-44052D01*
X72679Y-44052D01*
X71084Y-42457D01*
X71095Y-42445D01*
X71111Y-42435D01*
X71121Y-42419D01*
X71133Y-42407D01*
X71779Y-43053D01*
X71800Y-43067D01*
X71843Y-43110D01*
X71898Y-43132D01*
X71919Y-43147D01*
X71943Y-43151D01*
X71999Y-43175D01*
X72062Y-43175D01*
X72083Y-43179D01*
X72103Y-43175D01*
X72168Y-43175D01*
X72226Y-43151D01*
X72247Y-43147D01*
X72263Y-43135D01*
X72324Y-43111D01*
X72371Y-43063D01*
X72387Y-43053D01*
X72397Y-43037D01*
X72444Y-42991D01*
X72469Y-42930D01*
X72481Y-42913D01*
X72484Y-42892D01*
X72509Y-42835D01*
X72509Y-42769D01*
X72513Y-42749D01*
X72509Y-42728D01*
X72509Y-42666D01*
X72485Y-42609D01*
X72481Y-42585D01*
X72467Y-42564D01*
X72445Y-42510D01*
X72401Y-42466D01*
X72387Y-42445D01*
X66752Y-36810D01*
X66848Y-36771D01*
X66906Y-36713D01*
X66924Y-36756D01*
X66994Y-36826D01*
X67070Y-36857D01*
X67070Y-36898D01*
X67103Y-37063D01*
X67196Y-37202D01*
X73390Y-43396D01*
X73390Y-43494D01*
X73395Y-43519D01*
X73395Y-43578D01*
X73418Y-43634D01*
X73423Y-43659D01*
X73436Y-43679D01*
X73459Y-43734D01*
X73501Y-43776D01*
X73516Y-43798D01*
X73537Y-43812D01*
X73579Y-43854D01*
X73633Y-43876D01*
X73655Y-43891D01*
X73679Y-43895D01*
X73719Y-43912D01*
G54D10*
G36*
X73774Y-30795D02*
X73694Y-30828D01*
X73647Y-30874D01*
X73647Y-30875D01*
X73645Y-30876D01*
X73543Y-30980D01*
X73522Y-31028D01*
X73511Y-31043D01*
X73500Y-31080D01*
X73489Y-31043D01*
X73478Y-31030D01*
X73458Y-30980D01*
X73355Y-30878D01*
X73353Y-30875D01*
X73351Y-30874D01*
X73306Y-30829D01*
X73224Y-30795D01*
X73774Y-30795D01*
X73774Y-30795D01*
G37*
G54D23*
X73774Y-30795D02*
X73694Y-30828D01*
X73647Y-30874D01*
X73647Y-30875D01*
X73645Y-30876D01*
X73543Y-30980D01*
X73522Y-31028D01*
X73511Y-31043D01*
X73500Y-31080D01*
X73489Y-31043D01*
X73478Y-31030D01*
X73458Y-30980D01*
X73355Y-30878D01*
X73353Y-30875D01*
X73351Y-30874D01*
X73306Y-30829D01*
X73224Y-30795D01*
X73774Y-30795D01*
G54D10*
G36*
X73882Y-42672D02*
X68021Y-36811D01*
X68076Y-36756D01*
X68114Y-36665D01*
X68114Y-36566D01*
X68114Y-36031D01*
X69924Y-36031D01*
X69885Y-36127D01*
X69885Y-36372D01*
X69979Y-36598D01*
X70151Y-36771D01*
X70377Y-36865D01*
X70622Y-36865D01*
X70848Y-36771D01*
X70906Y-36713D01*
X70924Y-36756D01*
X70994Y-36826D01*
X71070Y-36857D01*
X71070Y-36898D01*
X71103Y-37063D01*
X71196Y-37202D01*
X73882Y-39888D01*
X73882Y-42672D01*
X73882Y-42672D01*
G37*
G54D23*
X73882Y-42672D02*
X68021Y-36811D01*
X68076Y-36756D01*
X68114Y-36665D01*
X68114Y-36566D01*
X68114Y-36031D01*
X69924Y-36031D01*
X69885Y-36127D01*
X69885Y-36372D01*
X69979Y-36598D01*
X70151Y-36771D01*
X70377Y-36865D01*
X70622Y-36865D01*
X70848Y-36771D01*
X70906Y-36713D01*
X70924Y-36756D01*
X70994Y-36826D01*
X71070Y-36857D01*
X71070Y-36898D01*
X71103Y-37063D01*
X71196Y-37202D01*
X73882Y-39888D01*
X73882Y-42672D01*
G54D10*
G36*
X74774Y-30795D02*
X74694Y-30828D01*
X74647Y-30874D01*
X74647Y-30875D01*
X74645Y-30876D01*
X74543Y-30980D01*
X74522Y-31028D01*
X74511Y-31043D01*
X74500Y-31080D01*
X74489Y-31043D01*
X74478Y-31030D01*
X74458Y-30980D01*
X74355Y-30878D01*
X74353Y-30875D01*
X74351Y-30874D01*
X74306Y-30829D01*
X74224Y-30795D01*
X74774Y-30795D01*
X74774Y-30795D01*
G37*
G54D23*
X74774Y-30795D02*
X74694Y-30828D01*
X74647Y-30874D01*
X74647Y-30875D01*
X74645Y-30876D01*
X74543Y-30980D01*
X74522Y-31028D01*
X74511Y-31043D01*
X74500Y-31080D01*
X74489Y-31043D01*
X74478Y-31030D01*
X74458Y-30980D01*
X74355Y-30878D01*
X74353Y-30875D01*
X74351Y-30874D01*
X74306Y-30829D01*
X74224Y-30795D01*
X74774Y-30795D01*
G54D10*
G36*
X74775Y-51205D02*
X74225Y-51205D01*
X74306Y-51172D01*
X74352Y-51125D01*
X74353Y-51125D01*
X74354Y-51123D01*
X74457Y-51020D01*
X74477Y-50971D01*
X74489Y-50957D01*
X74500Y-50919D01*
X74511Y-50957D01*
X74521Y-50969D01*
X74542Y-51020D01*
X74644Y-51121D01*
X74647Y-51125D01*
X74648Y-51125D01*
X74694Y-51171D01*
X74775Y-51205D01*
X74775Y-51205D01*
G37*
G54D23*
X74775Y-51205D02*
X74225Y-51205D01*
X74306Y-51172D01*
X74352Y-51125D01*
X74353Y-51125D01*
X74354Y-51123D01*
X74457Y-51020D01*
X74477Y-50971D01*
X74489Y-50957D01*
X74500Y-50919D01*
X74511Y-50957D01*
X74521Y-50969D01*
X74542Y-51020D01*
X74644Y-51121D01*
X74647Y-51125D01*
X74648Y-51125D01*
X74694Y-51171D01*
X74775Y-51205D01*
G54D10*
G36*
X75429Y-35636D02*
X75086Y-35636D01*
X74994Y-35674D01*
X74924Y-35744D01*
X74906Y-35786D01*
X74849Y-35729D01*
X74623Y-35635D01*
X74493Y-35635D01*
X74425Y-35567D01*
X75360Y-35567D01*
X75429Y-35636D01*
X75429Y-35636D01*
G37*
G54D23*
X75429Y-35636D02*
X75086Y-35636D01*
X74994Y-35674D01*
X74924Y-35744D01*
X74906Y-35786D01*
X74849Y-35729D01*
X74623Y-35635D01*
X74493Y-35635D01*
X74425Y-35567D01*
X75360Y-35567D01*
X75429Y-35636D01*
G54D10*
G36*
X75774Y-30795D02*
X75694Y-30828D01*
X75647Y-30874D01*
X75647Y-30875D01*
X75645Y-30876D01*
X75543Y-30980D01*
X75522Y-31028D01*
X75511Y-31043D01*
X75500Y-31080D01*
X75489Y-31043D01*
X75478Y-31030D01*
X75458Y-30980D01*
X75355Y-30878D01*
X75353Y-30875D01*
X75351Y-30874D01*
X75306Y-30829D01*
X75224Y-30795D01*
X75774Y-30795D01*
X75774Y-30795D01*
G37*
G54D23*
X75774Y-30795D02*
X75694Y-30828D01*
X75647Y-30874D01*
X75647Y-30875D01*
X75645Y-30876D01*
X75543Y-30980D01*
X75522Y-31028D01*
X75511Y-31043D01*
X75500Y-31080D01*
X75489Y-31043D01*
X75478Y-31030D01*
X75458Y-30980D01*
X75355Y-30878D01*
X75353Y-30875D01*
X75351Y-30874D01*
X75306Y-30829D01*
X75224Y-30795D01*
X75774Y-30795D01*
G54D10*
G36*
X75775Y-51205D02*
X75225Y-51205D01*
X75306Y-51172D01*
X75352Y-51125D01*
X75353Y-51125D01*
X75354Y-51123D01*
X75457Y-51020D01*
X75477Y-50971D01*
X75489Y-50957D01*
X75500Y-50919D01*
X75511Y-50957D01*
X75521Y-50969D01*
X75542Y-51020D01*
X75644Y-51121D01*
X75647Y-51125D01*
X75648Y-51125D01*
X75694Y-51171D01*
X75775Y-51205D01*
X75775Y-51205D01*
G37*
G54D23*
X75775Y-51205D02*
X75225Y-51205D01*
X75306Y-51172D01*
X75352Y-51125D01*
X75353Y-51125D01*
X75354Y-51123D01*
X75457Y-51020D01*
X75477Y-50971D01*
X75489Y-50957D01*
X75500Y-50919D01*
X75511Y-50957D01*
X75521Y-50969D01*
X75542Y-51020D01*
X75644Y-51121D01*
X75647Y-51125D01*
X75648Y-51125D01*
X75694Y-51171D01*
X75775Y-51205D01*
G54D10*
G36*
X76261Y-45183D02*
X74263Y-47181D01*
X68688Y-47181D01*
X68771Y-47099D01*
X68865Y-46873D01*
X68865Y-46628D01*
X68771Y-46402D01*
X68619Y-46249D01*
X68771Y-46099D01*
X68865Y-45873D01*
X68865Y-45628D01*
X68840Y-45569D01*
X69227Y-45183D01*
X76261Y-45183D01*
X76261Y-45183D01*
G37*
G54D23*
X76261Y-45183D02*
X74263Y-47181D01*
X68688Y-47181D01*
X68771Y-47099D01*
X68865Y-46873D01*
X68865Y-46628D01*
X68771Y-46402D01*
X68619Y-46249D01*
X68771Y-46099D01*
X68865Y-45873D01*
X68865Y-45628D01*
X68840Y-45569D01*
X69227Y-45183D01*
X76261Y-45183D01*
G54D10*
G36*
X76774Y-30795D02*
X76694Y-30828D01*
X76647Y-30874D01*
X76647Y-30875D01*
X76645Y-30876D01*
X76543Y-30980D01*
X76522Y-31028D01*
X76511Y-31043D01*
X76500Y-31080D01*
X76489Y-31043D01*
X76478Y-31030D01*
X76458Y-30980D01*
X76355Y-30878D01*
X76353Y-30875D01*
X76351Y-30874D01*
X76306Y-30829D01*
X76224Y-30795D01*
X76774Y-30795D01*
X76774Y-30795D01*
G37*
G54D23*
X76774Y-30795D02*
X76694Y-30828D01*
X76647Y-30874D01*
X76647Y-30875D01*
X76645Y-30876D01*
X76543Y-30980D01*
X76522Y-31028D01*
X76511Y-31043D01*
X76500Y-31080D01*
X76489Y-31043D01*
X76478Y-31030D01*
X76458Y-30980D01*
X76355Y-30878D01*
X76353Y-30875D01*
X76351Y-30874D01*
X76306Y-30829D01*
X76224Y-30795D01*
X76774Y-30795D01*
G54D10*
G36*
X76775Y-51205D02*
X76225Y-51205D01*
X76306Y-51172D01*
X76352Y-51125D01*
X76353Y-51125D01*
X76354Y-51123D01*
X76457Y-51020D01*
X76477Y-50971D01*
X76489Y-50957D01*
X76500Y-50919D01*
X76511Y-50957D01*
X76521Y-50969D01*
X76542Y-51020D01*
X76644Y-51121D01*
X76647Y-51125D01*
X76648Y-51125D01*
X76694Y-51171D01*
X76775Y-51205D01*
X76775Y-51205D01*
G37*
G54D23*
X76775Y-51205D02*
X76225Y-51205D01*
X76306Y-51172D01*
X76352Y-51125D01*
X76353Y-51125D01*
X76354Y-51123D01*
X76457Y-51020D01*
X76477Y-50971D01*
X76489Y-50957D01*
X76500Y-50919D01*
X76511Y-50957D01*
X76521Y-50969D01*
X76542Y-51020D01*
X76644Y-51121D01*
X76647Y-51125D01*
X76648Y-51125D01*
X76694Y-51171D01*
X76775Y-51205D01*
G54D10*
G36*
X77774Y-30795D02*
X77694Y-30828D01*
X77647Y-30874D01*
X77647Y-30875D01*
X77645Y-30876D01*
X77543Y-30980D01*
X77522Y-31028D01*
X77511Y-31043D01*
X77500Y-31080D01*
X77489Y-31043D01*
X77478Y-31030D01*
X77458Y-30980D01*
X77355Y-30878D01*
X77353Y-30875D01*
X77351Y-30874D01*
X77306Y-30829D01*
X77224Y-30795D01*
X77774Y-30795D01*
X77774Y-30795D01*
G37*
G54D23*
X77774Y-30795D02*
X77694Y-30828D01*
X77647Y-30874D01*
X77647Y-30875D01*
X77645Y-30876D01*
X77543Y-30980D01*
X77522Y-31028D01*
X77511Y-31043D01*
X77500Y-31080D01*
X77489Y-31043D01*
X77478Y-31030D01*
X77458Y-30980D01*
X77355Y-30878D01*
X77353Y-30875D01*
X77351Y-30874D01*
X77306Y-30829D01*
X77224Y-30795D01*
X77774Y-30795D01*
G54D10*
G36*
X77775Y-51205D02*
X77225Y-51205D01*
X77306Y-51172D01*
X77352Y-51125D01*
X77353Y-51125D01*
X77354Y-51123D01*
X77457Y-51020D01*
X77477Y-50971D01*
X77489Y-50957D01*
X77500Y-50919D01*
X77511Y-50957D01*
X77521Y-50969D01*
X77542Y-51020D01*
X77644Y-51121D01*
X77647Y-51125D01*
X77648Y-51125D01*
X77694Y-51171D01*
X77775Y-51205D01*
X77775Y-51205D01*
G37*
G54D23*
X77775Y-51205D02*
X77225Y-51205D01*
X77306Y-51172D01*
X77352Y-51125D01*
X77353Y-51125D01*
X77354Y-51123D01*
X77457Y-51020D01*
X77477Y-50971D01*
X77489Y-50957D01*
X77500Y-50919D01*
X77511Y-50957D01*
X77521Y-50969D01*
X77542Y-51020D01*
X77644Y-51121D01*
X77647Y-51125D01*
X77648Y-51125D01*
X77694Y-51171D01*
X77775Y-51205D01*
G54D10*
G36*
X78357Y-48832D02*
X64690Y-48832D01*
X63223Y-47365D01*
X63257Y-47365D01*
X64446Y-48554D01*
X64585Y-48647D01*
X64586Y-48647D01*
X64750Y-48680D01*
X78205Y-48680D01*
X78357Y-48832D01*
X78357Y-48832D01*
G37*
G54D23*
X78357Y-48832D02*
X64690Y-48832D01*
X63223Y-47365D01*
X63257Y-47365D01*
X64446Y-48554D01*
X64585Y-48647D01*
X64586Y-48647D01*
X64750Y-48680D01*
X78205Y-48680D01*
X78357Y-48832D01*
G54D10*
G36*
X78774Y-30795D02*
X78694Y-30828D01*
X78647Y-30874D01*
X78647Y-30875D01*
X78645Y-30876D01*
X78543Y-30980D01*
X78522Y-31028D01*
X78511Y-31043D01*
X78500Y-31080D01*
X78489Y-31043D01*
X78478Y-31030D01*
X78458Y-30980D01*
X78355Y-30878D01*
X78353Y-30875D01*
X78351Y-30874D01*
X78306Y-30829D01*
X78224Y-30795D01*
X78774Y-30795D01*
X78774Y-30795D01*
G37*
G54D23*
X78774Y-30795D02*
X78694Y-30828D01*
X78647Y-30874D01*
X78647Y-30875D01*
X78645Y-30876D01*
X78543Y-30980D01*
X78522Y-31028D01*
X78511Y-31043D01*
X78500Y-31080D01*
X78489Y-31043D01*
X78478Y-31030D01*
X78458Y-30980D01*
X78355Y-30878D01*
X78353Y-30875D01*
X78351Y-30874D01*
X78306Y-30829D01*
X78224Y-30795D01*
X78774Y-30795D01*
G54D10*
G36*
X78775Y-51205D02*
X78225Y-51205D01*
X78306Y-51172D01*
X78352Y-51125D01*
X78353Y-51125D01*
X78354Y-51123D01*
X78457Y-51020D01*
X78477Y-50971D01*
X78489Y-50957D01*
X78500Y-50919D01*
X78511Y-50957D01*
X78521Y-50969D01*
X78542Y-51020D01*
X78644Y-51121D01*
X78647Y-51125D01*
X78648Y-51125D01*
X78694Y-51171D01*
X78775Y-51205D01*
X78775Y-51205D01*
G37*
G54D23*
X78775Y-51205D02*
X78225Y-51205D01*
X78306Y-51172D01*
X78352Y-51125D01*
X78353Y-51125D01*
X78354Y-51123D01*
X78457Y-51020D01*
X78477Y-50971D01*
X78489Y-50957D01*
X78500Y-50919D01*
X78511Y-50957D01*
X78521Y-50969D01*
X78542Y-51020D01*
X78644Y-51121D01*
X78647Y-51125D01*
X78648Y-51125D01*
X78694Y-51171D01*
X78775Y-51205D01*
G54D10*
G36*
X79608Y-42648D02*
X77654Y-44603D01*
X77472Y-44603D01*
X79021Y-43054D01*
X79034Y-43033D01*
X79077Y-42991D01*
X79100Y-42933D01*
X79114Y-42914D01*
X79118Y-42891D01*
X79142Y-42835D01*
X79142Y-42774D01*
X79147Y-42750D01*
X79142Y-42725D01*
X79142Y-42666D01*
X79118Y-42609D01*
X79114Y-42586D01*
X79101Y-42567D01*
X79078Y-42510D01*
X79034Y-42466D01*
X79021Y-42446D01*
X79000Y-42432D01*
X78958Y-42390D01*
X78900Y-42366D01*
X78881Y-42353D01*
X78858Y-42348D01*
X78802Y-42325D01*
X78741Y-42325D01*
X78717Y-42320D01*
X78692Y-42325D01*
X78633Y-42325D01*
X78576Y-42348D01*
X78553Y-42353D01*
X78534Y-42365D01*
X78477Y-42389D01*
X78433Y-42432D01*
X78413Y-42446D01*
X76807Y-44052D01*
X74679Y-44052D01*
X74709Y-44008D01*
X74741Y-43844D01*
X74742Y-43843D01*
X74742Y-39710D01*
X74741Y-39709D01*
X74709Y-39545D01*
X74616Y-39406D01*
X74616Y-39405D01*
X72021Y-36810D01*
X72076Y-36756D01*
X72114Y-36665D01*
X72114Y-36566D01*
X72114Y-36031D01*
X73673Y-36031D01*
X73885Y-36243D01*
X73885Y-36372D01*
X73979Y-36598D01*
X74151Y-36771D01*
X74377Y-36865D01*
X74622Y-36865D01*
X74848Y-36771D01*
X74906Y-36713D01*
X74924Y-36756D01*
X74994Y-36826D01*
X75070Y-36857D01*
X75070Y-36898D01*
X75070Y-37296D01*
X75103Y-37461D01*
X75196Y-37600D01*
X75650Y-38054D01*
X75670Y-38067D01*
X75713Y-38110D01*
X75770Y-38133D01*
X75790Y-38147D01*
X75812Y-38151D01*
X75869Y-38175D01*
X75929Y-38175D01*
X75954Y-38180D01*
X75978Y-38175D01*
X76038Y-38175D01*
X76094Y-38151D01*
X76118Y-38147D01*
X76136Y-38134D01*
X76194Y-38111D01*
X76237Y-38067D01*
X76258Y-38054D01*
X76271Y-38033D01*
X76314Y-37991D01*
X76337Y-37933D01*
X76351Y-37914D01*
X76355Y-37891D01*
X76379Y-37835D01*
X76379Y-37774D01*
X76384Y-37750D01*
X76379Y-37725D01*
X76379Y-37666D01*
X76355Y-37609D01*
X76351Y-37586D01*
X76338Y-37567D01*
X76315Y-37510D01*
X76271Y-37466D01*
X76258Y-37446D01*
X75930Y-37118D01*
X75930Y-36898D01*
X75930Y-36857D01*
X76006Y-36826D01*
X76076Y-36756D01*
X76114Y-36665D01*
X76114Y-36566D01*
X76114Y-36321D01*
X79411Y-39618D01*
X79411Y-42285D01*
X79416Y-42310D01*
X79416Y-42369D01*
X79439Y-42425D01*
X79444Y-42450D01*
X79457Y-42470D01*
X79480Y-42525D01*
X79522Y-42567D01*
X79537Y-42589D01*
X79558Y-42603D01*
X79600Y-42645D01*
X79608Y-42648D01*
X79608Y-42648D01*
G37*
G54D23*
X79608Y-42648D02*
X77654Y-44603D01*
X77472Y-44603D01*
X79021Y-43054D01*
X79034Y-43033D01*
X79077Y-42991D01*
X79100Y-42933D01*
X79114Y-42914D01*
X79118Y-42891D01*
X79142Y-42835D01*
X79142Y-42774D01*
X79147Y-42750D01*
X79142Y-42725D01*
X79142Y-42666D01*
X79118Y-42609D01*
X79114Y-42586D01*
X79101Y-42567D01*
X79078Y-42510D01*
X79034Y-42466D01*
X79021Y-42446D01*
X79000Y-42432D01*
X78958Y-42390D01*
X78900Y-42366D01*
X78881Y-42353D01*
X78858Y-42348D01*
X78802Y-42325D01*
X78741Y-42325D01*
X78717Y-42320D01*
X78692Y-42325D01*
X78633Y-42325D01*
X78576Y-42348D01*
X78553Y-42353D01*
X78534Y-42365D01*
X78477Y-42389D01*
X78433Y-42432D01*
X78413Y-42446D01*
X76807Y-44052D01*
X74679Y-44052D01*
X74709Y-44008D01*
X74741Y-43844D01*
X74742Y-43843D01*
X74742Y-39710D01*
X74741Y-39709D01*
X74709Y-39545D01*
X74616Y-39406D01*
X74616Y-39405D01*
X72021Y-36810D01*
X72076Y-36756D01*
X72114Y-36665D01*
X72114Y-36566D01*
X72114Y-36031D01*
X73673Y-36031D01*
X73885Y-36243D01*
X73885Y-36372D01*
X73979Y-36598D01*
X74151Y-36771D01*
X74377Y-36865D01*
X74622Y-36865D01*
X74848Y-36771D01*
X74906Y-36713D01*
X74924Y-36756D01*
X74994Y-36826D01*
X75070Y-36857D01*
X75070Y-36898D01*
X75070Y-37296D01*
X75103Y-37461D01*
X75196Y-37600D01*
X75650Y-38054D01*
X75670Y-38067D01*
X75713Y-38110D01*
X75770Y-38133D01*
X75790Y-38147D01*
X75812Y-38151D01*
X75869Y-38175D01*
X75929Y-38175D01*
X75954Y-38180D01*
X75978Y-38175D01*
X76038Y-38175D01*
X76094Y-38151D01*
X76118Y-38147D01*
X76136Y-38134D01*
X76194Y-38111D01*
X76237Y-38067D01*
X76258Y-38054D01*
X76271Y-38033D01*
X76314Y-37991D01*
X76337Y-37933D01*
X76351Y-37914D01*
X76355Y-37891D01*
X76379Y-37835D01*
X76379Y-37774D01*
X76384Y-37750D01*
X76379Y-37725D01*
X76379Y-37666D01*
X76355Y-37609D01*
X76351Y-37586D01*
X76338Y-37567D01*
X76315Y-37510D01*
X76271Y-37466D01*
X76258Y-37446D01*
X75930Y-37118D01*
X75930Y-36898D01*
X75930Y-36857D01*
X76006Y-36826D01*
X76076Y-36756D01*
X76114Y-36665D01*
X76114Y-36566D01*
X76114Y-36321D01*
X79411Y-39618D01*
X79411Y-42285D01*
X79416Y-42310D01*
X79416Y-42369D01*
X79439Y-42425D01*
X79444Y-42450D01*
X79457Y-42470D01*
X79480Y-42525D01*
X79522Y-42567D01*
X79537Y-42589D01*
X79558Y-42603D01*
X79600Y-42645D01*
X79608Y-42648D01*
G54D10*
G36*
X79728Y-30795D02*
X79691Y-30832D01*
X79705Y-30846D01*
X79632Y-30919D01*
X79531Y-31159D01*
X79501Y-31085D01*
X79489Y-31043D01*
X79478Y-31030D01*
X79458Y-30980D01*
X79355Y-30878D01*
X79353Y-30875D01*
X79351Y-30874D01*
X79306Y-30829D01*
X79224Y-30795D01*
X79728Y-30795D01*
X79728Y-30795D01*
G37*
G54D23*
X79728Y-30795D02*
X79691Y-30832D01*
X79705Y-30846D01*
X79632Y-30919D01*
X79531Y-31159D01*
X79501Y-31085D01*
X79489Y-31043D01*
X79478Y-31030D01*
X79458Y-30980D01*
X79355Y-30878D01*
X79353Y-30875D01*
X79351Y-30874D01*
X79306Y-30829D01*
X79224Y-30795D01*
X79728Y-30795D01*
G54D10*
G36*
X79775Y-51205D02*
X79225Y-51205D01*
X79306Y-51172D01*
X79352Y-51125D01*
X79353Y-51125D01*
X79354Y-51123D01*
X79457Y-51020D01*
X79477Y-50971D01*
X79489Y-50957D01*
X79500Y-50919D01*
X79511Y-50957D01*
X79521Y-50969D01*
X79542Y-51020D01*
X79644Y-51121D01*
X79647Y-51125D01*
X79648Y-51125D01*
X79694Y-51171D01*
X79775Y-51205D01*
X79775Y-51205D01*
G37*
G54D23*
X79775Y-51205D02*
X79225Y-51205D01*
X79306Y-51172D01*
X79352Y-51125D01*
X79353Y-51125D01*
X79354Y-51123D01*
X79457Y-51020D01*
X79477Y-50971D01*
X79489Y-50957D01*
X79500Y-50919D01*
X79511Y-50957D01*
X79521Y-50969D01*
X79542Y-51020D01*
X79644Y-51121D01*
X79647Y-51125D01*
X79648Y-51125D01*
X79694Y-51171D01*
X79775Y-51205D01*
G54D10*
G36*
X80775Y-51205D02*
X80225Y-51205D01*
X80306Y-51172D01*
X80352Y-51125D01*
X80353Y-51125D01*
X80354Y-51123D01*
X80457Y-51020D01*
X80477Y-50971D01*
X80489Y-50957D01*
X80500Y-50919D01*
X80511Y-50957D01*
X80521Y-50969D01*
X80542Y-51020D01*
X80644Y-51121D01*
X80647Y-51125D01*
X80648Y-51125D01*
X80694Y-51171D01*
X80775Y-51205D01*
X80775Y-51205D01*
G37*
G54D23*
X80775Y-51205D02*
X80225Y-51205D01*
X80306Y-51172D01*
X80352Y-51125D01*
X80353Y-51125D01*
X80354Y-51123D01*
X80457Y-51020D01*
X80477Y-50971D01*
X80489Y-50957D01*
X80500Y-50919D01*
X80511Y-50957D01*
X80521Y-50969D01*
X80542Y-51020D01*
X80644Y-51121D01*
X80647Y-51125D01*
X80648Y-51125D01*
X80694Y-51171D01*
X80775Y-51205D01*
G54D10*
G36*
X81169Y-46818D02*
X79645Y-46818D01*
X79617Y-46790D01*
X81141Y-46790D01*
X81169Y-46818D01*
X81169Y-46818D01*
G37*
G54D23*
X81169Y-46818D02*
X79645Y-46818D01*
X79617Y-46790D01*
X81141Y-46790D01*
X81169Y-46818D01*
G54D10*
G36*
X81459Y-33630D02*
X81239Y-33851D01*
X81176Y-33945D01*
X81154Y-34056D01*
X81154Y-41364D01*
X80937Y-41581D01*
X80937Y-33924D01*
X81451Y-33410D01*
X81451Y-33609D01*
X81459Y-33630D01*
X81459Y-33630D01*
G37*
G54D23*
X81459Y-33630D02*
X81239Y-33851D01*
X81176Y-33945D01*
X81154Y-34056D01*
X81154Y-41364D01*
X80937Y-41581D01*
X80937Y-33924D01*
X81451Y-33410D01*
X81451Y-33609D01*
X81459Y-33630D01*
G54D10*
G36*
X81493Y-45710D02*
X78452Y-45710D01*
X78417Y-45675D01*
X78417Y-45631D01*
X81460Y-45631D01*
X81493Y-45710D01*
X81493Y-45710D01*
G37*
G54D23*
X81493Y-45710D02*
X78452Y-45710D01*
X78417Y-45675D01*
X78417Y-45631D01*
X81460Y-45631D01*
X81493Y-45710D01*
G54D10*
G36*
X81493Y-46290D02*
X81483Y-46312D01*
X81466Y-46295D01*
X81458Y-46290D01*
X81493Y-46290D01*
X81493Y-46290D01*
G37*
G54D23*
X81493Y-46290D02*
X81483Y-46312D01*
X81466Y-46295D01*
X81458Y-46290D01*
X81493Y-46290D01*
G54D10*
G36*
X81773Y-32000D02*
X81689Y-32035D01*
X81535Y-32189D01*
X81451Y-32391D01*
X81451Y-32609D01*
X81493Y-32710D01*
X81451Y-32710D01*
X81340Y-32732D01*
X81246Y-32795D01*
X80442Y-33599D01*
X80379Y-33693D01*
X80357Y-33804D01*
X80357Y-41900D01*
X80271Y-41986D01*
X80271Y-39440D01*
X80238Y-39276D01*
X80238Y-39275D01*
X80145Y-39136D01*
X80114Y-39105D01*
X80114Y-36665D01*
X80114Y-36566D01*
X80114Y-35836D01*
X80076Y-35744D01*
X80006Y-35674D01*
X79915Y-35636D01*
X79816Y-35636D01*
X79086Y-35636D01*
X78994Y-35674D01*
X78924Y-35744D01*
X78906Y-35786D01*
X78849Y-35729D01*
X78623Y-35635D01*
X78378Y-35635D01*
X78152Y-35729D01*
X77979Y-35901D01*
X77885Y-36127D01*
X77885Y-36372D01*
X77979Y-36598D01*
X78151Y-36771D01*
X78377Y-36865D01*
X78622Y-36865D01*
X78848Y-36771D01*
X78906Y-36713D01*
X78924Y-36756D01*
X78994Y-36826D01*
X79085Y-36864D01*
X79184Y-36864D01*
X79914Y-36864D01*
X80006Y-36826D01*
X80076Y-36756D01*
X80114Y-36665D01*
X80114Y-39105D01*
X75842Y-34833D01*
X75703Y-34740D01*
X75538Y-34707D01*
X53950Y-34707D01*
X53785Y-34740D01*
X53646Y-34833D01*
X53542Y-34937D01*
X53449Y-35076D01*
X53416Y-35241D01*
X53416Y-36643D01*
X53449Y-36808D01*
X53542Y-36947D01*
X53700Y-37105D01*
X52578Y-37105D01*
X52578Y-36250D01*
X52545Y-36085D01*
X52452Y-35946D01*
X52313Y-35853D01*
X52148Y-35820D01*
X52107Y-35820D01*
X52076Y-35744D01*
X52006Y-35674D01*
X51915Y-35636D01*
X51816Y-35636D01*
X51086Y-35636D01*
X50994Y-35674D01*
X50924Y-35744D01*
X50906Y-35786D01*
X50849Y-35729D01*
X50623Y-35635D01*
X50378Y-35635D01*
X50152Y-35729D01*
X49979Y-35901D01*
X49885Y-36127D01*
X49885Y-36372D01*
X49979Y-36598D01*
X50151Y-36771D01*
X50377Y-36865D01*
X50622Y-36865D01*
X50848Y-36771D01*
X50906Y-36713D01*
X50924Y-36756D01*
X50994Y-36826D01*
X51085Y-36864D01*
X51184Y-36864D01*
X51718Y-36864D01*
X51718Y-37357D01*
X51629Y-37446D01*
X51615Y-37466D01*
X51573Y-37509D01*
X51549Y-37566D01*
X51536Y-37586D01*
X51531Y-37608D01*
X51508Y-37665D01*
X51508Y-37725D01*
X51503Y-37750D01*
X51508Y-37774D01*
X51508Y-37834D01*
X51531Y-37890D01*
X51536Y-37914D01*
X51548Y-37932D01*
X51572Y-37990D01*
X51615Y-38033D01*
X51629Y-38054D01*
X51649Y-38067D01*
X51692Y-38110D01*
X51749Y-38133D01*
X51769Y-38147D01*
X51791Y-38151D01*
X51848Y-38175D01*
X51908Y-38175D01*
X51933Y-38180D01*
X51957Y-38175D01*
X52017Y-38175D01*
X52073Y-38151D01*
X52097Y-38147D01*
X52115Y-38134D01*
X52173Y-38111D01*
X52216Y-38067D01*
X52237Y-38054D01*
X52326Y-37965D01*
X59775Y-37965D01*
X59775Y-38088D01*
X59839Y-38244D01*
X59910Y-38315D01*
X59910Y-38679D01*
X53864Y-44725D01*
X53864Y-44336D01*
X53826Y-44244D01*
X53756Y-44174D01*
X53665Y-44136D01*
X53566Y-44136D01*
X52836Y-44136D01*
X52744Y-44174D01*
X52674Y-44244D01*
X52636Y-44335D01*
X52636Y-44434D01*
X52636Y-45164D01*
X52674Y-45256D01*
X52744Y-45326D01*
X52786Y-45343D01*
X52729Y-45401D01*
X52635Y-45627D01*
X52635Y-45872D01*
X52729Y-46098D01*
X52880Y-46250D01*
X52729Y-46401D01*
X52635Y-46627D01*
X52635Y-46872D01*
X52729Y-47098D01*
X52901Y-47271D01*
X53127Y-47365D01*
X53372Y-47365D01*
X53598Y-47271D01*
X53771Y-47099D01*
X53865Y-46873D01*
X53865Y-46628D01*
X53771Y-46402D01*
X53619Y-46249D01*
X53771Y-46099D01*
X53865Y-45873D01*
X53865Y-45628D01*
X53840Y-45569D01*
X60405Y-39006D01*
X60405Y-39005D01*
X60446Y-38943D01*
X60467Y-38912D01*
X60468Y-38911D01*
X60489Y-38801D01*
X60490Y-38800D01*
X60490Y-38315D01*
X60560Y-38245D01*
X60625Y-38089D01*
X60625Y-37965D01*
X65326Y-37965D01*
X65297Y-37977D01*
X65254Y-38019D01*
X65233Y-38034D01*
X65218Y-38055D01*
X65177Y-38097D01*
X65154Y-38151D01*
X65140Y-38173D01*
X65135Y-38197D01*
X65112Y-38253D01*
X65112Y-38313D01*
X65107Y-38338D01*
X65107Y-40688D01*
X65040Y-40754D01*
X65008Y-40676D01*
X64888Y-40556D01*
X64732Y-40491D01*
X64563Y-40491D01*
X64407Y-40555D01*
X64336Y-40626D01*
X61152Y-40626D01*
X61041Y-40648D01*
X60947Y-40711D01*
X60946Y-40711D01*
X60946Y-40712D01*
X57536Y-44122D01*
X57473Y-44216D01*
X57451Y-44327D01*
X57451Y-45241D01*
X57473Y-45352D01*
X57536Y-45446D01*
X57659Y-45569D01*
X57635Y-45627D01*
X57635Y-45872D01*
X57729Y-46098D01*
X57880Y-46250D01*
X57729Y-46401D01*
X57635Y-46627D01*
X57635Y-46872D01*
X57729Y-47098D01*
X57901Y-47271D01*
X58127Y-47365D01*
X58372Y-47365D01*
X58598Y-47271D01*
X58771Y-47099D01*
X58865Y-46873D01*
X58865Y-46628D01*
X58771Y-46402D01*
X58619Y-46249D01*
X58771Y-46099D01*
X58835Y-45943D01*
X59570Y-46678D01*
X59570Y-49952D01*
X59543Y-49980D01*
X59500Y-50081D01*
X59489Y-50043D01*
X59478Y-50030D01*
X59458Y-49980D01*
X59355Y-49878D01*
X59353Y-49875D01*
X59351Y-49874D01*
X59306Y-49829D01*
X59108Y-49746D01*
X58893Y-49746D01*
X58694Y-49828D01*
X58647Y-49874D01*
X58647Y-49875D01*
X58645Y-49876D01*
X58543Y-49980D01*
X58522Y-50028D01*
X58511Y-50043D01*
X58499Y-50081D01*
X58458Y-49980D01*
X58306Y-49829D01*
X58108Y-49746D01*
X57893Y-49746D01*
X57694Y-49828D01*
X57543Y-49980D01*
X57500Y-50081D01*
X57489Y-50043D01*
X57478Y-50030D01*
X57458Y-49980D01*
X57355Y-49878D01*
X57353Y-49875D01*
X57351Y-49874D01*
X57306Y-49829D01*
X57108Y-49746D01*
X56893Y-49746D01*
X56694Y-49828D01*
X56647Y-49874D01*
X56647Y-49875D01*
X56645Y-49876D01*
X56543Y-49980D01*
X56522Y-50028D01*
X56511Y-50043D01*
X56500Y-50080D01*
X56489Y-50043D01*
X56478Y-50030D01*
X56458Y-49980D01*
X56355Y-49878D01*
X56353Y-49875D01*
X56351Y-49874D01*
X56306Y-49829D01*
X56108Y-49746D01*
X55893Y-49746D01*
X55694Y-49828D01*
X55647Y-49874D01*
X55647Y-49875D01*
X55645Y-49876D01*
X55543Y-49980D01*
X55522Y-50028D01*
X55511Y-50043D01*
X55497Y-50087D01*
X55460Y-50178D01*
X55460Y-50216D01*
X55450Y-50250D01*
X55450Y-50450D01*
X55460Y-50450D01*
X55460Y-50550D01*
X55450Y-50550D01*
X55450Y-50750D01*
X55460Y-50783D01*
X55460Y-50821D01*
X55498Y-50914D01*
X55511Y-50957D01*
X55521Y-50969D01*
X55542Y-51020D01*
X55644Y-51121D01*
X55647Y-51125D01*
X55648Y-51125D01*
X55694Y-51171D01*
X55775Y-51205D01*
X51272Y-51205D01*
X51309Y-51168D01*
X51295Y-51154D01*
X51368Y-51081D01*
X51525Y-50705D01*
X51525Y-50297D01*
X51369Y-49920D01*
X51081Y-49632D01*
X50705Y-49475D01*
X50297Y-49475D01*
X49920Y-49631D01*
X49846Y-49705D01*
X49832Y-49691D01*
X49795Y-49728D01*
X49795Y-30795D01*
X50228Y-30795D01*
X50191Y-30832D01*
X50205Y-30846D01*
X50132Y-30919D01*
X49975Y-31295D01*
X49975Y-31703D01*
X50131Y-32080D01*
X50419Y-32368D01*
X50795Y-32525D01*
X51203Y-32525D01*
X51580Y-32369D01*
X51868Y-32081D01*
X51916Y-31964D01*
X51921Y-31969D01*
X51942Y-32020D01*
X52044Y-32121D01*
X52047Y-32125D01*
X52048Y-32125D01*
X52094Y-32171D01*
X52292Y-32254D01*
X52507Y-32254D01*
X52706Y-32172D01*
X52752Y-32125D01*
X52753Y-32125D01*
X52754Y-32123D01*
X52857Y-32020D01*
X52877Y-31971D01*
X52889Y-31957D01*
X52900Y-31919D01*
X52911Y-31957D01*
X52921Y-31969D01*
X52942Y-32020D01*
X53044Y-32121D01*
X53047Y-32125D01*
X53048Y-32125D01*
X53094Y-32171D01*
X53292Y-32254D01*
X53507Y-32254D01*
X53706Y-32172D01*
X53752Y-32125D01*
X53753Y-32125D01*
X53754Y-32123D01*
X53857Y-32020D01*
X53877Y-31971D01*
X53889Y-31957D01*
X53900Y-31919D01*
X53911Y-31957D01*
X53921Y-31969D01*
X53942Y-32020D01*
X54044Y-32121D01*
X54047Y-32125D01*
X54048Y-32125D01*
X54094Y-32171D01*
X54292Y-32254D01*
X54507Y-32254D01*
X54706Y-32172D01*
X54752Y-32125D01*
X54753Y-32125D01*
X54754Y-32123D01*
X54857Y-32020D01*
X54877Y-31971D01*
X54889Y-31957D01*
X54900Y-31919D01*
X54911Y-31957D01*
X54921Y-31969D01*
X54942Y-32020D01*
X55044Y-32121D01*
X55047Y-32125D01*
X55048Y-32125D01*
X55094Y-32171D01*
X55292Y-32254D01*
X55507Y-32254D01*
X55706Y-32172D01*
X55752Y-32125D01*
X55753Y-32125D01*
X55754Y-32123D01*
X55857Y-32020D01*
X55877Y-31971D01*
X55889Y-31957D01*
X55900Y-31919D01*
X55911Y-31957D01*
X55921Y-31969D01*
X55942Y-32020D01*
X56044Y-32121D01*
X56047Y-32125D01*
X56048Y-32125D01*
X56094Y-32171D01*
X56292Y-32254D01*
X56507Y-32254D01*
X56706Y-32172D01*
X56752Y-32125D01*
X56753Y-32125D01*
X56754Y-32123D01*
X56857Y-32020D01*
X56877Y-31971D01*
X56889Y-31957D01*
X56900Y-31919D01*
X56911Y-31957D01*
X56921Y-31969D01*
X56942Y-32020D01*
X57044Y-32121D01*
X57047Y-32125D01*
X57048Y-32125D01*
X57094Y-32171D01*
X57292Y-32254D01*
X57507Y-32254D01*
X57706Y-32172D01*
X57752Y-32125D01*
X57753Y-32125D01*
X57754Y-32123D01*
X57857Y-32020D01*
X57877Y-31971D01*
X57889Y-31957D01*
X57900Y-31919D01*
X57911Y-31957D01*
X57921Y-31969D01*
X57942Y-32020D01*
X58044Y-32121D01*
X58047Y-32125D01*
X58048Y-32125D01*
X58094Y-32171D01*
X58292Y-32254D01*
X58507Y-32254D01*
X58706Y-32172D01*
X58752Y-32125D01*
X58753Y-32125D01*
X58754Y-32123D01*
X58857Y-32020D01*
X58877Y-31971D01*
X58889Y-31957D01*
X58900Y-31919D01*
X58911Y-31957D01*
X58921Y-31969D01*
X58942Y-32020D01*
X59044Y-32121D01*
X59047Y-32125D01*
X59048Y-32125D01*
X59094Y-32171D01*
X59292Y-32254D01*
X59507Y-32254D01*
X59706Y-32172D01*
X59752Y-32125D01*
X59753Y-32125D01*
X59754Y-32123D01*
X59857Y-32020D01*
X59877Y-31971D01*
X59889Y-31957D01*
X59900Y-31919D01*
X59911Y-31957D01*
X59921Y-31969D01*
X59942Y-32020D01*
X60044Y-32121D01*
X60047Y-32125D01*
X60048Y-32125D01*
X60094Y-32171D01*
X60292Y-32254D01*
X60507Y-32254D01*
X60706Y-32172D01*
X60752Y-32125D01*
X60753Y-32125D01*
X60754Y-32123D01*
X60857Y-32020D01*
X60877Y-31971D01*
X60889Y-31957D01*
X60900Y-31919D01*
X60911Y-31957D01*
X60921Y-31969D01*
X60942Y-32020D01*
X61044Y-32121D01*
X61047Y-32125D01*
X61048Y-32125D01*
X61094Y-32171D01*
X61292Y-32254D01*
X61507Y-32254D01*
X61706Y-32172D01*
X61752Y-32125D01*
X61753Y-32125D01*
X61754Y-32123D01*
X61857Y-32020D01*
X61877Y-31971D01*
X61889Y-31957D01*
X61902Y-31912D01*
X61940Y-31822D01*
X61940Y-31783D01*
X61950Y-31750D01*
X61950Y-31550D01*
X61940Y-31550D01*
X61940Y-31450D01*
X61950Y-31450D01*
X61950Y-31250D01*
X61940Y-31216D01*
X61940Y-31179D01*
X61901Y-31085D01*
X61889Y-31043D01*
X61878Y-31030D01*
X61858Y-30980D01*
X61755Y-30878D01*
X61753Y-30875D01*
X61751Y-30874D01*
X61706Y-30829D01*
X61624Y-30795D01*
X62774Y-30795D01*
X62694Y-30828D01*
X62647Y-30874D01*
X62647Y-30875D01*
X62645Y-30876D01*
X62543Y-30980D01*
X62522Y-31028D01*
X62511Y-31043D01*
X62497Y-31087D01*
X62460Y-31178D01*
X62460Y-31216D01*
X62450Y-31250D01*
X62450Y-31450D01*
X62460Y-31450D01*
X62460Y-31550D01*
X62450Y-31550D01*
X62450Y-31750D01*
X62460Y-31783D01*
X62460Y-31821D01*
X62498Y-31914D01*
X62511Y-31957D01*
X62521Y-31969D01*
X62542Y-32020D01*
X62644Y-32121D01*
X62647Y-32125D01*
X62648Y-32125D01*
X62694Y-32171D01*
X62892Y-32254D01*
X63107Y-32254D01*
X63306Y-32172D01*
X63352Y-32125D01*
X63353Y-32125D01*
X63354Y-32123D01*
X63457Y-32020D01*
X63477Y-31971D01*
X63489Y-31957D01*
X63500Y-31919D01*
X63511Y-31957D01*
X63521Y-31969D01*
X63542Y-32020D01*
X63644Y-32121D01*
X63647Y-32125D01*
X63648Y-32125D01*
X63694Y-32171D01*
X63892Y-32254D01*
X64107Y-32254D01*
X64306Y-32172D01*
X64352Y-32125D01*
X64353Y-32125D01*
X64354Y-32123D01*
X64457Y-32020D01*
X64477Y-31971D01*
X64489Y-31957D01*
X64500Y-31919D01*
X64511Y-31957D01*
X64521Y-31969D01*
X64542Y-32020D01*
X64644Y-32121D01*
X64647Y-32125D01*
X64648Y-32125D01*
X64694Y-32171D01*
X64892Y-32254D01*
X65107Y-32254D01*
X65306Y-32172D01*
X65352Y-32125D01*
X65353Y-32125D01*
X65354Y-32123D01*
X65457Y-32020D01*
X65477Y-31971D01*
X65489Y-31957D01*
X65500Y-31919D01*
X65511Y-31957D01*
X65521Y-31969D01*
X65542Y-32020D01*
X65644Y-32121D01*
X65647Y-32125D01*
X65648Y-32125D01*
X65694Y-32171D01*
X65892Y-32254D01*
X66107Y-32254D01*
X66306Y-32172D01*
X66352Y-32125D01*
X66353Y-32125D01*
X66354Y-32123D01*
X66457Y-32020D01*
X66477Y-31971D01*
X66489Y-31957D01*
X66500Y-31919D01*
X66511Y-31957D01*
X66521Y-31969D01*
X66542Y-32020D01*
X66644Y-32121D01*
X66647Y-32125D01*
X66648Y-32125D01*
X66694Y-32171D01*
X66892Y-32254D01*
X67107Y-32254D01*
X67306Y-32172D01*
X67352Y-32125D01*
X67353Y-32125D01*
X67354Y-32123D01*
X67457Y-32020D01*
X67477Y-31971D01*
X67489Y-31957D01*
X67500Y-31919D01*
X67511Y-31957D01*
X67521Y-31969D01*
X67542Y-32020D01*
X67644Y-32121D01*
X67647Y-32125D01*
X67648Y-32125D01*
X67694Y-32171D01*
X67892Y-32254D01*
X68107Y-32254D01*
X68306Y-32172D01*
X68352Y-32125D01*
X68353Y-32125D01*
X68354Y-32123D01*
X68457Y-32020D01*
X68477Y-31971D01*
X68489Y-31957D01*
X68500Y-31919D01*
X68511Y-31957D01*
X68521Y-31969D01*
X68542Y-32020D01*
X68644Y-32121D01*
X68647Y-32125D01*
X68648Y-32125D01*
X68694Y-32171D01*
X68892Y-32254D01*
X69107Y-32254D01*
X69306Y-32172D01*
X69352Y-32125D01*
X69353Y-32125D01*
X69354Y-32123D01*
X69457Y-32020D01*
X69477Y-31971D01*
X69489Y-31957D01*
X69500Y-31919D01*
X69511Y-31957D01*
X69521Y-31969D01*
X69542Y-32020D01*
X69644Y-32121D01*
X69647Y-32125D01*
X69648Y-32125D01*
X69694Y-32171D01*
X69892Y-32254D01*
X70107Y-32254D01*
X70306Y-32172D01*
X70352Y-32125D01*
X70353Y-32125D01*
X70354Y-32123D01*
X70457Y-32020D01*
X70477Y-31971D01*
X70489Y-31957D01*
X70502Y-31912D01*
X70540Y-31822D01*
X70540Y-31783D01*
X70550Y-31750D01*
X70550Y-31550D01*
X70540Y-31550D01*
X70540Y-31450D01*
X70550Y-31450D01*
X70550Y-31250D01*
X70540Y-31216D01*
X70540Y-31179D01*
X70501Y-31085D01*
X70489Y-31043D01*
X70478Y-31030D01*
X70458Y-30980D01*
X70355Y-30878D01*
X70353Y-30875D01*
X70351Y-30874D01*
X70306Y-30829D01*
X70224Y-30795D01*
X71774Y-30795D01*
X71694Y-30828D01*
X71647Y-30874D01*
X71647Y-30875D01*
X71645Y-30876D01*
X71543Y-30980D01*
X71522Y-31028D01*
X71511Y-31043D01*
X71497Y-31087D01*
X71460Y-31178D01*
X71460Y-31216D01*
X71450Y-31250D01*
X71450Y-31450D01*
X71460Y-31450D01*
X71460Y-31550D01*
X71450Y-31550D01*
X71450Y-31750D01*
X71460Y-31783D01*
X71460Y-31821D01*
X71498Y-31914D01*
X71511Y-31957D01*
X71521Y-31969D01*
X71542Y-32020D01*
X71644Y-32121D01*
X71647Y-32125D01*
X71648Y-32125D01*
X71694Y-32171D01*
X71892Y-32254D01*
X72107Y-32254D01*
X72306Y-32172D01*
X72352Y-32125D01*
X72353Y-32125D01*
X72354Y-32123D01*
X72457Y-32020D01*
X72477Y-31971D01*
X72489Y-31957D01*
X72500Y-31919D01*
X72511Y-31957D01*
X72521Y-31969D01*
X72542Y-32020D01*
X72644Y-32121D01*
X72647Y-32125D01*
X72648Y-32125D01*
X72694Y-32171D01*
X72892Y-32254D01*
X73107Y-32254D01*
X73306Y-32172D01*
X73352Y-32125D01*
X73353Y-32125D01*
X73354Y-32123D01*
X73457Y-32020D01*
X73477Y-31971D01*
X73489Y-31957D01*
X73500Y-31919D01*
X73511Y-31957D01*
X73521Y-31969D01*
X73542Y-32020D01*
X73644Y-32121D01*
X73647Y-32125D01*
X73648Y-32125D01*
X73694Y-32171D01*
X73892Y-32254D01*
X74107Y-32254D01*
X74306Y-32172D01*
X74352Y-32125D01*
X74353Y-32125D01*
X74354Y-32123D01*
X74457Y-32020D01*
X74477Y-31971D01*
X74489Y-31957D01*
X74500Y-31919D01*
X74511Y-31957D01*
X74521Y-31969D01*
X74542Y-32020D01*
X74644Y-32121D01*
X74647Y-32125D01*
X74648Y-32125D01*
X74694Y-32171D01*
X74892Y-32254D01*
X75107Y-32254D01*
X75306Y-32172D01*
X75352Y-32125D01*
X75353Y-32125D01*
X75354Y-32123D01*
X75457Y-32020D01*
X75477Y-31971D01*
X75489Y-31957D01*
X75500Y-31919D01*
X75511Y-31957D01*
X75521Y-31969D01*
X75542Y-32020D01*
X75644Y-32121D01*
X75647Y-32125D01*
X75648Y-32125D01*
X75694Y-32171D01*
X75892Y-32254D01*
X76107Y-32254D01*
X76306Y-32172D01*
X76352Y-32125D01*
X76353Y-32125D01*
X76354Y-32123D01*
X76457Y-32020D01*
X76477Y-31971D01*
X76489Y-31957D01*
X76500Y-31919D01*
X76511Y-31957D01*
X76521Y-31969D01*
X76542Y-32020D01*
X76644Y-32121D01*
X76647Y-32125D01*
X76648Y-32125D01*
X76694Y-32171D01*
X76892Y-32254D01*
X77107Y-32254D01*
X77306Y-32172D01*
X77352Y-32125D01*
X77353Y-32125D01*
X77354Y-32123D01*
X77457Y-32020D01*
X77477Y-31971D01*
X77489Y-31957D01*
X77500Y-31919D01*
X77511Y-31957D01*
X77521Y-31969D01*
X77542Y-32020D01*
X77644Y-32121D01*
X77647Y-32125D01*
X77648Y-32125D01*
X77694Y-32171D01*
X77892Y-32254D01*
X78107Y-32254D01*
X78306Y-32172D01*
X78352Y-32125D01*
X78353Y-32125D01*
X78354Y-32123D01*
X78457Y-32020D01*
X78477Y-31971D01*
X78489Y-31957D01*
X78500Y-31919D01*
X78511Y-31957D01*
X78521Y-31969D01*
X78542Y-32020D01*
X78644Y-32121D01*
X78647Y-32125D01*
X78648Y-32125D01*
X78694Y-32171D01*
X78892Y-32254D01*
X79107Y-32254D01*
X79306Y-32172D01*
X79352Y-32125D01*
X79353Y-32125D01*
X79354Y-32123D01*
X79457Y-32020D01*
X79477Y-31971D01*
X79489Y-31957D01*
X79502Y-31912D01*
X79532Y-31840D01*
X79631Y-32080D01*
X79919Y-32368D01*
X80295Y-32525D01*
X80703Y-32525D01*
X81080Y-32369D01*
X81368Y-32081D01*
X81507Y-31745D01*
X81535Y-31811D01*
X81689Y-31965D01*
X81773Y-32000D01*
X81773Y-32000D01*
G37*
G54D23*
X81773Y-32000D02*
X81689Y-32035D01*
X81535Y-32189D01*
X81451Y-32391D01*
X81451Y-32609D01*
X81493Y-32710D01*
X81451Y-32710D01*
X81340Y-32732D01*
X81246Y-32795D01*
X80442Y-33599D01*
X80379Y-33693D01*
X80357Y-33804D01*
X80357Y-41900D01*
X80271Y-41986D01*
X80271Y-39440D01*
X80238Y-39276D01*
X80238Y-39275D01*
X80145Y-39136D01*
X80114Y-39105D01*
X80114Y-36665D01*
X80114Y-36566D01*
X80114Y-35836D01*
X80076Y-35744D01*
X80006Y-35674D01*
X79915Y-35636D01*
X79816Y-35636D01*
X79086Y-35636D01*
X78994Y-35674D01*
X78924Y-35744D01*
X78906Y-35786D01*
X78849Y-35729D01*
X78623Y-35635D01*
X78378Y-35635D01*
X78152Y-35729D01*
X77979Y-35901D01*
X77885Y-36127D01*
X77885Y-36372D01*
X77979Y-36598D01*
X78151Y-36771D01*
X78377Y-36865D01*
X78622Y-36865D01*
X78848Y-36771D01*
X78906Y-36713D01*
X78924Y-36756D01*
X78994Y-36826D01*
X79085Y-36864D01*
X79184Y-36864D01*
X79914Y-36864D01*
X80006Y-36826D01*
X80076Y-36756D01*
X80114Y-36665D01*
X80114Y-39105D01*
X75842Y-34833D01*
X75703Y-34740D01*
X75538Y-34707D01*
X53950Y-34707D01*
X53785Y-34740D01*
X53646Y-34833D01*
X53542Y-34937D01*
X53449Y-35076D01*
X53416Y-35241D01*
X53416Y-36643D01*
X53449Y-36808D01*
X53542Y-36947D01*
X53700Y-37105D01*
X52578Y-37105D01*
X52578Y-36250D01*
X52545Y-36085D01*
X52452Y-35946D01*
X52313Y-35853D01*
X52148Y-35820D01*
X52107Y-35820D01*
X52076Y-35744D01*
X52006Y-35674D01*
X51915Y-35636D01*
X51816Y-35636D01*
X51086Y-35636D01*
X50994Y-35674D01*
X50924Y-35744D01*
X50906Y-35786D01*
X50849Y-35729D01*
X50623Y-35635D01*
X50378Y-35635D01*
X50152Y-35729D01*
X49979Y-35901D01*
X49885Y-36127D01*
X49885Y-36372D01*
X49979Y-36598D01*
X50151Y-36771D01*
X50377Y-36865D01*
X50622Y-36865D01*
X50848Y-36771D01*
X50906Y-36713D01*
X50924Y-36756D01*
X50994Y-36826D01*
X51085Y-36864D01*
X51184Y-36864D01*
X51718Y-36864D01*
X51718Y-37357D01*
X51629Y-37446D01*
X51615Y-37466D01*
X51573Y-37509D01*
X51549Y-37566D01*
X51536Y-37586D01*
X51531Y-37608D01*
X51508Y-37665D01*
X51508Y-37725D01*
X51503Y-37750D01*
X51508Y-37774D01*
X51508Y-37834D01*
X51531Y-37890D01*
X51536Y-37914D01*
X51548Y-37932D01*
X51572Y-37990D01*
X51615Y-38033D01*
X51629Y-38054D01*
X51649Y-38067D01*
X51692Y-38110D01*
X51749Y-38133D01*
X51769Y-38147D01*
X51791Y-38151D01*
X51848Y-38175D01*
X51908Y-38175D01*
X51933Y-38180D01*
X51957Y-38175D01*
X52017Y-38175D01*
X52073Y-38151D01*
X52097Y-38147D01*
X52115Y-38134D01*
X52173Y-38111D01*
X52216Y-38067D01*
X52237Y-38054D01*
X52326Y-37965D01*
X59775Y-37965D01*
X59775Y-38088D01*
X59839Y-38244D01*
X59910Y-38315D01*
X59910Y-38679D01*
X53864Y-44725D01*
X53864Y-44336D01*
X53826Y-44244D01*
X53756Y-44174D01*
X53665Y-44136D01*
X53566Y-44136D01*
X52836Y-44136D01*
X52744Y-44174D01*
X52674Y-44244D01*
X52636Y-44335D01*
X52636Y-44434D01*
X52636Y-45164D01*
X52674Y-45256D01*
X52744Y-45326D01*
X52786Y-45343D01*
X52729Y-45401D01*
X52635Y-45627D01*
X52635Y-45872D01*
X52729Y-46098D01*
X52880Y-46250D01*
X52729Y-46401D01*
X52635Y-46627D01*
X52635Y-46872D01*
X52729Y-47098D01*
X52901Y-47271D01*
X53127Y-47365D01*
X53372Y-47365D01*
X53598Y-47271D01*
X53771Y-47099D01*
X53865Y-46873D01*
X53865Y-46628D01*
X53771Y-46402D01*
X53619Y-46249D01*
X53771Y-46099D01*
X53865Y-45873D01*
X53865Y-45628D01*
X53840Y-45569D01*
X60405Y-39006D01*
X60405Y-39005D01*
X60446Y-38943D01*
X60467Y-38912D01*
X60468Y-38911D01*
X60489Y-38801D01*
X60490Y-38800D01*
X60490Y-38315D01*
X60560Y-38245D01*
X60625Y-38089D01*
X60625Y-37965D01*
X65326Y-37965D01*
X65297Y-37977D01*
X65254Y-38019D01*
X65233Y-38034D01*
X65218Y-38055D01*
X65177Y-38097D01*
X65154Y-38151D01*
X65140Y-38173D01*
X65135Y-38197D01*
X65112Y-38253D01*
X65112Y-38313D01*
X65107Y-38338D01*
X65107Y-40688D01*
X65040Y-40754D01*
X65008Y-40676D01*
X64888Y-40556D01*
X64732Y-40491D01*
X64563Y-40491D01*
X64407Y-40555D01*
X64336Y-40626D01*
X61152Y-40626D01*
X61041Y-40648D01*
X60947Y-40711D01*
X60946Y-40711D01*
X60946Y-40712D01*
X57536Y-44122D01*
X57473Y-44216D01*
X57451Y-44327D01*
X57451Y-45241D01*
X57473Y-45352D01*
X57536Y-45446D01*
X57659Y-45569D01*
X57635Y-45627D01*
X57635Y-45872D01*
X57729Y-46098D01*
X57880Y-46250D01*
X57729Y-46401D01*
X57635Y-46627D01*
X57635Y-46872D01*
X57729Y-47098D01*
X57901Y-47271D01*
X58127Y-47365D01*
X58372Y-47365D01*
X58598Y-47271D01*
X58771Y-47099D01*
X58865Y-46873D01*
X58865Y-46628D01*
X58771Y-46402D01*
X58619Y-46249D01*
X58771Y-46099D01*
X58835Y-45943D01*
X59570Y-46678D01*
X59570Y-49952D01*
X59543Y-49980D01*
X59500Y-50081D01*
X59489Y-50043D01*
X59478Y-50030D01*
X59458Y-49980D01*
X59355Y-49878D01*
X59353Y-49875D01*
X59351Y-49874D01*
X59306Y-49829D01*
X59108Y-49746D01*
X58893Y-49746D01*
X58694Y-49828D01*
X58647Y-49874D01*
X58647Y-49875D01*
X58645Y-49876D01*
X58543Y-49980D01*
X58522Y-50028D01*
X58511Y-50043D01*
X58499Y-50081D01*
X58458Y-49980D01*
X58306Y-49829D01*
X58108Y-49746D01*
X57893Y-49746D01*
X57694Y-49828D01*
X57543Y-49980D01*
X57500Y-50081D01*
X57489Y-50043D01*
X57478Y-50030D01*
X57458Y-49980D01*
X57355Y-49878D01*
X57353Y-49875D01*
X57351Y-49874D01*
X57306Y-49829D01*
X57108Y-49746D01*
X56893Y-49746D01*
X56694Y-49828D01*
X56647Y-49874D01*
X56647Y-49875D01*
X56645Y-49876D01*
X56543Y-49980D01*
X56522Y-50028D01*
X56511Y-50043D01*
X56500Y-50080D01*
X56489Y-50043D01*
X56478Y-50030D01*
X56458Y-49980D01*
X56355Y-49878D01*
X56353Y-49875D01*
X56351Y-49874D01*
X56306Y-49829D01*
X56108Y-49746D01*
X55893Y-49746D01*
X55694Y-49828D01*
X55647Y-49874D01*
X55647Y-49875D01*
X55645Y-49876D01*
X55543Y-49980D01*
X55522Y-50028D01*
X55511Y-50043D01*
X55497Y-50087D01*
X55460Y-50178D01*
X55460Y-50216D01*
X55450Y-50250D01*
X55450Y-50450D01*
X55460Y-50450D01*
X55460Y-50550D01*
X55450Y-50550D01*
X55450Y-50750D01*
X55460Y-50783D01*
X55460Y-50821D01*
X55498Y-50914D01*
X55511Y-50957D01*
X55521Y-50969D01*
X55542Y-51020D01*
X55644Y-51121D01*
X55647Y-51125D01*
X55648Y-51125D01*
X55694Y-51171D01*
X55775Y-51205D01*
X51272Y-51205D01*
X51309Y-51168D01*
X51295Y-51154D01*
X51368Y-51081D01*
X51525Y-50705D01*
X51525Y-50297D01*
X51369Y-49920D01*
X51081Y-49632D01*
X50705Y-49475D01*
X50297Y-49475D01*
X49920Y-49631D01*
X49846Y-49705D01*
X49832Y-49691D01*
X49795Y-49728D01*
X49795Y-30795D01*
X50228Y-30795D01*
X50191Y-30832D01*
X50205Y-30846D01*
X50132Y-30919D01*
X49975Y-31295D01*
X49975Y-31703D01*
X50131Y-32080D01*
X50419Y-32368D01*
X50795Y-32525D01*
X51203Y-32525D01*
X51580Y-32369D01*
X51868Y-32081D01*
X51916Y-31964D01*
X51921Y-31969D01*
X51942Y-32020D01*
X52044Y-32121D01*
X52047Y-32125D01*
X52048Y-32125D01*
X52094Y-32171D01*
X52292Y-32254D01*
X52507Y-32254D01*
X52706Y-32172D01*
X52752Y-32125D01*
X52753Y-32125D01*
X52754Y-32123D01*
X52857Y-32020D01*
X52877Y-31971D01*
X52889Y-31957D01*
X52900Y-31919D01*
X52911Y-31957D01*
X52921Y-31969D01*
X52942Y-32020D01*
X53044Y-32121D01*
X53047Y-32125D01*
X53048Y-32125D01*
X53094Y-32171D01*
X53292Y-32254D01*
X53507Y-32254D01*
X53706Y-32172D01*
X53752Y-32125D01*
X53753Y-32125D01*
X53754Y-32123D01*
X53857Y-32020D01*
X53877Y-31971D01*
X53889Y-31957D01*
X53900Y-31919D01*
X53911Y-31957D01*
X53921Y-31969D01*
X53942Y-32020D01*
X54044Y-32121D01*
X54047Y-32125D01*
X54048Y-32125D01*
X54094Y-32171D01*
X54292Y-32254D01*
X54507Y-32254D01*
X54706Y-32172D01*
X54752Y-32125D01*
X54753Y-32125D01*
X54754Y-32123D01*
X54857Y-32020D01*
X54877Y-31971D01*
X54889Y-31957D01*
X54900Y-31919D01*
X54911Y-31957D01*
X54921Y-31969D01*
X54942Y-32020D01*
X55044Y-32121D01*
X55047Y-32125D01*
X55048Y-32125D01*
X55094Y-32171D01*
X55292Y-32254D01*
X55507Y-32254D01*
X55706Y-32172D01*
X55752Y-32125D01*
X55753Y-32125D01*
X55754Y-32123D01*
X55857Y-32020D01*
X55877Y-31971D01*
X55889Y-31957D01*
X55900Y-31919D01*
X55911Y-31957D01*
X55921Y-31969D01*
X55942Y-32020D01*
X56044Y-32121D01*
X56047Y-32125D01*
X56048Y-32125D01*
X56094Y-32171D01*
X56292Y-32254D01*
X56507Y-32254D01*
X56706Y-32172D01*
X56752Y-32125D01*
X56753Y-32125D01*
X56754Y-32123D01*
X56857Y-32020D01*
X56877Y-31971D01*
X56889Y-31957D01*
X56900Y-31919D01*
X56911Y-31957D01*
X56921Y-31969D01*
X56942Y-32020D01*
X57044Y-32121D01*
X57047Y-32125D01*
X57048Y-32125D01*
X57094Y-32171D01*
X57292Y-32254D01*
X57507Y-32254D01*
X57706Y-32172D01*
X57752Y-32125D01*
X57753Y-32125D01*
X57754Y-32123D01*
X57857Y-32020D01*
X57877Y-31971D01*
X57889Y-31957D01*
X57900Y-31919D01*
X57911Y-31957D01*
X57921Y-31969D01*
X57942Y-32020D01*
X58044Y-32121D01*
X58047Y-32125D01*
X58048Y-32125D01*
X58094Y-32171D01*
X58292Y-32254D01*
X58507Y-32254D01*
X58706Y-32172D01*
X58752Y-32125D01*
X58753Y-32125D01*
X58754Y-32123D01*
X58857Y-32020D01*
X58877Y-31971D01*
X58889Y-31957D01*
X58900Y-31919D01*
X58911Y-31957D01*
X58921Y-31969D01*
X58942Y-32020D01*
X59044Y-32121D01*
X59047Y-32125D01*
X59048Y-32125D01*
X59094Y-32171D01*
X59292Y-32254D01*
X59507Y-32254D01*
X59706Y-32172D01*
X59752Y-32125D01*
X59753Y-32125D01*
X59754Y-32123D01*
X59857Y-32020D01*
X59877Y-31971D01*
X59889Y-31957D01*
X59900Y-31919D01*
X59911Y-31957D01*
X59921Y-31969D01*
X59942Y-32020D01*
X60044Y-32121D01*
X60047Y-32125D01*
X60048Y-32125D01*
X60094Y-32171D01*
X60292Y-32254D01*
X60507Y-32254D01*
X60706Y-32172D01*
X60752Y-32125D01*
X60753Y-32125D01*
X60754Y-32123D01*
X60857Y-32020D01*
X60877Y-31971D01*
X60889Y-31957D01*
X60900Y-31919D01*
X60911Y-31957D01*
X60921Y-31969D01*
X60942Y-32020D01*
X61044Y-32121D01*
X61047Y-32125D01*
X61048Y-32125D01*
X61094Y-32171D01*
X61292Y-32254D01*
X61507Y-32254D01*
X61706Y-32172D01*
X61752Y-32125D01*
X61753Y-32125D01*
X61754Y-32123D01*
X61857Y-32020D01*
X61877Y-31971D01*
X61889Y-31957D01*
X61902Y-31912D01*
X61940Y-31822D01*
X61940Y-31783D01*
X61950Y-31750D01*
X61950Y-31550D01*
X61940Y-31550D01*
X61940Y-31450D01*
X61950Y-31450D01*
X61950Y-31250D01*
X61940Y-31216D01*
X61940Y-31179D01*
X61901Y-31085D01*
X61889Y-31043D01*
X61878Y-31030D01*
X61858Y-30980D01*
X61755Y-30878D01*
X61753Y-30875D01*
X61751Y-30874D01*
X61706Y-30829D01*
X61624Y-30795D01*
X62774Y-30795D01*
X62694Y-30828D01*
X62647Y-30874D01*
X62647Y-30875D01*
X62645Y-30876D01*
X62543Y-30980D01*
X62522Y-31028D01*
X62511Y-31043D01*
X62497Y-31087D01*
X62460Y-31178D01*
X62460Y-31216D01*
X62450Y-31250D01*
X62450Y-31450D01*
X62460Y-31450D01*
X62460Y-31550D01*
X62450Y-31550D01*
X62450Y-31750D01*
X62460Y-31783D01*
X62460Y-31821D01*
X62498Y-31914D01*
X62511Y-31957D01*
X62521Y-31969D01*
X62542Y-32020D01*
X62644Y-32121D01*
X62647Y-32125D01*
X62648Y-32125D01*
X62694Y-32171D01*
X62892Y-32254D01*
X63107Y-32254D01*
X63306Y-32172D01*
X63352Y-32125D01*
X63353Y-32125D01*
X63354Y-32123D01*
X63457Y-32020D01*
X63477Y-31971D01*
X63489Y-31957D01*
X63500Y-31919D01*
X63511Y-31957D01*
X63521Y-31969D01*
X63542Y-32020D01*
X63644Y-32121D01*
X63647Y-32125D01*
X63648Y-32125D01*
X63694Y-32171D01*
X63892Y-32254D01*
X64107Y-32254D01*
X64306Y-32172D01*
X64352Y-32125D01*
X64353Y-32125D01*
X64354Y-32123D01*
X64457Y-32020D01*
X64477Y-31971D01*
X64489Y-31957D01*
X64500Y-31919D01*
X64511Y-31957D01*
X64521Y-31969D01*
X64542Y-32020D01*
X64644Y-32121D01*
X64647Y-32125D01*
X64648Y-32125D01*
X64694Y-32171D01*
X64892Y-32254D01*
X65107Y-32254D01*
X65306Y-32172D01*
X65352Y-32125D01*
X65353Y-32125D01*
X65354Y-32123D01*
X65457Y-32020D01*
X65477Y-31971D01*
X65489Y-31957D01*
X65500Y-31919D01*
X65511Y-31957D01*
X65521Y-31969D01*
X65542Y-32020D01*
X65644Y-32121D01*
X65647Y-32125D01*
X65648Y-32125D01*
X65694Y-32171D01*
X65892Y-32254D01*
X66107Y-32254D01*
X66306Y-32172D01*
X66352Y-32125D01*
X66353Y-32125D01*
X66354Y-32123D01*
X66457Y-32020D01*
X66477Y-31971D01*
X66489Y-31957D01*
X66500Y-31919D01*
X66511Y-31957D01*
X66521Y-31969D01*
X66542Y-32020D01*
X66644Y-32121D01*
X66647Y-32125D01*
X66648Y-32125D01*
X66694Y-32171D01*
X66892Y-32254D01*
X67107Y-32254D01*
X67306Y-32172D01*
X67352Y-32125D01*
X67353Y-32125D01*
X67354Y-32123D01*
X67457Y-32020D01*
X67477Y-31971D01*
X67489Y-31957D01*
X67500Y-31919D01*
X67511Y-31957D01*
X67521Y-31969D01*
X67542Y-32020D01*
X67644Y-32121D01*
X67647Y-32125D01*
X67648Y-32125D01*
X67694Y-32171D01*
X67892Y-32254D01*
X68107Y-32254D01*
X68306Y-32172D01*
X68352Y-32125D01*
X68353Y-32125D01*
X68354Y-32123D01*
X68457Y-32020D01*
X68477Y-31971D01*
X68489Y-31957D01*
X68500Y-31919D01*
X68511Y-31957D01*
X68521Y-31969D01*
X68542Y-32020D01*
X68644Y-32121D01*
X68647Y-32125D01*
X68648Y-32125D01*
X68694Y-32171D01*
X68892Y-32254D01*
X69107Y-32254D01*
X69306Y-32172D01*
X69352Y-32125D01*
X69353Y-32125D01*
X69354Y-32123D01*
X69457Y-32020D01*
X69477Y-31971D01*
X69489Y-31957D01*
X69500Y-31919D01*
X69511Y-31957D01*
X69521Y-31969D01*
X69542Y-32020D01*
X69644Y-32121D01*
X69647Y-32125D01*
X69648Y-32125D01*
X69694Y-32171D01*
X69892Y-32254D01*
X70107Y-32254D01*
X70306Y-32172D01*
X70352Y-32125D01*
X70353Y-32125D01*
X70354Y-32123D01*
X70457Y-32020D01*
X70477Y-31971D01*
X70489Y-31957D01*
X70502Y-31912D01*
X70540Y-31822D01*
X70540Y-31783D01*
X70550Y-31750D01*
X70550Y-31550D01*
X70540Y-31550D01*
X70540Y-31450D01*
X70550Y-31450D01*
X70550Y-31250D01*
X70540Y-31216D01*
X70540Y-31179D01*
X70501Y-31085D01*
X70489Y-31043D01*
X70478Y-31030D01*
X70458Y-30980D01*
X70355Y-30878D01*
X70353Y-30875D01*
X70351Y-30874D01*
X70306Y-30829D01*
X70224Y-30795D01*
X71774Y-30795D01*
X71694Y-30828D01*
X71647Y-30874D01*
X71647Y-30875D01*
X71645Y-30876D01*
X71543Y-30980D01*
X71522Y-31028D01*
X71511Y-31043D01*
X71497Y-31087D01*
X71460Y-31178D01*
X71460Y-31216D01*
X71450Y-31250D01*
X71450Y-31450D01*
X71460Y-31450D01*
X71460Y-31550D01*
X71450Y-31550D01*
X71450Y-31750D01*
X71460Y-31783D01*
X71460Y-31821D01*
X71498Y-31914D01*
X71511Y-31957D01*
X71521Y-31969D01*
X71542Y-32020D01*
X71644Y-32121D01*
X71647Y-32125D01*
X71648Y-32125D01*
X71694Y-32171D01*
X71892Y-32254D01*
X72107Y-32254D01*
X72306Y-32172D01*
X72352Y-32125D01*
X72353Y-32125D01*
X72354Y-32123D01*
X72457Y-32020D01*
X72477Y-31971D01*
X72489Y-31957D01*
X72500Y-31919D01*
X72511Y-31957D01*
X72521Y-31969D01*
X72542Y-32020D01*
X72644Y-32121D01*
X72647Y-32125D01*
X72648Y-32125D01*
X72694Y-32171D01*
X72892Y-32254D01*
X73107Y-32254D01*
X73306Y-32172D01*
X73352Y-32125D01*
X73353Y-32125D01*
X73354Y-32123D01*
X73457Y-32020D01*
X73477Y-31971D01*
X73489Y-31957D01*
X73500Y-31919D01*
X73511Y-31957D01*
X73521Y-31969D01*
X73542Y-32020D01*
X73644Y-32121D01*
X73647Y-32125D01*
X73648Y-32125D01*
X73694Y-32171D01*
X73892Y-32254D01*
X74107Y-32254D01*
X74306Y-32172D01*
X74352Y-32125D01*
X74353Y-32125D01*
X74354Y-32123D01*
X74457Y-32020D01*
X74477Y-31971D01*
X74489Y-31957D01*
X74500Y-31919D01*
X74511Y-31957D01*
X74521Y-31969D01*
X74542Y-32020D01*
X74644Y-32121D01*
X74647Y-32125D01*
X74648Y-32125D01*
X74694Y-32171D01*
X74892Y-32254D01*
X75107Y-32254D01*
X75306Y-32172D01*
X75352Y-32125D01*
X75353Y-32125D01*
X75354Y-32123D01*
X75457Y-32020D01*
X75477Y-31971D01*
X75489Y-31957D01*
X75500Y-31919D01*
X75511Y-31957D01*
X75521Y-31969D01*
X75542Y-32020D01*
X75644Y-32121D01*
X75647Y-32125D01*
X75648Y-32125D01*
X75694Y-32171D01*
X75892Y-32254D01*
X76107Y-32254D01*
X76306Y-32172D01*
X76352Y-32125D01*
X76353Y-32125D01*
X76354Y-32123D01*
X76457Y-32020D01*
X76477Y-31971D01*
X76489Y-31957D01*
X76500Y-31919D01*
X76511Y-31957D01*
X76521Y-31969D01*
X76542Y-32020D01*
X76644Y-32121D01*
X76647Y-32125D01*
X76648Y-32125D01*
X76694Y-32171D01*
X76892Y-32254D01*
X77107Y-32254D01*
X77306Y-32172D01*
X77352Y-32125D01*
X77353Y-32125D01*
X77354Y-32123D01*
X77457Y-32020D01*
X77477Y-31971D01*
X77489Y-31957D01*
X77500Y-31919D01*
X77511Y-31957D01*
X77521Y-31969D01*
X77542Y-32020D01*
X77644Y-32121D01*
X77647Y-32125D01*
X77648Y-32125D01*
X77694Y-32171D01*
X77892Y-32254D01*
X78107Y-32254D01*
X78306Y-32172D01*
X78352Y-32125D01*
X78353Y-32125D01*
X78354Y-32123D01*
X78457Y-32020D01*
X78477Y-31971D01*
X78489Y-31957D01*
X78500Y-31919D01*
X78511Y-31957D01*
X78521Y-31969D01*
X78542Y-32020D01*
X78644Y-32121D01*
X78647Y-32125D01*
X78648Y-32125D01*
X78694Y-32171D01*
X78892Y-32254D01*
X79107Y-32254D01*
X79306Y-32172D01*
X79352Y-32125D01*
X79353Y-32125D01*
X79354Y-32123D01*
X79457Y-32020D01*
X79477Y-31971D01*
X79489Y-31957D01*
X79502Y-31912D01*
X79532Y-31840D01*
X79631Y-32080D01*
X79919Y-32368D01*
X80295Y-32525D01*
X80703Y-32525D01*
X81080Y-32369D01*
X81368Y-32081D01*
X81507Y-31745D01*
X81535Y-31811D01*
X81689Y-31965D01*
X81773Y-32000D01*
G54D10*
G36*
X81773Y-35000D02*
X81734Y-35016D01*
X81734Y-34983D01*
X81773Y-35000D01*
X81773Y-35000D01*
G37*
G54D23*
X81773Y-35000D02*
X81734Y-35016D01*
X81734Y-34983D01*
X81773Y-35000D01*
G54D10*
G36*
X81773Y-36000D02*
X81734Y-36016D01*
X81734Y-35983D01*
X81773Y-36000D01*
X81773Y-36000D01*
G37*
G54D23*
X81773Y-36000D02*
X81734Y-36016D01*
X81734Y-35983D01*
X81773Y-36000D01*
G54D10*
G36*
X81773Y-37000D02*
X81734Y-37016D01*
X81734Y-36983D01*
X81773Y-37000D01*
X81773Y-37000D01*
G37*
G54D23*
X81773Y-37000D02*
X81734Y-37016D01*
X81734Y-36983D01*
X81773Y-37000D01*
G54D10*
G36*
X81773Y-38000D02*
X81734Y-38016D01*
X81734Y-37983D01*
X81773Y-38000D01*
X81773Y-38000D01*
G37*
G54D23*
X81773Y-38000D02*
X81734Y-38016D01*
X81734Y-37983D01*
X81773Y-38000D01*
G54D10*
G36*
X81773Y-39000D02*
X81734Y-39016D01*
X81734Y-38983D01*
X81773Y-39000D01*
X81773Y-39000D01*
G37*
G54D23*
X81773Y-39000D02*
X81734Y-39016D01*
X81734Y-38983D01*
X81773Y-39000D01*
G54D10*
G36*
X81773Y-40000D02*
X81734Y-40016D01*
X81734Y-39983D01*
X81773Y-40000D01*
X81773Y-40000D01*
G37*
G54D23*
X81773Y-40000D02*
X81734Y-40016D01*
X81734Y-39983D01*
X81773Y-40000D01*
G54D10*
G36*
X81773Y-41000D02*
X81734Y-41016D01*
X81734Y-40983D01*
X81773Y-41000D01*
X81773Y-41000D01*
G37*
G54D23*
X81773Y-41000D02*
X81734Y-41016D01*
X81734Y-40983D01*
X81773Y-41000D01*
G54D10*
G36*
X81773Y-45000D02*
X81689Y-45035D01*
X81673Y-45051D01*
X78287Y-45051D01*
X81532Y-41805D01*
X81535Y-41811D01*
X81689Y-41965D01*
X81773Y-42000D01*
X81689Y-42035D01*
X81535Y-42189D01*
X81451Y-42391D01*
X81451Y-42609D01*
X81535Y-42811D01*
X81689Y-42965D01*
X81773Y-43000D01*
X81689Y-43035D01*
X81535Y-43189D01*
X81451Y-43391D01*
X81451Y-43609D01*
X81535Y-43811D01*
X81689Y-43965D01*
X81773Y-44000D01*
X81689Y-44035D01*
X81535Y-44189D01*
X81451Y-44391D01*
X81451Y-44609D01*
X81535Y-44811D01*
X81689Y-44965D01*
X81773Y-45000D01*
X81773Y-45000D01*
G37*
G54D23*
X81773Y-45000D02*
X81689Y-45035D01*
X81673Y-45051D01*
X78287Y-45051D01*
X81532Y-41805D01*
X81535Y-41811D01*
X81689Y-41965D01*
X81773Y-42000D01*
X81689Y-42035D01*
X81535Y-42189D01*
X81451Y-42391D01*
X81451Y-42609D01*
X81535Y-42811D01*
X81689Y-42965D01*
X81773Y-43000D01*
X81689Y-43035D01*
X81535Y-43189D01*
X81451Y-43391D01*
X81451Y-43609D01*
X81535Y-43811D01*
X81689Y-43965D01*
X81773Y-44000D01*
X81689Y-44035D01*
X81535Y-44189D01*
X81451Y-44391D01*
X81451Y-44609D01*
X81535Y-44811D01*
X81689Y-44965D01*
X81773Y-45000D01*
G54D10*
G36*
X81773Y-48000D02*
X81689Y-48035D01*
X81535Y-48189D01*
X81451Y-48391D01*
X81451Y-48609D01*
X81535Y-48811D01*
X81541Y-48817D01*
X81534Y-48825D01*
X81541Y-48832D01*
X81406Y-48832D01*
X81407Y-48822D01*
X81431Y-48767D01*
X81431Y-48707D01*
X81436Y-48682D01*
X81431Y-48657D01*
X81431Y-48598D01*
X81407Y-48541D01*
X81403Y-48517D01*
X81389Y-48496D01*
X81367Y-48442D01*
X81324Y-48399D01*
X81310Y-48378D01*
X81288Y-48363D01*
X81247Y-48322D01*
X81192Y-48299D01*
X81171Y-48285D01*
X81146Y-48280D01*
X81091Y-48257D01*
X81031Y-48257D01*
X81006Y-48252D01*
X78993Y-48252D01*
X78687Y-47946D01*
X78666Y-47932D01*
X78665Y-47931D01*
X78624Y-47890D01*
X78569Y-47867D01*
X78548Y-47853D01*
X78524Y-47848D01*
X78523Y-47848D01*
X78468Y-47825D01*
X78408Y-47825D01*
X78383Y-47820D01*
X64928Y-47820D01*
X64820Y-47712D01*
X64859Y-47738D01*
X64860Y-47739D01*
X64970Y-47760D01*
X64971Y-47761D01*
X74384Y-47761D01*
X74495Y-47739D01*
X74589Y-47676D01*
X76768Y-45497D01*
X76826Y-45638D01*
X76946Y-45758D01*
X77102Y-45823D01*
X77271Y-45823D01*
X77427Y-45759D01*
X77547Y-45639D01*
X77550Y-45631D01*
X77567Y-45631D01*
X77567Y-45744D01*
X77631Y-45900D01*
X77751Y-46020D01*
X77907Y-46085D01*
X78007Y-46085D01*
X78126Y-46204D01*
X78127Y-46205D01*
X78220Y-46267D01*
X78221Y-46268D01*
X78331Y-46289D01*
X78332Y-46290D01*
X78400Y-46290D01*
X78349Y-46414D01*
X78349Y-46583D01*
X78413Y-46739D01*
X78533Y-46859D01*
X78689Y-46924D01*
X78858Y-46924D01*
X78969Y-46878D01*
X78909Y-47023D01*
X78909Y-47192D01*
X78973Y-47348D01*
X79093Y-47468D01*
X79249Y-47533D01*
X79418Y-47533D01*
X79574Y-47469D01*
X79645Y-47398D01*
X81451Y-47398D01*
X81451Y-47609D01*
X81535Y-47811D01*
X81689Y-47965D01*
X81773Y-48000D01*
X81773Y-48000D01*
G37*
G54D23*
X81773Y-48000D02*
X81689Y-48035D01*
X81535Y-48189D01*
X81451Y-48391D01*
X81451Y-48609D01*
X81535Y-48811D01*
X81541Y-48817D01*
X81534Y-48825D01*
X81541Y-48832D01*
X81406Y-48832D01*
X81407Y-48822D01*
X81431Y-48767D01*
X81431Y-48707D01*
X81436Y-48682D01*
X81431Y-48657D01*
X81431Y-48598D01*
X81407Y-48541D01*
X81403Y-48517D01*
X81389Y-48496D01*
X81367Y-48442D01*
X81324Y-48399D01*
X81310Y-48378D01*
X81288Y-48363D01*
X81247Y-48322D01*
X81192Y-48299D01*
X81171Y-48285D01*
X81146Y-48280D01*
X81091Y-48257D01*
X81031Y-48257D01*
X81006Y-48252D01*
X78993Y-48252D01*
X78687Y-47946D01*
X78666Y-47932D01*
X78665Y-47931D01*
X78624Y-47890D01*
X78569Y-47867D01*
X78548Y-47853D01*
X78524Y-47848D01*
X78523Y-47848D01*
X78468Y-47825D01*
X78408Y-47825D01*
X78383Y-47820D01*
X64928Y-47820D01*
X64820Y-47712D01*
X64859Y-47738D01*
X64860Y-47739D01*
X64970Y-47760D01*
X64971Y-47761D01*
X74384Y-47761D01*
X74495Y-47739D01*
X74589Y-47676D01*
X76768Y-45497D01*
X76826Y-45638D01*
X76946Y-45758D01*
X77102Y-45823D01*
X77271Y-45823D01*
X77427Y-45759D01*
X77547Y-45639D01*
X77550Y-45631D01*
X77567Y-45631D01*
X77567Y-45744D01*
X77631Y-45900D01*
X77751Y-46020D01*
X77907Y-46085D01*
X78007Y-46085D01*
X78126Y-46204D01*
X78127Y-46205D01*
X78220Y-46267D01*
X78221Y-46268D01*
X78331Y-46289D01*
X78332Y-46290D01*
X78400Y-46290D01*
X78349Y-46414D01*
X78349Y-46583D01*
X78413Y-46739D01*
X78533Y-46859D01*
X78689Y-46924D01*
X78858Y-46924D01*
X78969Y-46878D01*
X78909Y-47023D01*
X78909Y-47192D01*
X78973Y-47348D01*
X79093Y-47468D01*
X79249Y-47533D01*
X79418Y-47533D01*
X79574Y-47469D01*
X79645Y-47398D01*
X81451Y-47398D01*
X81451Y-47609D01*
X81535Y-47811D01*
X81689Y-47965D01*
X81773Y-48000D01*
G54D10*
G36*
X82359Y-49692D02*
X82132Y-49919D01*
X81975Y-50295D01*
X81975Y-50703D01*
X82131Y-51080D01*
X82205Y-51154D01*
X82191Y-51168D01*
X82228Y-51205D01*
X81225Y-51205D01*
X81306Y-51172D01*
X81352Y-51125D01*
X81353Y-51125D01*
X81354Y-51123D01*
X81457Y-51020D01*
X81477Y-50971D01*
X81489Y-50957D01*
X81502Y-50912D01*
X81540Y-50822D01*
X81540Y-50783D01*
X81550Y-50750D01*
X81550Y-50550D01*
X81540Y-50550D01*
X81540Y-50450D01*
X81550Y-50450D01*
X81550Y-50250D01*
X81540Y-50216D01*
X81540Y-50179D01*
X81501Y-50085D01*
X81489Y-50043D01*
X81478Y-50030D01*
X81458Y-49980D01*
X81355Y-49878D01*
X81353Y-49875D01*
X81351Y-49874D01*
X81306Y-49829D01*
X81108Y-49746D01*
X80893Y-49746D01*
X80694Y-49828D01*
X80647Y-49874D01*
X80647Y-49875D01*
X80645Y-49876D01*
X80543Y-49980D01*
X80522Y-50028D01*
X80511Y-50043D01*
X80500Y-50080D01*
X80489Y-50043D01*
X80478Y-50030D01*
X80458Y-49980D01*
X80355Y-49878D01*
X80353Y-49875D01*
X80351Y-49874D01*
X80306Y-49829D01*
X80108Y-49746D01*
X79893Y-49746D01*
X79694Y-49828D01*
X79647Y-49874D01*
X79647Y-49875D01*
X79645Y-49876D01*
X79543Y-49980D01*
X79522Y-50028D01*
X79511Y-50043D01*
X79500Y-50080D01*
X79489Y-50043D01*
X79478Y-50030D01*
X79458Y-49980D01*
X79355Y-49878D01*
X79353Y-49875D01*
X79351Y-49874D01*
X79306Y-49829D01*
X79108Y-49746D01*
X78893Y-49746D01*
X78694Y-49828D01*
X78647Y-49874D01*
X78647Y-49875D01*
X78645Y-49876D01*
X78543Y-49980D01*
X78522Y-50028D01*
X78511Y-50043D01*
X78500Y-50080D01*
X78489Y-50043D01*
X78478Y-50030D01*
X78458Y-49980D01*
X78355Y-49878D01*
X78353Y-49875D01*
X78351Y-49874D01*
X78306Y-49829D01*
X78108Y-49746D01*
X77893Y-49746D01*
X77694Y-49828D01*
X77647Y-49874D01*
X77647Y-49875D01*
X77645Y-49876D01*
X77543Y-49980D01*
X77522Y-50028D01*
X77511Y-50043D01*
X77500Y-50080D01*
X77489Y-50043D01*
X77478Y-50030D01*
X77458Y-49980D01*
X77355Y-49878D01*
X77353Y-49875D01*
X77351Y-49874D01*
X77306Y-49829D01*
X77108Y-49746D01*
X76893Y-49746D01*
X76694Y-49828D01*
X76647Y-49874D01*
X76647Y-49875D01*
X76645Y-49876D01*
X76543Y-49980D01*
X76522Y-50028D01*
X76511Y-50043D01*
X76500Y-50080D01*
X76489Y-50043D01*
X76478Y-50030D01*
X76458Y-49980D01*
X76355Y-49878D01*
X76353Y-49875D01*
X76351Y-49874D01*
X76306Y-49829D01*
X76108Y-49746D01*
X75893Y-49746D01*
X75694Y-49828D01*
X75647Y-49874D01*
X75647Y-49875D01*
X75645Y-49876D01*
X75543Y-49980D01*
X75522Y-50028D01*
X75511Y-50043D01*
X75500Y-50080D01*
X75489Y-50043D01*
X75478Y-50030D01*
X75458Y-49980D01*
X75355Y-49878D01*
X75353Y-49875D01*
X75351Y-49874D01*
X75306Y-49829D01*
X75108Y-49746D01*
X74893Y-49746D01*
X74694Y-49828D01*
X74647Y-49874D01*
X74647Y-49875D01*
X74645Y-49876D01*
X74543Y-49980D01*
X74522Y-50028D01*
X74511Y-50043D01*
X74500Y-50080D01*
X74489Y-50043D01*
X74478Y-50030D01*
X74458Y-49980D01*
X74355Y-49878D01*
X74353Y-49875D01*
X74351Y-49874D01*
X74306Y-49829D01*
X74108Y-49746D01*
X73893Y-49746D01*
X73694Y-49828D01*
X73647Y-49874D01*
X73647Y-49875D01*
X73645Y-49876D01*
X73543Y-49980D01*
X73522Y-50028D01*
X73511Y-50043D01*
X73497Y-50087D01*
X73460Y-50178D01*
X73460Y-50216D01*
X73450Y-50250D01*
X73450Y-50450D01*
X73460Y-50450D01*
X73460Y-50550D01*
X73450Y-50550D01*
X73450Y-50750D01*
X73460Y-50783D01*
X73460Y-50821D01*
X73498Y-50914D01*
X73511Y-50957D01*
X73521Y-50969D01*
X73542Y-51020D01*
X73644Y-51121D01*
X73647Y-51125D01*
X73648Y-51125D01*
X73694Y-51171D01*
X73775Y-51205D01*
X72225Y-51205D01*
X72306Y-51172D01*
X72352Y-51125D01*
X72353Y-51125D01*
X72354Y-51123D01*
X72457Y-51020D01*
X72477Y-50971D01*
X72489Y-50957D01*
X72502Y-50912D01*
X72540Y-50822D01*
X72540Y-50783D01*
X72550Y-50750D01*
X72550Y-50550D01*
X72540Y-50550D01*
X72540Y-50450D01*
X72550Y-50450D01*
X72550Y-50250D01*
X72540Y-50216D01*
X72540Y-50179D01*
X72501Y-50085D01*
X72489Y-50043D01*
X72478Y-50030D01*
X72458Y-49980D01*
X72355Y-49878D01*
X72353Y-49875D01*
X72351Y-49874D01*
X72306Y-49829D01*
X72108Y-49746D01*
X71893Y-49746D01*
X71694Y-49828D01*
X71647Y-49874D01*
X71647Y-49875D01*
X71645Y-49876D01*
X71543Y-49980D01*
X71522Y-50028D01*
X71511Y-50043D01*
X71500Y-50080D01*
X71489Y-50043D01*
X71478Y-50030D01*
X71458Y-49980D01*
X71355Y-49878D01*
X71353Y-49875D01*
X71351Y-49874D01*
X71306Y-49829D01*
X71108Y-49746D01*
X70893Y-49746D01*
X70694Y-49828D01*
X70647Y-49874D01*
X70647Y-49875D01*
X70645Y-49876D01*
X70543Y-49980D01*
X70522Y-50028D01*
X70511Y-50043D01*
X70500Y-50080D01*
X70489Y-50043D01*
X70478Y-50030D01*
X70458Y-49980D01*
X70355Y-49878D01*
X70353Y-49875D01*
X70351Y-49874D01*
X70306Y-49829D01*
X70108Y-49746D01*
X69893Y-49746D01*
X69694Y-49828D01*
X69647Y-49874D01*
X69647Y-49875D01*
X69645Y-49876D01*
X69543Y-49980D01*
X69522Y-50028D01*
X69511Y-50043D01*
X69500Y-50080D01*
X69489Y-50043D01*
X69478Y-50030D01*
X69458Y-49980D01*
X69355Y-49878D01*
X69353Y-49875D01*
X69351Y-49874D01*
X69306Y-49829D01*
X69108Y-49746D01*
X68893Y-49746D01*
X68694Y-49828D01*
X68647Y-49874D01*
X68647Y-49875D01*
X68645Y-49876D01*
X68543Y-49980D01*
X68522Y-50028D01*
X68511Y-50043D01*
X68500Y-50080D01*
X68489Y-50043D01*
X68478Y-50030D01*
X68458Y-49980D01*
X68355Y-49878D01*
X68353Y-49875D01*
X68351Y-49874D01*
X68306Y-49829D01*
X68108Y-49746D01*
X67893Y-49746D01*
X67694Y-49828D01*
X67647Y-49874D01*
X67647Y-49875D01*
X67645Y-49876D01*
X67543Y-49980D01*
X67522Y-50028D01*
X67511Y-50043D01*
X67500Y-50080D01*
X67489Y-50043D01*
X67478Y-50030D01*
X67458Y-49980D01*
X67355Y-49878D01*
X67353Y-49875D01*
X67351Y-49874D01*
X67306Y-49829D01*
X67108Y-49746D01*
X66893Y-49746D01*
X66694Y-49828D01*
X66647Y-49874D01*
X66647Y-49875D01*
X66645Y-49876D01*
X66543Y-49980D01*
X66522Y-50028D01*
X66511Y-50043D01*
X66500Y-50080D01*
X66489Y-50043D01*
X66478Y-50030D01*
X66458Y-49980D01*
X66355Y-49878D01*
X66353Y-49875D01*
X66351Y-49874D01*
X66306Y-49829D01*
X66108Y-49746D01*
X65893Y-49746D01*
X65694Y-49828D01*
X65647Y-49874D01*
X65647Y-49875D01*
X65645Y-49876D01*
X65543Y-49980D01*
X65522Y-50028D01*
X65511Y-50043D01*
X65500Y-50080D01*
X65489Y-50043D01*
X65478Y-50030D01*
X65458Y-49980D01*
X65355Y-49878D01*
X65353Y-49875D01*
X65351Y-49874D01*
X65306Y-49829D01*
X65108Y-49746D01*
X64893Y-49746D01*
X64694Y-49828D01*
X64647Y-49874D01*
X64647Y-49875D01*
X64645Y-49876D01*
X64543Y-49980D01*
X64522Y-50028D01*
X64511Y-50043D01*
X64497Y-50087D01*
X64460Y-50178D01*
X64460Y-50216D01*
X64450Y-50250D01*
X64450Y-50450D01*
X64460Y-50450D01*
X64460Y-50550D01*
X64450Y-50550D01*
X64450Y-50750D01*
X64460Y-50783D01*
X64460Y-50821D01*
X64498Y-50914D01*
X64511Y-50957D01*
X64521Y-50969D01*
X64542Y-51020D01*
X64644Y-51121D01*
X64647Y-51125D01*
X64648Y-51125D01*
X64694Y-51171D01*
X64775Y-51205D01*
X63225Y-51205D01*
X63306Y-51172D01*
X63352Y-51125D01*
X63353Y-51125D01*
X63354Y-51123D01*
X63457Y-51020D01*
X63477Y-50971D01*
X63489Y-50957D01*
X63502Y-50912D01*
X63540Y-50822D01*
X63540Y-50783D01*
X63550Y-50750D01*
X63550Y-50550D01*
X63540Y-50550D01*
X63540Y-50450D01*
X63550Y-50450D01*
X63550Y-50250D01*
X63540Y-50216D01*
X63540Y-50179D01*
X63501Y-50085D01*
X63489Y-50043D01*
X63478Y-50030D01*
X63458Y-49980D01*
X63355Y-49878D01*
X63353Y-49875D01*
X63351Y-49874D01*
X63306Y-49829D01*
X63108Y-49746D01*
X62893Y-49746D01*
X62694Y-49828D01*
X62647Y-49874D01*
X62647Y-49875D01*
X62645Y-49876D01*
X62543Y-49980D01*
X62522Y-50028D01*
X62511Y-50043D01*
X62499Y-50081D01*
X62458Y-49980D01*
X62306Y-49829D01*
X62108Y-49746D01*
X61893Y-49746D01*
X61694Y-49828D01*
X61543Y-49980D01*
X61500Y-50082D01*
X61458Y-49980D01*
X61306Y-49829D01*
X61108Y-49746D01*
X60893Y-49746D01*
X60694Y-49828D01*
X60543Y-49980D01*
X60500Y-50082D01*
X60458Y-49980D01*
X60430Y-49952D01*
X60430Y-46500D01*
X60429Y-46499D01*
X60397Y-46335D01*
X60304Y-46196D01*
X60303Y-46195D01*
X58864Y-44756D01*
X58864Y-44336D01*
X58826Y-44244D01*
X58756Y-44174D01*
X58665Y-44136D01*
X58566Y-44136D01*
X58342Y-44136D01*
X61272Y-41206D01*
X64336Y-41206D01*
X64406Y-41276D01*
X64485Y-41309D01*
X62241Y-43554D01*
X62148Y-43693D01*
X62115Y-43858D01*
X62115Y-47295D01*
X62148Y-47460D01*
X62241Y-47599D01*
X64207Y-49566D01*
X64208Y-49566D01*
X64347Y-49659D01*
X64511Y-49691D01*
X64512Y-49692D01*
X82359Y-49692D01*
X82359Y-49692D01*
G37*
G54D23*
X82359Y-49692D02*
X82132Y-49919D01*
X81975Y-50295D01*
X81975Y-50703D01*
X82131Y-51080D01*
X82205Y-51154D01*
X82191Y-51168D01*
X82228Y-51205D01*
X81225Y-51205D01*
X81306Y-51172D01*
X81352Y-51125D01*
X81353Y-51125D01*
X81354Y-51123D01*
X81457Y-51020D01*
X81477Y-50971D01*
X81489Y-50957D01*
X81502Y-50912D01*
X81540Y-50822D01*
X81540Y-50783D01*
X81550Y-50750D01*
X81550Y-50550D01*
X81540Y-50550D01*
X81540Y-50450D01*
X81550Y-50450D01*
X81550Y-50250D01*
X81540Y-50216D01*
X81540Y-50179D01*
X81501Y-50085D01*
X81489Y-50043D01*
X81478Y-50030D01*
X81458Y-49980D01*
X81355Y-49878D01*
X81353Y-49875D01*
X81351Y-49874D01*
X81306Y-49829D01*
X81108Y-49746D01*
X80893Y-49746D01*
X80694Y-49828D01*
X80647Y-49874D01*
X80647Y-49875D01*
X80645Y-49876D01*
X80543Y-49980D01*
X80522Y-50028D01*
X80511Y-50043D01*
X80500Y-50080D01*
X80489Y-50043D01*
X80478Y-50030D01*
X80458Y-49980D01*
X80355Y-49878D01*
X80353Y-49875D01*
X80351Y-49874D01*
X80306Y-49829D01*
X80108Y-49746D01*
X79893Y-49746D01*
X79694Y-49828D01*
X79647Y-49874D01*
X79647Y-49875D01*
X79645Y-49876D01*
X79543Y-49980D01*
X79522Y-50028D01*
X79511Y-50043D01*
X79500Y-50080D01*
X79489Y-50043D01*
X79478Y-50030D01*
X79458Y-49980D01*
X79355Y-49878D01*
X79353Y-49875D01*
X79351Y-49874D01*
X79306Y-49829D01*
X79108Y-49746D01*
X78893Y-49746D01*
X78694Y-49828D01*
X78647Y-49874D01*
X78647Y-49875D01*
X78645Y-49876D01*
X78543Y-49980D01*
X78522Y-50028D01*
X78511Y-50043D01*
X78500Y-50080D01*
X78489Y-50043D01*
X78478Y-50030D01*
X78458Y-49980D01*
X78355Y-49878D01*
X78353Y-49875D01*
X78351Y-49874D01*
X78306Y-49829D01*
X78108Y-49746D01*
X77893Y-49746D01*
X77694Y-49828D01*
X77647Y-49874D01*
X77647Y-49875D01*
X77645Y-49876D01*
X77543Y-49980D01*
X77522Y-50028D01*
X77511Y-50043D01*
X77500Y-50080D01*
X77489Y-50043D01*
X77478Y-50030D01*
X77458Y-49980D01*
X77355Y-49878D01*
X77353Y-49875D01*
X77351Y-49874D01*
X77306Y-49829D01*
X77108Y-49746D01*
X76893Y-49746D01*
X76694Y-49828D01*
X76647Y-49874D01*
X76647Y-49875D01*
X76645Y-49876D01*
X76543Y-49980D01*
X76522Y-50028D01*
X76511Y-50043D01*
X76500Y-50080D01*
X76489Y-50043D01*
X76478Y-50030D01*
X76458Y-49980D01*
X76355Y-49878D01*
X76353Y-49875D01*
X76351Y-49874D01*
X76306Y-49829D01*
X76108Y-49746D01*
X75893Y-49746D01*
X75694Y-49828D01*
X75647Y-49874D01*
X75647Y-49875D01*
X75645Y-49876D01*
X75543Y-49980D01*
X75522Y-50028D01*
X75511Y-50043D01*
X75500Y-50080D01*
X75489Y-50043D01*
X75478Y-50030D01*
X75458Y-49980D01*
X75355Y-49878D01*
X75353Y-49875D01*
X75351Y-49874D01*
X75306Y-49829D01*
X75108Y-49746D01*
X74893Y-49746D01*
X74694Y-49828D01*
X74647Y-49874D01*
X74647Y-49875D01*
X74645Y-49876D01*
X74543Y-49980D01*
X74522Y-50028D01*
X74511Y-50043D01*
X74500Y-50080D01*
X74489Y-50043D01*
X74478Y-50030D01*
X74458Y-49980D01*
X74355Y-49878D01*
X74353Y-49875D01*
X74351Y-49874D01*
X74306Y-49829D01*
X74108Y-49746D01*
X73893Y-49746D01*
X73694Y-49828D01*
X73647Y-49874D01*
X73647Y-49875D01*
X73645Y-49876D01*
X73543Y-49980D01*
X73522Y-50028D01*
X73511Y-50043D01*
X73497Y-50087D01*
X73460Y-50178D01*
X73460Y-50216D01*
X73450Y-50250D01*
X73450Y-50450D01*
X73460Y-50450D01*
X73460Y-50550D01*
X73450Y-50550D01*
X73450Y-50750D01*
X73460Y-50783D01*
X73460Y-50821D01*
X73498Y-50914D01*
X73511Y-50957D01*
X73521Y-50969D01*
X73542Y-51020D01*
X73644Y-51121D01*
X73647Y-51125D01*
X73648Y-51125D01*
X73694Y-51171D01*
X73775Y-51205D01*
X72225Y-51205D01*
X72306Y-51172D01*
X72352Y-51125D01*
X72353Y-51125D01*
X72354Y-51123D01*
X72457Y-51020D01*
X72477Y-50971D01*
X72489Y-50957D01*
X72502Y-50912D01*
X72540Y-50822D01*
X72540Y-50783D01*
X72550Y-50750D01*
X72550Y-50550D01*
X72540Y-50550D01*
X72540Y-50450D01*
X72550Y-50450D01*
X72550Y-50250D01*
X72540Y-50216D01*
X72540Y-50179D01*
X72501Y-50085D01*
X72489Y-50043D01*
X72478Y-50030D01*
X72458Y-49980D01*
X72355Y-49878D01*
X72353Y-49875D01*
X72351Y-49874D01*
X72306Y-49829D01*
X72108Y-49746D01*
X71893Y-49746D01*
X71694Y-49828D01*
X71647Y-49874D01*
X71647Y-49875D01*
X71645Y-49876D01*
X71543Y-49980D01*
X71522Y-50028D01*
X71511Y-50043D01*
X71500Y-50080D01*
X71489Y-50043D01*
X71478Y-50030D01*
X71458Y-49980D01*
X71355Y-49878D01*
X71353Y-49875D01*
X71351Y-49874D01*
X71306Y-49829D01*
X71108Y-49746D01*
X70893Y-49746D01*
X70694Y-49828D01*
X70647Y-49874D01*
X70647Y-49875D01*
X70645Y-49876D01*
X70543Y-49980D01*
X70522Y-50028D01*
X70511Y-50043D01*
X70500Y-50080D01*
X70489Y-50043D01*
X70478Y-50030D01*
X70458Y-49980D01*
X70355Y-49878D01*
X70353Y-49875D01*
X70351Y-49874D01*
X70306Y-49829D01*
X70108Y-49746D01*
X69893Y-49746D01*
X69694Y-49828D01*
X69647Y-49874D01*
X69647Y-49875D01*
X69645Y-49876D01*
X69543Y-49980D01*
X69522Y-50028D01*
X69511Y-50043D01*
X69500Y-50080D01*
X69489Y-50043D01*
X69478Y-50030D01*
X69458Y-49980D01*
X69355Y-49878D01*
X69353Y-49875D01*
X69351Y-49874D01*
X69306Y-49829D01*
X69108Y-49746D01*
X68893Y-49746D01*
X68694Y-49828D01*
X68647Y-49874D01*
X68647Y-49875D01*
X68645Y-49876D01*
X68543Y-49980D01*
X68522Y-50028D01*
X68511Y-50043D01*
X68500Y-50080D01*
X68489Y-50043D01*
X68478Y-50030D01*
X68458Y-49980D01*
X68355Y-49878D01*
X68353Y-49875D01*
X68351Y-49874D01*
X68306Y-49829D01*
X68108Y-49746D01*
X67893Y-49746D01*
X67694Y-49828D01*
X67647Y-49874D01*
X67647Y-49875D01*
X67645Y-49876D01*
X67543Y-49980D01*
X67522Y-50028D01*
X67511Y-50043D01*
X67500Y-50080D01*
X67489Y-50043D01*
X67478Y-50030D01*
X67458Y-49980D01*
X67355Y-49878D01*
X67353Y-49875D01*
X67351Y-49874D01*
X67306Y-49829D01*
X67108Y-49746D01*
X66893Y-49746D01*
X66694Y-49828D01*
X66647Y-49874D01*
X66647Y-49875D01*
X66645Y-49876D01*
X66543Y-49980D01*
X66522Y-50028D01*
X66511Y-50043D01*
X66500Y-50080D01*
X66489Y-50043D01*
X66478Y-50030D01*
X66458Y-49980D01*
X66355Y-49878D01*
X66353Y-49875D01*
X66351Y-49874D01*
X66306Y-49829D01*
X66108Y-49746D01*
X65893Y-49746D01*
X65694Y-49828D01*
X65647Y-49874D01*
X65647Y-49875D01*
X65645Y-49876D01*
X65543Y-49980D01*
X65522Y-50028D01*
X65511Y-50043D01*
X65500Y-50080D01*
X65489Y-50043D01*
X65478Y-50030D01*
X65458Y-49980D01*
X65355Y-49878D01*
X65353Y-49875D01*
X65351Y-49874D01*
X65306Y-49829D01*
X65108Y-49746D01*
X64893Y-49746D01*
X64694Y-49828D01*
X64647Y-49874D01*
X64647Y-49875D01*
X64645Y-49876D01*
X64543Y-49980D01*
X64522Y-50028D01*
X64511Y-50043D01*
X64497Y-50087D01*
X64460Y-50178D01*
X64460Y-50216D01*
X64450Y-50250D01*
X64450Y-50450D01*
X64460Y-50450D01*
X64460Y-50550D01*
X64450Y-50550D01*
X64450Y-50750D01*
X64460Y-50783D01*
X64460Y-50821D01*
X64498Y-50914D01*
X64511Y-50957D01*
X64521Y-50969D01*
X64542Y-51020D01*
X64644Y-51121D01*
X64647Y-51125D01*
X64648Y-51125D01*
X64694Y-51171D01*
X64775Y-51205D01*
X63225Y-51205D01*
X63306Y-51172D01*
X63352Y-51125D01*
X63353Y-51125D01*
X63354Y-51123D01*
X63457Y-51020D01*
X63477Y-50971D01*
X63489Y-50957D01*
X63502Y-50912D01*
X63540Y-50822D01*
X63540Y-50783D01*
X63550Y-50750D01*
X63550Y-50550D01*
X63540Y-50550D01*
X63540Y-50450D01*
X63550Y-50450D01*
X63550Y-50250D01*
X63540Y-50216D01*
X63540Y-50179D01*
X63501Y-50085D01*
X63489Y-50043D01*
X63478Y-50030D01*
X63458Y-49980D01*
X63355Y-49878D01*
X63353Y-49875D01*
X63351Y-49874D01*
X63306Y-49829D01*
X63108Y-49746D01*
X62893Y-49746D01*
X62694Y-49828D01*
X62647Y-49874D01*
X62647Y-49875D01*
X62645Y-49876D01*
X62543Y-49980D01*
X62522Y-50028D01*
X62511Y-50043D01*
X62499Y-50081D01*
X62458Y-49980D01*
X62306Y-49829D01*
X62108Y-49746D01*
X61893Y-49746D01*
X61694Y-49828D01*
X61543Y-49980D01*
X61500Y-50082D01*
X61458Y-49980D01*
X61306Y-49829D01*
X61108Y-49746D01*
X60893Y-49746D01*
X60694Y-49828D01*
X60543Y-49980D01*
X60500Y-50082D01*
X60458Y-49980D01*
X60430Y-49952D01*
X60430Y-46500D01*
X60429Y-46499D01*
X60397Y-46335D01*
X60304Y-46196D01*
X60303Y-46195D01*
X58864Y-44756D01*
X58864Y-44336D01*
X58826Y-44244D01*
X58756Y-44174D01*
X58665Y-44136D01*
X58566Y-44136D01*
X58342Y-44136D01*
X61272Y-41206D01*
X64336Y-41206D01*
X64406Y-41276D01*
X64485Y-41309D01*
X62241Y-43554D01*
X62148Y-43693D01*
X62115Y-43858D01*
X62115Y-47295D01*
X62148Y-47460D01*
X62241Y-47599D01*
X64207Y-49566D01*
X64208Y-49566D01*
X64347Y-49659D01*
X64511Y-49691D01*
X64512Y-49692D01*
X82359Y-49692D01*
G54D10*
G36*
X82516Y-47234D02*
X82500Y-47273D01*
X82483Y-47234D01*
X82516Y-47234D01*
X82516Y-47234D01*
G37*
G54D23*
X82516Y-47234D02*
X82500Y-47273D01*
X82483Y-47234D01*
X82516Y-47234D01*
G54D10*
G36*
X82541Y-48832D02*
X82459Y-48832D01*
X82466Y-48825D01*
X82458Y-48817D01*
X82465Y-48811D01*
X82500Y-48726D01*
X82535Y-48811D01*
X82541Y-48817D01*
X82534Y-48825D01*
X82541Y-48832D01*
X82541Y-48832D01*
G37*
G54D23*
X82541Y-48832D02*
X82459Y-48832D01*
X82466Y-48825D01*
X82458Y-48817D01*
X82465Y-48811D01*
X82500Y-48726D01*
X82535Y-48811D01*
X82541Y-48817D01*
X82534Y-48825D01*
X82541Y-48832D01*
G54D10*
G36*
X82773Y-32000D02*
X82689Y-32035D01*
X82535Y-32189D01*
X82500Y-32273D01*
X82465Y-32189D01*
X82311Y-32035D01*
X82226Y-32000D01*
X82311Y-31965D01*
X82465Y-31811D01*
X82500Y-31726D01*
X82535Y-31811D01*
X82689Y-31965D01*
X82773Y-32000D01*
X82773Y-32000D01*
G37*
G54D23*
X82773Y-32000D02*
X82689Y-32035D01*
X82535Y-32189D01*
X82500Y-32273D01*
X82465Y-32189D01*
X82311Y-32035D01*
X82226Y-32000D01*
X82311Y-31965D01*
X82465Y-31811D01*
X82500Y-31726D01*
X82535Y-31811D01*
X82689Y-31965D01*
X82773Y-32000D01*
G54D10*
G36*
X82773Y-34000D02*
X82689Y-34035D01*
X82535Y-34189D01*
X82500Y-34273D01*
X82465Y-34189D01*
X82311Y-34035D01*
X82226Y-34000D01*
X82311Y-33965D01*
X82465Y-33811D01*
X82500Y-33726D01*
X82535Y-33811D01*
X82689Y-33965D01*
X82773Y-34000D01*
X82773Y-34000D01*
G37*
G54D23*
X82773Y-34000D02*
X82689Y-34035D01*
X82535Y-34189D01*
X82500Y-34273D01*
X82465Y-34189D01*
X82311Y-34035D01*
X82226Y-34000D01*
X82311Y-33965D01*
X82465Y-33811D01*
X82500Y-33726D01*
X82535Y-33811D01*
X82689Y-33965D01*
X82773Y-34000D01*
G54D10*
G36*
X82773Y-35000D02*
X82689Y-35035D01*
X82535Y-35189D01*
X82500Y-35273D01*
X82465Y-35189D01*
X82311Y-35035D01*
X82226Y-35000D01*
X82311Y-34965D01*
X82465Y-34811D01*
X82500Y-34726D01*
X82535Y-34811D01*
X82689Y-34965D01*
X82773Y-35000D01*
X82773Y-35000D01*
G37*
G54D23*
X82773Y-35000D02*
X82689Y-35035D01*
X82535Y-35189D01*
X82500Y-35273D01*
X82465Y-35189D01*
X82311Y-35035D01*
X82226Y-35000D01*
X82311Y-34965D01*
X82465Y-34811D01*
X82500Y-34726D01*
X82535Y-34811D01*
X82689Y-34965D01*
X82773Y-35000D01*
G54D10*
G36*
X82773Y-36000D02*
X82689Y-36035D01*
X82535Y-36189D01*
X82500Y-36273D01*
X82465Y-36189D01*
X82311Y-36035D01*
X82226Y-36000D01*
X82311Y-35965D01*
X82465Y-35811D01*
X82500Y-35726D01*
X82535Y-35811D01*
X82689Y-35965D01*
X82773Y-36000D01*
X82773Y-36000D01*
G37*
G54D23*
X82773Y-36000D02*
X82689Y-36035D01*
X82535Y-36189D01*
X82500Y-36273D01*
X82465Y-36189D01*
X82311Y-36035D01*
X82226Y-36000D01*
X82311Y-35965D01*
X82465Y-35811D01*
X82500Y-35726D01*
X82535Y-35811D01*
X82689Y-35965D01*
X82773Y-36000D01*
G54D10*
G36*
X82773Y-37000D02*
X82689Y-37035D01*
X82535Y-37189D01*
X82500Y-37273D01*
X82465Y-37189D01*
X82311Y-37035D01*
X82226Y-37000D01*
X82311Y-36965D01*
X82465Y-36811D01*
X82500Y-36726D01*
X82535Y-36811D01*
X82689Y-36965D01*
X82773Y-37000D01*
X82773Y-37000D01*
G37*
G54D23*
X82773Y-37000D02*
X82689Y-37035D01*
X82535Y-37189D01*
X82500Y-37273D01*
X82465Y-37189D01*
X82311Y-37035D01*
X82226Y-37000D01*
X82311Y-36965D01*
X82465Y-36811D01*
X82500Y-36726D01*
X82535Y-36811D01*
X82689Y-36965D01*
X82773Y-37000D01*
G54D10*
G36*
X82773Y-38000D02*
X82689Y-38035D01*
X82535Y-38189D01*
X82500Y-38273D01*
X82465Y-38189D01*
X82311Y-38035D01*
X82226Y-38000D01*
X82311Y-37965D01*
X82465Y-37811D01*
X82500Y-37726D01*
X82535Y-37811D01*
X82689Y-37965D01*
X82773Y-38000D01*
X82773Y-38000D01*
G37*
G54D23*
X82773Y-38000D02*
X82689Y-38035D01*
X82535Y-38189D01*
X82500Y-38273D01*
X82465Y-38189D01*
X82311Y-38035D01*
X82226Y-38000D01*
X82311Y-37965D01*
X82465Y-37811D01*
X82500Y-37726D01*
X82535Y-37811D01*
X82689Y-37965D01*
X82773Y-38000D01*
G54D10*
G36*
X82773Y-39000D02*
X82689Y-39035D01*
X82535Y-39189D01*
X82500Y-39273D01*
X82465Y-39189D01*
X82311Y-39035D01*
X82226Y-39000D01*
X82311Y-38965D01*
X82465Y-38811D01*
X82500Y-38726D01*
X82535Y-38811D01*
X82689Y-38965D01*
X82773Y-39000D01*
X82773Y-39000D01*
G37*
G54D23*
X82773Y-39000D02*
X82689Y-39035D01*
X82535Y-39189D01*
X82500Y-39273D01*
X82465Y-39189D01*
X82311Y-39035D01*
X82226Y-39000D01*
X82311Y-38965D01*
X82465Y-38811D01*
X82500Y-38726D01*
X82535Y-38811D01*
X82689Y-38965D01*
X82773Y-39000D01*
G54D10*
G36*
X82773Y-40000D02*
X82689Y-40035D01*
X82535Y-40189D01*
X82500Y-40273D01*
X82465Y-40189D01*
X82311Y-40035D01*
X82226Y-40000D01*
X82311Y-39965D01*
X82465Y-39811D01*
X82500Y-39726D01*
X82535Y-39811D01*
X82689Y-39965D01*
X82773Y-40000D01*
X82773Y-40000D01*
G37*
G54D23*
X82773Y-40000D02*
X82689Y-40035D01*
X82535Y-40189D01*
X82500Y-40273D01*
X82465Y-40189D01*
X82311Y-40035D01*
X82226Y-40000D01*
X82311Y-39965D01*
X82465Y-39811D01*
X82500Y-39726D01*
X82535Y-39811D01*
X82689Y-39965D01*
X82773Y-40000D01*
G54D10*
G36*
X82773Y-41000D02*
X82689Y-41035D01*
X82535Y-41189D01*
X82500Y-41273D01*
X82465Y-41189D01*
X82311Y-41035D01*
X82226Y-41000D01*
X82311Y-40965D01*
X82465Y-40811D01*
X82500Y-40726D01*
X82535Y-40811D01*
X82689Y-40965D01*
X82773Y-41000D01*
X82773Y-41000D01*
G37*
G54D23*
X82773Y-41000D02*
X82689Y-41035D01*
X82535Y-41189D01*
X82500Y-41273D01*
X82465Y-41189D01*
X82311Y-41035D01*
X82226Y-41000D01*
X82311Y-40965D01*
X82465Y-40811D01*
X82500Y-40726D01*
X82535Y-40811D01*
X82689Y-40965D01*
X82773Y-41000D01*
G54D10*
G36*
X82773Y-42000D02*
X82689Y-42035D01*
X82535Y-42189D01*
X82500Y-42273D01*
X82465Y-42189D01*
X82311Y-42035D01*
X82226Y-42000D01*
X82311Y-41965D01*
X82465Y-41811D01*
X82500Y-41726D01*
X82535Y-41811D01*
X82689Y-41965D01*
X82773Y-42000D01*
X82773Y-42000D01*
G37*
G54D23*
X82773Y-42000D02*
X82689Y-42035D01*
X82535Y-42189D01*
X82500Y-42273D01*
X82465Y-42189D01*
X82311Y-42035D01*
X82226Y-42000D01*
X82311Y-41965D01*
X82465Y-41811D01*
X82500Y-41726D01*
X82535Y-41811D01*
X82689Y-41965D01*
X82773Y-42000D01*
G54D10*
G36*
X82773Y-43000D02*
X82689Y-43035D01*
X82535Y-43189D01*
X82500Y-43273D01*
X82465Y-43189D01*
X82311Y-43035D01*
X82226Y-43000D01*
X82311Y-42965D01*
X82465Y-42811D01*
X82500Y-42726D01*
X82535Y-42811D01*
X82689Y-42965D01*
X82773Y-43000D01*
X82773Y-43000D01*
G37*
G54D23*
X82773Y-43000D02*
X82689Y-43035D01*
X82535Y-43189D01*
X82500Y-43273D01*
X82465Y-43189D01*
X82311Y-43035D01*
X82226Y-43000D01*
X82311Y-42965D01*
X82465Y-42811D01*
X82500Y-42726D01*
X82535Y-42811D01*
X82689Y-42965D01*
X82773Y-43000D01*
G54D10*
G36*
X82773Y-44000D02*
X82689Y-44035D01*
X82535Y-44189D01*
X82500Y-44273D01*
X82465Y-44189D01*
X82311Y-44035D01*
X82226Y-44000D01*
X82311Y-43965D01*
X82465Y-43811D01*
X82500Y-43726D01*
X82535Y-43811D01*
X82689Y-43965D01*
X82773Y-44000D01*
X82773Y-44000D01*
G37*
G54D23*
X82773Y-44000D02*
X82689Y-44035D01*
X82535Y-44189D01*
X82500Y-44273D01*
X82465Y-44189D01*
X82311Y-44035D01*
X82226Y-44000D01*
X82311Y-43965D01*
X82465Y-43811D01*
X82500Y-43726D01*
X82535Y-43811D01*
X82689Y-43965D01*
X82773Y-44000D01*
G54D10*
G36*
X82773Y-45000D02*
X82689Y-45035D01*
X82535Y-45189D01*
X82500Y-45273D01*
X82465Y-45189D01*
X82311Y-45035D01*
X82226Y-45000D01*
X82311Y-44965D01*
X82465Y-44811D01*
X82500Y-44726D01*
X82535Y-44811D01*
X82689Y-44965D01*
X82773Y-45000D01*
X82773Y-45000D01*
G37*
G54D23*
X82773Y-45000D02*
X82689Y-45035D01*
X82535Y-45189D01*
X82500Y-45273D01*
X82465Y-45189D01*
X82311Y-45035D01*
X82226Y-45000D01*
X82311Y-44965D01*
X82465Y-44811D01*
X82500Y-44726D01*
X82535Y-44811D01*
X82689Y-44965D01*
X82773Y-45000D01*
G54D10*
G36*
X82773Y-48000D02*
X82689Y-48035D01*
X82535Y-48189D01*
X82500Y-48273D01*
X82465Y-48189D01*
X82311Y-48035D01*
X82226Y-48000D01*
X82311Y-47965D01*
X82465Y-47811D01*
X82500Y-47726D01*
X82535Y-47811D01*
X82689Y-47965D01*
X82773Y-48000D01*
X82773Y-48000D01*
G37*
G54D23*
X82773Y-48000D02*
X82689Y-48035D01*
X82535Y-48189D01*
X82500Y-48273D01*
X82465Y-48189D01*
X82311Y-48035D01*
X82226Y-48000D01*
X82311Y-47965D01*
X82465Y-47811D01*
X82500Y-47726D01*
X82535Y-47811D01*
X82689Y-47965D01*
X82773Y-48000D01*
G54D10*
G36*
X89205Y-51205D02*
X88950Y-51205D01*
X88950Y-41126D01*
X88950Y-40875D01*
X88854Y-40643D01*
X88677Y-40466D01*
X88446Y-40370D01*
X88195Y-40370D01*
X87963Y-40466D01*
X87951Y-40477D01*
X87946Y-40463D01*
X87679Y-40195D01*
X87642Y-40180D01*
X87718Y-40180D01*
X88067Y-40036D01*
X88335Y-39769D01*
X88480Y-39420D01*
X88480Y-39042D01*
X88336Y-38693D01*
X88069Y-38425D01*
X87720Y-38280D01*
X87342Y-38280D01*
X86993Y-38424D01*
X86725Y-38691D01*
X86580Y-39040D01*
X86580Y-39418D01*
X86724Y-39767D01*
X86991Y-40035D01*
X87027Y-40050D01*
X86952Y-40050D01*
X86603Y-40194D01*
X86335Y-40461D01*
X86190Y-40810D01*
X86190Y-41188D01*
X86334Y-41537D01*
X86601Y-41805D01*
X86950Y-41950D01*
X87026Y-41950D01*
X86993Y-41964D01*
X86725Y-42231D01*
X86580Y-42580D01*
X86580Y-42958D01*
X86724Y-43307D01*
X86991Y-43575D01*
X87340Y-43720D01*
X87718Y-43720D01*
X88067Y-43576D01*
X88335Y-43309D01*
X88480Y-42960D01*
X88480Y-42582D01*
X88336Y-42233D01*
X88069Y-41965D01*
X87720Y-41820D01*
X87643Y-41820D01*
X87677Y-41806D01*
X87945Y-41539D01*
X87951Y-41522D01*
X87963Y-41534D01*
X88194Y-41630D01*
X88445Y-41630D01*
X88677Y-41534D01*
X88854Y-41357D01*
X88950Y-41126D01*
X88950Y-51205D01*
X83772Y-51205D01*
X83809Y-51168D01*
X83795Y-51154D01*
X83868Y-51081D01*
X84025Y-50705D01*
X84025Y-50297D01*
X83869Y-49920D01*
X83631Y-49682D01*
X83748Y-49659D01*
X83749Y-49659D01*
X83888Y-49566D01*
X85084Y-48370D01*
X85177Y-48231D01*
X85177Y-48230D01*
X85210Y-48066D01*
X85210Y-41957D01*
X85374Y-41890D01*
X85670Y-41595D01*
X85830Y-41210D01*
X85830Y-40792D01*
X85670Y-40406D01*
X85375Y-40110D01*
X84990Y-39950D01*
X84572Y-39950D01*
X84186Y-40110D01*
X83890Y-40405D01*
X83730Y-40790D01*
X83730Y-41208D01*
X83890Y-41594D01*
X84185Y-41890D01*
X84350Y-41958D01*
X84350Y-47888D01*
X83492Y-48745D01*
X83549Y-48609D01*
X83549Y-48391D01*
X83465Y-48189D01*
X83311Y-48035D01*
X83226Y-48000D01*
X83311Y-47965D01*
X83465Y-47811D01*
X83549Y-47609D01*
X83549Y-47391D01*
X83465Y-47189D01*
X83311Y-47035D01*
X83226Y-47000D01*
X83311Y-46965D01*
X83465Y-46811D01*
X83549Y-46609D01*
X83549Y-46391D01*
X83465Y-46189D01*
X83311Y-46035D01*
X83226Y-46000D01*
X83311Y-45965D01*
X83465Y-45811D01*
X83549Y-45609D01*
X83549Y-45391D01*
X83465Y-45189D01*
X83311Y-45035D01*
X83226Y-45000D01*
X83311Y-44965D01*
X83465Y-44811D01*
X83549Y-44609D01*
X83549Y-44391D01*
X83465Y-44189D01*
X83311Y-44035D01*
X83226Y-44000D01*
X83311Y-43965D01*
X83465Y-43811D01*
X83549Y-43609D01*
X83549Y-43391D01*
X83465Y-43189D01*
X83311Y-43035D01*
X83226Y-43000D01*
X83311Y-42965D01*
X83465Y-42811D01*
X83549Y-42609D01*
X83549Y-42391D01*
X83465Y-42189D01*
X83311Y-42035D01*
X83226Y-42000D01*
X83311Y-41965D01*
X83465Y-41811D01*
X83549Y-41609D01*
X83549Y-41391D01*
X83465Y-41189D01*
X83311Y-41035D01*
X83226Y-41000D01*
X83311Y-40965D01*
X83465Y-40811D01*
X83549Y-40609D01*
X83549Y-40391D01*
X83465Y-40189D01*
X83311Y-40035D01*
X83226Y-40000D01*
X83311Y-39965D01*
X83465Y-39811D01*
X83549Y-39609D01*
X83549Y-39391D01*
X83465Y-39189D01*
X83311Y-39035D01*
X83226Y-39000D01*
X83311Y-38965D01*
X83465Y-38811D01*
X83549Y-38609D01*
X83549Y-38391D01*
X83465Y-38189D01*
X83311Y-38035D01*
X83226Y-38000D01*
X83311Y-37965D01*
X83465Y-37811D01*
X83549Y-37609D01*
X83549Y-37391D01*
X83465Y-37189D01*
X83311Y-37035D01*
X83226Y-37000D01*
X83311Y-36965D01*
X83465Y-36811D01*
X83549Y-36609D01*
X83549Y-36391D01*
X83465Y-36189D01*
X83311Y-36035D01*
X83226Y-36000D01*
X83311Y-35965D01*
X83465Y-35811D01*
X83549Y-35609D01*
X83549Y-35391D01*
X83465Y-35189D01*
X83311Y-35035D01*
X83226Y-35000D01*
X83311Y-34965D01*
X83465Y-34811D01*
X83549Y-34609D01*
X83549Y-34391D01*
X83465Y-34189D01*
X83311Y-34035D01*
X83226Y-34000D01*
X83311Y-33965D01*
X83465Y-33811D01*
X83549Y-33609D01*
X83549Y-33391D01*
X83465Y-33189D01*
X83311Y-33035D01*
X83226Y-33000D01*
X83311Y-32965D01*
X83465Y-32811D01*
X83549Y-32609D01*
X83549Y-32391D01*
X83465Y-32189D01*
X83311Y-32035D01*
X83226Y-32000D01*
X83311Y-31965D01*
X83465Y-31811D01*
X83549Y-31609D01*
X83549Y-31391D01*
X83465Y-31189D01*
X83311Y-31035D01*
X83109Y-30951D01*
X82891Y-30951D01*
X82689Y-31035D01*
X82535Y-31189D01*
X82500Y-31273D01*
X82465Y-31189D01*
X82311Y-31035D01*
X82109Y-30951D01*
X81891Y-30951D01*
X81689Y-31035D01*
X81535Y-31189D01*
X81507Y-31254D01*
X81369Y-30920D01*
X81295Y-30846D01*
X81309Y-30832D01*
X81272Y-30795D01*
X89205Y-30795D01*
X89205Y-51205D01*
X89205Y-51205D01*
G37*
G54D23*
X89205Y-51205D02*
X88950Y-51205D01*
X88950Y-41126D01*
X88950Y-40875D01*
X88854Y-40643D01*
X88677Y-40466D01*
X88446Y-40370D01*
X88195Y-40370D01*
X87963Y-40466D01*
X87951Y-40477D01*
X87946Y-40463D01*
X87679Y-40195D01*
X87642Y-40180D01*
X87718Y-40180D01*
X88067Y-40036D01*
X88335Y-39769D01*
X88480Y-39420D01*
X88480Y-39042D01*
X88336Y-38693D01*
X88069Y-38425D01*
X87720Y-38280D01*
X87342Y-38280D01*
X86993Y-38424D01*
X86725Y-38691D01*
X86580Y-39040D01*
X86580Y-39418D01*
X86724Y-39767D01*
X86991Y-40035D01*
X87027Y-40050D01*
X86952Y-40050D01*
X86603Y-40194D01*
X86335Y-40461D01*
X86190Y-40810D01*
X86190Y-41188D01*
X86334Y-41537D01*
X86601Y-41805D01*
X86950Y-41950D01*
X87026Y-41950D01*
X86993Y-41964D01*
X86725Y-42231D01*
X86580Y-42580D01*
X86580Y-42958D01*
X86724Y-43307D01*
X86991Y-43575D01*
X87340Y-43720D01*
X87718Y-43720D01*
X88067Y-43576D01*
X88335Y-43309D01*
X88480Y-42960D01*
X88480Y-42582D01*
X88336Y-42233D01*
X88069Y-41965D01*
X87720Y-41820D01*
X87643Y-41820D01*
X87677Y-41806D01*
X87945Y-41539D01*
X87951Y-41522D01*
X87963Y-41534D01*
X88194Y-41630D01*
X88445Y-41630D01*
X88677Y-41534D01*
X88854Y-41357D01*
X88950Y-41126D01*
X88950Y-51205D01*
X83772Y-51205D01*
X83809Y-51168D01*
X83795Y-51154D01*
X83868Y-51081D01*
X84025Y-50705D01*
X84025Y-50297D01*
X83869Y-49920D01*
X83631Y-49682D01*
X83748Y-49659D01*
X83749Y-49659D01*
X83888Y-49566D01*
X85084Y-48370D01*
X85177Y-48231D01*
X85177Y-48230D01*
X85210Y-48066D01*
X85210Y-41957D01*
X85374Y-41890D01*
X85670Y-41595D01*
X85830Y-41210D01*
X85830Y-40792D01*
X85670Y-40406D01*
X85375Y-40110D01*
X84990Y-39950D01*
X84572Y-39950D01*
X84186Y-40110D01*
X83890Y-40405D01*
X83730Y-40790D01*
X83730Y-41208D01*
X83890Y-41594D01*
X84185Y-41890D01*
X84350Y-41958D01*
X84350Y-47888D01*
X83492Y-48745D01*
X83549Y-48609D01*
X83549Y-48391D01*
X83465Y-48189D01*
X83311Y-48035D01*
X83226Y-48000D01*
X83311Y-47965D01*
X83465Y-47811D01*
X83549Y-47609D01*
X83549Y-47391D01*
X83465Y-47189D01*
X83311Y-47035D01*
X83226Y-47000D01*
X83311Y-46965D01*
X83465Y-46811D01*
X83549Y-46609D01*
X83549Y-46391D01*
X83465Y-46189D01*
X83311Y-46035D01*
X83226Y-46000D01*
X83311Y-45965D01*
X83465Y-45811D01*
X83549Y-45609D01*
X83549Y-45391D01*
X83465Y-45189D01*
X83311Y-45035D01*
X83226Y-45000D01*
X83311Y-44965D01*
X83465Y-44811D01*
X83549Y-44609D01*
X83549Y-44391D01*
X83465Y-44189D01*
X83311Y-44035D01*
X83226Y-44000D01*
X83311Y-43965D01*
X83465Y-43811D01*
X83549Y-43609D01*
X83549Y-43391D01*
X83465Y-43189D01*
X83311Y-43035D01*
X83226Y-43000D01*
X83311Y-42965D01*
X83465Y-42811D01*
X83549Y-42609D01*
X83549Y-42391D01*
X83465Y-42189D01*
X83311Y-42035D01*
X83226Y-42000D01*
X83311Y-41965D01*
X83465Y-41811D01*
X83549Y-41609D01*
X83549Y-41391D01*
X83465Y-41189D01*
X83311Y-41035D01*
X83226Y-41000D01*
X83311Y-40965D01*
X83465Y-40811D01*
X83549Y-40609D01*
X83549Y-40391D01*
X83465Y-40189D01*
X83311Y-40035D01*
X83226Y-40000D01*
X83311Y-39965D01*
X83465Y-39811D01*
X83549Y-39609D01*
X83549Y-39391D01*
X83465Y-39189D01*
X83311Y-39035D01*
X83226Y-39000D01*
X83311Y-38965D01*
X83465Y-38811D01*
X83549Y-38609D01*
X83549Y-38391D01*
X83465Y-38189D01*
X83311Y-38035D01*
X83226Y-38000D01*
X83311Y-37965D01*
X83465Y-37811D01*
X83549Y-37609D01*
X83549Y-37391D01*
X83465Y-37189D01*
X83311Y-37035D01*
X83226Y-37000D01*
X83311Y-36965D01*
X83465Y-36811D01*
X83549Y-36609D01*
X83549Y-36391D01*
X83465Y-36189D01*
X83311Y-36035D01*
X83226Y-36000D01*
X83311Y-35965D01*
X83465Y-35811D01*
X83549Y-35609D01*
X83549Y-35391D01*
X83465Y-35189D01*
X83311Y-35035D01*
X83226Y-35000D01*
X83311Y-34965D01*
X83465Y-34811D01*
X83549Y-34609D01*
X83549Y-34391D01*
X83465Y-34189D01*
X83311Y-34035D01*
X83226Y-34000D01*
X83311Y-33965D01*
X83465Y-33811D01*
X83549Y-33609D01*
X83549Y-33391D01*
X83465Y-33189D01*
X83311Y-33035D01*
X83226Y-33000D01*
X83311Y-32965D01*
X83465Y-32811D01*
X83549Y-32609D01*
X83549Y-32391D01*
X83465Y-32189D01*
X83311Y-32035D01*
X83226Y-32000D01*
X83311Y-31965D01*
X83465Y-31811D01*
X83549Y-31609D01*
X83549Y-31391D01*
X83465Y-31189D01*
X83311Y-31035D01*
X83109Y-30951D01*
X82891Y-30951D01*
X82689Y-31035D01*
X82535Y-31189D01*
X82500Y-31273D01*
X82465Y-31189D01*
X82311Y-31035D01*
X82109Y-30951D01*
X81891Y-30951D01*
X81689Y-31035D01*
X81535Y-31189D01*
X81507Y-31254D01*
X81369Y-30920D01*
X81295Y-30846D01*
X81309Y-30832D01*
X81272Y-30795D01*
X89205Y-30795D01*
X89205Y-51205D01*
M02*
