G04 (created by PCBNEW-RS274X (2011-05-25)-stable) date Wed 08 May 2013 01:19:30 PM EDT*
G01*
G70*
G90*
%MOIN*%
G04 Gerber Fmt 3.4, Leading zero omitted, Abs format*
%FSLAX34Y34*%
G04 APERTURE LIST*
%ADD10C,0.006000*%
%ADD11C,0.012000*%
%ADD12C,0.009000*%
%ADD13C,0.015000*%
%ADD14C,0.005000*%
%ADD15C,0.010000*%
%ADD16C,0.096000*%
%ADD17C,0.160000*%
%ADD18C,0.180000*%
%ADD19C,0.175000*%
%ADD20O,0.080000X0.120000*%
%ADD21C,0.080000*%
%ADD22R,0.070000X0.035000*%
%ADD23R,0.120000X0.070000*%
%ADD24R,0.070000X0.120000*%
%ADD25R,0.067000X0.067000*%
%ADD26C,0.093000*%
%ADD27R,0.093000X0.093000*%
%ADD28R,0.020500X0.027600*%
%ADD29R,0.045000X0.100000*%
G04 APERTURE END LIST*
G54D10*
G54D11*
X56544Y-40095D02*
X56830Y-40095D01*
X56487Y-40324D02*
X56687Y-39524D01*
X56887Y-40324D01*
X57087Y-40324D02*
X57087Y-39790D01*
X57087Y-39943D02*
X57115Y-39867D01*
X57144Y-39829D01*
X57201Y-39790D01*
X57258Y-39790D01*
X57715Y-40324D02*
X57715Y-39524D01*
X57715Y-40286D02*
X57658Y-40324D01*
X57544Y-40324D01*
X57486Y-40286D01*
X57458Y-40248D01*
X57429Y-40171D01*
X57429Y-39943D01*
X57458Y-39867D01*
X57486Y-39829D01*
X57544Y-39790D01*
X57658Y-39790D01*
X57715Y-39829D01*
X58258Y-39790D02*
X58258Y-40324D01*
X58001Y-39790D02*
X58001Y-40210D01*
X58029Y-40286D01*
X58087Y-40324D01*
X58172Y-40324D01*
X58229Y-40286D01*
X58258Y-40248D01*
X58544Y-40324D02*
X58544Y-39790D01*
X58544Y-39524D02*
X58515Y-39562D01*
X58544Y-39600D01*
X58572Y-39562D01*
X58544Y-39524D01*
X58544Y-39600D01*
X58830Y-39790D02*
X58830Y-40324D01*
X58830Y-39867D02*
X58858Y-39829D01*
X58916Y-39790D01*
X59001Y-39790D01*
X59058Y-39829D01*
X59087Y-39905D01*
X59087Y-40324D01*
X59459Y-40324D02*
X59401Y-40286D01*
X59373Y-40248D01*
X59344Y-40171D01*
X59344Y-39943D01*
X59373Y-39867D01*
X59401Y-39829D01*
X59459Y-39790D01*
X59544Y-39790D01*
X59601Y-39829D01*
X59630Y-39867D01*
X59659Y-39943D01*
X59659Y-40171D01*
X59630Y-40248D01*
X59601Y-40286D01*
X59544Y-40324D01*
X59459Y-40324D01*
X60716Y-40324D02*
X60516Y-39943D01*
X60373Y-40324D02*
X60373Y-39524D01*
X60601Y-39524D01*
X60659Y-39562D01*
X60687Y-39600D01*
X60716Y-39676D01*
X60716Y-39790D01*
X60687Y-39867D01*
X60659Y-39905D01*
X60601Y-39943D01*
X60373Y-39943D01*
X61201Y-40286D02*
X61144Y-40324D01*
X61030Y-40324D01*
X60973Y-40286D01*
X60944Y-40210D01*
X60944Y-39905D01*
X60973Y-39829D01*
X61030Y-39790D01*
X61144Y-39790D01*
X61201Y-39829D01*
X61230Y-39905D01*
X61230Y-39981D01*
X60944Y-40057D01*
X61573Y-40324D02*
X61515Y-40286D01*
X61487Y-40210D01*
X61487Y-39524D01*
X62058Y-40324D02*
X62058Y-39905D01*
X62029Y-39829D01*
X61972Y-39790D01*
X61858Y-39790D01*
X61801Y-39829D01*
X62058Y-40286D02*
X62001Y-40324D01*
X61858Y-40324D01*
X61801Y-40286D01*
X61772Y-40210D01*
X61772Y-40133D01*
X61801Y-40057D01*
X61858Y-40019D01*
X62001Y-40019D01*
X62058Y-39981D01*
X62287Y-39790D02*
X62430Y-40324D01*
X62572Y-39790D02*
X62430Y-40324D01*
X62372Y-40514D01*
X62344Y-40552D01*
X62287Y-40590D01*
X63601Y-40248D02*
X63572Y-40286D01*
X63486Y-40324D01*
X63429Y-40324D01*
X63344Y-40286D01*
X63286Y-40210D01*
X63258Y-40133D01*
X63229Y-39981D01*
X63229Y-39867D01*
X63258Y-39714D01*
X63286Y-39638D01*
X63344Y-39562D01*
X63429Y-39524D01*
X63486Y-39524D01*
X63572Y-39562D01*
X63601Y-39600D01*
X63944Y-40324D02*
X63886Y-40286D01*
X63858Y-40248D01*
X63829Y-40171D01*
X63829Y-39943D01*
X63858Y-39867D01*
X63886Y-39829D01*
X63944Y-39790D01*
X64029Y-39790D01*
X64086Y-39829D01*
X64115Y-39867D01*
X64144Y-39943D01*
X64144Y-40171D01*
X64115Y-40248D01*
X64086Y-40286D01*
X64029Y-40324D01*
X63944Y-40324D01*
X64401Y-39790D02*
X64401Y-40324D01*
X64401Y-39867D02*
X64429Y-39829D01*
X64487Y-39790D01*
X64572Y-39790D01*
X64629Y-39829D01*
X64658Y-39905D01*
X64658Y-40324D01*
X64858Y-39790D02*
X65087Y-39790D01*
X64944Y-39524D02*
X64944Y-40210D01*
X64972Y-40286D01*
X65030Y-40324D01*
X65087Y-40324D01*
X65287Y-40324D02*
X65287Y-39790D01*
X65287Y-39943D02*
X65315Y-39867D01*
X65344Y-39829D01*
X65401Y-39790D01*
X65458Y-39790D01*
X65744Y-40324D02*
X65686Y-40286D01*
X65658Y-40248D01*
X65629Y-40171D01*
X65629Y-39943D01*
X65658Y-39867D01*
X65686Y-39829D01*
X65744Y-39790D01*
X65829Y-39790D01*
X65886Y-39829D01*
X65915Y-39867D01*
X65944Y-39943D01*
X65944Y-40171D01*
X65915Y-40248D01*
X65886Y-40286D01*
X65829Y-40324D01*
X65744Y-40324D01*
X66287Y-40324D02*
X66229Y-40286D01*
X66201Y-40210D01*
X66201Y-39524D01*
X66601Y-40324D02*
X66543Y-40286D01*
X66515Y-40210D01*
X66515Y-39524D01*
X67057Y-40286D02*
X67000Y-40324D01*
X66886Y-40324D01*
X66829Y-40286D01*
X66800Y-40210D01*
X66800Y-39905D01*
X66829Y-39829D01*
X66886Y-39790D01*
X67000Y-39790D01*
X67057Y-39829D01*
X67086Y-39905D01*
X67086Y-39981D01*
X66800Y-40057D01*
X67343Y-40324D02*
X67343Y-39790D01*
X67343Y-39943D02*
X67371Y-39867D01*
X67400Y-39829D01*
X67457Y-39790D01*
X67514Y-39790D01*
X56637Y-32850D02*
X56666Y-32812D01*
X56723Y-32774D01*
X56866Y-32774D01*
X56923Y-32812D01*
X56952Y-32850D01*
X56980Y-32926D01*
X56980Y-33002D01*
X56952Y-33117D01*
X56609Y-33574D01*
X56980Y-33574D01*
X57351Y-32774D02*
X57408Y-32774D01*
X57465Y-32812D01*
X57494Y-32850D01*
X57523Y-32926D01*
X57551Y-33079D01*
X57551Y-33269D01*
X57523Y-33421D01*
X57494Y-33498D01*
X57465Y-33536D01*
X57408Y-33574D01*
X57351Y-33574D01*
X57294Y-33536D01*
X57265Y-33498D01*
X57237Y-33421D01*
X57208Y-33269D01*
X57208Y-33079D01*
X57237Y-32926D01*
X57265Y-32850D01*
X57294Y-32812D01*
X57351Y-32774D01*
X58122Y-33574D02*
X57779Y-33574D01*
X57951Y-33574D02*
X57951Y-32774D01*
X57894Y-32888D01*
X57836Y-32964D01*
X57779Y-33002D01*
X58322Y-32774D02*
X58693Y-32774D01*
X58493Y-33079D01*
X58579Y-33079D01*
X58636Y-33117D01*
X58665Y-33155D01*
X58693Y-33231D01*
X58693Y-33421D01*
X58665Y-33498D01*
X58636Y-33536D01*
X58579Y-33574D01*
X58407Y-33574D01*
X58350Y-33536D01*
X58322Y-33498D01*
X58950Y-33269D02*
X59407Y-33269D01*
X59807Y-32774D02*
X59864Y-32774D01*
X59921Y-32812D01*
X59950Y-32850D01*
X59979Y-32926D01*
X60007Y-33079D01*
X60007Y-33269D01*
X59979Y-33421D01*
X59950Y-33498D01*
X59921Y-33536D01*
X59864Y-33574D01*
X59807Y-33574D01*
X59750Y-33536D01*
X59721Y-33498D01*
X59693Y-33421D01*
X59664Y-33269D01*
X59664Y-33079D01*
X59693Y-32926D01*
X59721Y-32850D01*
X59750Y-32812D01*
X59807Y-32774D01*
X60550Y-32774D02*
X60264Y-32774D01*
X60235Y-33155D01*
X60264Y-33117D01*
X60321Y-33079D01*
X60464Y-33079D01*
X60521Y-33117D01*
X60550Y-33155D01*
X60578Y-33231D01*
X60578Y-33421D01*
X60550Y-33498D01*
X60521Y-33536D01*
X60464Y-33574D01*
X60321Y-33574D01*
X60264Y-33536D01*
X60235Y-33498D01*
X60835Y-33269D02*
X61292Y-33269D01*
X61692Y-32774D02*
X61749Y-32774D01*
X61806Y-32812D01*
X61835Y-32850D01*
X61864Y-32926D01*
X61892Y-33079D01*
X61892Y-33269D01*
X61864Y-33421D01*
X61835Y-33498D01*
X61806Y-33536D01*
X61749Y-33574D01*
X61692Y-33574D01*
X61635Y-33536D01*
X61606Y-33498D01*
X61578Y-33421D01*
X61549Y-33269D01*
X61549Y-33079D01*
X61578Y-32926D01*
X61606Y-32850D01*
X61635Y-32812D01*
X61692Y-32774D01*
X62235Y-33117D02*
X62177Y-33079D01*
X62149Y-33040D01*
X62120Y-32964D01*
X62120Y-32926D01*
X62149Y-32850D01*
X62177Y-32812D01*
X62235Y-32774D01*
X62349Y-32774D01*
X62406Y-32812D01*
X62435Y-32850D01*
X62463Y-32926D01*
X62463Y-32964D01*
X62435Y-33040D01*
X62406Y-33079D01*
X62349Y-33117D01*
X62235Y-33117D01*
X62177Y-33155D01*
X62149Y-33193D01*
X62120Y-33269D01*
X62120Y-33421D01*
X62149Y-33498D01*
X62177Y-33536D01*
X62235Y-33574D01*
X62349Y-33574D01*
X62406Y-33536D01*
X62435Y-33498D01*
X62463Y-33421D01*
X62463Y-33269D01*
X62435Y-33193D01*
X62406Y-33155D01*
X62349Y-33117D01*
X62720Y-33269D02*
X63177Y-33269D01*
X63463Y-33574D02*
X63463Y-32774D01*
X63691Y-32774D01*
X63749Y-32812D01*
X63777Y-32850D01*
X63806Y-32926D01*
X63806Y-33040D01*
X63777Y-33117D01*
X63749Y-33155D01*
X63691Y-33193D01*
X63463Y-33193D01*
X64234Y-32774D02*
X64234Y-33345D01*
X64206Y-33460D01*
X64149Y-33536D01*
X64063Y-33574D01*
X64006Y-33574D01*
X64520Y-33574D02*
X64520Y-32774D01*
X64748Y-32774D01*
X64806Y-32812D01*
X64834Y-32850D01*
X64863Y-32926D01*
X64863Y-33040D01*
X64834Y-33117D01*
X64806Y-33155D01*
X64748Y-33193D01*
X64520Y-33193D01*
X56765Y-41774D02*
X56965Y-42574D01*
X57165Y-41774D01*
X57365Y-42155D02*
X57565Y-42155D01*
X57651Y-42574D02*
X57365Y-42574D01*
X57365Y-41774D01*
X57651Y-41774D01*
X58251Y-42574D02*
X58051Y-42193D01*
X57908Y-42574D02*
X57908Y-41774D01*
X58136Y-41774D01*
X58194Y-41812D01*
X58222Y-41850D01*
X58251Y-41926D01*
X58251Y-42040D01*
X58222Y-42117D01*
X58194Y-42155D01*
X58136Y-42193D01*
X57908Y-42193D01*
X58822Y-42574D02*
X58479Y-42574D01*
X58651Y-42574D02*
X58651Y-41774D01*
X58594Y-41888D01*
X58536Y-41964D01*
X58479Y-42002D01*
X59079Y-42498D02*
X59107Y-42536D01*
X59079Y-42574D01*
X59050Y-42536D01*
X59079Y-42498D01*
X59079Y-42574D01*
X59479Y-41774D02*
X59536Y-41774D01*
X59593Y-41812D01*
X59622Y-41850D01*
X59651Y-41926D01*
X59679Y-42079D01*
X59679Y-42269D01*
X59651Y-42421D01*
X59622Y-42498D01*
X59593Y-42536D01*
X59536Y-42574D01*
X59479Y-42574D01*
X59422Y-42536D01*
X59393Y-42498D01*
X59365Y-42421D01*
X59336Y-42269D01*
X59336Y-42079D01*
X59365Y-41926D01*
X59393Y-41850D01*
X59422Y-41812D01*
X59479Y-41774D01*
X61623Y-41774D02*
X61623Y-42345D01*
X61595Y-42460D01*
X61538Y-42536D01*
X61452Y-42574D01*
X61395Y-42574D01*
X62023Y-41774D02*
X62080Y-41774D01*
X62137Y-41812D01*
X62166Y-41850D01*
X62195Y-41926D01*
X62223Y-42079D01*
X62223Y-42269D01*
X62195Y-42421D01*
X62166Y-42498D01*
X62137Y-42536D01*
X62080Y-42574D01*
X62023Y-42574D01*
X61966Y-42536D01*
X61937Y-42498D01*
X61909Y-42421D01*
X61880Y-42269D01*
X61880Y-42079D01*
X61909Y-41926D01*
X61937Y-41850D01*
X61966Y-41812D01*
X62023Y-41774D01*
X62594Y-41774D02*
X62651Y-41774D01*
X62708Y-41812D01*
X62737Y-41850D01*
X62766Y-41926D01*
X62794Y-42079D01*
X62794Y-42269D01*
X62766Y-42421D01*
X62737Y-42498D01*
X62708Y-42536D01*
X62651Y-42574D01*
X62594Y-42574D01*
X62537Y-42536D01*
X62508Y-42498D01*
X62480Y-42421D01*
X62451Y-42269D01*
X62451Y-42079D01*
X62480Y-41926D01*
X62508Y-41850D01*
X62537Y-41812D01*
X62594Y-41774D01*
X63365Y-42574D02*
X63022Y-42574D01*
X63194Y-42574D02*
X63194Y-41774D01*
X63137Y-41888D01*
X63079Y-41964D01*
X63022Y-42002D01*
X63565Y-41774D02*
X63965Y-41774D01*
X63708Y-42574D01*
X64450Y-41774D02*
X64336Y-41774D01*
X64279Y-41812D01*
X64250Y-41850D01*
X64193Y-41964D01*
X64164Y-42117D01*
X64164Y-42421D01*
X64193Y-42498D01*
X64221Y-42536D01*
X64279Y-42574D01*
X64393Y-42574D01*
X64450Y-42536D01*
X64479Y-42498D01*
X64507Y-42421D01*
X64507Y-42231D01*
X64479Y-42155D01*
X64450Y-42117D01*
X64393Y-42079D01*
X64279Y-42079D01*
X64221Y-42117D01*
X64193Y-42155D01*
X64164Y-42231D01*
X65078Y-42574D02*
X64735Y-42574D01*
X64907Y-42574D02*
X64907Y-41774D01*
X64850Y-41888D01*
X64792Y-41964D01*
X64735Y-42002D01*
G54D12*
X89500Y-30500D02*
X49500Y-30500D01*
X89500Y-51500D02*
X89500Y-30500D01*
X49500Y-51500D02*
X89500Y-51500D01*
X49500Y-30500D02*
X49500Y-51500D01*
G54D13*
X89500Y-38250D02*
X89500Y-43750D01*
X89500Y-43750D02*
X83750Y-43750D01*
X83750Y-43750D02*
X83750Y-38250D01*
X83750Y-38250D02*
X89500Y-38250D01*
X71750Y-48500D02*
X71735Y-48645D01*
X71693Y-48785D01*
X71624Y-48915D01*
X71532Y-49028D01*
X71419Y-49121D01*
X71290Y-49191D01*
X71150Y-49234D01*
X71005Y-49249D01*
X70860Y-49236D01*
X70720Y-49195D01*
X70590Y-49127D01*
X70476Y-49035D01*
X70382Y-48923D01*
X70311Y-48795D01*
X70267Y-48655D01*
X70251Y-48510D01*
X70263Y-48365D01*
X70303Y-48224D01*
X70370Y-48094D01*
X70461Y-47980D01*
X70572Y-47885D01*
X70700Y-47813D01*
X70839Y-47768D01*
X70985Y-47751D01*
X71130Y-47762D01*
X71271Y-47801D01*
X71401Y-47867D01*
X71517Y-47957D01*
X71612Y-48068D01*
X71685Y-48195D01*
X71731Y-48334D01*
X71749Y-48480D01*
X71750Y-48500D01*
X71750Y-37500D02*
X71735Y-37645D01*
X71693Y-37785D01*
X71624Y-37915D01*
X71532Y-38028D01*
X71419Y-38121D01*
X71290Y-38191D01*
X71150Y-38234D01*
X71005Y-38249D01*
X70860Y-38236D01*
X70720Y-38195D01*
X70590Y-38127D01*
X70476Y-38035D01*
X70382Y-37923D01*
X70311Y-37795D01*
X70267Y-37655D01*
X70251Y-37510D01*
X70263Y-37365D01*
X70303Y-37224D01*
X70370Y-37094D01*
X70461Y-36980D01*
X70572Y-36885D01*
X70700Y-36813D01*
X70839Y-36768D01*
X70985Y-36751D01*
X71130Y-36762D01*
X71271Y-36801D01*
X71401Y-36867D01*
X71517Y-36957D01*
X71612Y-37068D01*
X71685Y-37195D01*
X71731Y-37334D01*
X71749Y-37480D01*
X71750Y-37500D01*
X69500Y-42000D02*
X71500Y-42000D01*
X71500Y-42000D02*
X71500Y-39000D01*
X71500Y-39000D02*
X69500Y-39000D01*
X69500Y-39000D02*
X69500Y-42000D01*
X50750Y-34250D02*
X50750Y-32500D01*
X51750Y-32250D02*
X53750Y-32250D01*
X53750Y-32250D02*
X53750Y-34250D01*
X53750Y-34250D02*
X50750Y-34250D01*
X75500Y-40500D02*
X75476Y-40742D01*
X75405Y-40976D01*
X75291Y-41191D01*
X75136Y-41380D01*
X74948Y-41536D01*
X74734Y-41652D01*
X74501Y-41724D01*
X74258Y-41749D01*
X74016Y-41727D01*
X73782Y-41658D01*
X73566Y-41545D01*
X73376Y-41393D01*
X73219Y-41206D01*
X73102Y-40992D01*
X73028Y-40759D01*
X73001Y-40517D01*
X73021Y-40275D01*
X73088Y-40040D01*
X73200Y-39823D01*
X73351Y-39632D01*
X73537Y-39474D01*
X73750Y-39355D01*
X73982Y-39280D01*
X74224Y-39251D01*
X74467Y-39269D01*
X74702Y-39335D01*
X74919Y-39445D01*
X75112Y-39595D01*
X75271Y-39780D01*
X75391Y-39992D01*
X75468Y-40224D01*
X75499Y-40466D01*
X75500Y-40500D01*
X42500Y-39000D02*
X42500Y-34000D01*
X42500Y-34000D02*
X48750Y-34000D01*
X48750Y-34000D02*
X48750Y-39000D01*
X48750Y-39000D02*
X42500Y-39000D01*
X71000Y-51250D02*
X71000Y-51500D01*
X71500Y-50000D02*
X72000Y-49500D01*
X44000Y-50250D02*
X44000Y-46250D01*
X44000Y-46250D02*
X49500Y-46250D01*
X49500Y-46250D02*
X49500Y-50250D01*
X49500Y-50250D02*
X44000Y-50250D01*
X70500Y-30500D02*
X71000Y-31000D01*
X71000Y-31000D02*
X71000Y-35500D01*
X71000Y-35500D02*
X72000Y-36500D01*
X72000Y-36500D02*
X72000Y-49500D01*
X45000Y-51500D02*
X45000Y-30500D01*
X45000Y-30500D02*
X83000Y-30500D01*
X83000Y-30500D02*
X84000Y-31500D01*
X84000Y-31500D02*
X84000Y-35500D01*
X84000Y-35500D02*
X85000Y-36500D01*
X85000Y-36500D02*
X85000Y-50000D01*
X85000Y-50000D02*
X84000Y-51000D01*
X84000Y-51000D02*
X84000Y-51500D01*
X84000Y-51500D02*
X45000Y-51500D01*
X76500Y-41250D02*
X76495Y-41298D01*
X76481Y-41345D01*
X76458Y-41388D01*
X76427Y-41426D01*
X76389Y-41457D01*
X76346Y-41480D01*
X76300Y-41494D01*
X76251Y-41499D01*
X76204Y-41495D01*
X76157Y-41481D01*
X76114Y-41459D01*
X76076Y-41428D01*
X76044Y-41391D01*
X76021Y-41348D01*
X76006Y-41301D01*
X76001Y-41253D01*
X76005Y-41205D01*
X76018Y-41158D01*
X76040Y-41115D01*
X76071Y-41077D01*
X76108Y-41045D01*
X76150Y-41021D01*
X76197Y-41006D01*
X76245Y-41001D01*
X76293Y-41004D01*
X76340Y-41017D01*
X76383Y-41039D01*
X76422Y-41069D01*
X76454Y-41106D01*
X76478Y-41149D01*
X76493Y-41195D01*
X76499Y-41244D01*
X76500Y-41250D01*
X78750Y-40750D02*
X75750Y-40750D01*
X75750Y-40750D02*
X75750Y-47250D01*
X75750Y-47250D02*
X78750Y-47250D01*
X78750Y-47250D02*
X78750Y-40750D01*
X55050Y-44550D02*
X55450Y-44550D01*
X55250Y-44750D02*
X55250Y-44350D01*
G54D14*
X55800Y-45450D02*
X55800Y-44850D01*
X55800Y-44850D02*
X54700Y-44850D01*
X54700Y-44850D02*
X54700Y-45450D01*
X54700Y-46050D02*
X54700Y-46650D01*
X54700Y-46650D02*
X55800Y-46650D01*
X55800Y-46650D02*
X55800Y-46050D01*
G54D13*
X84300Y-35450D02*
X84300Y-35050D01*
X84500Y-35250D02*
X84100Y-35250D01*
G54D14*
X85200Y-34700D02*
X84600Y-34700D01*
X84600Y-34700D02*
X84600Y-35800D01*
X84600Y-35800D02*
X85200Y-35800D01*
X85800Y-35800D02*
X86400Y-35800D01*
X86400Y-35800D02*
X86400Y-34700D01*
X86400Y-34700D02*
X85800Y-34700D01*
X76950Y-47700D02*
X76350Y-47700D01*
X76350Y-47700D02*
X76350Y-48800D01*
X76350Y-48800D02*
X76950Y-48800D01*
X77550Y-48800D02*
X78150Y-48800D01*
X78150Y-48800D02*
X78150Y-47700D01*
X78150Y-47700D02*
X77550Y-47700D01*
X85200Y-36450D02*
X84600Y-36450D01*
X84600Y-36450D02*
X84600Y-37550D01*
X84600Y-37550D02*
X85200Y-37550D01*
X85800Y-37550D02*
X86400Y-37550D01*
X86400Y-37550D02*
X86400Y-36450D01*
X86400Y-36450D02*
X85800Y-36450D01*
X60800Y-45450D02*
X60800Y-44850D01*
X60800Y-44850D02*
X59700Y-44850D01*
X59700Y-44850D02*
X59700Y-45450D01*
X59700Y-46050D02*
X59700Y-46650D01*
X59700Y-46650D02*
X60800Y-46650D01*
X60800Y-46650D02*
X60800Y-46050D01*
X85200Y-32950D02*
X84600Y-32950D01*
X84600Y-32950D02*
X84600Y-34050D01*
X84600Y-34050D02*
X85200Y-34050D01*
X85800Y-34050D02*
X86400Y-34050D01*
X86400Y-34050D02*
X86400Y-32950D01*
X86400Y-32950D02*
X85800Y-32950D01*
X85200Y-31200D02*
X84600Y-31200D01*
X84600Y-31200D02*
X84600Y-32300D01*
X84600Y-32300D02*
X85200Y-32300D01*
X85800Y-32300D02*
X86400Y-32300D01*
X86400Y-32300D02*
X86400Y-31200D01*
X86400Y-31200D02*
X85800Y-31200D01*
X65800Y-45450D02*
X65800Y-44850D01*
X65800Y-44850D02*
X64700Y-44850D01*
X64700Y-44850D02*
X64700Y-45450D01*
X64700Y-46050D02*
X64700Y-46650D01*
X64700Y-46650D02*
X65800Y-46650D01*
X65800Y-46650D02*
X65800Y-46050D01*
G54D13*
X54000Y-37950D02*
X54000Y-37550D01*
X54200Y-37750D02*
X53800Y-37750D01*
X87000Y-37200D02*
X87000Y-36800D01*
X87200Y-37000D02*
X86800Y-37000D01*
X50000Y-37950D02*
X50000Y-37550D01*
X50200Y-37750D02*
X49800Y-37750D01*
X78250Y-37950D02*
X78250Y-37550D01*
X78450Y-37750D02*
X78050Y-37750D01*
X74000Y-37950D02*
X74000Y-37550D01*
X74200Y-37750D02*
X73800Y-37750D01*
X58000Y-37950D02*
X58000Y-37550D01*
X58200Y-37750D02*
X57800Y-37750D01*
X62000Y-37950D02*
X62000Y-37550D01*
X62200Y-37750D02*
X61800Y-37750D01*
X66000Y-37950D02*
X66000Y-37550D01*
X66200Y-37750D02*
X65800Y-37750D01*
X70000Y-37950D02*
X70000Y-37550D01*
X70200Y-37750D02*
X69800Y-37750D01*
X62000Y-45000D02*
X62500Y-44750D01*
X62500Y-44750D02*
X62000Y-44500D01*
X62000Y-44500D02*
X62000Y-45000D01*
X61750Y-47500D02*
X61750Y-44000D01*
X61750Y-44000D02*
X62500Y-44000D01*
X61750Y-47500D02*
X62500Y-47500D01*
X62500Y-47500D02*
X64000Y-47500D01*
X64000Y-47500D02*
X64000Y-44000D01*
X64000Y-44000D02*
X62500Y-44000D01*
X62500Y-44000D02*
X62500Y-47500D01*
X67000Y-45000D02*
X67500Y-44750D01*
X67500Y-44750D02*
X67000Y-44500D01*
X67000Y-44500D02*
X67000Y-45000D01*
X66750Y-47500D02*
X66750Y-44000D01*
X66750Y-44000D02*
X67500Y-44000D01*
X66750Y-47500D02*
X67500Y-47500D01*
X67500Y-47500D02*
X69000Y-47500D01*
X69000Y-47500D02*
X69000Y-44000D01*
X69000Y-44000D02*
X67500Y-44000D01*
X67500Y-44000D02*
X67500Y-47500D01*
X57000Y-45000D02*
X57500Y-44750D01*
X57500Y-44750D02*
X57000Y-44500D01*
X57000Y-44500D02*
X57000Y-45000D01*
X56750Y-47500D02*
X56750Y-44000D01*
X56750Y-44000D02*
X57500Y-44000D01*
X56750Y-47500D02*
X57500Y-47500D01*
X57500Y-47500D02*
X59000Y-47500D01*
X59000Y-47500D02*
X59000Y-44000D01*
X59000Y-44000D02*
X57500Y-44000D01*
X57500Y-44000D02*
X57500Y-47500D01*
X52000Y-45000D02*
X52500Y-44750D01*
X52500Y-44750D02*
X52000Y-44500D01*
X52000Y-44500D02*
X52000Y-45000D01*
X51750Y-47500D02*
X51750Y-44000D01*
X51750Y-44000D02*
X52500Y-44000D01*
X51750Y-47500D02*
X52500Y-47500D01*
X52500Y-47500D02*
X54000Y-47500D01*
X54000Y-47500D02*
X54000Y-44000D01*
X54000Y-44000D02*
X52500Y-44000D01*
X52500Y-44000D02*
X52500Y-47500D01*
X49750Y-37000D02*
X52250Y-37000D01*
X49750Y-35500D02*
X52250Y-35500D01*
X49750Y-34750D02*
X52250Y-34750D01*
X51250Y-35000D02*
X51500Y-35500D01*
X51500Y-35500D02*
X51750Y-35000D01*
X51750Y-35000D02*
X51250Y-35000D01*
X52250Y-34750D02*
X52250Y-35500D01*
X49750Y-34750D02*
X49750Y-35500D01*
X49750Y-35500D02*
X49750Y-37000D01*
X52250Y-37000D02*
X52250Y-35500D01*
X53750Y-37000D02*
X56250Y-37000D01*
X53750Y-35500D02*
X56250Y-35500D01*
X53750Y-34750D02*
X56250Y-34750D01*
X55250Y-35000D02*
X55500Y-35500D01*
X55500Y-35500D02*
X55750Y-35000D01*
X55750Y-35000D02*
X55250Y-35000D01*
X56250Y-34750D02*
X56250Y-35500D01*
X53750Y-34750D02*
X53750Y-35500D01*
X53750Y-35500D02*
X53750Y-37000D01*
X56250Y-37000D02*
X56250Y-35500D01*
X57750Y-37000D02*
X60250Y-37000D01*
X57750Y-35500D02*
X60250Y-35500D01*
X57750Y-34750D02*
X60250Y-34750D01*
X59250Y-35000D02*
X59500Y-35500D01*
X59500Y-35500D02*
X59750Y-35000D01*
X59750Y-35000D02*
X59250Y-35000D01*
X60250Y-34750D02*
X60250Y-35500D01*
X57750Y-34750D02*
X57750Y-35500D01*
X57750Y-35500D02*
X57750Y-37000D01*
X60250Y-37000D02*
X60250Y-35500D01*
X61750Y-37000D02*
X64250Y-37000D01*
X61750Y-35500D02*
X64250Y-35500D01*
X61750Y-34750D02*
X64250Y-34750D01*
X63250Y-35000D02*
X63500Y-35500D01*
X63500Y-35500D02*
X63750Y-35000D01*
X63750Y-35000D02*
X63250Y-35000D01*
X64250Y-34750D02*
X64250Y-35500D01*
X61750Y-34750D02*
X61750Y-35500D01*
X61750Y-35500D02*
X61750Y-37000D01*
X64250Y-37000D02*
X64250Y-35500D01*
X65750Y-37000D02*
X68250Y-37000D01*
X65750Y-35500D02*
X68250Y-35500D01*
X65750Y-34750D02*
X68250Y-34750D01*
X67250Y-35000D02*
X67500Y-35500D01*
X67500Y-35500D02*
X67750Y-35000D01*
X67750Y-35000D02*
X67250Y-35000D01*
X68250Y-34750D02*
X68250Y-35500D01*
X65750Y-34750D02*
X65750Y-35500D01*
X65750Y-35500D02*
X65750Y-37000D01*
X68250Y-37000D02*
X68250Y-35500D01*
X69750Y-37000D02*
X72250Y-37000D01*
X69750Y-35500D02*
X72250Y-35500D01*
X69750Y-34750D02*
X72250Y-34750D01*
X71250Y-35000D02*
X71500Y-35500D01*
X71500Y-35500D02*
X71750Y-35000D01*
X71750Y-35000D02*
X71250Y-35000D01*
X72250Y-34750D02*
X72250Y-35500D01*
X69750Y-34750D02*
X69750Y-35500D01*
X69750Y-35500D02*
X69750Y-37000D01*
X72250Y-37000D02*
X72250Y-35500D01*
X73750Y-37000D02*
X76250Y-37000D01*
X73750Y-35500D02*
X76250Y-35500D01*
X73750Y-34750D02*
X76250Y-34750D01*
X75250Y-35000D02*
X75500Y-35500D01*
X75500Y-35500D02*
X75750Y-35000D01*
X75750Y-35000D02*
X75250Y-35000D01*
X76250Y-34750D02*
X76250Y-35500D01*
X73750Y-34750D02*
X73750Y-35500D01*
X73750Y-35500D02*
X73750Y-37000D01*
X76250Y-37000D02*
X76250Y-35500D01*
X77750Y-37000D02*
X80250Y-37000D01*
X77750Y-35500D02*
X80250Y-35500D01*
X77750Y-34750D02*
X80250Y-34750D01*
X79250Y-35000D02*
X79500Y-35500D01*
X79500Y-35500D02*
X79750Y-35000D01*
X79750Y-35000D02*
X79250Y-35000D01*
X80250Y-34750D02*
X80250Y-35500D01*
X77750Y-34750D02*
X77750Y-35500D01*
X77750Y-35500D02*
X77750Y-37000D01*
X80250Y-37000D02*
X80250Y-35500D01*
X54450Y-33800D02*
X54448Y-33819D01*
X54442Y-33838D01*
X54433Y-33855D01*
X54420Y-33870D01*
X54405Y-33882D01*
X54388Y-33892D01*
X54370Y-33897D01*
X54350Y-33899D01*
X54332Y-33898D01*
X54313Y-33892D01*
X54296Y-33883D01*
X54281Y-33871D01*
X54268Y-33856D01*
X54259Y-33839D01*
X54253Y-33820D01*
X54251Y-33801D01*
X54252Y-33782D01*
X54258Y-33764D01*
X54266Y-33746D01*
X54279Y-33731D01*
X54293Y-33718D01*
X54310Y-33709D01*
X54329Y-33703D01*
X54348Y-33701D01*
X54367Y-33702D01*
X54386Y-33707D01*
X54403Y-33716D01*
X54418Y-33728D01*
X54431Y-33743D01*
X54441Y-33760D01*
X54447Y-33778D01*
X54449Y-33798D01*
X54450Y-33800D01*
X54600Y-33650D02*
X55400Y-33650D01*
X55400Y-33650D02*
X55400Y-33350D01*
X55400Y-33350D02*
X54600Y-33350D01*
X54600Y-33350D02*
X54600Y-33650D01*
X66450Y-33800D02*
X66448Y-33819D01*
X66442Y-33838D01*
X66433Y-33855D01*
X66420Y-33870D01*
X66405Y-33882D01*
X66388Y-33892D01*
X66370Y-33897D01*
X66350Y-33899D01*
X66332Y-33898D01*
X66313Y-33892D01*
X66296Y-33883D01*
X66281Y-33871D01*
X66268Y-33856D01*
X66259Y-33839D01*
X66253Y-33820D01*
X66251Y-33801D01*
X66252Y-33782D01*
X66258Y-33764D01*
X66266Y-33746D01*
X66279Y-33731D01*
X66293Y-33718D01*
X66310Y-33709D01*
X66329Y-33703D01*
X66348Y-33701D01*
X66367Y-33702D01*
X66386Y-33707D01*
X66403Y-33716D01*
X66418Y-33728D01*
X66431Y-33743D01*
X66441Y-33760D01*
X66447Y-33778D01*
X66449Y-33798D01*
X66450Y-33800D01*
X66600Y-33650D02*
X67400Y-33650D01*
X67400Y-33650D02*
X67400Y-33350D01*
X67400Y-33350D02*
X66600Y-33350D01*
X66600Y-33350D02*
X66600Y-33650D01*
X78450Y-33800D02*
X78448Y-33819D01*
X78442Y-33838D01*
X78433Y-33855D01*
X78420Y-33870D01*
X78405Y-33882D01*
X78388Y-33892D01*
X78370Y-33897D01*
X78350Y-33899D01*
X78332Y-33898D01*
X78313Y-33892D01*
X78296Y-33883D01*
X78281Y-33871D01*
X78268Y-33856D01*
X78259Y-33839D01*
X78253Y-33820D01*
X78251Y-33801D01*
X78252Y-33782D01*
X78258Y-33764D01*
X78266Y-33746D01*
X78279Y-33731D01*
X78293Y-33718D01*
X78310Y-33709D01*
X78329Y-33703D01*
X78348Y-33701D01*
X78367Y-33702D01*
X78386Y-33707D01*
X78403Y-33716D01*
X78418Y-33728D01*
X78431Y-33743D01*
X78441Y-33760D01*
X78447Y-33778D01*
X78449Y-33798D01*
X78450Y-33800D01*
X78600Y-33650D02*
X79400Y-33650D01*
X79400Y-33650D02*
X79400Y-33350D01*
X79400Y-33350D02*
X78600Y-33350D01*
X78600Y-33350D02*
X78600Y-33650D01*
X55103Y-40500D02*
X55096Y-40568D01*
X55076Y-40634D01*
X55044Y-40695D01*
X55000Y-40748D01*
X54947Y-40792D01*
X54886Y-40825D01*
X54820Y-40845D01*
X54752Y-40852D01*
X54684Y-40846D01*
X54618Y-40827D01*
X54557Y-40795D01*
X54504Y-40752D01*
X54459Y-40699D01*
X54426Y-40639D01*
X54405Y-40573D01*
X54398Y-40504D01*
X54403Y-40437D01*
X54422Y-40371D01*
X54454Y-40309D01*
X54497Y-40255D01*
X54549Y-40211D01*
X54609Y-40177D01*
X54675Y-40156D01*
X54743Y-40148D01*
X54811Y-40153D01*
X54877Y-40171D01*
X54939Y-40202D01*
X54993Y-40245D01*
X55038Y-40297D01*
X55072Y-40357D01*
X55094Y-40422D01*
X55102Y-40491D01*
X55103Y-40500D01*
X55250Y-41500D02*
X55250Y-40000D01*
X55250Y-40000D02*
X50750Y-40000D01*
X50750Y-40000D02*
X50750Y-41500D01*
X50750Y-41500D02*
X55250Y-41500D01*
G54D15*
X83705Y-44412D02*
X83705Y-44012D01*
X83858Y-44012D01*
X83896Y-44031D01*
X83915Y-44050D01*
X83934Y-44088D01*
X83934Y-44145D01*
X83915Y-44183D01*
X83896Y-44202D01*
X83858Y-44221D01*
X83705Y-44221D01*
X84315Y-44412D02*
X84086Y-44412D01*
X84200Y-44412D02*
X84200Y-44012D01*
X84162Y-44069D01*
X84124Y-44107D01*
X84086Y-44126D01*
G54D11*
X85436Y-44200D02*
X85465Y-44171D01*
X85522Y-44143D01*
X85665Y-44143D01*
X85722Y-44171D01*
X85751Y-44200D01*
X85779Y-44257D01*
X85779Y-44314D01*
X85751Y-44400D01*
X85408Y-44743D01*
X85779Y-44743D01*
X86293Y-44343D02*
X86293Y-44743D01*
X86150Y-44114D02*
X86007Y-44543D01*
X86379Y-44543D01*
X86521Y-44143D02*
X86721Y-44743D01*
X86921Y-44143D01*
X87121Y-44743D02*
X87121Y-44143D01*
X87264Y-44143D01*
X87349Y-44171D01*
X87407Y-44229D01*
X87435Y-44286D01*
X87464Y-44400D01*
X87464Y-44486D01*
X87435Y-44600D01*
X87407Y-44657D01*
X87349Y-44714D01*
X87264Y-44743D01*
X87121Y-44743D01*
X88064Y-44686D02*
X88035Y-44714D01*
X87949Y-44743D01*
X87892Y-44743D01*
X87807Y-44714D01*
X87749Y-44657D01*
X87721Y-44600D01*
X87692Y-44486D01*
X87692Y-44400D01*
X87721Y-44286D01*
X87749Y-44229D01*
X87807Y-44171D01*
X87892Y-44143D01*
X87949Y-44143D01*
X88035Y-44171D01*
X88064Y-44200D01*
X45743Y-36143D02*
X45743Y-36629D01*
X45771Y-36686D01*
X45800Y-36714D01*
X45857Y-36743D01*
X45971Y-36743D01*
X46029Y-36714D01*
X46057Y-36686D01*
X46086Y-36629D01*
X46086Y-36143D01*
X46343Y-36714D02*
X46429Y-36743D01*
X46572Y-36743D01*
X46629Y-36714D01*
X46658Y-36686D01*
X46686Y-36629D01*
X46686Y-36571D01*
X46658Y-36514D01*
X46629Y-36486D01*
X46572Y-36457D01*
X46458Y-36429D01*
X46400Y-36400D01*
X46372Y-36371D01*
X46343Y-36314D01*
X46343Y-36257D01*
X46372Y-36200D01*
X46400Y-36171D01*
X46458Y-36143D01*
X46600Y-36143D01*
X46686Y-36171D01*
X47143Y-36429D02*
X47229Y-36457D01*
X47257Y-36486D01*
X47286Y-36543D01*
X47286Y-36629D01*
X47257Y-36686D01*
X47229Y-36714D01*
X47171Y-36743D01*
X46943Y-36743D01*
X46943Y-36143D01*
X47143Y-36143D01*
X47200Y-36171D01*
X47229Y-36200D01*
X47257Y-36257D01*
X47257Y-36314D01*
X47229Y-36371D01*
X47200Y-36400D01*
X47143Y-36429D01*
X46943Y-36429D01*
G54D15*
X76945Y-40012D02*
X76945Y-40336D01*
X76964Y-40374D01*
X76983Y-40393D01*
X77021Y-40412D01*
X77098Y-40412D01*
X77136Y-40393D01*
X77155Y-40374D01*
X77174Y-40336D01*
X77174Y-40012D01*
X77536Y-40145D02*
X77536Y-40412D01*
X77440Y-39993D02*
X77345Y-40279D01*
X77593Y-40279D01*
G54D11*
X76893Y-45828D02*
X76893Y-45485D01*
X77493Y-45656D02*
X76893Y-45656D01*
X77493Y-44999D02*
X77493Y-45285D01*
X76893Y-45285D01*
X77179Y-44799D02*
X77179Y-44599D01*
X77493Y-44513D02*
X77493Y-44799D01*
X76893Y-44799D01*
X76893Y-44513D01*
X76893Y-44313D02*
X76893Y-43913D01*
X77493Y-44170D01*
X76950Y-43714D02*
X76921Y-43685D01*
X76893Y-43628D01*
X76893Y-43485D01*
X76921Y-43428D01*
X76950Y-43399D01*
X77007Y-43371D01*
X77064Y-43371D01*
X77150Y-43399D01*
X77493Y-43742D01*
X77493Y-43371D01*
X76893Y-43171D02*
X76893Y-42800D01*
X77121Y-43000D01*
X77121Y-42914D01*
X77150Y-42857D01*
X77179Y-42828D01*
X77236Y-42800D01*
X77379Y-42800D01*
X77436Y-42828D01*
X77464Y-42857D01*
X77493Y-42914D01*
X77493Y-43086D01*
X77464Y-43143D01*
X77436Y-43171D01*
X76950Y-42572D02*
X76921Y-42543D01*
X76893Y-42486D01*
X76893Y-42343D01*
X76921Y-42286D01*
X76950Y-42257D01*
X77007Y-42229D01*
X77064Y-42229D01*
X77150Y-42257D01*
X77493Y-42600D01*
X77493Y-42229D01*
G54D15*
X55184Y-47374D02*
X55165Y-47393D01*
X55108Y-47412D01*
X55070Y-47412D01*
X55012Y-47393D01*
X54974Y-47355D01*
X54955Y-47317D01*
X54936Y-47240D01*
X54936Y-47183D01*
X54955Y-47107D01*
X54974Y-47069D01*
X55012Y-47031D01*
X55070Y-47012D01*
X55108Y-47012D01*
X55165Y-47031D01*
X55184Y-47050D01*
X55546Y-47012D02*
X55355Y-47012D01*
X55336Y-47202D01*
X55355Y-47183D01*
X55393Y-47164D01*
X55489Y-47164D01*
X55527Y-47183D01*
X55546Y-47202D01*
X55565Y-47240D01*
X55565Y-47336D01*
X55546Y-47374D01*
X55527Y-47393D01*
X55489Y-47412D01*
X55393Y-47412D01*
X55355Y-47393D01*
X55336Y-47374D01*
G54D14*
X54686Y-45600D02*
X54700Y-45586D01*
X54729Y-45571D01*
X54800Y-45571D01*
X54829Y-45586D01*
X54843Y-45600D01*
X54858Y-45629D01*
X54858Y-45657D01*
X54843Y-45700D01*
X54672Y-45871D01*
X54858Y-45871D01*
X54986Y-45843D02*
X55001Y-45857D01*
X54986Y-45871D01*
X54972Y-45857D01*
X54986Y-45843D01*
X54986Y-45871D01*
X55115Y-45600D02*
X55129Y-45586D01*
X55158Y-45571D01*
X55229Y-45571D01*
X55258Y-45586D01*
X55272Y-45600D01*
X55287Y-45629D01*
X55287Y-45657D01*
X55272Y-45700D01*
X55101Y-45871D01*
X55287Y-45871D01*
X55544Y-45671D02*
X55544Y-45871D01*
X55415Y-45671D02*
X55415Y-45829D01*
X55430Y-45857D01*
X55458Y-45871D01*
X55501Y-45871D01*
X55530Y-45857D01*
X55544Y-45843D01*
X55786Y-45714D02*
X55686Y-45714D01*
X55686Y-45871D02*
X55686Y-45571D01*
X55829Y-45571D01*
G54D15*
X86874Y-35316D02*
X86893Y-35335D01*
X86912Y-35392D01*
X86912Y-35430D01*
X86893Y-35488D01*
X86855Y-35526D01*
X86817Y-35545D01*
X86740Y-35564D01*
X86683Y-35564D01*
X86607Y-35545D01*
X86569Y-35526D01*
X86531Y-35488D01*
X86512Y-35430D01*
X86512Y-35392D01*
X86531Y-35335D01*
X86550Y-35316D01*
X86512Y-34973D02*
X86512Y-35050D01*
X86531Y-35088D01*
X86550Y-35107D01*
X86607Y-35145D01*
X86683Y-35164D01*
X86836Y-35164D01*
X86874Y-35145D01*
X86893Y-35126D01*
X86912Y-35088D01*
X86912Y-35011D01*
X86893Y-34973D01*
X86874Y-34954D01*
X86836Y-34935D01*
X86740Y-34935D01*
X86702Y-34954D01*
X86683Y-34973D01*
X86664Y-35011D01*
X86664Y-35088D01*
X86683Y-35126D01*
X86702Y-35145D01*
X86740Y-35164D01*
G54D14*
X85350Y-35814D02*
X85336Y-35800D01*
X85321Y-35771D01*
X85321Y-35700D01*
X85336Y-35671D01*
X85350Y-35657D01*
X85379Y-35642D01*
X85407Y-35642D01*
X85450Y-35657D01*
X85621Y-35828D01*
X85621Y-35642D01*
X85593Y-35514D02*
X85607Y-35499D01*
X85621Y-35514D01*
X85607Y-35528D01*
X85593Y-35514D01*
X85621Y-35514D01*
X85350Y-35385D02*
X85336Y-35371D01*
X85321Y-35342D01*
X85321Y-35271D01*
X85336Y-35242D01*
X85350Y-35228D01*
X85379Y-35213D01*
X85407Y-35213D01*
X85450Y-35228D01*
X85621Y-35399D01*
X85621Y-35213D01*
X85421Y-34956D02*
X85621Y-34956D01*
X85421Y-35085D02*
X85579Y-35085D01*
X85607Y-35070D01*
X85621Y-35042D01*
X85621Y-34999D01*
X85607Y-34970D01*
X85593Y-34956D01*
X85464Y-34714D02*
X85464Y-34814D01*
X85621Y-34814D02*
X85321Y-34814D01*
X85321Y-34671D01*
G54D15*
X77184Y-49374D02*
X77165Y-49393D01*
X77108Y-49412D01*
X77070Y-49412D01*
X77012Y-49393D01*
X76974Y-49355D01*
X76955Y-49317D01*
X76936Y-49240D01*
X76936Y-49183D01*
X76955Y-49107D01*
X76974Y-49069D01*
X77012Y-49031D01*
X77070Y-49012D01*
X77108Y-49012D01*
X77165Y-49031D01*
X77184Y-49050D01*
X77565Y-49412D02*
X77336Y-49412D01*
X77450Y-49412D02*
X77450Y-49012D01*
X77412Y-49069D01*
X77374Y-49107D01*
X77336Y-49126D01*
G54D14*
X77071Y-48742D02*
X77071Y-48714D01*
X77086Y-48685D01*
X77100Y-48671D01*
X77129Y-48657D01*
X77186Y-48642D01*
X77257Y-48642D01*
X77314Y-48657D01*
X77343Y-48671D01*
X77357Y-48685D01*
X77371Y-48714D01*
X77371Y-48742D01*
X77357Y-48771D01*
X77343Y-48785D01*
X77314Y-48800D01*
X77257Y-48814D01*
X77186Y-48814D01*
X77129Y-48800D01*
X77100Y-48785D01*
X77086Y-48771D01*
X77071Y-48742D01*
X77343Y-48514D02*
X77357Y-48499D01*
X77371Y-48514D01*
X77357Y-48528D01*
X77343Y-48514D01*
X77371Y-48514D01*
X77371Y-48213D02*
X77371Y-48385D01*
X77371Y-48299D02*
X77071Y-48299D01*
X77114Y-48328D01*
X77143Y-48356D01*
X77157Y-48385D01*
X77171Y-47956D02*
X77371Y-47956D01*
X77171Y-48085D02*
X77329Y-48085D01*
X77357Y-48070D01*
X77371Y-48042D01*
X77371Y-47999D01*
X77357Y-47970D01*
X77343Y-47956D01*
X77214Y-47714D02*
X77214Y-47814D01*
X77371Y-47814D02*
X77071Y-47814D01*
X77071Y-47671D01*
G54D15*
X84412Y-37066D02*
X84221Y-37200D01*
X84412Y-37295D02*
X84012Y-37295D01*
X84012Y-37142D01*
X84031Y-37104D01*
X84050Y-37085D01*
X84088Y-37066D01*
X84145Y-37066D01*
X84183Y-37085D01*
X84202Y-37104D01*
X84221Y-37142D01*
X84221Y-37295D01*
X84412Y-36685D02*
X84412Y-36914D01*
X84412Y-36800D02*
X84012Y-36800D01*
X84069Y-36838D01*
X84107Y-36876D01*
X84126Y-36914D01*
G54D14*
X85621Y-37393D02*
X85621Y-37565D01*
X85621Y-37479D02*
X85321Y-37479D01*
X85364Y-37508D01*
X85393Y-37536D01*
X85407Y-37565D01*
X85593Y-37265D02*
X85607Y-37250D01*
X85621Y-37265D01*
X85607Y-37279D01*
X85593Y-37265D01*
X85621Y-37265D01*
X85621Y-37107D02*
X85621Y-37050D01*
X85607Y-37022D01*
X85593Y-37007D01*
X85550Y-36979D01*
X85493Y-36964D01*
X85379Y-36964D01*
X85350Y-36979D01*
X85336Y-36993D01*
X85321Y-37022D01*
X85321Y-37079D01*
X85336Y-37107D01*
X85350Y-37122D01*
X85379Y-37136D01*
X85450Y-37136D01*
X85479Y-37122D01*
X85493Y-37107D01*
X85507Y-37079D01*
X85507Y-37022D01*
X85493Y-36993D01*
X85479Y-36979D01*
X85450Y-36964D01*
X85321Y-36707D02*
X85321Y-36764D01*
X85336Y-36793D01*
X85350Y-36807D01*
X85393Y-36836D01*
X85450Y-36850D01*
X85564Y-36850D01*
X85593Y-36836D01*
X85607Y-36821D01*
X85621Y-36793D01*
X85621Y-36736D01*
X85607Y-36707D01*
X85593Y-36693D01*
X85564Y-36678D01*
X85493Y-36678D01*
X85464Y-36693D01*
X85450Y-36707D01*
X85436Y-36736D01*
X85436Y-36793D01*
X85450Y-36821D01*
X85464Y-36836D01*
X85493Y-36850D01*
X85621Y-36550D02*
X85321Y-36550D01*
X85507Y-36521D02*
X85621Y-36435D01*
X85421Y-36435D02*
X85536Y-36550D01*
G54D15*
X60184Y-47374D02*
X60165Y-47393D01*
X60108Y-47412D01*
X60070Y-47412D01*
X60012Y-47393D01*
X59974Y-47355D01*
X59955Y-47317D01*
X59936Y-47240D01*
X59936Y-47183D01*
X59955Y-47107D01*
X59974Y-47069D01*
X60012Y-47031D01*
X60070Y-47012D01*
X60108Y-47012D01*
X60165Y-47031D01*
X60184Y-47050D01*
X60317Y-47012D02*
X60584Y-47012D01*
X60412Y-47412D01*
G54D14*
X59758Y-45571D02*
X59786Y-45571D01*
X59815Y-45586D01*
X59829Y-45600D01*
X59843Y-45629D01*
X59858Y-45686D01*
X59858Y-45757D01*
X59843Y-45814D01*
X59829Y-45843D01*
X59815Y-45857D01*
X59786Y-45871D01*
X59758Y-45871D01*
X59729Y-45857D01*
X59715Y-45843D01*
X59700Y-45814D01*
X59686Y-45757D01*
X59686Y-45686D01*
X59700Y-45629D01*
X59715Y-45600D01*
X59729Y-45586D01*
X59758Y-45571D01*
X59986Y-45843D02*
X60001Y-45857D01*
X59986Y-45871D01*
X59972Y-45857D01*
X59986Y-45843D01*
X59986Y-45871D01*
X60287Y-45871D02*
X60115Y-45871D01*
X60201Y-45871D02*
X60201Y-45571D01*
X60172Y-45614D01*
X60144Y-45643D01*
X60115Y-45657D01*
X60544Y-45671D02*
X60544Y-45871D01*
X60415Y-45671D02*
X60415Y-45829D01*
X60430Y-45857D01*
X60458Y-45871D01*
X60501Y-45871D01*
X60530Y-45857D01*
X60544Y-45843D01*
X60786Y-45714D02*
X60686Y-45714D01*
X60686Y-45871D02*
X60686Y-45571D01*
X60829Y-45571D01*
G54D15*
X86874Y-33566D02*
X86893Y-33585D01*
X86912Y-33642D01*
X86912Y-33680D01*
X86893Y-33738D01*
X86855Y-33776D01*
X86817Y-33795D01*
X86740Y-33814D01*
X86683Y-33814D01*
X86607Y-33795D01*
X86569Y-33776D01*
X86531Y-33738D01*
X86512Y-33680D01*
X86512Y-33642D01*
X86531Y-33585D01*
X86550Y-33566D01*
X86645Y-33223D02*
X86912Y-33223D01*
X86493Y-33319D02*
X86779Y-33414D01*
X86779Y-33166D01*
G54D14*
X85621Y-33821D02*
X85621Y-33993D01*
X85621Y-33907D02*
X85321Y-33907D01*
X85364Y-33936D01*
X85393Y-33964D01*
X85407Y-33993D01*
X85321Y-33635D02*
X85321Y-33607D01*
X85336Y-33578D01*
X85350Y-33564D01*
X85379Y-33550D01*
X85436Y-33535D01*
X85507Y-33535D01*
X85564Y-33550D01*
X85593Y-33564D01*
X85607Y-33578D01*
X85621Y-33607D01*
X85621Y-33635D01*
X85607Y-33664D01*
X85593Y-33678D01*
X85564Y-33693D01*
X85507Y-33707D01*
X85436Y-33707D01*
X85379Y-33693D01*
X85350Y-33678D01*
X85336Y-33664D01*
X85321Y-33635D01*
X85421Y-33278D02*
X85621Y-33278D01*
X85421Y-33407D02*
X85579Y-33407D01*
X85607Y-33392D01*
X85621Y-33364D01*
X85621Y-33321D01*
X85607Y-33292D01*
X85593Y-33278D01*
X85464Y-33036D02*
X85464Y-33136D01*
X85621Y-33136D02*
X85321Y-33136D01*
X85321Y-32993D01*
G54D15*
X86874Y-31816D02*
X86893Y-31835D01*
X86912Y-31892D01*
X86912Y-31930D01*
X86893Y-31988D01*
X86855Y-32026D01*
X86817Y-32045D01*
X86740Y-32064D01*
X86683Y-32064D01*
X86607Y-32045D01*
X86569Y-32026D01*
X86531Y-31988D01*
X86512Y-31930D01*
X86512Y-31892D01*
X86531Y-31835D01*
X86550Y-31816D01*
X86550Y-31664D02*
X86531Y-31645D01*
X86512Y-31607D01*
X86512Y-31511D01*
X86531Y-31473D01*
X86550Y-31454D01*
X86588Y-31435D01*
X86626Y-31435D01*
X86683Y-31454D01*
X86912Y-31683D01*
X86912Y-31435D01*
G54D14*
X85321Y-32242D02*
X85321Y-32214D01*
X85336Y-32185D01*
X85350Y-32171D01*
X85379Y-32157D01*
X85436Y-32142D01*
X85507Y-32142D01*
X85564Y-32157D01*
X85593Y-32171D01*
X85607Y-32185D01*
X85621Y-32214D01*
X85621Y-32242D01*
X85607Y-32271D01*
X85593Y-32285D01*
X85564Y-32300D01*
X85507Y-32314D01*
X85436Y-32314D01*
X85379Y-32300D01*
X85350Y-32285D01*
X85336Y-32271D01*
X85321Y-32242D01*
X85593Y-32014D02*
X85607Y-31999D01*
X85621Y-32014D01*
X85607Y-32028D01*
X85593Y-32014D01*
X85621Y-32014D01*
X85621Y-31713D02*
X85621Y-31885D01*
X85621Y-31799D02*
X85321Y-31799D01*
X85364Y-31828D01*
X85393Y-31856D01*
X85407Y-31885D01*
X85421Y-31456D02*
X85621Y-31456D01*
X85421Y-31585D02*
X85579Y-31585D01*
X85607Y-31570D01*
X85621Y-31542D01*
X85621Y-31499D01*
X85607Y-31470D01*
X85593Y-31456D01*
X85464Y-31214D02*
X85464Y-31314D01*
X85621Y-31314D02*
X85321Y-31314D01*
X85321Y-31171D01*
G54D15*
X65184Y-47374D02*
X65165Y-47393D01*
X65108Y-47412D01*
X65070Y-47412D01*
X65012Y-47393D01*
X64974Y-47355D01*
X64955Y-47317D01*
X64936Y-47240D01*
X64936Y-47183D01*
X64955Y-47107D01*
X64974Y-47069D01*
X65012Y-47031D01*
X65070Y-47012D01*
X65108Y-47012D01*
X65165Y-47031D01*
X65184Y-47050D01*
X65317Y-47012D02*
X65565Y-47012D01*
X65431Y-47164D01*
X65489Y-47164D01*
X65527Y-47183D01*
X65546Y-47202D01*
X65565Y-47240D01*
X65565Y-47336D01*
X65546Y-47374D01*
X65527Y-47393D01*
X65489Y-47412D01*
X65374Y-47412D01*
X65336Y-47393D01*
X65317Y-47374D01*
G54D14*
X64929Y-45871D02*
X64757Y-45871D01*
X64843Y-45871D02*
X64843Y-45571D01*
X64814Y-45614D01*
X64786Y-45643D01*
X64757Y-45657D01*
X65115Y-45571D02*
X65143Y-45571D01*
X65172Y-45586D01*
X65186Y-45600D01*
X65200Y-45629D01*
X65215Y-45686D01*
X65215Y-45757D01*
X65200Y-45814D01*
X65186Y-45843D01*
X65172Y-45857D01*
X65143Y-45871D01*
X65115Y-45871D01*
X65086Y-45857D01*
X65072Y-45843D01*
X65057Y-45814D01*
X65043Y-45757D01*
X65043Y-45686D01*
X65057Y-45629D01*
X65072Y-45600D01*
X65086Y-45586D01*
X65115Y-45571D01*
X65472Y-45671D02*
X65472Y-45871D01*
X65343Y-45671D02*
X65343Y-45829D01*
X65358Y-45857D01*
X65386Y-45871D01*
X65429Y-45871D01*
X65458Y-45857D01*
X65472Y-45843D01*
X65714Y-45714D02*
X65614Y-45714D01*
X65614Y-45871D02*
X65614Y-45571D01*
X65757Y-45571D01*
G54D15*
X54705Y-38662D02*
X54705Y-38262D01*
X54800Y-38262D01*
X54858Y-38281D01*
X54896Y-38319D01*
X54915Y-38357D01*
X54934Y-38433D01*
X54934Y-38490D01*
X54915Y-38567D01*
X54896Y-38605D01*
X54858Y-38643D01*
X54800Y-38662D01*
X54705Y-38662D01*
X55067Y-38262D02*
X55315Y-38262D01*
X55181Y-38414D01*
X55239Y-38414D01*
X55277Y-38433D01*
X55296Y-38452D01*
X55315Y-38490D01*
X55315Y-38586D01*
X55296Y-38624D01*
X55277Y-38643D01*
X55239Y-38662D01*
X55124Y-38662D01*
X55086Y-38643D01*
X55067Y-38624D01*
X87705Y-36412D02*
X87705Y-36012D01*
X87800Y-36012D01*
X87858Y-36031D01*
X87896Y-36069D01*
X87915Y-36107D01*
X87934Y-36183D01*
X87934Y-36240D01*
X87915Y-36317D01*
X87896Y-36355D01*
X87858Y-36393D01*
X87800Y-36412D01*
X87705Y-36412D01*
X88315Y-36412D02*
X88086Y-36412D01*
X88200Y-36412D02*
X88200Y-36012D01*
X88162Y-36069D01*
X88124Y-36107D01*
X88086Y-36126D01*
X50705Y-38662D02*
X50705Y-38262D01*
X50800Y-38262D01*
X50858Y-38281D01*
X50896Y-38319D01*
X50915Y-38357D01*
X50934Y-38433D01*
X50934Y-38490D01*
X50915Y-38567D01*
X50896Y-38605D01*
X50858Y-38643D01*
X50800Y-38662D01*
X50705Y-38662D01*
X51086Y-38300D02*
X51105Y-38281D01*
X51143Y-38262D01*
X51239Y-38262D01*
X51277Y-38281D01*
X51296Y-38300D01*
X51315Y-38338D01*
X51315Y-38376D01*
X51296Y-38433D01*
X51067Y-38662D01*
X51315Y-38662D01*
X78955Y-38662D02*
X78955Y-38262D01*
X79050Y-38262D01*
X79108Y-38281D01*
X79146Y-38319D01*
X79165Y-38357D01*
X79184Y-38433D01*
X79184Y-38490D01*
X79165Y-38567D01*
X79146Y-38605D01*
X79108Y-38643D01*
X79050Y-38662D01*
X78955Y-38662D01*
X79374Y-38662D02*
X79450Y-38662D01*
X79489Y-38643D01*
X79508Y-38624D01*
X79546Y-38567D01*
X79565Y-38490D01*
X79565Y-38338D01*
X79546Y-38300D01*
X79527Y-38281D01*
X79489Y-38262D01*
X79412Y-38262D01*
X79374Y-38281D01*
X79355Y-38300D01*
X79336Y-38338D01*
X79336Y-38433D01*
X79355Y-38471D01*
X79374Y-38490D01*
X79412Y-38510D01*
X79489Y-38510D01*
X79527Y-38490D01*
X79546Y-38471D01*
X79565Y-38433D01*
X74705Y-38662D02*
X74705Y-38262D01*
X74800Y-38262D01*
X74858Y-38281D01*
X74896Y-38319D01*
X74915Y-38357D01*
X74934Y-38433D01*
X74934Y-38490D01*
X74915Y-38567D01*
X74896Y-38605D01*
X74858Y-38643D01*
X74800Y-38662D01*
X74705Y-38662D01*
X75162Y-38433D02*
X75124Y-38414D01*
X75105Y-38395D01*
X75086Y-38357D01*
X75086Y-38338D01*
X75105Y-38300D01*
X75124Y-38281D01*
X75162Y-38262D01*
X75239Y-38262D01*
X75277Y-38281D01*
X75296Y-38300D01*
X75315Y-38338D01*
X75315Y-38357D01*
X75296Y-38395D01*
X75277Y-38414D01*
X75239Y-38433D01*
X75162Y-38433D01*
X75124Y-38452D01*
X75105Y-38471D01*
X75086Y-38510D01*
X75086Y-38586D01*
X75105Y-38624D01*
X75124Y-38643D01*
X75162Y-38662D01*
X75239Y-38662D01*
X75277Y-38643D01*
X75296Y-38624D01*
X75315Y-38586D01*
X75315Y-38510D01*
X75296Y-38471D01*
X75277Y-38452D01*
X75239Y-38433D01*
X58705Y-38662D02*
X58705Y-38262D01*
X58800Y-38262D01*
X58858Y-38281D01*
X58896Y-38319D01*
X58915Y-38357D01*
X58934Y-38433D01*
X58934Y-38490D01*
X58915Y-38567D01*
X58896Y-38605D01*
X58858Y-38643D01*
X58800Y-38662D01*
X58705Y-38662D01*
X59277Y-38395D02*
X59277Y-38662D01*
X59181Y-38243D02*
X59086Y-38529D01*
X59334Y-38529D01*
X62705Y-38662D02*
X62705Y-38262D01*
X62800Y-38262D01*
X62858Y-38281D01*
X62896Y-38319D01*
X62915Y-38357D01*
X62934Y-38433D01*
X62934Y-38490D01*
X62915Y-38567D01*
X62896Y-38605D01*
X62858Y-38643D01*
X62800Y-38662D01*
X62705Y-38662D01*
X63296Y-38262D02*
X63105Y-38262D01*
X63086Y-38452D01*
X63105Y-38433D01*
X63143Y-38414D01*
X63239Y-38414D01*
X63277Y-38433D01*
X63296Y-38452D01*
X63315Y-38490D01*
X63315Y-38586D01*
X63296Y-38624D01*
X63277Y-38643D01*
X63239Y-38662D01*
X63143Y-38662D01*
X63105Y-38643D01*
X63086Y-38624D01*
X66705Y-38662D02*
X66705Y-38262D01*
X66800Y-38262D01*
X66858Y-38281D01*
X66896Y-38319D01*
X66915Y-38357D01*
X66934Y-38433D01*
X66934Y-38490D01*
X66915Y-38567D01*
X66896Y-38605D01*
X66858Y-38643D01*
X66800Y-38662D01*
X66705Y-38662D01*
X67277Y-38262D02*
X67200Y-38262D01*
X67162Y-38281D01*
X67143Y-38300D01*
X67105Y-38357D01*
X67086Y-38433D01*
X67086Y-38586D01*
X67105Y-38624D01*
X67124Y-38643D01*
X67162Y-38662D01*
X67239Y-38662D01*
X67277Y-38643D01*
X67296Y-38624D01*
X67315Y-38586D01*
X67315Y-38490D01*
X67296Y-38452D01*
X67277Y-38433D01*
X67239Y-38414D01*
X67162Y-38414D01*
X67124Y-38433D01*
X67105Y-38452D01*
X67086Y-38490D01*
X70705Y-38662D02*
X70705Y-38262D01*
X70800Y-38262D01*
X70858Y-38281D01*
X70896Y-38319D01*
X70915Y-38357D01*
X70934Y-38433D01*
X70934Y-38490D01*
X70915Y-38567D01*
X70896Y-38605D01*
X70858Y-38643D01*
X70800Y-38662D01*
X70705Y-38662D01*
X71067Y-38262D02*
X71334Y-38262D01*
X71162Y-38662D01*
X62705Y-43662D02*
X62705Y-43262D01*
X62934Y-43662D02*
X62762Y-43433D01*
X62934Y-43262D02*
X62705Y-43490D01*
X63067Y-43262D02*
X63315Y-43262D01*
X63181Y-43414D01*
X63239Y-43414D01*
X63277Y-43433D01*
X63296Y-43452D01*
X63315Y-43490D01*
X63315Y-43586D01*
X63296Y-43624D01*
X63277Y-43643D01*
X63239Y-43662D01*
X63124Y-43662D01*
X63086Y-43643D01*
X63067Y-43624D01*
G54D11*
X61386Y-48321D02*
X61672Y-48321D01*
X61329Y-48493D02*
X61529Y-47893D01*
X61729Y-48493D01*
X61900Y-47950D02*
X61929Y-47921D01*
X61986Y-47893D01*
X62129Y-47893D01*
X62186Y-47921D01*
X62215Y-47950D01*
X62243Y-48007D01*
X62243Y-48064D01*
X62215Y-48150D01*
X61872Y-48493D01*
X62243Y-48493D01*
X62928Y-47864D02*
X62414Y-48636D01*
X63129Y-48493D02*
X63129Y-47893D01*
X63272Y-47893D01*
X63357Y-47921D01*
X63415Y-47979D01*
X63443Y-48036D01*
X63472Y-48150D01*
X63472Y-48236D01*
X63443Y-48350D01*
X63415Y-48407D01*
X63357Y-48464D01*
X63272Y-48493D01*
X63129Y-48493D01*
X63700Y-47950D02*
X63729Y-47921D01*
X63786Y-47893D01*
X63929Y-47893D01*
X63986Y-47921D01*
X64015Y-47950D01*
X64043Y-48007D01*
X64043Y-48064D01*
X64015Y-48150D01*
X63672Y-48493D01*
X64043Y-48493D01*
X64557Y-48093D02*
X64557Y-48493D01*
X64414Y-47864D02*
X64271Y-48293D01*
X64643Y-48293D01*
G54D15*
X67705Y-43662D02*
X67705Y-43262D01*
X67934Y-43662D02*
X67762Y-43433D01*
X67934Y-43262D02*
X67705Y-43490D01*
X68277Y-43395D02*
X68277Y-43662D01*
X68181Y-43243D02*
X68086Y-43529D01*
X68334Y-43529D01*
G54D11*
X66386Y-48321D02*
X66672Y-48321D01*
X66329Y-48493D02*
X66529Y-47893D01*
X66729Y-48493D01*
X66872Y-47893D02*
X67243Y-47893D01*
X67043Y-48121D01*
X67129Y-48121D01*
X67186Y-48150D01*
X67215Y-48179D01*
X67243Y-48236D01*
X67243Y-48379D01*
X67215Y-48436D01*
X67186Y-48464D01*
X67129Y-48493D01*
X66957Y-48493D01*
X66900Y-48464D01*
X66872Y-48436D01*
X67928Y-47864D02*
X67414Y-48636D01*
X68129Y-48493D02*
X68129Y-47893D01*
X68272Y-47893D01*
X68357Y-47921D01*
X68415Y-47979D01*
X68443Y-48036D01*
X68472Y-48150D01*
X68472Y-48236D01*
X68443Y-48350D01*
X68415Y-48407D01*
X68357Y-48464D01*
X68272Y-48493D01*
X68129Y-48493D01*
X68700Y-47950D02*
X68729Y-47921D01*
X68786Y-47893D01*
X68929Y-47893D01*
X68986Y-47921D01*
X69015Y-47950D01*
X69043Y-48007D01*
X69043Y-48064D01*
X69015Y-48150D01*
X68672Y-48493D01*
X69043Y-48493D01*
X69586Y-47893D02*
X69300Y-47893D01*
X69271Y-48179D01*
X69300Y-48150D01*
X69357Y-48121D01*
X69500Y-48121D01*
X69557Y-48150D01*
X69586Y-48179D01*
X69614Y-48236D01*
X69614Y-48379D01*
X69586Y-48436D01*
X69557Y-48464D01*
X69500Y-48493D01*
X69357Y-48493D01*
X69300Y-48464D01*
X69271Y-48436D01*
G54D15*
X57705Y-43662D02*
X57705Y-43262D01*
X57934Y-43662D02*
X57762Y-43433D01*
X57934Y-43262D02*
X57705Y-43490D01*
X58086Y-43300D02*
X58105Y-43281D01*
X58143Y-43262D01*
X58239Y-43262D01*
X58277Y-43281D01*
X58296Y-43300D01*
X58315Y-43338D01*
X58315Y-43376D01*
X58296Y-43433D01*
X58067Y-43662D01*
X58315Y-43662D01*
G54D11*
X56386Y-48321D02*
X56672Y-48321D01*
X56329Y-48493D02*
X56529Y-47893D01*
X56729Y-48493D01*
X57243Y-48493D02*
X56900Y-48493D01*
X57072Y-48493D02*
X57072Y-47893D01*
X57015Y-47979D01*
X56957Y-48036D01*
X56900Y-48064D01*
X57928Y-47864D02*
X57414Y-48636D01*
X58129Y-48493D02*
X58129Y-47893D01*
X58272Y-47893D01*
X58357Y-47921D01*
X58415Y-47979D01*
X58443Y-48036D01*
X58472Y-48150D01*
X58472Y-48236D01*
X58443Y-48350D01*
X58415Y-48407D01*
X58357Y-48464D01*
X58272Y-48493D01*
X58129Y-48493D01*
X58700Y-47950D02*
X58729Y-47921D01*
X58786Y-47893D01*
X58929Y-47893D01*
X58986Y-47921D01*
X59015Y-47950D01*
X59043Y-48007D01*
X59043Y-48064D01*
X59015Y-48150D01*
X58672Y-48493D01*
X59043Y-48493D01*
X59243Y-47893D02*
X59614Y-47893D01*
X59414Y-48121D01*
X59500Y-48121D01*
X59557Y-48150D01*
X59586Y-48179D01*
X59614Y-48236D01*
X59614Y-48379D01*
X59586Y-48436D01*
X59557Y-48464D01*
X59500Y-48493D01*
X59328Y-48493D01*
X59271Y-48464D01*
X59243Y-48436D01*
G54D15*
X52705Y-43662D02*
X52705Y-43262D01*
X52934Y-43662D02*
X52762Y-43433D01*
X52934Y-43262D02*
X52705Y-43490D01*
X53315Y-43662D02*
X53086Y-43662D01*
X53200Y-43662D02*
X53200Y-43262D01*
X53162Y-43319D01*
X53124Y-43357D01*
X53086Y-43376D01*
G54D11*
X51386Y-48321D02*
X51672Y-48321D01*
X51329Y-48493D02*
X51529Y-47893D01*
X51729Y-48493D01*
X52043Y-47893D02*
X52100Y-47893D01*
X52157Y-47921D01*
X52186Y-47950D01*
X52215Y-48007D01*
X52243Y-48121D01*
X52243Y-48264D01*
X52215Y-48379D01*
X52186Y-48436D01*
X52157Y-48464D01*
X52100Y-48493D01*
X52043Y-48493D01*
X51986Y-48464D01*
X51957Y-48436D01*
X51929Y-48379D01*
X51900Y-48264D01*
X51900Y-48121D01*
X51929Y-48007D01*
X51957Y-47950D01*
X51986Y-47921D01*
X52043Y-47893D01*
X52928Y-47864D02*
X52414Y-48636D01*
X53129Y-48493D02*
X53129Y-47893D01*
X53272Y-47893D01*
X53357Y-47921D01*
X53415Y-47979D01*
X53443Y-48036D01*
X53472Y-48150D01*
X53472Y-48236D01*
X53443Y-48350D01*
X53415Y-48407D01*
X53357Y-48464D01*
X53272Y-48493D01*
X53129Y-48493D01*
X53700Y-47950D02*
X53729Y-47921D01*
X53786Y-47893D01*
X53929Y-47893D01*
X53986Y-47921D01*
X54015Y-47950D01*
X54043Y-48007D01*
X54043Y-48064D01*
X54015Y-48150D01*
X53672Y-48493D01*
X54043Y-48493D01*
X54271Y-47950D02*
X54300Y-47921D01*
X54357Y-47893D01*
X54500Y-47893D01*
X54557Y-47921D01*
X54586Y-47950D01*
X54614Y-48007D01*
X54614Y-48064D01*
X54586Y-48150D01*
X54243Y-48493D01*
X54614Y-48493D01*
G54D15*
X49955Y-34412D02*
X49955Y-34012D01*
X50108Y-34012D01*
X50146Y-34031D01*
X50165Y-34050D01*
X50184Y-34088D01*
X50184Y-34145D01*
X50165Y-34183D01*
X50146Y-34202D01*
X50108Y-34221D01*
X49955Y-34221D01*
X50336Y-34050D02*
X50355Y-34031D01*
X50393Y-34012D01*
X50489Y-34012D01*
X50527Y-34031D01*
X50546Y-34050D01*
X50565Y-34088D01*
X50565Y-34126D01*
X50546Y-34183D01*
X50317Y-34412D01*
X50565Y-34412D01*
G54D11*
X52643Y-36886D02*
X52643Y-36772D01*
X52671Y-36714D01*
X52729Y-36657D01*
X52843Y-36629D01*
X53043Y-36629D01*
X53157Y-36657D01*
X53214Y-36714D01*
X53243Y-36772D01*
X53243Y-36886D01*
X53214Y-36943D01*
X53157Y-37000D01*
X53043Y-37029D01*
X52843Y-37029D01*
X52729Y-37000D01*
X52671Y-36943D01*
X52643Y-36886D01*
X52643Y-36371D02*
X53129Y-36371D01*
X53186Y-36343D01*
X53214Y-36314D01*
X53243Y-36257D01*
X53243Y-36143D01*
X53214Y-36085D01*
X53186Y-36057D01*
X53129Y-36028D01*
X52643Y-36028D01*
X52643Y-35828D02*
X52643Y-35485D01*
X53243Y-35656D02*
X52643Y-35656D01*
X52643Y-35171D02*
X52643Y-35114D01*
X52671Y-35057D01*
X52700Y-35028D01*
X52757Y-34999D01*
X52871Y-34971D01*
X53014Y-34971D01*
X53129Y-34999D01*
X53186Y-35028D01*
X53214Y-35057D01*
X53243Y-35114D01*
X53243Y-35171D01*
X53214Y-35228D01*
X53186Y-35257D01*
X53129Y-35285D01*
X53014Y-35314D01*
X52871Y-35314D01*
X52757Y-35285D01*
X52700Y-35257D01*
X52671Y-35228D01*
X52643Y-35171D01*
G54D15*
X55705Y-34412D02*
X55705Y-34012D01*
X55858Y-34012D01*
X55896Y-34031D01*
X55915Y-34050D01*
X55934Y-34088D01*
X55934Y-34145D01*
X55915Y-34183D01*
X55896Y-34202D01*
X55858Y-34221D01*
X55705Y-34221D01*
X56067Y-34012D02*
X56315Y-34012D01*
X56181Y-34164D01*
X56239Y-34164D01*
X56277Y-34183D01*
X56296Y-34202D01*
X56315Y-34240D01*
X56315Y-34336D01*
X56296Y-34374D01*
X56277Y-34393D01*
X56239Y-34412D01*
X56124Y-34412D01*
X56086Y-34393D01*
X56067Y-34374D01*
G54D11*
X56643Y-36886D02*
X56643Y-36772D01*
X56671Y-36714D01*
X56729Y-36657D01*
X56843Y-36629D01*
X57043Y-36629D01*
X57157Y-36657D01*
X57214Y-36714D01*
X57243Y-36772D01*
X57243Y-36886D01*
X57214Y-36943D01*
X57157Y-37000D01*
X57043Y-37029D01*
X56843Y-37029D01*
X56729Y-37000D01*
X56671Y-36943D01*
X56643Y-36886D01*
X56643Y-36371D02*
X57129Y-36371D01*
X57186Y-36343D01*
X57214Y-36314D01*
X57243Y-36257D01*
X57243Y-36143D01*
X57214Y-36085D01*
X57186Y-36057D01*
X57129Y-36028D01*
X56643Y-36028D01*
X56643Y-35828D02*
X56643Y-35485D01*
X57243Y-35656D02*
X56643Y-35656D01*
X57243Y-34971D02*
X57243Y-35314D01*
X57243Y-35142D02*
X56643Y-35142D01*
X56729Y-35199D01*
X56786Y-35257D01*
X56814Y-35314D01*
G54D15*
X59705Y-34412D02*
X59705Y-34012D01*
X59858Y-34012D01*
X59896Y-34031D01*
X59915Y-34050D01*
X59934Y-34088D01*
X59934Y-34145D01*
X59915Y-34183D01*
X59896Y-34202D01*
X59858Y-34221D01*
X59705Y-34221D01*
X60277Y-34145D02*
X60277Y-34412D01*
X60181Y-33993D02*
X60086Y-34279D01*
X60334Y-34279D01*
G54D11*
X60643Y-36886D02*
X60643Y-36772D01*
X60671Y-36714D01*
X60729Y-36657D01*
X60843Y-36629D01*
X61043Y-36629D01*
X61157Y-36657D01*
X61214Y-36714D01*
X61243Y-36772D01*
X61243Y-36886D01*
X61214Y-36943D01*
X61157Y-37000D01*
X61043Y-37029D01*
X60843Y-37029D01*
X60729Y-37000D01*
X60671Y-36943D01*
X60643Y-36886D01*
X60643Y-36371D02*
X61129Y-36371D01*
X61186Y-36343D01*
X61214Y-36314D01*
X61243Y-36257D01*
X61243Y-36143D01*
X61214Y-36085D01*
X61186Y-36057D01*
X61129Y-36028D01*
X60643Y-36028D01*
X60643Y-35828D02*
X60643Y-35485D01*
X61243Y-35656D02*
X60643Y-35656D01*
X60700Y-35314D02*
X60671Y-35285D01*
X60643Y-35228D01*
X60643Y-35085D01*
X60671Y-35028D01*
X60700Y-34999D01*
X60757Y-34971D01*
X60814Y-34971D01*
X60900Y-34999D01*
X61243Y-35342D01*
X61243Y-34971D01*
G54D15*
X63705Y-34412D02*
X63705Y-34012D01*
X63858Y-34012D01*
X63896Y-34031D01*
X63915Y-34050D01*
X63934Y-34088D01*
X63934Y-34145D01*
X63915Y-34183D01*
X63896Y-34202D01*
X63858Y-34221D01*
X63705Y-34221D01*
X64296Y-34012D02*
X64105Y-34012D01*
X64086Y-34202D01*
X64105Y-34183D01*
X64143Y-34164D01*
X64239Y-34164D01*
X64277Y-34183D01*
X64296Y-34202D01*
X64315Y-34240D01*
X64315Y-34336D01*
X64296Y-34374D01*
X64277Y-34393D01*
X64239Y-34412D01*
X64143Y-34412D01*
X64105Y-34393D01*
X64086Y-34374D01*
G54D11*
X64643Y-36886D02*
X64643Y-36772D01*
X64671Y-36714D01*
X64729Y-36657D01*
X64843Y-36629D01*
X65043Y-36629D01*
X65157Y-36657D01*
X65214Y-36714D01*
X65243Y-36772D01*
X65243Y-36886D01*
X65214Y-36943D01*
X65157Y-37000D01*
X65043Y-37029D01*
X64843Y-37029D01*
X64729Y-37000D01*
X64671Y-36943D01*
X64643Y-36886D01*
X64643Y-36371D02*
X65129Y-36371D01*
X65186Y-36343D01*
X65214Y-36314D01*
X65243Y-36257D01*
X65243Y-36143D01*
X65214Y-36085D01*
X65186Y-36057D01*
X65129Y-36028D01*
X64643Y-36028D01*
X64643Y-35828D02*
X64643Y-35485D01*
X65243Y-35656D02*
X64643Y-35656D01*
X64643Y-35342D02*
X64643Y-34971D01*
X64871Y-35171D01*
X64871Y-35085D01*
X64900Y-35028D01*
X64929Y-34999D01*
X64986Y-34971D01*
X65129Y-34971D01*
X65186Y-34999D01*
X65214Y-35028D01*
X65243Y-35085D01*
X65243Y-35257D01*
X65214Y-35314D01*
X65186Y-35342D01*
G54D15*
X67705Y-34412D02*
X67705Y-34012D01*
X67858Y-34012D01*
X67896Y-34031D01*
X67915Y-34050D01*
X67934Y-34088D01*
X67934Y-34145D01*
X67915Y-34183D01*
X67896Y-34202D01*
X67858Y-34221D01*
X67705Y-34221D01*
X68277Y-34012D02*
X68200Y-34012D01*
X68162Y-34031D01*
X68143Y-34050D01*
X68105Y-34107D01*
X68086Y-34183D01*
X68086Y-34336D01*
X68105Y-34374D01*
X68124Y-34393D01*
X68162Y-34412D01*
X68239Y-34412D01*
X68277Y-34393D01*
X68296Y-34374D01*
X68315Y-34336D01*
X68315Y-34240D01*
X68296Y-34202D01*
X68277Y-34183D01*
X68239Y-34164D01*
X68162Y-34164D01*
X68124Y-34183D01*
X68105Y-34202D01*
X68086Y-34240D01*
G54D11*
X68643Y-36886D02*
X68643Y-36772D01*
X68671Y-36714D01*
X68729Y-36657D01*
X68843Y-36629D01*
X69043Y-36629D01*
X69157Y-36657D01*
X69214Y-36714D01*
X69243Y-36772D01*
X69243Y-36886D01*
X69214Y-36943D01*
X69157Y-37000D01*
X69043Y-37029D01*
X68843Y-37029D01*
X68729Y-37000D01*
X68671Y-36943D01*
X68643Y-36886D01*
X68643Y-36371D02*
X69129Y-36371D01*
X69186Y-36343D01*
X69214Y-36314D01*
X69243Y-36257D01*
X69243Y-36143D01*
X69214Y-36085D01*
X69186Y-36057D01*
X69129Y-36028D01*
X68643Y-36028D01*
X68643Y-35828D02*
X68643Y-35485D01*
X69243Y-35656D02*
X68643Y-35656D01*
X68843Y-35028D02*
X69243Y-35028D01*
X68614Y-35171D02*
X69043Y-35314D01*
X69043Y-34942D01*
G54D15*
X71705Y-34412D02*
X71705Y-34012D01*
X71858Y-34012D01*
X71896Y-34031D01*
X71915Y-34050D01*
X71934Y-34088D01*
X71934Y-34145D01*
X71915Y-34183D01*
X71896Y-34202D01*
X71858Y-34221D01*
X71705Y-34221D01*
X72067Y-34012D02*
X72334Y-34012D01*
X72162Y-34412D01*
G54D11*
X72643Y-36886D02*
X72643Y-36772D01*
X72671Y-36714D01*
X72729Y-36657D01*
X72843Y-36629D01*
X73043Y-36629D01*
X73157Y-36657D01*
X73214Y-36714D01*
X73243Y-36772D01*
X73243Y-36886D01*
X73214Y-36943D01*
X73157Y-37000D01*
X73043Y-37029D01*
X72843Y-37029D01*
X72729Y-37000D01*
X72671Y-36943D01*
X72643Y-36886D01*
X72643Y-36371D02*
X73129Y-36371D01*
X73186Y-36343D01*
X73214Y-36314D01*
X73243Y-36257D01*
X73243Y-36143D01*
X73214Y-36085D01*
X73186Y-36057D01*
X73129Y-36028D01*
X72643Y-36028D01*
X72643Y-35828D02*
X72643Y-35485D01*
X73243Y-35656D02*
X72643Y-35656D01*
X72643Y-34999D02*
X72643Y-35285D01*
X72929Y-35314D01*
X72900Y-35285D01*
X72871Y-35228D01*
X72871Y-35085D01*
X72900Y-35028D01*
X72929Y-34999D01*
X72986Y-34971D01*
X73129Y-34971D01*
X73186Y-34999D01*
X73214Y-35028D01*
X73243Y-35085D01*
X73243Y-35228D01*
X73214Y-35285D01*
X73186Y-35314D01*
G54D15*
X75705Y-34412D02*
X75705Y-34012D01*
X75858Y-34012D01*
X75896Y-34031D01*
X75915Y-34050D01*
X75934Y-34088D01*
X75934Y-34145D01*
X75915Y-34183D01*
X75896Y-34202D01*
X75858Y-34221D01*
X75705Y-34221D01*
X76162Y-34183D02*
X76124Y-34164D01*
X76105Y-34145D01*
X76086Y-34107D01*
X76086Y-34088D01*
X76105Y-34050D01*
X76124Y-34031D01*
X76162Y-34012D01*
X76239Y-34012D01*
X76277Y-34031D01*
X76296Y-34050D01*
X76315Y-34088D01*
X76315Y-34107D01*
X76296Y-34145D01*
X76277Y-34164D01*
X76239Y-34183D01*
X76162Y-34183D01*
X76124Y-34202D01*
X76105Y-34221D01*
X76086Y-34260D01*
X76086Y-34336D01*
X76105Y-34374D01*
X76124Y-34393D01*
X76162Y-34412D01*
X76239Y-34412D01*
X76277Y-34393D01*
X76296Y-34374D01*
X76315Y-34336D01*
X76315Y-34260D01*
X76296Y-34221D01*
X76277Y-34202D01*
X76239Y-34183D01*
G54D11*
X76643Y-36886D02*
X76643Y-36772D01*
X76671Y-36714D01*
X76729Y-36657D01*
X76843Y-36629D01*
X77043Y-36629D01*
X77157Y-36657D01*
X77214Y-36714D01*
X77243Y-36772D01*
X77243Y-36886D01*
X77214Y-36943D01*
X77157Y-37000D01*
X77043Y-37029D01*
X76843Y-37029D01*
X76729Y-37000D01*
X76671Y-36943D01*
X76643Y-36886D01*
X76643Y-36371D02*
X77129Y-36371D01*
X77186Y-36343D01*
X77214Y-36314D01*
X77243Y-36257D01*
X77243Y-36143D01*
X77214Y-36085D01*
X77186Y-36057D01*
X77129Y-36028D01*
X76643Y-36028D01*
X76643Y-35828D02*
X76643Y-35485D01*
X77243Y-35656D02*
X76643Y-35656D01*
X76643Y-35028D02*
X76643Y-35142D01*
X76671Y-35199D01*
X76700Y-35228D01*
X76786Y-35285D01*
X76900Y-35314D01*
X77129Y-35314D01*
X77186Y-35285D01*
X77214Y-35257D01*
X77243Y-35199D01*
X77243Y-35085D01*
X77214Y-35028D01*
X77186Y-34999D01*
X77129Y-34971D01*
X76986Y-34971D01*
X76929Y-34999D01*
X76900Y-35028D01*
X76871Y-35085D01*
X76871Y-35199D01*
X76900Y-35257D01*
X76929Y-35285D01*
X76986Y-35314D01*
G54D15*
X79705Y-34412D02*
X79705Y-34012D01*
X79858Y-34012D01*
X79896Y-34031D01*
X79915Y-34050D01*
X79934Y-34088D01*
X79934Y-34145D01*
X79915Y-34183D01*
X79896Y-34202D01*
X79858Y-34221D01*
X79705Y-34221D01*
X80124Y-34412D02*
X80200Y-34412D01*
X80239Y-34393D01*
X80258Y-34374D01*
X80296Y-34317D01*
X80315Y-34240D01*
X80315Y-34088D01*
X80296Y-34050D01*
X80277Y-34031D01*
X80239Y-34012D01*
X80162Y-34012D01*
X80124Y-34031D01*
X80105Y-34050D01*
X80086Y-34088D01*
X80086Y-34183D01*
X80105Y-34221D01*
X80124Y-34240D01*
X80162Y-34260D01*
X80239Y-34260D01*
X80277Y-34240D01*
X80296Y-34221D01*
X80315Y-34183D01*
G54D11*
X80643Y-36886D02*
X80643Y-36772D01*
X80671Y-36714D01*
X80729Y-36657D01*
X80843Y-36629D01*
X81043Y-36629D01*
X81157Y-36657D01*
X81214Y-36714D01*
X81243Y-36772D01*
X81243Y-36886D01*
X81214Y-36943D01*
X81157Y-37000D01*
X81043Y-37029D01*
X80843Y-37029D01*
X80729Y-37000D01*
X80671Y-36943D01*
X80643Y-36886D01*
X80643Y-36371D02*
X81129Y-36371D01*
X81186Y-36343D01*
X81214Y-36314D01*
X81243Y-36257D01*
X81243Y-36143D01*
X81214Y-36085D01*
X81186Y-36057D01*
X81129Y-36028D01*
X80643Y-36028D01*
X80643Y-35828D02*
X80643Y-35485D01*
X81243Y-35656D02*
X80643Y-35656D01*
X80643Y-35342D02*
X80643Y-34942D01*
X81243Y-35199D01*
G54D15*
X54695Y-32262D02*
X54695Y-32586D01*
X54714Y-32624D01*
X54733Y-32643D01*
X54771Y-32662D01*
X54848Y-32662D01*
X54886Y-32643D01*
X54905Y-32624D01*
X54924Y-32586D01*
X54924Y-32262D01*
X55324Y-32662D02*
X55095Y-32662D01*
X55209Y-32662D02*
X55209Y-32262D01*
X55171Y-32319D01*
X55133Y-32357D01*
X55095Y-32376D01*
X66695Y-32262D02*
X66695Y-32586D01*
X66714Y-32624D01*
X66733Y-32643D01*
X66771Y-32662D01*
X66848Y-32662D01*
X66886Y-32643D01*
X66905Y-32624D01*
X66924Y-32586D01*
X66924Y-32262D01*
X67095Y-32300D02*
X67114Y-32281D01*
X67152Y-32262D01*
X67248Y-32262D01*
X67286Y-32281D01*
X67305Y-32300D01*
X67324Y-32338D01*
X67324Y-32376D01*
X67305Y-32433D01*
X67076Y-32662D01*
X67324Y-32662D01*
X78695Y-32262D02*
X78695Y-32586D01*
X78714Y-32624D01*
X78733Y-32643D01*
X78771Y-32662D01*
X78848Y-32662D01*
X78886Y-32643D01*
X78905Y-32624D01*
X78924Y-32586D01*
X78924Y-32262D01*
X79076Y-32262D02*
X79324Y-32262D01*
X79190Y-32414D01*
X79248Y-32414D01*
X79286Y-32433D01*
X79305Y-32452D01*
X79324Y-32490D01*
X79324Y-32586D01*
X79305Y-32624D01*
X79286Y-32643D01*
X79248Y-32662D01*
X79133Y-32662D01*
X79095Y-32643D01*
X79076Y-32624D01*
X50412Y-41016D02*
X50221Y-41150D01*
X50412Y-41245D02*
X50012Y-41245D01*
X50012Y-41092D01*
X50031Y-41054D01*
X50050Y-41035D01*
X50088Y-41016D01*
X50145Y-41016D01*
X50183Y-41035D01*
X50202Y-41054D01*
X50221Y-41092D01*
X50221Y-41245D01*
X50412Y-40845D02*
X50012Y-40845D01*
X50012Y-40692D01*
X50031Y-40654D01*
X50050Y-40635D01*
X50088Y-40616D01*
X50145Y-40616D01*
X50183Y-40635D01*
X50202Y-40654D01*
X50221Y-40692D01*
X50221Y-40845D01*
X50412Y-40235D02*
X50412Y-40464D01*
X50412Y-40350D02*
X50012Y-40350D01*
X50069Y-40388D01*
X50107Y-40426D01*
X50126Y-40464D01*
G54D11*
X52157Y-40450D02*
X52186Y-40421D01*
X52243Y-40393D01*
X52386Y-40393D01*
X52443Y-40421D01*
X52472Y-40450D01*
X52500Y-40507D01*
X52500Y-40564D01*
X52472Y-40650D01*
X52129Y-40993D01*
X52500Y-40993D01*
X52757Y-40936D02*
X52785Y-40964D01*
X52757Y-40993D01*
X52728Y-40964D01*
X52757Y-40936D01*
X52757Y-40993D01*
X53014Y-40450D02*
X53043Y-40421D01*
X53100Y-40393D01*
X53243Y-40393D01*
X53300Y-40421D01*
X53329Y-40450D01*
X53357Y-40507D01*
X53357Y-40564D01*
X53329Y-40650D01*
X52986Y-40993D01*
X53357Y-40993D01*
X53614Y-40993D02*
X53614Y-40393D01*
X53671Y-40764D02*
X53842Y-40993D01*
X53842Y-40593D02*
X53614Y-40821D01*
%LPC*%
G54D16*
X88320Y-41000D03*
G54D17*
X87140Y-41000D03*
G54D18*
X84780Y-41000D03*
G54D17*
X87530Y-39230D03*
X87530Y-42770D03*
G54D19*
X50500Y-50500D03*
X51000Y-31500D03*
X83000Y-50500D03*
X80500Y-31500D03*
G54D20*
X56000Y-50500D03*
X57000Y-50500D03*
X58000Y-50500D03*
X59000Y-50500D03*
X60000Y-50500D03*
X61000Y-50500D03*
X62000Y-50500D03*
X63000Y-50500D03*
X65000Y-50500D03*
X66000Y-50500D03*
X67000Y-50500D03*
X68000Y-50500D03*
X69000Y-50500D03*
X70000Y-50500D03*
X71000Y-50500D03*
X72000Y-50500D03*
X74000Y-50500D03*
X75000Y-50500D03*
X76000Y-50500D03*
X77000Y-50500D03*
X78000Y-50500D03*
X79000Y-50500D03*
X80000Y-50500D03*
X81000Y-50500D03*
X52400Y-31500D03*
X53400Y-31500D03*
X54400Y-31500D03*
X55400Y-31500D03*
X56400Y-31500D03*
X57400Y-31500D03*
X58400Y-31500D03*
X59400Y-31500D03*
X60400Y-31500D03*
X61400Y-31500D03*
X63000Y-31500D03*
X70000Y-31500D03*
X69000Y-31500D03*
X68000Y-31500D03*
X67000Y-31500D03*
X66000Y-31500D03*
X65000Y-31500D03*
X64000Y-31500D03*
X72000Y-31500D03*
X73000Y-31500D03*
X74000Y-31500D03*
X75000Y-31500D03*
X76000Y-31500D03*
X77000Y-31500D03*
X78000Y-31500D03*
X79000Y-31500D03*
G54D21*
X82000Y-31500D03*
X83000Y-31500D03*
X82000Y-32500D03*
X83000Y-32500D03*
X82000Y-33500D03*
X83000Y-33500D03*
X82000Y-34500D03*
X83000Y-34500D03*
X82000Y-35500D03*
X83000Y-35500D03*
X82000Y-36500D03*
X83000Y-36500D03*
X82000Y-37500D03*
X83000Y-37500D03*
X82000Y-38500D03*
X83000Y-38500D03*
X82000Y-39500D03*
X83000Y-39500D03*
X82000Y-40500D03*
X83000Y-40500D03*
X82000Y-41500D03*
X83000Y-41500D03*
X82000Y-42500D03*
X83000Y-42500D03*
X82000Y-43500D03*
X83000Y-43500D03*
X82000Y-44500D03*
X83000Y-44500D03*
X82000Y-45500D03*
X83000Y-45500D03*
X82000Y-46500D03*
X83000Y-46500D03*
X82000Y-47500D03*
X83000Y-47500D03*
X82000Y-48500D03*
X83000Y-48500D03*
G54D22*
X75250Y-43750D03*
X75250Y-43250D03*
X75250Y-42750D03*
X75250Y-42250D03*
X75250Y-41750D03*
X75250Y-41250D03*
X75250Y-44250D03*
X75250Y-44750D03*
X75250Y-45250D03*
X75250Y-45750D03*
X75250Y-46250D03*
X75250Y-46750D03*
X79250Y-46750D03*
X79250Y-46250D03*
X79250Y-45750D03*
X79250Y-45250D03*
X79250Y-44750D03*
X79250Y-44250D03*
X79250Y-43750D03*
X79250Y-43250D03*
X79250Y-42750D03*
X79250Y-42250D03*
X79250Y-41750D03*
X79250Y-41250D03*
G54D23*
X55250Y-45150D03*
X55250Y-46350D03*
G54D24*
X84900Y-35250D03*
X86100Y-35250D03*
X76650Y-48250D03*
X77850Y-48250D03*
X84900Y-37000D03*
X86100Y-37000D03*
G54D23*
X60250Y-45150D03*
X60250Y-46350D03*
G54D24*
X84900Y-33500D03*
X86100Y-33500D03*
X84900Y-31750D03*
X86100Y-31750D03*
G54D23*
X65250Y-45150D03*
X65250Y-46350D03*
G54D25*
X54585Y-37750D03*
X55415Y-37750D03*
X87585Y-37000D03*
X88415Y-37000D03*
X50585Y-37750D03*
X51415Y-37750D03*
X78835Y-37750D03*
X79665Y-37750D03*
X74585Y-37750D03*
X75415Y-37750D03*
X58585Y-37750D03*
X59415Y-37750D03*
X62585Y-37750D03*
X63415Y-37750D03*
X66585Y-37750D03*
X67415Y-37750D03*
X70585Y-37750D03*
X71415Y-37750D03*
G54D26*
X63250Y-45750D03*
X63250Y-46750D03*
G54D27*
X63250Y-44750D03*
G54D26*
X68250Y-45750D03*
X68250Y-46750D03*
G54D27*
X68250Y-44750D03*
G54D26*
X58250Y-45750D03*
X58250Y-46750D03*
G54D27*
X58250Y-44750D03*
G54D26*
X53250Y-45750D03*
X53250Y-46750D03*
G54D27*
X53250Y-44750D03*
G54D26*
X50500Y-36250D03*
G54D27*
X51500Y-36250D03*
G54D26*
X54500Y-36250D03*
G54D27*
X55500Y-36250D03*
G54D26*
X58500Y-36250D03*
G54D27*
X59500Y-36250D03*
G54D26*
X62500Y-36250D03*
G54D27*
X63500Y-36250D03*
G54D26*
X66500Y-36250D03*
G54D27*
X67500Y-36250D03*
G54D26*
X70500Y-36250D03*
G54D27*
X71500Y-36250D03*
G54D26*
X74500Y-36250D03*
G54D27*
X75500Y-36250D03*
G54D26*
X78500Y-36250D03*
G54D27*
X79500Y-36250D03*
G54D28*
X54744Y-33874D03*
X55000Y-33874D03*
X55256Y-33874D03*
X55256Y-33126D03*
X55000Y-33126D03*
X54744Y-33126D03*
X66744Y-33874D03*
X67000Y-33874D03*
X67256Y-33874D03*
X67256Y-33126D03*
X67000Y-33126D03*
X66744Y-33126D03*
X78744Y-33874D03*
X79000Y-33874D03*
X79256Y-33874D03*
X79256Y-33126D03*
X79000Y-33126D03*
X78744Y-33126D03*
G54D29*
X54750Y-39300D03*
X54250Y-39300D03*
X53750Y-39300D03*
X53250Y-39300D03*
X52750Y-39300D03*
X52250Y-39300D03*
X51750Y-39300D03*
X51250Y-39300D03*
X51250Y-42200D03*
X51750Y-42200D03*
X52250Y-42200D03*
X52750Y-42200D03*
X53250Y-42200D03*
X53750Y-42200D03*
X54250Y-42200D03*
X54750Y-42200D03*
M02*
