G04 (created by PCBNEW-RS274X (2011-05-25)-stable) date Wed 08 May 2013 01:19:30 PM EDT*
G01*
G70*
G90*
%MOIN*%
G04 Gerber Fmt 3.4, Leading zero omitted, Abs format*
%FSLAX34Y34*%
G04 APERTURE LIST*
%ADD10C,0.006000*%
%ADD11C,0.009000*%
%ADD12C,0.096000*%
%ADD13C,0.160000*%
%ADD14C,0.180000*%
%ADD15C,0.175000*%
%ADD16O,0.080000X0.120000*%
%ADD17C,0.080000*%
%ADD18R,0.070000X0.035000*%
%ADD19R,0.120000X0.070000*%
%ADD20R,0.070000X0.120000*%
%ADD21R,0.067000X0.067000*%
%ADD22C,0.093000*%
%ADD23R,0.093000X0.093000*%
%ADD24R,0.020500X0.027600*%
%ADD25R,0.045000X0.100000*%
G04 APERTURE END LIST*
G54D10*
G54D11*
X89500Y-30500D02*
X49500Y-30500D01*
X89500Y-51500D02*
X89500Y-30500D01*
X49500Y-51500D02*
X89500Y-51500D01*
X49500Y-30500D02*
X49500Y-51500D01*
G54D12*
X88320Y-41000D03*
G54D13*
X87140Y-41000D03*
G54D14*
X84780Y-41000D03*
G54D13*
X87530Y-39230D03*
X87530Y-42770D03*
G54D15*
X50500Y-50500D03*
X51000Y-31500D03*
X83000Y-50500D03*
X80500Y-31500D03*
G54D16*
X56000Y-50500D03*
X57000Y-50500D03*
X58000Y-50500D03*
X59000Y-50500D03*
X60000Y-50500D03*
X61000Y-50500D03*
X62000Y-50500D03*
X63000Y-50500D03*
X65000Y-50500D03*
X66000Y-50500D03*
X67000Y-50500D03*
X68000Y-50500D03*
X69000Y-50500D03*
X70000Y-50500D03*
X71000Y-50500D03*
X72000Y-50500D03*
X74000Y-50500D03*
X75000Y-50500D03*
X76000Y-50500D03*
X77000Y-50500D03*
X78000Y-50500D03*
X79000Y-50500D03*
X80000Y-50500D03*
X81000Y-50500D03*
X52400Y-31500D03*
X53400Y-31500D03*
X54400Y-31500D03*
X55400Y-31500D03*
X56400Y-31500D03*
X57400Y-31500D03*
X58400Y-31500D03*
X59400Y-31500D03*
X60400Y-31500D03*
X61400Y-31500D03*
X63000Y-31500D03*
X70000Y-31500D03*
X69000Y-31500D03*
X68000Y-31500D03*
X67000Y-31500D03*
X66000Y-31500D03*
X65000Y-31500D03*
X64000Y-31500D03*
X72000Y-31500D03*
X73000Y-31500D03*
X74000Y-31500D03*
X75000Y-31500D03*
X76000Y-31500D03*
X77000Y-31500D03*
X78000Y-31500D03*
X79000Y-31500D03*
G54D17*
X82000Y-31500D03*
X83000Y-31500D03*
X82000Y-32500D03*
X83000Y-32500D03*
X82000Y-33500D03*
X83000Y-33500D03*
X82000Y-34500D03*
X83000Y-34500D03*
X82000Y-35500D03*
X83000Y-35500D03*
X82000Y-36500D03*
X83000Y-36500D03*
X82000Y-37500D03*
X83000Y-37500D03*
X82000Y-38500D03*
X83000Y-38500D03*
X82000Y-39500D03*
X83000Y-39500D03*
X82000Y-40500D03*
X83000Y-40500D03*
X82000Y-41500D03*
X83000Y-41500D03*
X82000Y-42500D03*
X83000Y-42500D03*
X82000Y-43500D03*
X83000Y-43500D03*
X82000Y-44500D03*
X83000Y-44500D03*
X82000Y-45500D03*
X83000Y-45500D03*
X82000Y-46500D03*
X83000Y-46500D03*
X82000Y-47500D03*
X83000Y-47500D03*
X82000Y-48500D03*
X83000Y-48500D03*
G54D18*
X75250Y-43750D03*
X75250Y-43250D03*
X75250Y-42750D03*
X75250Y-42250D03*
X75250Y-41750D03*
X75250Y-41250D03*
X75250Y-44250D03*
X75250Y-44750D03*
X75250Y-45250D03*
X75250Y-45750D03*
X75250Y-46250D03*
X75250Y-46750D03*
X79250Y-46750D03*
X79250Y-46250D03*
X79250Y-45750D03*
X79250Y-45250D03*
X79250Y-44750D03*
X79250Y-44250D03*
X79250Y-43750D03*
X79250Y-43250D03*
X79250Y-42750D03*
X79250Y-42250D03*
X79250Y-41750D03*
X79250Y-41250D03*
G54D19*
X55250Y-45150D03*
X55250Y-46350D03*
G54D20*
X84900Y-35250D03*
X86100Y-35250D03*
X76650Y-48250D03*
X77850Y-48250D03*
X84900Y-37000D03*
X86100Y-37000D03*
G54D19*
X60250Y-45150D03*
X60250Y-46350D03*
G54D20*
X84900Y-33500D03*
X86100Y-33500D03*
X84900Y-31750D03*
X86100Y-31750D03*
G54D19*
X65250Y-45150D03*
X65250Y-46350D03*
G54D21*
X54585Y-37750D03*
X55415Y-37750D03*
X87585Y-37000D03*
X88415Y-37000D03*
X50585Y-37750D03*
X51415Y-37750D03*
X78835Y-37750D03*
X79665Y-37750D03*
X74585Y-37750D03*
X75415Y-37750D03*
X58585Y-37750D03*
X59415Y-37750D03*
X62585Y-37750D03*
X63415Y-37750D03*
X66585Y-37750D03*
X67415Y-37750D03*
X70585Y-37750D03*
X71415Y-37750D03*
G54D22*
X63250Y-45750D03*
X63250Y-46750D03*
G54D23*
X63250Y-44750D03*
G54D22*
X68250Y-45750D03*
X68250Y-46750D03*
G54D23*
X68250Y-44750D03*
G54D22*
X58250Y-45750D03*
X58250Y-46750D03*
G54D23*
X58250Y-44750D03*
G54D22*
X53250Y-45750D03*
X53250Y-46750D03*
G54D23*
X53250Y-44750D03*
G54D22*
X50500Y-36250D03*
G54D23*
X51500Y-36250D03*
G54D22*
X54500Y-36250D03*
G54D23*
X55500Y-36250D03*
G54D22*
X58500Y-36250D03*
G54D23*
X59500Y-36250D03*
G54D22*
X62500Y-36250D03*
G54D23*
X63500Y-36250D03*
G54D22*
X66500Y-36250D03*
G54D23*
X67500Y-36250D03*
G54D22*
X70500Y-36250D03*
G54D23*
X71500Y-36250D03*
G54D22*
X74500Y-36250D03*
G54D23*
X75500Y-36250D03*
G54D22*
X78500Y-36250D03*
G54D23*
X79500Y-36250D03*
G54D24*
X54744Y-33874D03*
X55000Y-33874D03*
X55256Y-33874D03*
X55256Y-33126D03*
X55000Y-33126D03*
X54744Y-33126D03*
X66744Y-33874D03*
X67000Y-33874D03*
X67256Y-33874D03*
X67256Y-33126D03*
X67000Y-33126D03*
X66744Y-33126D03*
X78744Y-33874D03*
X79000Y-33874D03*
X79256Y-33874D03*
X79256Y-33126D03*
X79000Y-33126D03*
X78744Y-33126D03*
G54D25*
X54750Y-39300D03*
X54250Y-39300D03*
X53750Y-39300D03*
X53250Y-39300D03*
X52750Y-39300D03*
X52250Y-39300D03*
X51750Y-39300D03*
X51250Y-39300D03*
X51250Y-42200D03*
X51750Y-42200D03*
X52250Y-42200D03*
X52750Y-42200D03*
X53250Y-42200D03*
X53750Y-42200D03*
X54250Y-42200D03*
X54750Y-42200D03*
M02*
