M48
;DRILL file {PCBnew (2011-05-25)-stable} date Wed 08 May 2013 01:20:58 PM EDT
;FORMAT={-:-/ absolute / inch / decimal}
FMAT,2
INCH,TZ
T1C0.025
T2C0.040
T3C0.043
T4C0.063
T5C0.106
T6C0.124
T7C0.130
%
G90
G05
M72
T1
X5.193Y-3.775
X6.020Y-3.800
X6.465Y-4.092
X6.554Y-3.834
X7.081Y-4.213
X7.208Y-4.275
X7.382Y-4.349
X7.414Y-4.402
X7.595Y-3.775
X7.719Y-4.540
X7.799Y-4.566
X7.838Y-4.825
X7.872Y-4.275
X7.877Y-4.650
X7.933Y-4.711
X7.984Y-4.229
X8.101Y-4.868
T2
X5.240Y-3.150
X5.340Y-3.150
X5.440Y-3.150
X5.540Y-3.150
X5.600Y-5.050
X5.640Y-3.150
X5.700Y-5.050
X5.740Y-3.150
X5.800Y-5.050
X5.840Y-3.150
X5.900Y-5.050
X5.940Y-3.150
X6.000Y-5.050
X6.040Y-3.150
X6.100Y-5.050
X6.140Y-3.150
X6.200Y-5.050
X6.300Y-3.150
X6.300Y-5.050
X6.400Y-3.150
X6.500Y-3.150
X6.500Y-5.050
X6.600Y-3.150
X6.600Y-5.050
X6.700Y-3.150
X6.700Y-5.050
X6.800Y-3.150
X6.800Y-5.050
X6.900Y-3.150
X6.900Y-5.050
X7.000Y-3.150
X7.000Y-5.050
X7.100Y-5.050
X7.200Y-3.150
X7.200Y-5.050
X7.300Y-3.150
X7.400Y-3.150
X7.400Y-5.050
X7.500Y-3.150
X7.500Y-5.050
X7.600Y-3.150
X7.600Y-5.050
X7.700Y-3.150
X7.700Y-5.050
X7.800Y-3.150
X7.800Y-5.050
X7.900Y-3.150
X7.900Y-5.050
X8.000Y-5.050
X8.100Y-5.050
X8.200Y-3.150
X8.200Y-3.250
X8.200Y-3.350
X8.200Y-3.450
X8.200Y-3.550
X8.200Y-3.650
X8.200Y-3.750
X8.200Y-3.850
X8.200Y-3.950
X8.200Y-4.050
X8.200Y-4.150
X8.200Y-4.250
X8.200Y-4.350
X8.200Y-4.450
X8.200Y-4.550
X8.200Y-4.650
X8.200Y-4.750
X8.200Y-4.850
X8.300Y-3.150
X8.300Y-3.250
X8.300Y-3.350
X8.300Y-3.450
X8.300Y-3.550
X8.300Y-3.650
X8.300Y-3.750
X8.300Y-3.850
X8.300Y-3.950
X8.300Y-4.050
X8.300Y-4.150
X8.300Y-4.250
X8.300Y-4.350
X8.300Y-4.450
X8.300Y-4.550
X8.300Y-4.650
X8.300Y-4.750
X8.300Y-4.850
T3
X5.050Y-3.625
X5.150Y-3.625
X5.325Y-4.475
X5.325Y-4.575
X5.325Y-4.675
X5.450Y-3.625
X5.550Y-3.625
X5.825Y-4.475
X5.825Y-4.575
X5.825Y-4.675
X5.850Y-3.625
X5.950Y-3.625
X6.250Y-3.625
X6.325Y-4.475
X6.325Y-4.575
X6.325Y-4.675
X6.350Y-3.625
X6.650Y-3.625
X6.750Y-3.625
X6.825Y-4.475
X6.825Y-4.575
X6.825Y-4.675
X7.050Y-3.625
X7.150Y-3.625
X7.450Y-3.625
X7.550Y-3.625
X7.850Y-3.625
X7.950Y-3.625
T4
X8.832Y-4.100
T5
X8.714Y-4.100
X8.753Y-3.923
X8.753Y-4.277
T6
X8.478Y-4.100
T7
X5.050Y-5.050
X5.100Y-3.150
X8.050Y-3.150
X8.300Y-5.050
T0
M30
