G04 (created by PCBNEW-RS274X (2011-05-25)-stable) date Wed 08 May 2013 01:19:30 PM EDT*
G01*
G70*
G90*
%MOIN*%
G04 Gerber Fmt 3.4, Leading zero omitted, Abs format*
%FSLAX34Y34*%
G04 APERTURE LIST*
%ADD10C,0.006000*%
%ADD11C,0.009000*%
%ADD12C,0.076000*%
%ADD13C,0.140000*%
%ADD14C,0.160000*%
%ADD15C,0.155000*%
%ADD16O,0.060000X0.100000*%
%ADD17C,0.060000*%
%ADD18R,0.050000X0.015000*%
%ADD19R,0.100000X0.050000*%
%ADD20R,0.050000X0.100000*%
%ADD21R,0.047000X0.047000*%
%ADD22C,0.073000*%
%ADD23R,0.073000X0.073000*%
%ADD24R,0.016500X0.023600*%
%ADD25R,0.025000X0.080000*%
%ADD26C,0.035000*%
%ADD27C,0.036000*%
%ADD28C,0.008000*%
%ADD29C,0.014800*%
%ADD30C,0.010000*%
G04 APERTURE END LIST*
G54D10*
G54D11*
X89500Y-30500D02*
X49500Y-30500D01*
X89500Y-51500D02*
X89500Y-30500D01*
X49500Y-51500D02*
X89500Y-51500D01*
X49500Y-30500D02*
X49500Y-51500D01*
G54D12*
X88320Y-41000D03*
G54D13*
X87140Y-41000D03*
G54D14*
X84780Y-41000D03*
G54D13*
X87530Y-39230D03*
X87530Y-42770D03*
G54D15*
X50500Y-50500D03*
X51000Y-31500D03*
X83000Y-50500D03*
X80500Y-31500D03*
G54D16*
X56000Y-50500D03*
X57000Y-50500D03*
X58000Y-50500D03*
X59000Y-50500D03*
X60000Y-50500D03*
X61000Y-50500D03*
X62000Y-50500D03*
X63000Y-50500D03*
X65000Y-50500D03*
X66000Y-50500D03*
X67000Y-50500D03*
X68000Y-50500D03*
X69000Y-50500D03*
X70000Y-50500D03*
X71000Y-50500D03*
X72000Y-50500D03*
X74000Y-50500D03*
X75000Y-50500D03*
X76000Y-50500D03*
X77000Y-50500D03*
X78000Y-50500D03*
X79000Y-50500D03*
X80000Y-50500D03*
X81000Y-50500D03*
X52400Y-31500D03*
X53400Y-31500D03*
X54400Y-31500D03*
X55400Y-31500D03*
X56400Y-31500D03*
X57400Y-31500D03*
X58400Y-31500D03*
X59400Y-31500D03*
X60400Y-31500D03*
X61400Y-31500D03*
X63000Y-31500D03*
X70000Y-31500D03*
X69000Y-31500D03*
X68000Y-31500D03*
X67000Y-31500D03*
X66000Y-31500D03*
X65000Y-31500D03*
X64000Y-31500D03*
X72000Y-31500D03*
X73000Y-31500D03*
X74000Y-31500D03*
X75000Y-31500D03*
X76000Y-31500D03*
X77000Y-31500D03*
X78000Y-31500D03*
X79000Y-31500D03*
G54D17*
X82000Y-31500D03*
X83000Y-31500D03*
X82000Y-32500D03*
X83000Y-32500D03*
X82000Y-33500D03*
X83000Y-33500D03*
X82000Y-34500D03*
X83000Y-34500D03*
X82000Y-35500D03*
X83000Y-35500D03*
X82000Y-36500D03*
X83000Y-36500D03*
X82000Y-37500D03*
X83000Y-37500D03*
X82000Y-38500D03*
X83000Y-38500D03*
X82000Y-39500D03*
X83000Y-39500D03*
X82000Y-40500D03*
X83000Y-40500D03*
X82000Y-41500D03*
X83000Y-41500D03*
X82000Y-42500D03*
X83000Y-42500D03*
X82000Y-43500D03*
X83000Y-43500D03*
X82000Y-44500D03*
X83000Y-44500D03*
X82000Y-45500D03*
X83000Y-45500D03*
X82000Y-46500D03*
X83000Y-46500D03*
X82000Y-47500D03*
X83000Y-47500D03*
X82000Y-48500D03*
X83000Y-48500D03*
G54D18*
X75250Y-43750D03*
X75250Y-43250D03*
X75250Y-42750D03*
X75250Y-42250D03*
X75250Y-41750D03*
X75250Y-41250D03*
X75250Y-44250D03*
X75250Y-44750D03*
X75250Y-45250D03*
X75250Y-45750D03*
X75250Y-46250D03*
X75250Y-46750D03*
X79250Y-46750D03*
X79250Y-46250D03*
X79250Y-45750D03*
X79250Y-45250D03*
X79250Y-44750D03*
X79250Y-44250D03*
X79250Y-43750D03*
X79250Y-43250D03*
X79250Y-42750D03*
X79250Y-42250D03*
X79250Y-41750D03*
X79250Y-41250D03*
G54D19*
X55250Y-45150D03*
X55250Y-46350D03*
G54D20*
X84900Y-35250D03*
X86100Y-35250D03*
X76650Y-48250D03*
X77850Y-48250D03*
X84900Y-37000D03*
X86100Y-37000D03*
G54D19*
X60250Y-45150D03*
X60250Y-46350D03*
G54D20*
X84900Y-33500D03*
X86100Y-33500D03*
X84900Y-31750D03*
X86100Y-31750D03*
G54D19*
X65250Y-45150D03*
X65250Y-46350D03*
G54D21*
X54585Y-37750D03*
X55415Y-37750D03*
X87585Y-37000D03*
X88415Y-37000D03*
X50585Y-37750D03*
X51415Y-37750D03*
X78835Y-37750D03*
X79665Y-37750D03*
X74585Y-37750D03*
X75415Y-37750D03*
X58585Y-37750D03*
X59415Y-37750D03*
X62585Y-37750D03*
X63415Y-37750D03*
X66585Y-37750D03*
X67415Y-37750D03*
X70585Y-37750D03*
X71415Y-37750D03*
G54D22*
X63250Y-45750D03*
X63250Y-46750D03*
G54D23*
X63250Y-44750D03*
G54D22*
X68250Y-45750D03*
X68250Y-46750D03*
G54D23*
X68250Y-44750D03*
G54D22*
X58250Y-45750D03*
X58250Y-46750D03*
G54D23*
X58250Y-44750D03*
G54D22*
X53250Y-45750D03*
X53250Y-46750D03*
G54D23*
X53250Y-44750D03*
G54D22*
X50500Y-36250D03*
G54D23*
X51500Y-36250D03*
G54D22*
X54500Y-36250D03*
G54D23*
X55500Y-36250D03*
G54D22*
X58500Y-36250D03*
G54D23*
X59500Y-36250D03*
G54D22*
X62500Y-36250D03*
G54D23*
X63500Y-36250D03*
G54D22*
X66500Y-36250D03*
G54D23*
X67500Y-36250D03*
G54D22*
X70500Y-36250D03*
G54D23*
X71500Y-36250D03*
G54D22*
X74500Y-36250D03*
G54D23*
X75500Y-36250D03*
G54D22*
X78500Y-36250D03*
G54D23*
X79500Y-36250D03*
G54D24*
X54744Y-33874D03*
X55000Y-33874D03*
X55256Y-33874D03*
X55256Y-33126D03*
X55000Y-33126D03*
X54744Y-33126D03*
X66744Y-33874D03*
X67000Y-33874D03*
X67256Y-33874D03*
X67256Y-33126D03*
X67000Y-33126D03*
X66744Y-33126D03*
X78744Y-33874D03*
X79000Y-33874D03*
X79256Y-33874D03*
X79256Y-33126D03*
X79000Y-33126D03*
X78744Y-33126D03*
G54D25*
X54750Y-39300D03*
X54250Y-39300D03*
X53750Y-39300D03*
X53250Y-39300D03*
X52750Y-39300D03*
X52250Y-39300D03*
X51750Y-39300D03*
X51250Y-39300D03*
X51250Y-42200D03*
X51750Y-42200D03*
X52250Y-42200D03*
X52750Y-42200D03*
X53250Y-42200D03*
X53750Y-42200D03*
X54250Y-42200D03*
X54750Y-42200D03*
G54D26*
X60200Y-38004D03*
X64647Y-40916D03*
X77992Y-45660D03*
X77187Y-45398D03*
X78774Y-46499D03*
X51933Y-37750D03*
X78717Y-42750D03*
X79841Y-42285D03*
X70808Y-42132D03*
X72084Y-42750D03*
X73820Y-43494D03*
X74136Y-44019D03*
X75954Y-37750D03*
X79334Y-47108D03*
X78383Y-48250D03*
X81006Y-48682D03*
X65537Y-38338D03*
G54D27*
X66433Y-44750D02*
X66033Y-45150D01*
X68250Y-44750D02*
X66433Y-44750D01*
X65250Y-45150D02*
X66033Y-45150D01*
X65250Y-45150D02*
X64467Y-45150D01*
X76650Y-48250D02*
X77183Y-48250D01*
X68250Y-44750D02*
X68898Y-44750D01*
X70398Y-46250D02*
X74717Y-46250D01*
X68898Y-44750D02*
X70398Y-46250D01*
X75250Y-46250D02*
X74717Y-46250D01*
X54067Y-44750D02*
X54467Y-45150D01*
X53250Y-44750D02*
X54067Y-44750D01*
X55250Y-45150D02*
X54467Y-45150D01*
X55250Y-45150D02*
X56033Y-45150D01*
X64067Y-44750D02*
X63250Y-44750D01*
X64467Y-45150D02*
X64067Y-44750D01*
X61433Y-44750D02*
X61033Y-45150D01*
X63250Y-44750D02*
X61433Y-44750D01*
X60250Y-45150D02*
X61033Y-45150D01*
X75250Y-46250D02*
X75783Y-46250D01*
X76650Y-47117D02*
X76650Y-48250D01*
X75783Y-46250D02*
X76650Y-47117D01*
X77183Y-48783D02*
X77183Y-48250D01*
X77434Y-49034D02*
X77183Y-48783D01*
X79129Y-49034D02*
X77434Y-49034D01*
X80482Y-47681D02*
X79129Y-49034D01*
X80482Y-42255D02*
X80482Y-47681D01*
X79977Y-41750D02*
X80482Y-42255D01*
X79250Y-41750D02*
X79977Y-41750D01*
X56433Y-44750D02*
X58250Y-44750D01*
X56033Y-45150D02*
X56433Y-44750D01*
X59067Y-44750D02*
X59467Y-45150D01*
X58250Y-44750D02*
X59067Y-44750D01*
X60250Y-45150D02*
X59467Y-45150D01*
G54D28*
X60200Y-37830D02*
X60200Y-38004D01*
X65530Y-32500D02*
X60200Y-37830D01*
X82000Y-32500D02*
X65530Y-32500D01*
X82500Y-33000D02*
X83000Y-32500D01*
X80665Y-33000D02*
X82500Y-33000D01*
X80529Y-32864D02*
X80665Y-33000D01*
X77044Y-32864D02*
X80529Y-32864D01*
X68992Y-40916D02*
X77044Y-32864D01*
X64647Y-40916D02*
X68992Y-40916D01*
X75250Y-41250D02*
X75643Y-41250D01*
X76173Y-41780D02*
X75643Y-41250D01*
X76173Y-43841D02*
X76173Y-41780D01*
X77992Y-45660D02*
X76173Y-43841D01*
X75250Y-41750D02*
X75643Y-41750D01*
X75643Y-43854D02*
X77187Y-45398D01*
X75643Y-41750D02*
X75643Y-43854D01*
X81297Y-47203D02*
X82000Y-46500D01*
X81297Y-47335D02*
X81297Y-47203D01*
X79136Y-49496D02*
X81297Y-47335D01*
X76898Y-49496D02*
X79136Y-49496D01*
X75643Y-48241D02*
X76898Y-49496D01*
X75643Y-46750D02*
X75643Y-48241D01*
X75250Y-46750D02*
X75643Y-46750D01*
X78857Y-46416D02*
X78774Y-46499D01*
X78857Y-46250D02*
X78857Y-46416D01*
X79250Y-46250D02*
X78857Y-46250D01*
X52008Y-36250D02*
X51500Y-36250D01*
X54384Y-33874D02*
X52008Y-36250D01*
X54744Y-33874D02*
X54384Y-33874D01*
G54D27*
X51415Y-37750D02*
X51933Y-37750D01*
X79250Y-42750D02*
X78717Y-42750D01*
X79250Y-42250D02*
X79358Y-42250D01*
G54D29*
X79393Y-42285D02*
X79358Y-42250D01*
X79475Y-42285D02*
X79393Y-42285D01*
G54D27*
X79475Y-42285D02*
X79841Y-42285D01*
G54D28*
X55000Y-34135D02*
X55000Y-33874D01*
X55500Y-34635D02*
X55000Y-34135D01*
X55500Y-36250D02*
X55500Y-34635D01*
G54D27*
X55500Y-37147D02*
X55415Y-37232D01*
X55500Y-36250D02*
X55500Y-37147D01*
X55415Y-37750D02*
X55415Y-37232D01*
G54D28*
X59417Y-36250D02*
X59500Y-36250D01*
G54D27*
X59415Y-36252D02*
X59415Y-37750D01*
X59417Y-36250D02*
X59415Y-36252D01*
G54D28*
X59415Y-36250D02*
X59417Y-36250D01*
X57039Y-33874D02*
X59415Y-36250D01*
X55256Y-33874D02*
X57039Y-33874D01*
G54D27*
X75250Y-42250D02*
X74717Y-42250D01*
X74599Y-42132D02*
X70808Y-42132D01*
X74717Y-42250D02*
X74599Y-42132D01*
G54D28*
X63500Y-36250D02*
X63754Y-36250D01*
X66384Y-33874D02*
X66744Y-33874D01*
X64008Y-36250D02*
X66384Y-33874D01*
X63754Y-36250D02*
X64008Y-36250D01*
G54D27*
X63415Y-36589D02*
X63415Y-37750D01*
X63754Y-36250D02*
X63415Y-36589D01*
X75250Y-42750D02*
X72084Y-42750D01*
G54D28*
X67000Y-35242D02*
X67000Y-33874D01*
X67500Y-35742D02*
X67000Y-35242D01*
X67500Y-36250D02*
X67500Y-35742D01*
G54D27*
X67500Y-37147D02*
X67415Y-37232D01*
X67500Y-36250D02*
X67500Y-37147D01*
X67415Y-37750D02*
X67415Y-37232D01*
X75250Y-45250D02*
X74717Y-45250D01*
X74329Y-43494D02*
X73820Y-43494D01*
X74717Y-43882D02*
X74329Y-43494D01*
X74717Y-45250D02*
X74717Y-43882D01*
G54D28*
X70030Y-36843D02*
X71143Y-36843D01*
X67482Y-34295D02*
X70030Y-36843D01*
X67482Y-33874D02*
X67482Y-34295D01*
X67256Y-33874D02*
X67482Y-33874D01*
X71500Y-36758D02*
X71500Y-36250D01*
X71415Y-36843D02*
X71500Y-36758D01*
X71143Y-36843D02*
X71415Y-36843D01*
G54D27*
X71415Y-37115D02*
X71415Y-37750D01*
X71143Y-36843D02*
X71415Y-37115D01*
X74560Y-45750D02*
X75250Y-45750D01*
X74136Y-45326D02*
X74560Y-45750D01*
X74136Y-44019D02*
X74136Y-45326D01*
G54D28*
X76008Y-36250D02*
X75500Y-36250D01*
X78384Y-33874D02*
X76008Y-36250D01*
X78744Y-33874D02*
X78384Y-33874D01*
G54D27*
X79250Y-45750D02*
X78717Y-45750D01*
X75415Y-37750D02*
X75954Y-37750D01*
X78717Y-45659D02*
X78717Y-45750D01*
X77357Y-44299D02*
X78717Y-45659D01*
X77357Y-39153D02*
X77357Y-44299D01*
X75954Y-37750D02*
X77357Y-39153D01*
G54D28*
X79500Y-36250D02*
X79500Y-35996D01*
X79000Y-35242D02*
X79000Y-33874D01*
X79500Y-35742D02*
X79000Y-35242D01*
X79500Y-35996D02*
X79500Y-35742D01*
G54D29*
X78760Y-44981D02*
X78760Y-45045D01*
X78655Y-44876D02*
X78760Y-44981D01*
G54D27*
X78965Y-45250D02*
X79250Y-45250D01*
X78760Y-45045D02*
X78965Y-45250D01*
X79665Y-36161D02*
X79665Y-37750D01*
X79500Y-35996D02*
X79665Y-36161D01*
X78210Y-44431D02*
X78655Y-44876D01*
X78210Y-39723D02*
X78210Y-44431D01*
X79665Y-38268D02*
X78210Y-39723D01*
X79665Y-37750D02*
X79665Y-38268D01*
G54D28*
X58000Y-50500D02*
X58000Y-51143D01*
X63430Y-51143D02*
X58000Y-51143D01*
X64754Y-49819D02*
X63430Y-51143D01*
X79158Y-49819D02*
X64754Y-49819D01*
X81540Y-47437D02*
X79158Y-49819D01*
X81540Y-47322D02*
X81540Y-47437D01*
X81918Y-46944D02*
X81540Y-47322D01*
X82434Y-46944D02*
X81918Y-46944D01*
X82456Y-46922D02*
X82434Y-46944D01*
X82456Y-46254D02*
X82456Y-46922D01*
X82146Y-45944D02*
X82456Y-46254D01*
X81566Y-45944D02*
X82146Y-45944D01*
X81544Y-45922D02*
X81566Y-45944D01*
X81544Y-42483D02*
X81544Y-45922D01*
X80311Y-41250D02*
X81544Y-42483D01*
X79250Y-41250D02*
X80311Y-41250D01*
X79250Y-47024D02*
X79334Y-47108D01*
X79250Y-46750D02*
X79250Y-47024D01*
G54D27*
X79250Y-44750D02*
X79250Y-44250D01*
X79250Y-44250D02*
X79250Y-43750D01*
X79250Y-43750D02*
X79250Y-43250D01*
X86100Y-31750D02*
X86100Y-33500D01*
X86100Y-33500D02*
X86100Y-35250D01*
X87345Y-35250D02*
X86100Y-35250D01*
X88415Y-36320D02*
X87345Y-35250D01*
X88415Y-37000D02*
X88415Y-36320D01*
X62000Y-49717D02*
X61000Y-49717D01*
X62000Y-50500D02*
X62000Y-49717D01*
X61000Y-50500D02*
X61000Y-49717D01*
X55250Y-46350D02*
X56033Y-46350D01*
X65250Y-46350D02*
X64467Y-46350D01*
X66433Y-46750D02*
X66033Y-46350D01*
X68250Y-46750D02*
X66433Y-46750D01*
X65250Y-46350D02*
X66033Y-46350D01*
X88415Y-37000D02*
X88415Y-37518D01*
X88582Y-37685D02*
X88415Y-37518D01*
X88582Y-39634D02*
X88582Y-37685D01*
X87216Y-41000D02*
X88582Y-39634D01*
X87140Y-41000D02*
X87216Y-41000D01*
X56433Y-46750D02*
X58250Y-46750D01*
X56033Y-46350D02*
X56433Y-46750D01*
X59067Y-46750D02*
X59467Y-46350D01*
X58250Y-46750D02*
X59067Y-46750D01*
X60250Y-46350D02*
X59467Y-46350D01*
X64067Y-46750D02*
X63250Y-46750D01*
X64467Y-46350D02*
X64067Y-46750D01*
X60250Y-46350D02*
X61033Y-46350D01*
X62000Y-46750D02*
X62000Y-49717D01*
X63250Y-46750D02*
X62000Y-46750D01*
X61433Y-46750D02*
X61033Y-46350D01*
X62000Y-46750D02*
X61433Y-46750D01*
X75250Y-43250D02*
X75250Y-43750D01*
X75250Y-44250D02*
X75250Y-43750D01*
X77850Y-48250D02*
X78117Y-48250D01*
X78117Y-48250D02*
X78383Y-48250D01*
X75250Y-44750D02*
X75250Y-44250D01*
X75250Y-44750D02*
X75783Y-44750D01*
X78411Y-48222D02*
X78411Y-47605D01*
X78383Y-48250D02*
X78411Y-48222D01*
X78411Y-47378D02*
X75783Y-44750D01*
X78411Y-47605D02*
X78411Y-47378D01*
X79250Y-44750D02*
X79329Y-44750D01*
X79329Y-44750D02*
X79783Y-44750D01*
X79797Y-44764D02*
X79783Y-44750D01*
X79797Y-47397D02*
X79797Y-44764D01*
X79589Y-47605D02*
X79797Y-47397D01*
X78411Y-47605D02*
X79589Y-47605D01*
X54067Y-46750D02*
X54467Y-46350D01*
X53250Y-46750D02*
X54067Y-46750D01*
X55250Y-46350D02*
X54467Y-46350D01*
X86354Y-41786D02*
X87140Y-41000D01*
X86354Y-46013D02*
X86354Y-41786D01*
X83209Y-49158D02*
X86354Y-46013D01*
X81482Y-49158D02*
X83209Y-49158D01*
X81006Y-48682D02*
X81482Y-49158D01*
G54D28*
X50585Y-40992D02*
X50585Y-37750D01*
X51250Y-41657D02*
X50585Y-40992D01*
X51250Y-42200D02*
X51250Y-41657D01*
X52250Y-42200D02*
X52250Y-41657D01*
X58585Y-37750D02*
X58207Y-37750D01*
X55330Y-40627D02*
X58207Y-37750D01*
X53280Y-40627D02*
X55330Y-40627D01*
X52250Y-41657D02*
X53280Y-40627D01*
X52750Y-42200D02*
X52750Y-41657D01*
X62585Y-37750D02*
X62207Y-37750D01*
X53483Y-40924D02*
X52750Y-41657D01*
X59033Y-40924D02*
X53483Y-40924D01*
X62207Y-37750D02*
X59033Y-40924D01*
X53250Y-42200D02*
X53250Y-41657D01*
X66585Y-37750D02*
X66207Y-37750D01*
X66207Y-38282D02*
X66207Y-37750D01*
X63381Y-41108D02*
X66207Y-38282D01*
X53799Y-41108D02*
X63381Y-41108D01*
X53250Y-41657D02*
X53799Y-41108D01*
X54250Y-42200D02*
X54250Y-41657D01*
X74585Y-37750D02*
X74207Y-37750D01*
X70300Y-41657D02*
X54250Y-41657D01*
X74207Y-37750D02*
X70300Y-41657D01*
X51750Y-42200D02*
X51750Y-41657D01*
X54585Y-37750D02*
X54585Y-38128D01*
X55073Y-38616D02*
X54585Y-38128D01*
X55073Y-39735D02*
X55073Y-38616D01*
X54364Y-40444D02*
X55073Y-39735D01*
X52963Y-40444D02*
X54364Y-40444D01*
X51750Y-41657D02*
X52963Y-40444D01*
X70585Y-37750D02*
X70207Y-37750D01*
X53750Y-42200D02*
X53750Y-41657D01*
X53945Y-41462D02*
X53750Y-41657D01*
X63651Y-41462D02*
X53945Y-41462D01*
X64515Y-40598D02*
X63651Y-41462D01*
X67359Y-40598D02*
X64515Y-40598D01*
X70207Y-37750D02*
X67359Y-40598D01*
X78079Y-37372D02*
X78457Y-37750D01*
X75051Y-37372D02*
X78079Y-37372D01*
X75030Y-37393D02*
X75051Y-37372D01*
X75030Y-38044D02*
X75030Y-37393D01*
X74942Y-38132D02*
X75030Y-38044D01*
X74086Y-38132D02*
X74942Y-38132D01*
X70018Y-42200D02*
X74086Y-38132D01*
X54750Y-42200D02*
X70018Y-42200D01*
X78835Y-37750D02*
X78457Y-37750D01*
X87585Y-37000D02*
X86100Y-37000D01*
G54D27*
X74500Y-36250D02*
X74500Y-36750D01*
X77750Y-37000D02*
X78500Y-36250D01*
X74750Y-37000D02*
X77750Y-37000D01*
X74500Y-36750D02*
X74750Y-37000D01*
X54500Y-36250D02*
X53750Y-37000D01*
X53750Y-37000D02*
X51000Y-37000D01*
X50500Y-36500D02*
X50500Y-36250D01*
X51000Y-37000D02*
X50500Y-36500D01*
X51250Y-39300D02*
X51750Y-39300D01*
X51750Y-39300D02*
X52250Y-39300D01*
X52250Y-39300D02*
X52750Y-39300D01*
X52750Y-39300D02*
X53250Y-39300D01*
X53250Y-39300D02*
X53750Y-39300D01*
X53750Y-39300D02*
X54250Y-39300D01*
X54250Y-39300D02*
X54751Y-39300D01*
X54751Y-39300D02*
X54750Y-39300D01*
G54D28*
X55000Y-33126D02*
X55256Y-33126D01*
X55000Y-33126D02*
X54744Y-33126D01*
X67000Y-33126D02*
X67256Y-33126D01*
X67000Y-33126D02*
X66744Y-33126D01*
X67482Y-33126D02*
X67256Y-33126D01*
X70270Y-35914D02*
X67482Y-33126D01*
X70500Y-35914D02*
X70270Y-35914D01*
X70500Y-36250D02*
X70500Y-35914D01*
X79000Y-33126D02*
X78744Y-33126D01*
G54D27*
X84900Y-31750D02*
X84900Y-33500D01*
X84900Y-40880D02*
X84780Y-41000D01*
X84900Y-37000D02*
X84900Y-40880D01*
X84900Y-37000D02*
X84900Y-35250D01*
X84900Y-35250D02*
X84900Y-33500D01*
G54D28*
X77624Y-33126D02*
X74792Y-35958D01*
X78744Y-33126D02*
X77624Y-33126D01*
X74792Y-35958D02*
X74500Y-36250D01*
G54D27*
X53750Y-38617D02*
X53750Y-39300D01*
G54D28*
X53624Y-33126D02*
X50792Y-35958D01*
X54744Y-33126D02*
X53624Y-33126D01*
X50792Y-35958D02*
X50500Y-36250D01*
G54D27*
X53750Y-37000D02*
X53750Y-38617D01*
X65537Y-37213D02*
X65537Y-38338D01*
X66500Y-36250D02*
X65537Y-37213D01*
G54D10*
G36*
X52174Y-30795D02*
X52094Y-30828D01*
X52047Y-30874D01*
X52047Y-30875D01*
X52045Y-30876D01*
X51943Y-30980D01*
X51922Y-31028D01*
X51916Y-31035D01*
X51869Y-30920D01*
X51795Y-30846D01*
X51809Y-30832D01*
X51772Y-30795D01*
X52174Y-30795D01*
X52174Y-30795D01*
G37*
G54D30*
X52174Y-30795D02*
X52094Y-30828D01*
X52047Y-30874D01*
X52047Y-30875D01*
X52045Y-30876D01*
X51943Y-30980D01*
X51922Y-31028D01*
X51916Y-31035D01*
X51869Y-30920D01*
X51795Y-30846D01*
X51809Y-30832D01*
X51772Y-30795D01*
X52174Y-30795D01*
G54D10*
G36*
X53174Y-30795D02*
X53094Y-30828D01*
X53047Y-30874D01*
X53047Y-30875D01*
X53045Y-30876D01*
X52943Y-30980D01*
X52922Y-31028D01*
X52911Y-31043D01*
X52900Y-31080D01*
X52889Y-31043D01*
X52878Y-31030D01*
X52858Y-30980D01*
X52755Y-30878D01*
X52753Y-30875D01*
X52751Y-30874D01*
X52706Y-30829D01*
X52624Y-30795D01*
X53174Y-30795D01*
X53174Y-30795D01*
G37*
G54D30*
X53174Y-30795D02*
X53094Y-30828D01*
X53047Y-30874D01*
X53047Y-30875D01*
X53045Y-30876D01*
X52943Y-30980D01*
X52922Y-31028D01*
X52911Y-31043D01*
X52900Y-31080D01*
X52889Y-31043D01*
X52878Y-31030D01*
X52858Y-30980D01*
X52755Y-30878D01*
X52753Y-30875D01*
X52751Y-30874D01*
X52706Y-30829D01*
X52624Y-30795D01*
X53174Y-30795D01*
G54D10*
G36*
X53320Y-38651D02*
X53076Y-38651D01*
X53000Y-38682D01*
X52925Y-38651D01*
X52826Y-38651D01*
X52576Y-38651D01*
X52500Y-38682D01*
X52425Y-38651D01*
X52326Y-38651D01*
X52076Y-38651D01*
X52000Y-38682D01*
X51925Y-38651D01*
X51826Y-38651D01*
X51576Y-38651D01*
X51500Y-38682D01*
X51425Y-38651D01*
X51326Y-38651D01*
X51076Y-38651D01*
X50984Y-38689D01*
X50914Y-38759D01*
X50876Y-38850D01*
X50876Y-38949D01*
X50876Y-39100D01*
X50875Y-39102D01*
X50875Y-38231D01*
X50961Y-38196D01*
X51000Y-38157D01*
X51039Y-38196D01*
X51130Y-38234D01*
X51229Y-38234D01*
X51699Y-38234D01*
X51791Y-38196D01*
X51807Y-38180D01*
X51933Y-38180D01*
X51958Y-38175D01*
X52017Y-38175D01*
X52073Y-38151D01*
X52098Y-38147D01*
X52118Y-38133D01*
X52173Y-38111D01*
X52215Y-38068D01*
X52237Y-38054D01*
X52251Y-38032D01*
X52293Y-37991D01*
X52315Y-37936D01*
X52330Y-37915D01*
X52334Y-37890D01*
X52358Y-37835D01*
X52358Y-37775D01*
X52363Y-37750D01*
X52358Y-37725D01*
X52358Y-37666D01*
X52334Y-37609D01*
X52330Y-37585D01*
X52316Y-37564D01*
X52294Y-37510D01*
X52251Y-37467D01*
X52237Y-37446D01*
X52215Y-37431D01*
X52214Y-37430D01*
X53320Y-37430D01*
X53320Y-38617D01*
X53320Y-38651D01*
X53320Y-38651D01*
G37*
G54D30*
X53320Y-38651D02*
X53076Y-38651D01*
X53000Y-38682D01*
X52925Y-38651D01*
X52826Y-38651D01*
X52576Y-38651D01*
X52500Y-38682D01*
X52425Y-38651D01*
X52326Y-38651D01*
X52076Y-38651D01*
X52000Y-38682D01*
X51925Y-38651D01*
X51826Y-38651D01*
X51576Y-38651D01*
X51500Y-38682D01*
X51425Y-38651D01*
X51326Y-38651D01*
X51076Y-38651D01*
X50984Y-38689D01*
X50914Y-38759D01*
X50876Y-38850D01*
X50876Y-38949D01*
X50876Y-39100D01*
X50875Y-39102D01*
X50875Y-38231D01*
X50961Y-38196D01*
X51000Y-38157D01*
X51039Y-38196D01*
X51130Y-38234D01*
X51229Y-38234D01*
X51699Y-38234D01*
X51791Y-38196D01*
X51807Y-38180D01*
X51933Y-38180D01*
X51958Y-38175D01*
X52017Y-38175D01*
X52073Y-38151D01*
X52098Y-38147D01*
X52118Y-38133D01*
X52173Y-38111D01*
X52215Y-38068D01*
X52237Y-38054D01*
X52251Y-38032D01*
X52293Y-37991D01*
X52315Y-37936D01*
X52330Y-37915D01*
X52334Y-37890D01*
X52358Y-37835D01*
X52358Y-37775D01*
X52363Y-37750D01*
X52358Y-37725D01*
X52358Y-37666D01*
X52334Y-37609D01*
X52330Y-37585D01*
X52316Y-37564D01*
X52294Y-37510D01*
X52251Y-37467D01*
X52237Y-37446D01*
X52215Y-37431D01*
X52214Y-37430D01*
X53320Y-37430D01*
X53320Y-38617D01*
X53320Y-38651D01*
G54D10*
G36*
X54174Y-30795D02*
X54094Y-30828D01*
X54047Y-30874D01*
X54047Y-30875D01*
X54045Y-30876D01*
X53943Y-30980D01*
X53922Y-31028D01*
X53911Y-31043D01*
X53900Y-31080D01*
X53889Y-31043D01*
X53878Y-31030D01*
X53858Y-30980D01*
X53755Y-30878D01*
X53753Y-30875D01*
X53751Y-30874D01*
X53706Y-30829D01*
X53624Y-30795D01*
X54174Y-30795D01*
X54174Y-30795D01*
G37*
G54D30*
X54174Y-30795D02*
X54094Y-30828D01*
X54047Y-30874D01*
X54047Y-30875D01*
X54045Y-30876D01*
X53943Y-30980D01*
X53922Y-31028D01*
X53911Y-31043D01*
X53900Y-31080D01*
X53889Y-31043D01*
X53878Y-31030D01*
X53858Y-30980D01*
X53755Y-30878D01*
X53753Y-30875D01*
X53751Y-30874D01*
X53706Y-30829D01*
X53624Y-30795D01*
X54174Y-30795D01*
G54D10*
G36*
X54465Y-39931D02*
X54243Y-40154D01*
X52963Y-40154D01*
X52852Y-40176D01*
X52758Y-40239D01*
X51545Y-41452D01*
X51500Y-41519D01*
X51455Y-41452D01*
X50875Y-40872D01*
X50875Y-39497D01*
X50876Y-39499D01*
X50876Y-39749D01*
X50914Y-39841D01*
X50984Y-39911D01*
X51075Y-39949D01*
X51174Y-39949D01*
X51424Y-39949D01*
X51499Y-39917D01*
X51575Y-39949D01*
X51674Y-39949D01*
X51924Y-39949D01*
X51999Y-39917D01*
X52075Y-39949D01*
X52174Y-39949D01*
X52424Y-39949D01*
X52499Y-39917D01*
X52575Y-39949D01*
X52674Y-39949D01*
X52924Y-39949D01*
X52999Y-39917D01*
X53075Y-39949D01*
X53174Y-39949D01*
X53424Y-39949D01*
X53499Y-39917D01*
X53575Y-39949D01*
X53674Y-39949D01*
X53924Y-39949D01*
X53999Y-39917D01*
X54075Y-39949D01*
X54174Y-39949D01*
X54424Y-39949D01*
X54465Y-39931D01*
X54465Y-39931D01*
G37*
G54D30*
X54465Y-39931D02*
X54243Y-40154D01*
X52963Y-40154D01*
X52852Y-40176D01*
X52758Y-40239D01*
X51545Y-41452D01*
X51500Y-41519D01*
X51455Y-41452D01*
X50875Y-40872D01*
X50875Y-39497D01*
X50876Y-39499D01*
X50876Y-39749D01*
X50914Y-39841D01*
X50984Y-39911D01*
X51075Y-39949D01*
X51174Y-39949D01*
X51424Y-39949D01*
X51499Y-39917D01*
X51575Y-39949D01*
X51674Y-39949D01*
X51924Y-39949D01*
X51999Y-39917D01*
X52075Y-39949D01*
X52174Y-39949D01*
X52424Y-39949D01*
X52499Y-39917D01*
X52575Y-39949D01*
X52674Y-39949D01*
X52924Y-39949D01*
X52999Y-39917D01*
X53075Y-39949D01*
X53174Y-39949D01*
X53424Y-39949D01*
X53499Y-39917D01*
X53575Y-39949D01*
X53674Y-39949D01*
X53924Y-39949D01*
X53999Y-39917D01*
X54075Y-39949D01*
X54174Y-39949D01*
X54424Y-39949D01*
X54465Y-39931D01*
G54D10*
G36*
X54698Y-38651D02*
X54576Y-38651D01*
X54500Y-38682D01*
X54425Y-38651D01*
X54326Y-38651D01*
X54180Y-38651D01*
X54180Y-38617D01*
X54180Y-38167D01*
X54209Y-38196D01*
X54300Y-38234D01*
X54316Y-38234D01*
X54317Y-38239D01*
X54380Y-38333D01*
X54698Y-38651D01*
X54698Y-38651D01*
G37*
G54D30*
X54698Y-38651D02*
X54576Y-38651D01*
X54500Y-38682D01*
X54425Y-38651D01*
X54326Y-38651D01*
X54180Y-38651D01*
X54180Y-38617D01*
X54180Y-38167D01*
X54209Y-38196D01*
X54300Y-38234D01*
X54316Y-38234D01*
X54317Y-38239D01*
X54380Y-38333D01*
X54698Y-38651D01*
G54D10*
G36*
X55070Y-36989D02*
X55018Y-37067D01*
X54985Y-37232D01*
X54985Y-37328D01*
X54961Y-37304D01*
X54870Y-37266D01*
X54771Y-37266D01*
X54301Y-37266D01*
X54209Y-37304D01*
X54180Y-37333D01*
X54180Y-37178D01*
X54493Y-36865D01*
X54622Y-36865D01*
X54848Y-36771D01*
X54906Y-36713D01*
X54924Y-36756D01*
X54994Y-36826D01*
X55070Y-36857D01*
X55070Y-36989D01*
X55070Y-36989D01*
G37*
G54D30*
X55070Y-36989D02*
X55018Y-37067D01*
X54985Y-37232D01*
X54985Y-37328D01*
X54961Y-37304D01*
X54870Y-37266D01*
X54771Y-37266D01*
X54301Y-37266D01*
X54209Y-37304D01*
X54180Y-37333D01*
X54180Y-37178D01*
X54493Y-36865D01*
X54622Y-36865D01*
X54848Y-36771D01*
X54906Y-36713D01*
X54924Y-36756D01*
X54994Y-36826D01*
X55070Y-36857D01*
X55070Y-36989D01*
G54D10*
G36*
X55174Y-30795D02*
X55094Y-30828D01*
X55047Y-30874D01*
X55047Y-30875D01*
X55045Y-30876D01*
X54943Y-30980D01*
X54922Y-31028D01*
X54911Y-31043D01*
X54900Y-31080D01*
X54889Y-31043D01*
X54878Y-31030D01*
X54858Y-30980D01*
X54755Y-30878D01*
X54753Y-30875D01*
X54751Y-30874D01*
X54706Y-30829D01*
X54624Y-30795D01*
X55174Y-30795D01*
X55174Y-30795D01*
G37*
G54D30*
X55174Y-30795D02*
X55094Y-30828D01*
X55047Y-30874D01*
X55047Y-30875D01*
X55045Y-30876D01*
X54943Y-30980D01*
X54922Y-31028D01*
X54911Y-31043D01*
X54900Y-31080D01*
X54889Y-31043D01*
X54878Y-31030D01*
X54858Y-30980D01*
X54755Y-30878D01*
X54753Y-30875D01*
X54751Y-30874D01*
X54706Y-30829D01*
X54624Y-30795D01*
X55174Y-30795D01*
G54D10*
G36*
X55210Y-35636D02*
X55086Y-35636D01*
X54994Y-35674D01*
X54924Y-35744D01*
X54906Y-35786D01*
X54849Y-35729D01*
X54623Y-35635D01*
X54378Y-35635D01*
X54152Y-35729D01*
X53979Y-35901D01*
X53885Y-36127D01*
X53885Y-36256D01*
X53571Y-36570D01*
X52114Y-36570D01*
X52114Y-36566D01*
X52114Y-36518D01*
X52119Y-36518D01*
X52213Y-36455D01*
X54493Y-34175D01*
X54521Y-34203D01*
X54612Y-34241D01*
X54711Y-34241D01*
X54731Y-34241D01*
X54732Y-34246D01*
X54795Y-34340D01*
X55210Y-34755D01*
X55210Y-35636D01*
X55210Y-35636D01*
G37*
G54D30*
X55210Y-35636D02*
X55086Y-35636D01*
X54994Y-35674D01*
X54924Y-35744D01*
X54906Y-35786D01*
X54849Y-35729D01*
X54623Y-35635D01*
X54378Y-35635D01*
X54152Y-35729D01*
X53979Y-35901D01*
X53885Y-36127D01*
X53885Y-36256D01*
X53571Y-36570D01*
X52114Y-36570D01*
X52114Y-36566D01*
X52114Y-36518D01*
X52119Y-36518D01*
X52213Y-36455D01*
X54493Y-34175D01*
X54521Y-34203D01*
X54612Y-34241D01*
X54711Y-34241D01*
X54731Y-34241D01*
X54732Y-34246D01*
X54795Y-34340D01*
X55210Y-34755D01*
X55210Y-35636D01*
G54D10*
G36*
X56174Y-30795D02*
X56094Y-30828D01*
X56047Y-30874D01*
X56047Y-30875D01*
X56045Y-30876D01*
X55943Y-30980D01*
X55922Y-31028D01*
X55911Y-31043D01*
X55900Y-31080D01*
X55889Y-31043D01*
X55878Y-31030D01*
X55858Y-30980D01*
X55755Y-30878D01*
X55753Y-30875D01*
X55751Y-30874D01*
X55706Y-30829D01*
X55624Y-30795D01*
X56174Y-30795D01*
X56174Y-30795D01*
G37*
G54D30*
X56174Y-30795D02*
X56094Y-30828D01*
X56047Y-30874D01*
X56047Y-30875D01*
X56045Y-30876D01*
X55943Y-30980D01*
X55922Y-31028D01*
X55911Y-31043D01*
X55900Y-31080D01*
X55889Y-31043D01*
X55878Y-31030D01*
X55858Y-30980D01*
X55755Y-30878D01*
X55753Y-30875D01*
X55751Y-30874D01*
X55706Y-30829D01*
X55624Y-30795D01*
X56174Y-30795D01*
G54D10*
G36*
X56775Y-51205D02*
X56225Y-51205D01*
X56306Y-51172D01*
X56352Y-51125D01*
X56353Y-51125D01*
X56354Y-51123D01*
X56457Y-51020D01*
X56477Y-50971D01*
X56489Y-50957D01*
X56500Y-50919D01*
X56511Y-50957D01*
X56521Y-50969D01*
X56542Y-51020D01*
X56644Y-51121D01*
X56647Y-51125D01*
X56648Y-51125D01*
X56694Y-51171D01*
X56775Y-51205D01*
X56775Y-51205D01*
G37*
G54D30*
X56775Y-51205D02*
X56225Y-51205D01*
X56306Y-51172D01*
X56352Y-51125D01*
X56353Y-51125D01*
X56354Y-51123D01*
X56457Y-51020D01*
X56477Y-50971D01*
X56489Y-50957D01*
X56500Y-50919D01*
X56511Y-50957D01*
X56521Y-50969D01*
X56542Y-51020D01*
X56644Y-51121D01*
X56647Y-51125D01*
X56648Y-51125D01*
X56694Y-51171D01*
X56775Y-51205D01*
G54D10*
G36*
X57174Y-30795D02*
X57094Y-30828D01*
X57047Y-30874D01*
X57047Y-30875D01*
X57045Y-30876D01*
X56943Y-30980D01*
X56922Y-31028D01*
X56911Y-31043D01*
X56900Y-31080D01*
X56889Y-31043D01*
X56878Y-31030D01*
X56858Y-30980D01*
X56755Y-30878D01*
X56753Y-30875D01*
X56751Y-30874D01*
X56706Y-30829D01*
X56624Y-30795D01*
X57174Y-30795D01*
X57174Y-30795D01*
G37*
G54D30*
X57174Y-30795D02*
X57094Y-30828D01*
X57047Y-30874D01*
X57047Y-30875D01*
X57045Y-30876D01*
X56943Y-30980D01*
X56922Y-31028D01*
X56911Y-31043D01*
X56900Y-31080D01*
X56889Y-31043D01*
X56878Y-31030D01*
X56858Y-30980D01*
X56755Y-30878D01*
X56753Y-30875D01*
X56751Y-30874D01*
X56706Y-30829D01*
X56624Y-30795D01*
X57174Y-30795D01*
G54D10*
G36*
X57722Y-51205D02*
X57225Y-51205D01*
X57306Y-51172D01*
X57352Y-51125D01*
X57353Y-51125D01*
X57354Y-51123D01*
X57457Y-51020D01*
X57477Y-50971D01*
X57489Y-50957D01*
X57500Y-50918D01*
X57542Y-51020D01*
X57694Y-51171D01*
X57717Y-51180D01*
X57722Y-51205D01*
X57722Y-51205D01*
G37*
G54D30*
X57722Y-51205D02*
X57225Y-51205D01*
X57306Y-51172D01*
X57352Y-51125D01*
X57353Y-51125D01*
X57354Y-51123D01*
X57457Y-51020D01*
X57477Y-50971D01*
X57489Y-50957D01*
X57500Y-50918D01*
X57542Y-51020D01*
X57694Y-51171D01*
X57717Y-51180D01*
X57722Y-51205D01*
G54D10*
G36*
X57880Y-46250D02*
X57810Y-46320D01*
X56611Y-46320D01*
X56337Y-46046D01*
X56198Y-45953D01*
X56033Y-45920D01*
X55922Y-45920D01*
X55891Y-45889D01*
X55800Y-45851D01*
X55701Y-45851D01*
X54701Y-45851D01*
X54609Y-45889D01*
X54578Y-45920D01*
X54467Y-45920D01*
X54302Y-45953D01*
X54162Y-46046D01*
X53888Y-46320D01*
X53689Y-46320D01*
X53619Y-46249D01*
X53771Y-46099D01*
X53865Y-45873D01*
X53865Y-45628D01*
X53771Y-45402D01*
X53713Y-45343D01*
X53756Y-45326D01*
X53826Y-45256D01*
X53857Y-45180D01*
X53888Y-45180D01*
X54162Y-45454D01*
X54163Y-45454D01*
X54302Y-45547D01*
X54467Y-45580D01*
X54578Y-45580D01*
X54609Y-45611D01*
X54700Y-45649D01*
X54799Y-45649D01*
X55799Y-45649D01*
X55891Y-45611D01*
X55922Y-45580D01*
X56033Y-45580D01*
X56197Y-45547D01*
X56198Y-45547D01*
X56337Y-45454D01*
X56611Y-45180D01*
X57642Y-45180D01*
X57674Y-45256D01*
X57744Y-45326D01*
X57786Y-45343D01*
X57729Y-45401D01*
X57635Y-45627D01*
X57635Y-45872D01*
X57729Y-46098D01*
X57880Y-46250D01*
X57880Y-46250D01*
G37*
G54D30*
X57880Y-46250D02*
X57810Y-46320D01*
X56611Y-46320D01*
X56337Y-46046D01*
X56198Y-45953D01*
X56033Y-45920D01*
X55922Y-45920D01*
X55891Y-45889D01*
X55800Y-45851D01*
X55701Y-45851D01*
X54701Y-45851D01*
X54609Y-45889D01*
X54578Y-45920D01*
X54467Y-45920D01*
X54302Y-45953D01*
X54162Y-46046D01*
X53888Y-46320D01*
X53689Y-46320D01*
X53619Y-46249D01*
X53771Y-46099D01*
X53865Y-45873D01*
X53865Y-45628D01*
X53771Y-45402D01*
X53713Y-45343D01*
X53756Y-45326D01*
X53826Y-45256D01*
X53857Y-45180D01*
X53888Y-45180D01*
X54162Y-45454D01*
X54163Y-45454D01*
X54302Y-45547D01*
X54467Y-45580D01*
X54578Y-45580D01*
X54609Y-45611D01*
X54700Y-45649D01*
X54799Y-45649D01*
X55799Y-45649D01*
X55891Y-45611D01*
X55922Y-45580D01*
X56033Y-45580D01*
X56197Y-45547D01*
X56198Y-45547D01*
X56337Y-45454D01*
X56611Y-45180D01*
X57642Y-45180D01*
X57674Y-45256D01*
X57744Y-45326D01*
X57786Y-45343D01*
X57729Y-45401D01*
X57635Y-45627D01*
X57635Y-45872D01*
X57729Y-46098D01*
X57880Y-46250D01*
G54D10*
G36*
X58174Y-30795D02*
X58094Y-30828D01*
X58047Y-30874D01*
X58047Y-30875D01*
X58045Y-30876D01*
X57943Y-30980D01*
X57922Y-31028D01*
X57911Y-31043D01*
X57900Y-31080D01*
X57889Y-31043D01*
X57878Y-31030D01*
X57858Y-30980D01*
X57755Y-30878D01*
X57753Y-30875D01*
X57751Y-30874D01*
X57706Y-30829D01*
X57624Y-30795D01*
X58174Y-30795D01*
X58174Y-30795D01*
G37*
G54D30*
X58174Y-30795D02*
X58094Y-30828D01*
X58047Y-30874D01*
X58047Y-30875D01*
X58045Y-30876D01*
X57943Y-30980D01*
X57922Y-31028D01*
X57911Y-31043D01*
X57900Y-31080D01*
X57889Y-31043D01*
X57878Y-31030D01*
X57858Y-30980D01*
X57755Y-30878D01*
X57753Y-30875D01*
X57751Y-30874D01*
X57706Y-30829D01*
X57624Y-30795D01*
X58174Y-30795D01*
G54D10*
G36*
X58985Y-37328D02*
X58961Y-37304D01*
X58870Y-37266D01*
X58771Y-37266D01*
X58301Y-37266D01*
X58209Y-37304D01*
X58139Y-37374D01*
X58101Y-37465D01*
X58101Y-37480D01*
X58095Y-37482D01*
X58001Y-37545D01*
X55209Y-40337D01*
X54881Y-40337D01*
X55278Y-39941D01*
X55278Y-39940D01*
X55341Y-39846D01*
X55362Y-39735D01*
X55363Y-39735D01*
X55363Y-38616D01*
X55341Y-38505D01*
X55278Y-38411D01*
X55080Y-38213D01*
X55130Y-38234D01*
X55229Y-38234D01*
X55699Y-38234D01*
X55791Y-38196D01*
X55861Y-38126D01*
X55899Y-38035D01*
X55899Y-37936D01*
X55899Y-37466D01*
X55861Y-37374D01*
X55857Y-37370D01*
X55897Y-37312D01*
X55897Y-37311D01*
X55930Y-37147D01*
X55930Y-36857D01*
X56006Y-36826D01*
X56076Y-36756D01*
X56114Y-36665D01*
X56114Y-36566D01*
X56114Y-35836D01*
X56076Y-35744D01*
X56006Y-35674D01*
X55915Y-35636D01*
X55816Y-35636D01*
X55790Y-35636D01*
X55790Y-34635D01*
X55768Y-34524D01*
X55705Y-34430D01*
X55478Y-34203D01*
X55479Y-34203D01*
X55518Y-34164D01*
X56919Y-34164D01*
X58390Y-35635D01*
X58378Y-35635D01*
X58152Y-35729D01*
X57979Y-35901D01*
X57885Y-36127D01*
X57885Y-36372D01*
X57979Y-36598D01*
X58151Y-36771D01*
X58377Y-36865D01*
X58622Y-36865D01*
X58848Y-36771D01*
X58906Y-36713D01*
X58924Y-36756D01*
X58985Y-36817D01*
X58985Y-37328D01*
X58985Y-37328D01*
G37*
G54D30*
X58985Y-37328D02*
X58961Y-37304D01*
X58870Y-37266D01*
X58771Y-37266D01*
X58301Y-37266D01*
X58209Y-37304D01*
X58139Y-37374D01*
X58101Y-37465D01*
X58101Y-37480D01*
X58095Y-37482D01*
X58001Y-37545D01*
X55209Y-40337D01*
X54881Y-40337D01*
X55278Y-39941D01*
X55278Y-39940D01*
X55341Y-39846D01*
X55362Y-39735D01*
X55363Y-39735D01*
X55363Y-38616D01*
X55341Y-38505D01*
X55278Y-38411D01*
X55080Y-38213D01*
X55130Y-38234D01*
X55229Y-38234D01*
X55699Y-38234D01*
X55791Y-38196D01*
X55861Y-38126D01*
X55899Y-38035D01*
X55899Y-37936D01*
X55899Y-37466D01*
X55861Y-37374D01*
X55857Y-37370D01*
X55897Y-37312D01*
X55897Y-37311D01*
X55930Y-37147D01*
X55930Y-36857D01*
X56006Y-36826D01*
X56076Y-36756D01*
X56114Y-36665D01*
X56114Y-36566D01*
X56114Y-35836D01*
X56076Y-35744D01*
X56006Y-35674D01*
X55915Y-35636D01*
X55816Y-35636D01*
X55790Y-35636D01*
X55790Y-34635D01*
X55768Y-34524D01*
X55705Y-34430D01*
X55478Y-34203D01*
X55479Y-34203D01*
X55518Y-34164D01*
X56919Y-34164D01*
X58390Y-35635D01*
X58378Y-35635D01*
X58152Y-35729D01*
X57979Y-35901D01*
X57885Y-36127D01*
X57885Y-36372D01*
X57979Y-36598D01*
X58151Y-36771D01*
X58377Y-36865D01*
X58622Y-36865D01*
X58848Y-36771D01*
X58906Y-36713D01*
X58924Y-36756D01*
X58985Y-36817D01*
X58985Y-37328D01*
G54D10*
G36*
X59174Y-30795D02*
X59094Y-30828D01*
X59047Y-30874D01*
X59047Y-30875D01*
X59045Y-30876D01*
X58943Y-30980D01*
X58922Y-31028D01*
X58911Y-31043D01*
X58900Y-31080D01*
X58889Y-31043D01*
X58878Y-31030D01*
X58858Y-30980D01*
X58755Y-30878D01*
X58753Y-30875D01*
X58751Y-30874D01*
X58706Y-30829D01*
X58624Y-30795D01*
X59174Y-30795D01*
X59174Y-30795D01*
G37*
G54D30*
X59174Y-30795D02*
X59094Y-30828D01*
X59047Y-30874D01*
X59047Y-30875D01*
X59045Y-30876D01*
X58943Y-30980D01*
X58922Y-31028D01*
X58911Y-31043D01*
X58900Y-31080D01*
X58889Y-31043D01*
X58878Y-31030D01*
X58858Y-30980D01*
X58755Y-30878D01*
X58753Y-30875D01*
X58751Y-30874D01*
X58706Y-30829D01*
X58624Y-30795D01*
X59174Y-30795D01*
G54D10*
G36*
X60174Y-30795D02*
X60094Y-30828D01*
X60047Y-30874D01*
X60047Y-30875D01*
X60045Y-30876D01*
X59943Y-30980D01*
X59922Y-31028D01*
X59911Y-31043D01*
X59900Y-31080D01*
X59889Y-31043D01*
X59878Y-31030D01*
X59858Y-30980D01*
X59755Y-30878D01*
X59753Y-30875D01*
X59751Y-30874D01*
X59706Y-30829D01*
X59624Y-30795D01*
X60174Y-30795D01*
X60174Y-30795D01*
G37*
G54D30*
X60174Y-30795D02*
X60094Y-30828D01*
X60047Y-30874D01*
X60047Y-30875D01*
X60045Y-30876D01*
X59943Y-30980D01*
X59922Y-31028D01*
X59911Y-31043D01*
X59900Y-31080D01*
X59889Y-31043D01*
X59878Y-31030D01*
X59858Y-30980D01*
X59755Y-30878D01*
X59753Y-30875D01*
X59751Y-30874D01*
X59706Y-30829D01*
X59624Y-30795D01*
X60174Y-30795D01*
G54D10*
G36*
X61174Y-30795D02*
X61094Y-30828D01*
X61047Y-30874D01*
X61047Y-30875D01*
X61045Y-30876D01*
X60943Y-30980D01*
X60922Y-31028D01*
X60911Y-31043D01*
X60900Y-31080D01*
X60889Y-31043D01*
X60878Y-31030D01*
X60858Y-30980D01*
X60755Y-30878D01*
X60753Y-30875D01*
X60751Y-30874D01*
X60706Y-30829D01*
X60624Y-30795D01*
X61174Y-30795D01*
X61174Y-30795D01*
G37*
G54D30*
X61174Y-30795D02*
X61094Y-30828D01*
X61047Y-30874D01*
X61047Y-30875D01*
X61045Y-30876D01*
X60943Y-30980D01*
X60922Y-31028D01*
X60911Y-31043D01*
X60900Y-31080D01*
X60889Y-31043D01*
X60878Y-31030D01*
X60858Y-30980D01*
X60755Y-30878D01*
X60753Y-30875D01*
X60751Y-30874D01*
X60706Y-30829D01*
X60624Y-30795D01*
X61174Y-30795D01*
G54D10*
G36*
X62880Y-46250D02*
X62810Y-46320D01*
X62000Y-46320D01*
X61611Y-46320D01*
X61337Y-46046D01*
X61198Y-45953D01*
X61033Y-45920D01*
X60922Y-45920D01*
X60891Y-45889D01*
X60800Y-45851D01*
X60701Y-45851D01*
X59701Y-45851D01*
X59609Y-45889D01*
X59578Y-45920D01*
X59467Y-45920D01*
X59302Y-45953D01*
X59162Y-46046D01*
X58888Y-46320D01*
X58689Y-46320D01*
X58619Y-46249D01*
X58771Y-46099D01*
X58865Y-45873D01*
X58865Y-45628D01*
X58771Y-45402D01*
X58713Y-45343D01*
X58756Y-45326D01*
X58826Y-45256D01*
X58857Y-45180D01*
X58888Y-45180D01*
X59162Y-45454D01*
X59163Y-45454D01*
X59302Y-45547D01*
X59467Y-45580D01*
X59578Y-45580D01*
X59609Y-45611D01*
X59700Y-45649D01*
X59799Y-45649D01*
X60799Y-45649D01*
X60891Y-45611D01*
X60922Y-45580D01*
X61033Y-45580D01*
X61197Y-45547D01*
X61198Y-45547D01*
X61337Y-45454D01*
X61611Y-45180D01*
X62642Y-45180D01*
X62674Y-45256D01*
X62744Y-45326D01*
X62786Y-45343D01*
X62729Y-45401D01*
X62635Y-45627D01*
X62635Y-45872D01*
X62729Y-46098D01*
X62880Y-46250D01*
X62880Y-46250D01*
G37*
G54D30*
X62880Y-46250D02*
X62810Y-46320D01*
X62000Y-46320D01*
X61611Y-46320D01*
X61337Y-46046D01*
X61198Y-45953D01*
X61033Y-45920D01*
X60922Y-45920D01*
X60891Y-45889D01*
X60800Y-45851D01*
X60701Y-45851D01*
X59701Y-45851D01*
X59609Y-45889D01*
X59578Y-45920D01*
X59467Y-45920D01*
X59302Y-45953D01*
X59162Y-46046D01*
X58888Y-46320D01*
X58689Y-46320D01*
X58619Y-46249D01*
X58771Y-46099D01*
X58865Y-45873D01*
X58865Y-45628D01*
X58771Y-45402D01*
X58713Y-45343D01*
X58756Y-45326D01*
X58826Y-45256D01*
X58857Y-45180D01*
X58888Y-45180D01*
X59162Y-45454D01*
X59163Y-45454D01*
X59302Y-45547D01*
X59467Y-45580D01*
X59578Y-45580D01*
X59609Y-45611D01*
X59700Y-45649D01*
X59799Y-45649D01*
X60799Y-45649D01*
X60891Y-45611D01*
X60922Y-45580D01*
X61033Y-45580D01*
X61197Y-45547D01*
X61198Y-45547D01*
X61337Y-45454D01*
X61611Y-45180D01*
X62642Y-45180D01*
X62674Y-45256D01*
X62744Y-45326D01*
X62786Y-45343D01*
X62729Y-45401D01*
X62635Y-45627D01*
X62635Y-45872D01*
X62729Y-46098D01*
X62880Y-46250D01*
G54D10*
G36*
X62985Y-37328D02*
X62961Y-37304D01*
X62870Y-37266D01*
X62771Y-37266D01*
X62301Y-37266D01*
X62209Y-37304D01*
X62139Y-37374D01*
X62101Y-37465D01*
X62101Y-37481D01*
X62096Y-37482D01*
X62064Y-37503D01*
X62001Y-37545D01*
X58912Y-40634D01*
X55733Y-40634D01*
X58190Y-38177D01*
X58209Y-38196D01*
X58300Y-38234D01*
X58399Y-38234D01*
X58869Y-38234D01*
X58961Y-38196D01*
X59000Y-38157D01*
X59039Y-38196D01*
X59130Y-38234D01*
X59229Y-38234D01*
X59699Y-38234D01*
X59791Y-38196D01*
X59811Y-38175D01*
X59839Y-38244D01*
X59959Y-38364D01*
X60115Y-38429D01*
X60284Y-38429D01*
X60440Y-38365D01*
X60560Y-38245D01*
X60625Y-38089D01*
X60625Y-37920D01*
X60594Y-37845D01*
X61938Y-36501D01*
X61979Y-36598D01*
X62151Y-36771D01*
X62377Y-36865D01*
X62622Y-36865D01*
X62848Y-36771D01*
X62906Y-36713D01*
X62924Y-36756D01*
X62985Y-36817D01*
X62985Y-37328D01*
X62985Y-37328D01*
G37*
G54D30*
X62985Y-37328D02*
X62961Y-37304D01*
X62870Y-37266D01*
X62771Y-37266D01*
X62301Y-37266D01*
X62209Y-37304D01*
X62139Y-37374D01*
X62101Y-37465D01*
X62101Y-37481D01*
X62096Y-37482D01*
X62064Y-37503D01*
X62001Y-37545D01*
X58912Y-40634D01*
X55733Y-40634D01*
X58190Y-38177D01*
X58209Y-38196D01*
X58300Y-38234D01*
X58399Y-38234D01*
X58869Y-38234D01*
X58961Y-38196D01*
X59000Y-38157D01*
X59039Y-38196D01*
X59130Y-38234D01*
X59229Y-38234D01*
X59699Y-38234D01*
X59791Y-38196D01*
X59811Y-38175D01*
X59839Y-38244D01*
X59959Y-38364D01*
X60115Y-38429D01*
X60284Y-38429D01*
X60440Y-38365D01*
X60560Y-38245D01*
X60625Y-38089D01*
X60625Y-37920D01*
X60594Y-37845D01*
X61938Y-36501D01*
X61979Y-36598D01*
X62151Y-36771D01*
X62377Y-36865D01*
X62622Y-36865D01*
X62848Y-36771D01*
X62906Y-36713D01*
X62924Y-36756D01*
X62985Y-36817D01*
X62985Y-37328D01*
G54D10*
G36*
X63774Y-30795D02*
X63694Y-30828D01*
X63647Y-30874D01*
X63647Y-30875D01*
X63645Y-30876D01*
X63543Y-30980D01*
X63522Y-31028D01*
X63511Y-31043D01*
X63500Y-31080D01*
X63489Y-31043D01*
X63478Y-31030D01*
X63458Y-30980D01*
X63355Y-30878D01*
X63353Y-30875D01*
X63351Y-30874D01*
X63306Y-30829D01*
X63224Y-30795D01*
X63774Y-30795D01*
X63774Y-30795D01*
G37*
G54D30*
X63774Y-30795D02*
X63694Y-30828D01*
X63647Y-30874D01*
X63647Y-30875D01*
X63645Y-30876D01*
X63543Y-30980D01*
X63522Y-31028D01*
X63511Y-31043D01*
X63500Y-31080D01*
X63489Y-31043D01*
X63478Y-31030D01*
X63458Y-30980D01*
X63355Y-30878D01*
X63353Y-30875D01*
X63351Y-30874D01*
X63306Y-30829D01*
X63224Y-30795D01*
X63774Y-30795D01*
G54D10*
G36*
X64774Y-30795D02*
X64694Y-30828D01*
X64647Y-30874D01*
X64647Y-30875D01*
X64645Y-30876D01*
X64543Y-30980D01*
X64522Y-31028D01*
X64511Y-31043D01*
X64500Y-31080D01*
X64489Y-31043D01*
X64478Y-31030D01*
X64458Y-30980D01*
X64355Y-30878D01*
X64353Y-30875D01*
X64351Y-30874D01*
X64306Y-30829D01*
X64224Y-30795D01*
X64774Y-30795D01*
X64774Y-30795D01*
G37*
G54D30*
X64774Y-30795D02*
X64694Y-30828D01*
X64647Y-30874D01*
X64647Y-30875D01*
X64645Y-30876D01*
X64543Y-30980D01*
X64522Y-31028D01*
X64511Y-31043D01*
X64500Y-31080D01*
X64489Y-31043D01*
X64478Y-31030D01*
X64458Y-30980D01*
X64355Y-30878D01*
X64353Y-30875D01*
X64351Y-30874D01*
X64306Y-30829D01*
X64224Y-30795D01*
X64774Y-30795D01*
G54D10*
G36*
X64775Y-51205D02*
X63778Y-51205D01*
X64450Y-50533D01*
X64450Y-50550D01*
X64450Y-50600D01*
X64450Y-50750D01*
X64460Y-50783D01*
X64460Y-50821D01*
X64498Y-50914D01*
X64511Y-50957D01*
X64521Y-50969D01*
X64542Y-51020D01*
X64644Y-51121D01*
X64647Y-51125D01*
X64648Y-51125D01*
X64694Y-51171D01*
X64775Y-51205D01*
X64775Y-51205D01*
G37*
G54D30*
X64775Y-51205D02*
X63778Y-51205D01*
X64450Y-50533D01*
X64450Y-50550D01*
X64450Y-50600D01*
X64450Y-50750D01*
X64460Y-50783D01*
X64460Y-50821D01*
X64498Y-50914D01*
X64511Y-50957D01*
X64521Y-50969D01*
X64542Y-51020D01*
X64644Y-51121D01*
X64647Y-51125D01*
X64648Y-51125D01*
X64694Y-51171D01*
X64775Y-51205D01*
G54D10*
G36*
X65774Y-30795D02*
X65694Y-30828D01*
X65647Y-30874D01*
X65647Y-30875D01*
X65645Y-30876D01*
X65543Y-30980D01*
X65522Y-31028D01*
X65511Y-31043D01*
X65500Y-31080D01*
X65489Y-31043D01*
X65478Y-31030D01*
X65458Y-30980D01*
X65355Y-30878D01*
X65353Y-30875D01*
X65351Y-30874D01*
X65306Y-30829D01*
X65224Y-30795D01*
X65774Y-30795D01*
X65774Y-30795D01*
G37*
G54D30*
X65774Y-30795D02*
X65694Y-30828D01*
X65647Y-30874D01*
X65647Y-30875D01*
X65645Y-30876D01*
X65543Y-30980D01*
X65522Y-31028D01*
X65511Y-31043D01*
X65500Y-31080D01*
X65489Y-31043D01*
X65478Y-31030D01*
X65458Y-30980D01*
X65355Y-30878D01*
X65353Y-30875D01*
X65351Y-30874D01*
X65306Y-30829D01*
X65224Y-30795D01*
X65774Y-30795D01*
G54D10*
G36*
X65775Y-51205D02*
X65225Y-51205D01*
X65306Y-51172D01*
X65352Y-51125D01*
X65353Y-51125D01*
X65354Y-51123D01*
X65457Y-51020D01*
X65477Y-50971D01*
X65489Y-50957D01*
X65500Y-50919D01*
X65511Y-50957D01*
X65521Y-50969D01*
X65542Y-51020D01*
X65644Y-51121D01*
X65647Y-51125D01*
X65648Y-51125D01*
X65694Y-51171D01*
X65775Y-51205D01*
X65775Y-51205D01*
G37*
G54D30*
X65775Y-51205D02*
X65225Y-51205D01*
X65306Y-51172D01*
X65352Y-51125D01*
X65353Y-51125D01*
X65354Y-51123D01*
X65457Y-51020D01*
X65477Y-50971D01*
X65489Y-50957D01*
X65500Y-50919D01*
X65511Y-50957D01*
X65521Y-50969D01*
X65542Y-51020D01*
X65644Y-51121D01*
X65647Y-51125D01*
X65648Y-51125D01*
X65694Y-51171D01*
X65775Y-51205D01*
G54D10*
G36*
X66774Y-30795D02*
X66694Y-30828D01*
X66647Y-30874D01*
X66647Y-30875D01*
X66645Y-30876D01*
X66543Y-30980D01*
X66522Y-31028D01*
X66511Y-31043D01*
X66500Y-31080D01*
X66489Y-31043D01*
X66478Y-31030D01*
X66458Y-30980D01*
X66355Y-30878D01*
X66353Y-30875D01*
X66351Y-30874D01*
X66306Y-30829D01*
X66224Y-30795D01*
X66774Y-30795D01*
X66774Y-30795D01*
G37*
G54D30*
X66774Y-30795D02*
X66694Y-30828D01*
X66647Y-30874D01*
X66647Y-30875D01*
X66645Y-30876D01*
X66543Y-30980D01*
X66522Y-31028D01*
X66511Y-31043D01*
X66500Y-31080D01*
X66489Y-31043D01*
X66478Y-31030D01*
X66458Y-30980D01*
X66355Y-30878D01*
X66353Y-30875D01*
X66351Y-30874D01*
X66306Y-30829D01*
X66224Y-30795D01*
X66774Y-30795D01*
G54D10*
G36*
X66775Y-51205D02*
X66225Y-51205D01*
X66306Y-51172D01*
X66352Y-51125D01*
X66353Y-51125D01*
X66354Y-51123D01*
X66457Y-51020D01*
X66477Y-50971D01*
X66489Y-50957D01*
X66500Y-50919D01*
X66511Y-50957D01*
X66521Y-50969D01*
X66542Y-51020D01*
X66644Y-51121D01*
X66647Y-51125D01*
X66648Y-51125D01*
X66694Y-51171D01*
X66775Y-51205D01*
X66775Y-51205D01*
G37*
G54D30*
X66775Y-51205D02*
X66225Y-51205D01*
X66306Y-51172D01*
X66352Y-51125D01*
X66353Y-51125D01*
X66354Y-51123D01*
X66457Y-51020D01*
X66477Y-50971D01*
X66489Y-50957D01*
X66500Y-50919D01*
X66511Y-50957D01*
X66521Y-50969D01*
X66542Y-51020D01*
X66644Y-51121D01*
X66647Y-51125D01*
X66648Y-51125D01*
X66694Y-51171D01*
X66775Y-51205D01*
G54D10*
G36*
X66787Y-32210D02*
X66213Y-32210D01*
X66306Y-32172D01*
X66352Y-32125D01*
X66353Y-32125D01*
X66354Y-32123D01*
X66457Y-32020D01*
X66477Y-31971D01*
X66489Y-31957D01*
X66500Y-31919D01*
X66511Y-31957D01*
X66521Y-31969D01*
X66542Y-32020D01*
X66644Y-32121D01*
X66647Y-32125D01*
X66648Y-32125D01*
X66694Y-32171D01*
X66787Y-32210D01*
X66787Y-32210D01*
G37*
G54D30*
X66787Y-32210D02*
X66213Y-32210D01*
X66306Y-32172D01*
X66352Y-32125D01*
X66353Y-32125D01*
X66354Y-32123D01*
X66457Y-32020D01*
X66477Y-31971D01*
X66489Y-31957D01*
X66500Y-31919D01*
X66511Y-31957D01*
X66521Y-31969D01*
X66542Y-32020D01*
X66644Y-32121D01*
X66647Y-32125D01*
X66648Y-32125D01*
X66694Y-32171D01*
X66787Y-32210D01*
G54D10*
G36*
X67013Y-35665D02*
X66994Y-35674D01*
X66924Y-35744D01*
X66906Y-35786D01*
X66849Y-35729D01*
X66623Y-35635D01*
X66378Y-35635D01*
X66152Y-35729D01*
X65979Y-35901D01*
X65885Y-36127D01*
X65885Y-36257D01*
X65233Y-36909D01*
X65140Y-37048D01*
X65107Y-37213D01*
X65107Y-38338D01*
X65112Y-38363D01*
X65112Y-38422D01*
X65135Y-38478D01*
X65140Y-38503D01*
X65153Y-38523D01*
X65176Y-38578D01*
X65218Y-38620D01*
X65233Y-38642D01*
X65254Y-38656D01*
X65296Y-38698D01*
X65350Y-38720D01*
X65355Y-38723D01*
X63261Y-40818D01*
X59549Y-40818D01*
X62190Y-38177D01*
X62209Y-38196D01*
X62300Y-38234D01*
X62399Y-38234D01*
X62869Y-38234D01*
X62961Y-38196D01*
X63000Y-38157D01*
X63039Y-38196D01*
X63130Y-38234D01*
X63229Y-38234D01*
X63699Y-38234D01*
X63791Y-38196D01*
X63861Y-38126D01*
X63899Y-38035D01*
X63899Y-37936D01*
X63899Y-37466D01*
X63861Y-37374D01*
X63845Y-37358D01*
X63845Y-36864D01*
X63914Y-36864D01*
X64006Y-36826D01*
X64076Y-36756D01*
X64114Y-36665D01*
X64114Y-36566D01*
X64114Y-36518D01*
X64119Y-36518D01*
X64213Y-36455D01*
X66493Y-34175D01*
X66521Y-34203D01*
X66612Y-34241D01*
X66710Y-34241D01*
X66710Y-35242D01*
X66732Y-35353D01*
X66795Y-35447D01*
X67013Y-35665D01*
X67013Y-35665D01*
G37*
G54D30*
X67013Y-35665D02*
X66994Y-35674D01*
X66924Y-35744D01*
X66906Y-35786D01*
X66849Y-35729D01*
X66623Y-35635D01*
X66378Y-35635D01*
X66152Y-35729D01*
X65979Y-35901D01*
X65885Y-36127D01*
X65885Y-36257D01*
X65233Y-36909D01*
X65140Y-37048D01*
X65107Y-37213D01*
X65107Y-38338D01*
X65112Y-38363D01*
X65112Y-38422D01*
X65135Y-38478D01*
X65140Y-38503D01*
X65153Y-38523D01*
X65176Y-38578D01*
X65218Y-38620D01*
X65233Y-38642D01*
X65254Y-38656D01*
X65296Y-38698D01*
X65350Y-38720D01*
X65355Y-38723D01*
X63261Y-40818D01*
X59549Y-40818D01*
X62190Y-38177D01*
X62209Y-38196D01*
X62300Y-38234D01*
X62399Y-38234D01*
X62869Y-38234D01*
X62961Y-38196D01*
X63000Y-38157D01*
X63039Y-38196D01*
X63130Y-38234D01*
X63229Y-38234D01*
X63699Y-38234D01*
X63791Y-38196D01*
X63861Y-38126D01*
X63899Y-38035D01*
X63899Y-37936D01*
X63899Y-37466D01*
X63861Y-37374D01*
X63845Y-37358D01*
X63845Y-36864D01*
X63914Y-36864D01*
X64006Y-36826D01*
X64076Y-36756D01*
X64114Y-36665D01*
X64114Y-36566D01*
X64114Y-36518D01*
X64119Y-36518D01*
X64213Y-36455D01*
X66493Y-34175D01*
X66521Y-34203D01*
X66612Y-34241D01*
X66710Y-34241D01*
X66710Y-35242D01*
X66732Y-35353D01*
X66795Y-35447D01*
X67013Y-35665D01*
G54D10*
G36*
X67070Y-36989D02*
X67018Y-37067D01*
X66985Y-37232D01*
X66985Y-37328D01*
X66961Y-37304D01*
X66870Y-37266D01*
X66771Y-37266D01*
X66301Y-37266D01*
X66209Y-37304D01*
X66139Y-37374D01*
X66101Y-37465D01*
X66101Y-37481D01*
X66096Y-37482D01*
X66002Y-37545D01*
X65967Y-37597D01*
X65967Y-37391D01*
X66493Y-36865D01*
X66622Y-36865D01*
X66848Y-36771D01*
X66906Y-36713D01*
X66924Y-36756D01*
X66994Y-36826D01*
X67070Y-36857D01*
X67070Y-36989D01*
X67070Y-36989D01*
G37*
G54D30*
X67070Y-36989D02*
X67018Y-37067D01*
X66985Y-37232D01*
X66985Y-37328D01*
X66961Y-37304D01*
X66870Y-37266D01*
X66771Y-37266D01*
X66301Y-37266D01*
X66209Y-37304D01*
X66139Y-37374D01*
X66101Y-37465D01*
X66101Y-37481D01*
X66096Y-37482D01*
X66002Y-37545D01*
X65967Y-37597D01*
X65967Y-37391D01*
X66493Y-36865D01*
X66622Y-36865D01*
X66848Y-36771D01*
X66906Y-36713D01*
X66924Y-36756D01*
X66994Y-36826D01*
X67070Y-36857D01*
X67070Y-36989D01*
G54D10*
G36*
X67541Y-33595D02*
X67526Y-33592D01*
X67479Y-33545D01*
X67388Y-33507D01*
X67289Y-33507D01*
X67132Y-33507D01*
X67125Y-33507D01*
X67033Y-33507D01*
X66876Y-33507D01*
X66869Y-33507D01*
X66777Y-33507D01*
X66613Y-33507D01*
X66521Y-33545D01*
X66482Y-33584D01*
X66384Y-33584D01*
X66273Y-33606D01*
X66179Y-33669D01*
X64084Y-35763D01*
X64076Y-35744D01*
X64006Y-35674D01*
X63915Y-35636D01*
X63816Y-35636D01*
X63086Y-35636D01*
X62994Y-35674D01*
X62924Y-35744D01*
X62906Y-35786D01*
X62849Y-35729D01*
X62751Y-35688D01*
X65650Y-32790D01*
X66537Y-32790D01*
X66521Y-32797D01*
X66451Y-32867D01*
X66413Y-32958D01*
X66413Y-33057D01*
X66413Y-33293D01*
X66451Y-33385D01*
X66521Y-33455D01*
X66612Y-33493D01*
X66711Y-33493D01*
X66868Y-33493D01*
X66875Y-33493D01*
X66967Y-33493D01*
X67124Y-33493D01*
X67131Y-33493D01*
X67223Y-33493D01*
X67387Y-33493D01*
X67423Y-33477D01*
X67541Y-33595D01*
X67541Y-33595D01*
G37*
G54D30*
X67541Y-33595D02*
X67526Y-33592D01*
X67479Y-33545D01*
X67388Y-33507D01*
X67289Y-33507D01*
X67132Y-33507D01*
X67125Y-33507D01*
X67033Y-33507D01*
X66876Y-33507D01*
X66869Y-33507D01*
X66777Y-33507D01*
X66613Y-33507D01*
X66521Y-33545D01*
X66482Y-33584D01*
X66384Y-33584D01*
X66273Y-33606D01*
X66179Y-33669D01*
X64084Y-35763D01*
X64076Y-35744D01*
X64006Y-35674D01*
X63915Y-35636D01*
X63816Y-35636D01*
X63086Y-35636D01*
X62994Y-35674D01*
X62924Y-35744D01*
X62906Y-35786D01*
X62849Y-35729D01*
X62751Y-35688D01*
X65650Y-32790D01*
X66537Y-32790D01*
X66521Y-32797D01*
X66451Y-32867D01*
X66413Y-32958D01*
X66413Y-33057D01*
X66413Y-33293D01*
X66451Y-33385D01*
X66521Y-33455D01*
X66612Y-33493D01*
X66711Y-33493D01*
X66868Y-33493D01*
X66875Y-33493D01*
X66967Y-33493D01*
X67124Y-33493D01*
X67131Y-33493D01*
X67223Y-33493D01*
X67387Y-33493D01*
X67423Y-33477D01*
X67541Y-33595D01*
G54D10*
G36*
X67774Y-30795D02*
X67694Y-30828D01*
X67647Y-30874D01*
X67647Y-30875D01*
X67645Y-30876D01*
X67543Y-30980D01*
X67522Y-31028D01*
X67511Y-31043D01*
X67500Y-31080D01*
X67489Y-31043D01*
X67478Y-31030D01*
X67458Y-30980D01*
X67355Y-30878D01*
X67353Y-30875D01*
X67351Y-30874D01*
X67306Y-30829D01*
X67224Y-30795D01*
X67774Y-30795D01*
X67774Y-30795D01*
G37*
G54D30*
X67774Y-30795D02*
X67694Y-30828D01*
X67647Y-30874D01*
X67647Y-30875D01*
X67645Y-30876D01*
X67543Y-30980D01*
X67522Y-31028D01*
X67511Y-31043D01*
X67500Y-31080D01*
X67489Y-31043D01*
X67478Y-31030D01*
X67458Y-30980D01*
X67355Y-30878D01*
X67353Y-30875D01*
X67351Y-30874D01*
X67306Y-30829D01*
X67224Y-30795D01*
X67774Y-30795D01*
G54D10*
G36*
X67775Y-51205D02*
X67225Y-51205D01*
X67306Y-51172D01*
X67352Y-51125D01*
X67353Y-51125D01*
X67354Y-51123D01*
X67457Y-51020D01*
X67477Y-50971D01*
X67489Y-50957D01*
X67500Y-50919D01*
X67511Y-50957D01*
X67521Y-50969D01*
X67542Y-51020D01*
X67644Y-51121D01*
X67647Y-51125D01*
X67648Y-51125D01*
X67694Y-51171D01*
X67775Y-51205D01*
X67775Y-51205D01*
G37*
G54D30*
X67775Y-51205D02*
X67225Y-51205D01*
X67306Y-51172D01*
X67352Y-51125D01*
X67353Y-51125D01*
X67354Y-51123D01*
X67457Y-51020D01*
X67477Y-50971D01*
X67489Y-50957D01*
X67500Y-50919D01*
X67511Y-50957D01*
X67521Y-50969D01*
X67542Y-51020D01*
X67644Y-51121D01*
X67647Y-51125D01*
X67648Y-51125D01*
X67694Y-51171D01*
X67775Y-51205D01*
G54D10*
G36*
X67787Y-32210D02*
X67213Y-32210D01*
X67306Y-32172D01*
X67352Y-32125D01*
X67353Y-32125D01*
X67354Y-32123D01*
X67457Y-32020D01*
X67477Y-31971D01*
X67489Y-31957D01*
X67500Y-31919D01*
X67511Y-31957D01*
X67521Y-31969D01*
X67542Y-32020D01*
X67644Y-32121D01*
X67647Y-32125D01*
X67648Y-32125D01*
X67694Y-32171D01*
X67787Y-32210D01*
X67787Y-32210D01*
G37*
G54D30*
X67787Y-32210D02*
X67213Y-32210D01*
X67306Y-32172D01*
X67352Y-32125D01*
X67353Y-32125D01*
X67354Y-32123D01*
X67457Y-32020D01*
X67477Y-31971D01*
X67489Y-31957D01*
X67500Y-31919D01*
X67511Y-31957D01*
X67521Y-31969D01*
X67542Y-32020D01*
X67644Y-32121D01*
X67647Y-32125D01*
X67648Y-32125D01*
X67694Y-32171D01*
X67787Y-32210D01*
G54D10*
G36*
X67880Y-46250D02*
X67810Y-46320D01*
X66611Y-46320D01*
X66337Y-46046D01*
X66198Y-45953D01*
X66033Y-45920D01*
X65922Y-45920D01*
X65891Y-45889D01*
X65800Y-45851D01*
X65701Y-45851D01*
X64701Y-45851D01*
X64609Y-45889D01*
X64578Y-45920D01*
X64467Y-45920D01*
X64302Y-45953D01*
X64162Y-46046D01*
X63888Y-46320D01*
X63689Y-46320D01*
X63619Y-46249D01*
X63771Y-46099D01*
X63865Y-45873D01*
X63865Y-45628D01*
X63771Y-45402D01*
X63713Y-45343D01*
X63756Y-45326D01*
X63826Y-45256D01*
X63857Y-45180D01*
X63888Y-45180D01*
X64162Y-45454D01*
X64163Y-45454D01*
X64302Y-45547D01*
X64467Y-45580D01*
X64578Y-45580D01*
X64609Y-45611D01*
X64700Y-45649D01*
X64799Y-45649D01*
X65799Y-45649D01*
X65891Y-45611D01*
X65922Y-45580D01*
X66033Y-45580D01*
X66197Y-45547D01*
X66198Y-45547D01*
X66337Y-45454D01*
X66611Y-45180D01*
X67642Y-45180D01*
X67674Y-45256D01*
X67744Y-45326D01*
X67786Y-45343D01*
X67729Y-45401D01*
X67635Y-45627D01*
X67635Y-45872D01*
X67729Y-46098D01*
X67880Y-46250D01*
X67880Y-46250D01*
G37*
G54D30*
X67880Y-46250D02*
X67810Y-46320D01*
X66611Y-46320D01*
X66337Y-46046D01*
X66198Y-45953D01*
X66033Y-45920D01*
X65922Y-45920D01*
X65891Y-45889D01*
X65800Y-45851D01*
X65701Y-45851D01*
X64701Y-45851D01*
X64609Y-45889D01*
X64578Y-45920D01*
X64467Y-45920D01*
X64302Y-45953D01*
X64162Y-46046D01*
X63888Y-46320D01*
X63689Y-46320D01*
X63619Y-46249D01*
X63771Y-46099D01*
X63865Y-45873D01*
X63865Y-45628D01*
X63771Y-45402D01*
X63713Y-45343D01*
X63756Y-45326D01*
X63826Y-45256D01*
X63857Y-45180D01*
X63888Y-45180D01*
X64162Y-45454D01*
X64163Y-45454D01*
X64302Y-45547D01*
X64467Y-45580D01*
X64578Y-45580D01*
X64609Y-45611D01*
X64700Y-45649D01*
X64799Y-45649D01*
X65799Y-45649D01*
X65891Y-45611D01*
X65922Y-45580D01*
X66033Y-45580D01*
X66197Y-45547D01*
X66198Y-45547D01*
X66337Y-45454D01*
X66611Y-45180D01*
X67642Y-45180D01*
X67674Y-45256D01*
X67744Y-45326D01*
X67786Y-45343D01*
X67729Y-45401D01*
X67635Y-45627D01*
X67635Y-45872D01*
X67729Y-46098D01*
X67880Y-46250D01*
G54D10*
G36*
X68774Y-30795D02*
X68694Y-30828D01*
X68647Y-30874D01*
X68647Y-30875D01*
X68645Y-30876D01*
X68543Y-30980D01*
X68522Y-31028D01*
X68511Y-31043D01*
X68500Y-31080D01*
X68489Y-31043D01*
X68478Y-31030D01*
X68458Y-30980D01*
X68355Y-30878D01*
X68353Y-30875D01*
X68351Y-30874D01*
X68306Y-30829D01*
X68224Y-30795D01*
X68774Y-30795D01*
X68774Y-30795D01*
G37*
G54D30*
X68774Y-30795D02*
X68694Y-30828D01*
X68647Y-30874D01*
X68647Y-30875D01*
X68645Y-30876D01*
X68543Y-30980D01*
X68522Y-31028D01*
X68511Y-31043D01*
X68500Y-31080D01*
X68489Y-31043D01*
X68478Y-31030D01*
X68458Y-30980D01*
X68355Y-30878D01*
X68353Y-30875D01*
X68351Y-30874D01*
X68306Y-30829D01*
X68224Y-30795D01*
X68774Y-30795D01*
G54D10*
G36*
X68775Y-51205D02*
X68225Y-51205D01*
X68306Y-51172D01*
X68352Y-51125D01*
X68353Y-51125D01*
X68354Y-51123D01*
X68457Y-51020D01*
X68477Y-50971D01*
X68489Y-50957D01*
X68500Y-50919D01*
X68511Y-50957D01*
X68521Y-50969D01*
X68542Y-51020D01*
X68644Y-51121D01*
X68647Y-51125D01*
X68648Y-51125D01*
X68694Y-51171D01*
X68775Y-51205D01*
X68775Y-51205D01*
G37*
G54D30*
X68775Y-51205D02*
X68225Y-51205D01*
X68306Y-51172D01*
X68352Y-51125D01*
X68353Y-51125D01*
X68354Y-51123D01*
X68457Y-51020D01*
X68477Y-50971D01*
X68489Y-50957D01*
X68500Y-50919D01*
X68511Y-50957D01*
X68521Y-50969D01*
X68542Y-51020D01*
X68644Y-51121D01*
X68647Y-51125D01*
X68648Y-51125D01*
X68694Y-51171D01*
X68775Y-51205D01*
G54D10*
G36*
X68787Y-32210D02*
X68213Y-32210D01*
X68306Y-32172D01*
X68352Y-32125D01*
X68353Y-32125D01*
X68354Y-32123D01*
X68457Y-32020D01*
X68477Y-31971D01*
X68489Y-31957D01*
X68500Y-31919D01*
X68511Y-31957D01*
X68521Y-31969D01*
X68542Y-32020D01*
X68644Y-32121D01*
X68647Y-32125D01*
X68648Y-32125D01*
X68694Y-32171D01*
X68787Y-32210D01*
X68787Y-32210D01*
G37*
G54D30*
X68787Y-32210D02*
X68213Y-32210D01*
X68306Y-32172D01*
X68352Y-32125D01*
X68353Y-32125D01*
X68354Y-32123D01*
X68457Y-32020D01*
X68477Y-31971D01*
X68489Y-31957D01*
X68500Y-31919D01*
X68511Y-31957D01*
X68521Y-31969D01*
X68542Y-32020D01*
X68644Y-32121D01*
X68647Y-32125D01*
X68648Y-32125D01*
X68694Y-32171D01*
X68787Y-32210D01*
G54D10*
G36*
X69774Y-30795D02*
X69694Y-30828D01*
X69647Y-30874D01*
X69647Y-30875D01*
X69645Y-30876D01*
X69543Y-30980D01*
X69522Y-31028D01*
X69511Y-31043D01*
X69500Y-31080D01*
X69489Y-31043D01*
X69478Y-31030D01*
X69458Y-30980D01*
X69355Y-30878D01*
X69353Y-30875D01*
X69351Y-30874D01*
X69306Y-30829D01*
X69224Y-30795D01*
X69774Y-30795D01*
X69774Y-30795D01*
G37*
G54D30*
X69774Y-30795D02*
X69694Y-30828D01*
X69647Y-30874D01*
X69647Y-30875D01*
X69645Y-30876D01*
X69543Y-30980D01*
X69522Y-31028D01*
X69511Y-31043D01*
X69500Y-31080D01*
X69489Y-31043D01*
X69478Y-31030D01*
X69458Y-30980D01*
X69355Y-30878D01*
X69353Y-30875D01*
X69351Y-30874D01*
X69306Y-30829D01*
X69224Y-30795D01*
X69774Y-30795D01*
G54D10*
G36*
X69775Y-51205D02*
X69225Y-51205D01*
X69306Y-51172D01*
X69352Y-51125D01*
X69353Y-51125D01*
X69354Y-51123D01*
X69457Y-51020D01*
X69477Y-50971D01*
X69489Y-50957D01*
X69500Y-50919D01*
X69511Y-50957D01*
X69521Y-50969D01*
X69542Y-51020D01*
X69644Y-51121D01*
X69647Y-51125D01*
X69648Y-51125D01*
X69694Y-51171D01*
X69775Y-51205D01*
X69775Y-51205D01*
G37*
G54D30*
X69775Y-51205D02*
X69225Y-51205D01*
X69306Y-51172D01*
X69352Y-51125D01*
X69353Y-51125D01*
X69354Y-51123D01*
X69457Y-51020D01*
X69477Y-50971D01*
X69489Y-50957D01*
X69500Y-50919D01*
X69511Y-50957D01*
X69521Y-50969D01*
X69542Y-51020D01*
X69644Y-51121D01*
X69647Y-51125D01*
X69648Y-51125D01*
X69694Y-51171D01*
X69775Y-51205D01*
G54D10*
G36*
X69787Y-32210D02*
X69213Y-32210D01*
X69306Y-32172D01*
X69352Y-32125D01*
X69353Y-32125D01*
X69354Y-32123D01*
X69457Y-32020D01*
X69477Y-31971D01*
X69489Y-31957D01*
X69500Y-31919D01*
X69511Y-31957D01*
X69521Y-31969D01*
X69542Y-32020D01*
X69644Y-32121D01*
X69647Y-32125D01*
X69648Y-32125D01*
X69694Y-32171D01*
X69787Y-32210D01*
X69787Y-32210D01*
G37*
G54D30*
X69787Y-32210D02*
X69213Y-32210D01*
X69306Y-32172D01*
X69352Y-32125D01*
X69353Y-32125D01*
X69354Y-32123D01*
X69457Y-32020D01*
X69477Y-31971D01*
X69489Y-31957D01*
X69500Y-31919D01*
X69511Y-31957D01*
X69521Y-31969D01*
X69542Y-32020D01*
X69644Y-32121D01*
X69647Y-32125D01*
X69648Y-32125D01*
X69694Y-32171D01*
X69787Y-32210D01*
G54D10*
G36*
X69940Y-35994D02*
X69885Y-36127D01*
X69885Y-36288D01*
X67772Y-34175D01*
X67772Y-33874D01*
X67760Y-33814D01*
X69940Y-35994D01*
X69940Y-35994D01*
G37*
G54D30*
X69940Y-35994D02*
X69885Y-36127D01*
X69885Y-36288D01*
X67772Y-34175D01*
X67772Y-33874D01*
X67760Y-33814D01*
X69940Y-35994D01*
G54D10*
G36*
X70775Y-51205D02*
X70225Y-51205D01*
X70306Y-51172D01*
X70352Y-51125D01*
X70353Y-51125D01*
X70354Y-51123D01*
X70457Y-51020D01*
X70477Y-50971D01*
X70489Y-50957D01*
X70500Y-50919D01*
X70511Y-50957D01*
X70521Y-50969D01*
X70542Y-51020D01*
X70644Y-51121D01*
X70647Y-51125D01*
X70648Y-51125D01*
X70694Y-51171D01*
X70775Y-51205D01*
X70775Y-51205D01*
G37*
G54D30*
X70775Y-51205D02*
X70225Y-51205D01*
X70306Y-51172D01*
X70352Y-51125D01*
X70353Y-51125D01*
X70354Y-51123D01*
X70457Y-51020D01*
X70477Y-50971D01*
X70489Y-50957D01*
X70500Y-50919D01*
X70511Y-50957D01*
X70521Y-50969D01*
X70542Y-51020D01*
X70644Y-51121D01*
X70647Y-51125D01*
X70648Y-51125D01*
X70694Y-51171D01*
X70775Y-51205D01*
G54D10*
G36*
X70985Y-37328D02*
X70961Y-37304D01*
X70870Y-37266D01*
X70771Y-37266D01*
X70301Y-37266D01*
X70209Y-37304D01*
X70139Y-37374D01*
X70101Y-37465D01*
X70101Y-37481D01*
X70096Y-37482D01*
X70001Y-37545D01*
X67238Y-40308D01*
X64591Y-40308D01*
X66412Y-38487D01*
X66475Y-38393D01*
X66497Y-38282D01*
X66497Y-38234D01*
X66869Y-38234D01*
X66961Y-38196D01*
X67000Y-38157D01*
X67039Y-38196D01*
X67130Y-38234D01*
X67229Y-38234D01*
X67699Y-38234D01*
X67791Y-38196D01*
X67861Y-38126D01*
X67899Y-38035D01*
X67899Y-37936D01*
X67899Y-37466D01*
X67861Y-37374D01*
X67857Y-37370D01*
X67897Y-37312D01*
X67897Y-37311D01*
X67930Y-37147D01*
X67930Y-36857D01*
X68006Y-36826D01*
X68076Y-36756D01*
X68114Y-36665D01*
X68114Y-36566D01*
X68114Y-35836D01*
X68076Y-35744D01*
X68006Y-35674D01*
X67915Y-35636D01*
X67816Y-35636D01*
X67768Y-35636D01*
X67768Y-35631D01*
X67705Y-35537D01*
X67290Y-35122D01*
X67290Y-34513D01*
X69825Y-37048D01*
X69919Y-37111D01*
X70030Y-37133D01*
X70829Y-37133D01*
X70839Y-37147D01*
X70985Y-37293D01*
X70985Y-37328D01*
X70985Y-37328D01*
G37*
G54D30*
X70985Y-37328D02*
X70961Y-37304D01*
X70870Y-37266D01*
X70771Y-37266D01*
X70301Y-37266D01*
X70209Y-37304D01*
X70139Y-37374D01*
X70101Y-37465D01*
X70101Y-37481D01*
X70096Y-37482D01*
X70001Y-37545D01*
X67238Y-40308D01*
X64591Y-40308D01*
X66412Y-38487D01*
X66475Y-38393D01*
X66497Y-38282D01*
X66497Y-38234D01*
X66869Y-38234D01*
X66961Y-38196D01*
X67000Y-38157D01*
X67039Y-38196D01*
X67130Y-38234D01*
X67229Y-38234D01*
X67699Y-38234D01*
X67791Y-38196D01*
X67861Y-38126D01*
X67899Y-38035D01*
X67899Y-37936D01*
X67899Y-37466D01*
X67861Y-37374D01*
X67857Y-37370D01*
X67897Y-37312D01*
X67897Y-37311D01*
X67930Y-37147D01*
X67930Y-36857D01*
X68006Y-36826D01*
X68076Y-36756D01*
X68114Y-36665D01*
X68114Y-36566D01*
X68114Y-35836D01*
X68076Y-35744D01*
X68006Y-35674D01*
X67915Y-35636D01*
X67816Y-35636D01*
X67768Y-35636D01*
X67768Y-35631D01*
X67705Y-35537D01*
X67290Y-35122D01*
X67290Y-34513D01*
X69825Y-37048D01*
X69919Y-37111D01*
X70030Y-37133D01*
X70829Y-37133D01*
X70839Y-37147D01*
X70985Y-37293D01*
X70985Y-37328D01*
G54D10*
G36*
X71264Y-38234D02*
X68872Y-40626D01*
X67741Y-40626D01*
X70190Y-38177D01*
X70209Y-38196D01*
X70300Y-38234D01*
X70399Y-38234D01*
X70869Y-38234D01*
X70961Y-38196D01*
X71000Y-38157D01*
X71039Y-38196D01*
X71130Y-38234D01*
X71229Y-38234D01*
X71264Y-38234D01*
X71264Y-38234D01*
G37*
G54D30*
X71264Y-38234D02*
X68872Y-40626D01*
X67741Y-40626D01*
X70190Y-38177D01*
X70209Y-38196D01*
X70300Y-38234D01*
X70399Y-38234D01*
X70869Y-38234D01*
X70961Y-38196D01*
X71000Y-38157D01*
X71039Y-38196D01*
X71130Y-38234D01*
X71229Y-38234D01*
X71264Y-38234D01*
G54D10*
G36*
X71775Y-51205D02*
X71225Y-51205D01*
X71306Y-51172D01*
X71352Y-51125D01*
X71353Y-51125D01*
X71354Y-51123D01*
X71457Y-51020D01*
X71477Y-50971D01*
X71489Y-50957D01*
X71500Y-50919D01*
X71511Y-50957D01*
X71521Y-50969D01*
X71542Y-51020D01*
X71644Y-51121D01*
X71647Y-51125D01*
X71648Y-51125D01*
X71694Y-51171D01*
X71775Y-51205D01*
X71775Y-51205D01*
G37*
G54D30*
X71775Y-51205D02*
X71225Y-51205D01*
X71306Y-51172D01*
X71352Y-51125D01*
X71353Y-51125D01*
X71354Y-51123D01*
X71457Y-51020D01*
X71477Y-50971D01*
X71489Y-50957D01*
X71500Y-50919D01*
X71511Y-50957D01*
X71521Y-50969D01*
X71542Y-51020D01*
X71644Y-51121D01*
X71647Y-51125D01*
X71648Y-51125D01*
X71694Y-51171D01*
X71775Y-51205D01*
G54D10*
G36*
X71787Y-32210D02*
X70213Y-32210D01*
X70306Y-32172D01*
X70352Y-32125D01*
X70353Y-32125D01*
X70354Y-32123D01*
X70457Y-32020D01*
X70477Y-31971D01*
X70489Y-31957D01*
X70502Y-31912D01*
X70540Y-31822D01*
X70540Y-31783D01*
X70550Y-31750D01*
X70550Y-31550D01*
X70540Y-31550D01*
X70540Y-31450D01*
X70550Y-31450D01*
X70550Y-31250D01*
X70540Y-31216D01*
X70540Y-31179D01*
X70501Y-31085D01*
X70489Y-31043D01*
X70478Y-31030D01*
X70458Y-30980D01*
X70355Y-30878D01*
X70353Y-30875D01*
X70351Y-30874D01*
X70306Y-30829D01*
X70224Y-30795D01*
X71774Y-30795D01*
X71694Y-30828D01*
X71647Y-30874D01*
X71647Y-30875D01*
X71645Y-30876D01*
X71543Y-30980D01*
X71522Y-31028D01*
X71511Y-31043D01*
X71497Y-31087D01*
X71460Y-31178D01*
X71460Y-31216D01*
X71450Y-31250D01*
X71450Y-31450D01*
X71460Y-31450D01*
X71460Y-31550D01*
X71450Y-31550D01*
X71450Y-31750D01*
X71460Y-31783D01*
X71460Y-31821D01*
X71498Y-31914D01*
X71511Y-31957D01*
X71521Y-31969D01*
X71542Y-32020D01*
X71644Y-32121D01*
X71647Y-32125D01*
X71648Y-32125D01*
X71694Y-32171D01*
X71787Y-32210D01*
X71787Y-32210D01*
G37*
G54D30*
X71787Y-32210D02*
X70213Y-32210D01*
X70306Y-32172D01*
X70352Y-32125D01*
X70353Y-32125D01*
X70354Y-32123D01*
X70457Y-32020D01*
X70477Y-31971D01*
X70489Y-31957D01*
X70502Y-31912D01*
X70540Y-31822D01*
X70540Y-31783D01*
X70550Y-31750D01*
X70550Y-31550D01*
X70540Y-31550D01*
X70540Y-31450D01*
X70550Y-31450D01*
X70550Y-31250D01*
X70540Y-31216D01*
X70540Y-31179D01*
X70501Y-31085D01*
X70489Y-31043D01*
X70478Y-31030D01*
X70458Y-30980D01*
X70355Y-30878D01*
X70353Y-30875D01*
X70351Y-30874D01*
X70306Y-30829D01*
X70224Y-30795D01*
X71774Y-30795D01*
X71694Y-30828D01*
X71647Y-30874D01*
X71647Y-30875D01*
X71645Y-30876D01*
X71543Y-30980D01*
X71522Y-31028D01*
X71511Y-31043D01*
X71497Y-31087D01*
X71460Y-31178D01*
X71460Y-31216D01*
X71450Y-31250D01*
X71450Y-31450D01*
X71460Y-31450D01*
X71460Y-31550D01*
X71450Y-31550D01*
X71450Y-31750D01*
X71460Y-31783D01*
X71460Y-31821D01*
X71498Y-31914D01*
X71511Y-31957D01*
X71521Y-31969D01*
X71542Y-32020D01*
X71644Y-32121D01*
X71647Y-32125D01*
X71648Y-32125D01*
X71694Y-32171D01*
X71787Y-32210D01*
G54D10*
G36*
X72774Y-30795D02*
X72694Y-30828D01*
X72647Y-30874D01*
X72647Y-30875D01*
X72645Y-30876D01*
X72543Y-30980D01*
X72522Y-31028D01*
X72511Y-31043D01*
X72500Y-31080D01*
X72489Y-31043D01*
X72478Y-31030D01*
X72458Y-30980D01*
X72355Y-30878D01*
X72353Y-30875D01*
X72351Y-30874D01*
X72306Y-30829D01*
X72224Y-30795D01*
X72774Y-30795D01*
X72774Y-30795D01*
G37*
G54D30*
X72774Y-30795D02*
X72694Y-30828D01*
X72647Y-30874D01*
X72647Y-30875D01*
X72645Y-30876D01*
X72543Y-30980D01*
X72522Y-31028D01*
X72511Y-31043D01*
X72500Y-31080D01*
X72489Y-31043D01*
X72478Y-31030D01*
X72458Y-30980D01*
X72355Y-30878D01*
X72353Y-30875D01*
X72351Y-30874D01*
X72306Y-30829D01*
X72224Y-30795D01*
X72774Y-30795D01*
G54D10*
G36*
X72787Y-32210D02*
X72213Y-32210D01*
X72306Y-32172D01*
X72352Y-32125D01*
X72353Y-32125D01*
X72354Y-32123D01*
X72457Y-32020D01*
X72477Y-31971D01*
X72489Y-31957D01*
X72500Y-31919D01*
X72511Y-31957D01*
X72521Y-31969D01*
X72542Y-32020D01*
X72644Y-32121D01*
X72647Y-32125D01*
X72648Y-32125D01*
X72694Y-32171D01*
X72787Y-32210D01*
X72787Y-32210D01*
G37*
G54D30*
X72787Y-32210D02*
X72213Y-32210D01*
X72306Y-32172D01*
X72352Y-32125D01*
X72353Y-32125D01*
X72354Y-32123D01*
X72457Y-32020D01*
X72477Y-31971D01*
X72489Y-31957D01*
X72500Y-31919D01*
X72511Y-31957D01*
X72521Y-31969D01*
X72542Y-32020D01*
X72644Y-32121D01*
X72647Y-32125D01*
X72648Y-32125D01*
X72694Y-32171D01*
X72787Y-32210D01*
G54D10*
G36*
X73774Y-30795D02*
X73694Y-30828D01*
X73647Y-30874D01*
X73647Y-30875D01*
X73645Y-30876D01*
X73543Y-30980D01*
X73522Y-31028D01*
X73511Y-31043D01*
X73500Y-31080D01*
X73489Y-31043D01*
X73478Y-31030D01*
X73458Y-30980D01*
X73355Y-30878D01*
X73353Y-30875D01*
X73351Y-30874D01*
X73306Y-30829D01*
X73224Y-30795D01*
X73774Y-30795D01*
X73774Y-30795D01*
G37*
G54D30*
X73774Y-30795D02*
X73694Y-30828D01*
X73647Y-30874D01*
X73647Y-30875D01*
X73645Y-30876D01*
X73543Y-30980D01*
X73522Y-31028D01*
X73511Y-31043D01*
X73500Y-31080D01*
X73489Y-31043D01*
X73478Y-31030D01*
X73458Y-30980D01*
X73355Y-30878D01*
X73353Y-30875D01*
X73351Y-30874D01*
X73306Y-30829D01*
X73224Y-30795D01*
X73774Y-30795D01*
G54D10*
G36*
X73775Y-51205D02*
X72225Y-51205D01*
X72306Y-51172D01*
X72352Y-51125D01*
X72353Y-51125D01*
X72354Y-51123D01*
X72457Y-51020D01*
X72477Y-50971D01*
X72489Y-50957D01*
X72502Y-50912D01*
X72540Y-50822D01*
X72540Y-50783D01*
X72550Y-50750D01*
X72550Y-50550D01*
X72540Y-50550D01*
X72540Y-50450D01*
X72550Y-50450D01*
X72550Y-50250D01*
X72540Y-50216D01*
X72540Y-50179D01*
X72511Y-50109D01*
X73488Y-50109D01*
X73460Y-50178D01*
X73460Y-50216D01*
X73450Y-50250D01*
X73450Y-50450D01*
X73460Y-50450D01*
X73460Y-50550D01*
X73450Y-50550D01*
X73450Y-50750D01*
X73460Y-50783D01*
X73460Y-50821D01*
X73498Y-50914D01*
X73511Y-50957D01*
X73521Y-50969D01*
X73542Y-51020D01*
X73644Y-51121D01*
X73647Y-51125D01*
X73648Y-51125D01*
X73694Y-51171D01*
X73775Y-51205D01*
X73775Y-51205D01*
G37*
G54D30*
X73775Y-51205D02*
X72225Y-51205D01*
X72306Y-51172D01*
X72352Y-51125D01*
X72353Y-51125D01*
X72354Y-51123D01*
X72457Y-51020D01*
X72477Y-50971D01*
X72489Y-50957D01*
X72502Y-50912D01*
X72540Y-50822D01*
X72540Y-50783D01*
X72550Y-50750D01*
X72550Y-50550D01*
X72540Y-50550D01*
X72540Y-50450D01*
X72550Y-50450D01*
X72550Y-50250D01*
X72540Y-50216D01*
X72540Y-50179D01*
X72511Y-50109D01*
X73488Y-50109D01*
X73460Y-50178D01*
X73460Y-50216D01*
X73450Y-50250D01*
X73450Y-50450D01*
X73460Y-50450D01*
X73460Y-50550D01*
X73450Y-50550D01*
X73450Y-50750D01*
X73460Y-50783D01*
X73460Y-50821D01*
X73498Y-50914D01*
X73511Y-50957D01*
X73521Y-50969D01*
X73542Y-51020D01*
X73644Y-51121D01*
X73647Y-51125D01*
X73648Y-51125D01*
X73694Y-51171D01*
X73775Y-51205D01*
G54D10*
G36*
X73787Y-32210D02*
X73213Y-32210D01*
X73306Y-32172D01*
X73352Y-32125D01*
X73353Y-32125D01*
X73354Y-32123D01*
X73457Y-32020D01*
X73477Y-31971D01*
X73489Y-31957D01*
X73500Y-31919D01*
X73511Y-31957D01*
X73521Y-31969D01*
X73542Y-32020D01*
X73644Y-32121D01*
X73647Y-32125D01*
X73648Y-32125D01*
X73694Y-32171D01*
X73787Y-32210D01*
X73787Y-32210D01*
G37*
G54D30*
X73787Y-32210D02*
X73213Y-32210D01*
X73306Y-32172D01*
X73352Y-32125D01*
X73353Y-32125D01*
X73354Y-32123D01*
X73457Y-32020D01*
X73477Y-31971D01*
X73489Y-31957D01*
X73500Y-31919D01*
X73511Y-31957D01*
X73521Y-31969D01*
X73542Y-32020D01*
X73644Y-32121D01*
X73647Y-32125D01*
X73648Y-32125D01*
X73694Y-32171D01*
X73787Y-32210D01*
G54D10*
G36*
X74022Y-45820D02*
X70576Y-45820D01*
X69202Y-44446D01*
X69063Y-44353D01*
X68898Y-44320D01*
X68857Y-44320D01*
X68826Y-44244D01*
X68756Y-44174D01*
X68665Y-44136D01*
X68566Y-44136D01*
X67836Y-44136D01*
X67744Y-44174D01*
X67674Y-44244D01*
X67642Y-44320D01*
X66433Y-44320D01*
X66268Y-44353D01*
X66128Y-44446D01*
X65887Y-44687D01*
X65800Y-44651D01*
X65701Y-44651D01*
X64701Y-44651D01*
X64612Y-44687D01*
X64371Y-44446D01*
X64232Y-44353D01*
X64067Y-44320D01*
X63857Y-44320D01*
X63826Y-44244D01*
X63756Y-44174D01*
X63665Y-44136D01*
X63566Y-44136D01*
X62836Y-44136D01*
X62744Y-44174D01*
X62674Y-44244D01*
X62642Y-44320D01*
X61433Y-44320D01*
X61268Y-44353D01*
X61128Y-44446D01*
X60887Y-44687D01*
X60800Y-44651D01*
X60701Y-44651D01*
X59701Y-44651D01*
X59612Y-44687D01*
X59371Y-44446D01*
X59232Y-44353D01*
X59067Y-44320D01*
X58857Y-44320D01*
X58826Y-44244D01*
X58756Y-44174D01*
X58665Y-44136D01*
X58566Y-44136D01*
X57836Y-44136D01*
X57744Y-44174D01*
X57674Y-44244D01*
X57642Y-44320D01*
X56433Y-44320D01*
X56268Y-44353D01*
X56128Y-44446D01*
X55887Y-44687D01*
X55800Y-44651D01*
X55701Y-44651D01*
X54701Y-44651D01*
X54612Y-44687D01*
X54371Y-44446D01*
X54232Y-44353D01*
X54067Y-44320D01*
X53857Y-44320D01*
X53826Y-44244D01*
X53756Y-44174D01*
X53665Y-44136D01*
X53566Y-44136D01*
X52836Y-44136D01*
X52744Y-44174D01*
X52674Y-44244D01*
X52636Y-44335D01*
X52636Y-44434D01*
X52636Y-45164D01*
X52674Y-45256D01*
X52744Y-45326D01*
X52786Y-45343D01*
X52729Y-45401D01*
X52635Y-45627D01*
X52635Y-45872D01*
X52729Y-46098D01*
X52880Y-46250D01*
X52729Y-46401D01*
X52635Y-46627D01*
X52635Y-46872D01*
X52729Y-47098D01*
X52901Y-47271D01*
X53127Y-47365D01*
X53372Y-47365D01*
X53598Y-47271D01*
X53689Y-47180D01*
X54067Y-47180D01*
X54231Y-47147D01*
X54232Y-47147D01*
X54371Y-47054D01*
X54612Y-46812D01*
X54700Y-46849D01*
X54799Y-46849D01*
X55799Y-46849D01*
X55887Y-46812D01*
X56128Y-47054D01*
X56129Y-47054D01*
X56268Y-47147D01*
X56433Y-47180D01*
X57810Y-47180D01*
X57901Y-47271D01*
X58127Y-47365D01*
X58372Y-47365D01*
X58598Y-47271D01*
X58689Y-47180D01*
X59067Y-47180D01*
X59231Y-47147D01*
X59232Y-47147D01*
X59371Y-47054D01*
X59612Y-46812D01*
X59700Y-46849D01*
X59799Y-46849D01*
X60799Y-46849D01*
X60887Y-46812D01*
X61128Y-47054D01*
X61129Y-47054D01*
X61268Y-47147D01*
X61433Y-47180D01*
X61570Y-47180D01*
X61570Y-49287D01*
X61000Y-49287D01*
X60835Y-49320D01*
X60696Y-49413D01*
X60603Y-49552D01*
X60570Y-49717D01*
X60570Y-49952D01*
X60543Y-49980D01*
X60500Y-50082D01*
X60458Y-49980D01*
X60306Y-49829D01*
X60108Y-49746D01*
X59893Y-49746D01*
X59694Y-49828D01*
X59543Y-49980D01*
X59500Y-50081D01*
X59489Y-50043D01*
X59478Y-50030D01*
X59458Y-49980D01*
X59355Y-49878D01*
X59353Y-49875D01*
X59351Y-49874D01*
X59306Y-49829D01*
X59108Y-49746D01*
X58893Y-49746D01*
X58694Y-49828D01*
X58647Y-49874D01*
X58647Y-49875D01*
X58645Y-49876D01*
X58543Y-49980D01*
X58522Y-50028D01*
X58511Y-50043D01*
X58499Y-50081D01*
X58458Y-49980D01*
X58306Y-49829D01*
X58108Y-49746D01*
X57893Y-49746D01*
X57694Y-49828D01*
X57543Y-49980D01*
X57500Y-50081D01*
X57489Y-50043D01*
X57478Y-50030D01*
X57458Y-49980D01*
X57355Y-49878D01*
X57353Y-49875D01*
X57351Y-49874D01*
X57306Y-49829D01*
X57108Y-49746D01*
X56893Y-49746D01*
X56694Y-49828D01*
X56647Y-49874D01*
X56647Y-49875D01*
X56645Y-49876D01*
X56543Y-49980D01*
X56522Y-50028D01*
X56511Y-50043D01*
X56500Y-50080D01*
X56489Y-50043D01*
X56478Y-50030D01*
X56458Y-49980D01*
X56355Y-49878D01*
X56353Y-49875D01*
X56351Y-49874D01*
X56306Y-49829D01*
X56108Y-49746D01*
X55893Y-49746D01*
X55694Y-49828D01*
X55647Y-49874D01*
X55647Y-49875D01*
X55645Y-49876D01*
X55543Y-49980D01*
X55522Y-50028D01*
X55511Y-50043D01*
X55497Y-50087D01*
X55460Y-50178D01*
X55460Y-50216D01*
X55450Y-50250D01*
X55450Y-50450D01*
X55460Y-50450D01*
X55460Y-50550D01*
X55450Y-50550D01*
X55450Y-50750D01*
X55460Y-50783D01*
X55460Y-50821D01*
X55498Y-50914D01*
X55511Y-50957D01*
X55521Y-50969D01*
X55542Y-51020D01*
X55644Y-51121D01*
X55647Y-51125D01*
X55648Y-51125D01*
X55694Y-51171D01*
X55775Y-51205D01*
X51272Y-51205D01*
X51309Y-51168D01*
X51295Y-51154D01*
X51368Y-51081D01*
X51525Y-50705D01*
X51525Y-50297D01*
X51369Y-49920D01*
X51081Y-49632D01*
X50705Y-49475D01*
X50297Y-49475D01*
X49920Y-49631D01*
X49846Y-49705D01*
X49832Y-49691D01*
X49795Y-49728D01*
X49795Y-30795D01*
X50228Y-30795D01*
X50191Y-30832D01*
X50205Y-30846D01*
X50132Y-30919D01*
X49975Y-31295D01*
X49975Y-31703D01*
X50131Y-32080D01*
X50419Y-32368D01*
X50795Y-32525D01*
X51203Y-32525D01*
X51580Y-32369D01*
X51868Y-32081D01*
X51916Y-31964D01*
X51921Y-31969D01*
X51942Y-32020D01*
X52044Y-32121D01*
X52047Y-32125D01*
X52048Y-32125D01*
X52094Y-32171D01*
X52292Y-32254D01*
X52507Y-32254D01*
X52706Y-32172D01*
X52752Y-32125D01*
X52753Y-32125D01*
X52754Y-32123D01*
X52857Y-32020D01*
X52877Y-31971D01*
X52889Y-31957D01*
X52900Y-31919D01*
X52911Y-31957D01*
X52921Y-31969D01*
X52942Y-32020D01*
X53044Y-32121D01*
X53047Y-32125D01*
X53048Y-32125D01*
X53094Y-32171D01*
X53292Y-32254D01*
X53507Y-32254D01*
X53706Y-32172D01*
X53752Y-32125D01*
X53753Y-32125D01*
X53754Y-32123D01*
X53857Y-32020D01*
X53877Y-31971D01*
X53889Y-31957D01*
X53900Y-31919D01*
X53911Y-31957D01*
X53921Y-31969D01*
X53942Y-32020D01*
X54044Y-32121D01*
X54047Y-32125D01*
X54048Y-32125D01*
X54094Y-32171D01*
X54292Y-32254D01*
X54507Y-32254D01*
X54706Y-32172D01*
X54752Y-32125D01*
X54753Y-32125D01*
X54754Y-32123D01*
X54857Y-32020D01*
X54877Y-31971D01*
X54889Y-31957D01*
X54900Y-31919D01*
X54911Y-31957D01*
X54921Y-31969D01*
X54942Y-32020D01*
X55044Y-32121D01*
X55047Y-32125D01*
X55048Y-32125D01*
X55094Y-32171D01*
X55292Y-32254D01*
X55507Y-32254D01*
X55706Y-32172D01*
X55752Y-32125D01*
X55753Y-32125D01*
X55754Y-32123D01*
X55857Y-32020D01*
X55877Y-31971D01*
X55889Y-31957D01*
X55900Y-31919D01*
X55911Y-31957D01*
X55921Y-31969D01*
X55942Y-32020D01*
X56044Y-32121D01*
X56047Y-32125D01*
X56048Y-32125D01*
X56094Y-32171D01*
X56292Y-32254D01*
X56507Y-32254D01*
X56706Y-32172D01*
X56752Y-32125D01*
X56753Y-32125D01*
X56754Y-32123D01*
X56857Y-32020D01*
X56877Y-31971D01*
X56889Y-31957D01*
X56900Y-31919D01*
X56911Y-31957D01*
X56921Y-31969D01*
X56942Y-32020D01*
X57044Y-32121D01*
X57047Y-32125D01*
X57048Y-32125D01*
X57094Y-32171D01*
X57292Y-32254D01*
X57507Y-32254D01*
X57706Y-32172D01*
X57752Y-32125D01*
X57753Y-32125D01*
X57754Y-32123D01*
X57857Y-32020D01*
X57877Y-31971D01*
X57889Y-31957D01*
X57900Y-31919D01*
X57911Y-31957D01*
X57921Y-31969D01*
X57942Y-32020D01*
X58044Y-32121D01*
X58047Y-32125D01*
X58048Y-32125D01*
X58094Y-32171D01*
X58292Y-32254D01*
X58507Y-32254D01*
X58706Y-32172D01*
X58752Y-32125D01*
X58753Y-32125D01*
X58754Y-32123D01*
X58857Y-32020D01*
X58877Y-31971D01*
X58889Y-31957D01*
X58900Y-31919D01*
X58911Y-31957D01*
X58921Y-31969D01*
X58942Y-32020D01*
X59044Y-32121D01*
X59047Y-32125D01*
X59048Y-32125D01*
X59094Y-32171D01*
X59292Y-32254D01*
X59507Y-32254D01*
X59706Y-32172D01*
X59752Y-32125D01*
X59753Y-32125D01*
X59754Y-32123D01*
X59857Y-32020D01*
X59877Y-31971D01*
X59889Y-31957D01*
X59900Y-31919D01*
X59911Y-31957D01*
X59921Y-31969D01*
X59942Y-32020D01*
X60044Y-32121D01*
X60047Y-32125D01*
X60048Y-32125D01*
X60094Y-32171D01*
X60292Y-32254D01*
X60507Y-32254D01*
X60706Y-32172D01*
X60752Y-32125D01*
X60753Y-32125D01*
X60754Y-32123D01*
X60857Y-32020D01*
X60877Y-31971D01*
X60889Y-31957D01*
X60900Y-31919D01*
X60911Y-31957D01*
X60921Y-31969D01*
X60942Y-32020D01*
X61044Y-32121D01*
X61047Y-32125D01*
X61048Y-32125D01*
X61094Y-32171D01*
X61292Y-32254D01*
X61507Y-32254D01*
X61706Y-32172D01*
X61752Y-32125D01*
X61753Y-32125D01*
X61754Y-32123D01*
X61857Y-32020D01*
X61877Y-31971D01*
X61889Y-31957D01*
X61902Y-31912D01*
X61940Y-31822D01*
X61940Y-31783D01*
X61950Y-31750D01*
X61950Y-31550D01*
X61940Y-31550D01*
X61940Y-31450D01*
X61950Y-31450D01*
X61950Y-31250D01*
X61940Y-31216D01*
X61940Y-31179D01*
X61901Y-31085D01*
X61889Y-31043D01*
X61878Y-31030D01*
X61858Y-30980D01*
X61755Y-30878D01*
X61753Y-30875D01*
X61751Y-30874D01*
X61706Y-30829D01*
X61624Y-30795D01*
X62774Y-30795D01*
X62694Y-30828D01*
X62647Y-30874D01*
X62647Y-30875D01*
X62645Y-30876D01*
X62543Y-30980D01*
X62522Y-31028D01*
X62511Y-31043D01*
X62497Y-31087D01*
X62460Y-31178D01*
X62460Y-31216D01*
X62450Y-31250D01*
X62450Y-31450D01*
X62460Y-31450D01*
X62460Y-31550D01*
X62450Y-31550D01*
X62450Y-31750D01*
X62460Y-31783D01*
X62460Y-31821D01*
X62498Y-31914D01*
X62511Y-31957D01*
X62521Y-31969D01*
X62542Y-32020D01*
X62644Y-32121D01*
X62647Y-32125D01*
X62648Y-32125D01*
X62694Y-32171D01*
X62892Y-32254D01*
X63107Y-32254D01*
X63306Y-32172D01*
X63352Y-32125D01*
X63353Y-32125D01*
X63354Y-32123D01*
X63457Y-32020D01*
X63477Y-31971D01*
X63489Y-31957D01*
X63500Y-31919D01*
X63511Y-31957D01*
X63521Y-31969D01*
X63542Y-32020D01*
X63644Y-32121D01*
X63647Y-32125D01*
X63648Y-32125D01*
X63694Y-32171D01*
X63892Y-32254D01*
X64107Y-32254D01*
X64306Y-32172D01*
X64352Y-32125D01*
X64353Y-32125D01*
X64354Y-32123D01*
X64457Y-32020D01*
X64477Y-31971D01*
X64489Y-31957D01*
X64500Y-31919D01*
X64511Y-31957D01*
X64521Y-31969D01*
X64542Y-32020D01*
X64644Y-32121D01*
X64647Y-32125D01*
X64648Y-32125D01*
X64694Y-32171D01*
X64892Y-32254D01*
X65107Y-32254D01*
X65306Y-32172D01*
X65352Y-32125D01*
X65353Y-32125D01*
X65354Y-32123D01*
X65457Y-32020D01*
X65477Y-31971D01*
X65489Y-31957D01*
X65500Y-31919D01*
X65511Y-31957D01*
X65521Y-31969D01*
X65542Y-32020D01*
X65644Y-32121D01*
X65647Y-32125D01*
X65648Y-32125D01*
X65694Y-32171D01*
X65787Y-32210D01*
X65530Y-32210D01*
X65419Y-32232D01*
X65387Y-32253D01*
X65324Y-32295D01*
X59995Y-37625D01*
X59991Y-37630D01*
X59960Y-37643D01*
X59899Y-37704D01*
X59899Y-37466D01*
X59861Y-37374D01*
X59845Y-37358D01*
X59845Y-36864D01*
X59914Y-36864D01*
X60006Y-36826D01*
X60076Y-36756D01*
X60114Y-36665D01*
X60114Y-36566D01*
X60114Y-35836D01*
X60076Y-35744D01*
X60006Y-35674D01*
X59915Y-35636D01*
X59816Y-35636D01*
X59211Y-35636D01*
X57244Y-33669D01*
X57150Y-33606D01*
X57039Y-33584D01*
X55518Y-33584D01*
X55479Y-33545D01*
X55388Y-33507D01*
X55289Y-33507D01*
X55132Y-33507D01*
X55125Y-33507D01*
X55033Y-33507D01*
X54876Y-33507D01*
X54869Y-33507D01*
X54777Y-33507D01*
X54613Y-33507D01*
X54521Y-33545D01*
X54482Y-33584D01*
X54384Y-33584D01*
X54273Y-33606D01*
X54179Y-33669D01*
X52084Y-35763D01*
X52076Y-35744D01*
X52006Y-35674D01*
X51915Y-35636D01*
X51816Y-35636D01*
X51524Y-35636D01*
X53744Y-33416D01*
X54482Y-33416D01*
X54521Y-33455D01*
X54612Y-33493D01*
X54711Y-33493D01*
X54868Y-33493D01*
X54875Y-33493D01*
X54967Y-33493D01*
X55124Y-33493D01*
X55131Y-33493D01*
X55223Y-33493D01*
X55387Y-33493D01*
X55479Y-33455D01*
X55549Y-33385D01*
X55587Y-33294D01*
X55587Y-33195D01*
X55587Y-32959D01*
X55549Y-32867D01*
X55479Y-32797D01*
X55388Y-32759D01*
X55289Y-32759D01*
X55132Y-32759D01*
X55125Y-32759D01*
X55033Y-32759D01*
X54876Y-32759D01*
X54869Y-32759D01*
X54777Y-32759D01*
X54613Y-32759D01*
X54521Y-32797D01*
X54482Y-32836D01*
X53624Y-32836D01*
X53513Y-32858D01*
X53419Y-32921D01*
X50680Y-35659D01*
X50623Y-35635D01*
X50378Y-35635D01*
X50152Y-35729D01*
X49979Y-35901D01*
X49885Y-36127D01*
X49885Y-36372D01*
X49979Y-36598D01*
X50151Y-36771D01*
X50182Y-36784D01*
X50196Y-36804D01*
X50658Y-37266D01*
X50301Y-37266D01*
X50209Y-37304D01*
X50139Y-37374D01*
X50101Y-37465D01*
X50101Y-37564D01*
X50101Y-38034D01*
X50139Y-38126D01*
X50209Y-38196D01*
X50295Y-38231D01*
X50295Y-40992D01*
X50317Y-41103D01*
X50380Y-41197D01*
X50892Y-41709D01*
X50876Y-41750D01*
X50876Y-41849D01*
X50876Y-42649D01*
X50914Y-42741D01*
X50984Y-42811D01*
X51075Y-42849D01*
X51174Y-42849D01*
X51424Y-42849D01*
X51499Y-42817D01*
X51575Y-42849D01*
X51674Y-42849D01*
X51924Y-42849D01*
X51999Y-42817D01*
X52075Y-42849D01*
X52174Y-42849D01*
X52424Y-42849D01*
X52499Y-42817D01*
X52575Y-42849D01*
X52674Y-42849D01*
X52924Y-42849D01*
X52999Y-42817D01*
X53075Y-42849D01*
X53174Y-42849D01*
X53424Y-42849D01*
X53499Y-42817D01*
X53575Y-42849D01*
X53674Y-42849D01*
X53924Y-42849D01*
X53999Y-42817D01*
X54075Y-42849D01*
X54174Y-42849D01*
X54424Y-42849D01*
X54499Y-42817D01*
X54575Y-42849D01*
X54674Y-42849D01*
X54924Y-42849D01*
X55016Y-42811D01*
X55086Y-42741D01*
X55124Y-42650D01*
X55124Y-42551D01*
X55124Y-42490D01*
X70018Y-42490D01*
X70129Y-42468D01*
X70223Y-42405D01*
X70391Y-42236D01*
X70406Y-42272D01*
X70411Y-42297D01*
X70424Y-42317D01*
X70447Y-42372D01*
X70489Y-42414D01*
X70504Y-42436D01*
X70525Y-42450D01*
X70567Y-42492D01*
X70621Y-42514D01*
X70643Y-42529D01*
X70667Y-42533D01*
X70723Y-42557D01*
X70783Y-42557D01*
X70808Y-42562D01*
X71701Y-42562D01*
X71701Y-42563D01*
X71687Y-42585D01*
X71682Y-42609D01*
X71659Y-42665D01*
X71659Y-42725D01*
X71654Y-42750D01*
X71659Y-42775D01*
X71659Y-42834D01*
X71682Y-42890D01*
X71687Y-42915D01*
X71700Y-42935D01*
X71723Y-42990D01*
X71765Y-43032D01*
X71780Y-43054D01*
X71801Y-43068D01*
X71843Y-43110D01*
X71897Y-43132D01*
X71919Y-43147D01*
X71943Y-43151D01*
X71999Y-43175D01*
X72059Y-43175D01*
X72084Y-43180D01*
X73530Y-43180D01*
X73516Y-43190D01*
X73501Y-43211D01*
X73460Y-43253D01*
X73437Y-43307D01*
X73423Y-43329D01*
X73418Y-43353D01*
X73395Y-43409D01*
X73395Y-43469D01*
X73390Y-43494D01*
X73395Y-43519D01*
X73395Y-43578D01*
X73418Y-43634D01*
X73423Y-43659D01*
X73436Y-43679D01*
X73459Y-43734D01*
X73501Y-43776D01*
X73516Y-43798D01*
X73537Y-43812D01*
X73579Y-43854D01*
X73633Y-43876D01*
X73655Y-43891D01*
X73679Y-43895D01*
X73719Y-43912D01*
X73711Y-43934D01*
X73711Y-43994D01*
X73706Y-44019D01*
X73706Y-45326D01*
X73739Y-45491D01*
X73832Y-45630D01*
X74022Y-45820D01*
X74022Y-45820D01*
G37*
G54D30*
X74022Y-45820D02*
X70576Y-45820D01*
X69202Y-44446D01*
X69063Y-44353D01*
X68898Y-44320D01*
X68857Y-44320D01*
X68826Y-44244D01*
X68756Y-44174D01*
X68665Y-44136D01*
X68566Y-44136D01*
X67836Y-44136D01*
X67744Y-44174D01*
X67674Y-44244D01*
X67642Y-44320D01*
X66433Y-44320D01*
X66268Y-44353D01*
X66128Y-44446D01*
X65887Y-44687D01*
X65800Y-44651D01*
X65701Y-44651D01*
X64701Y-44651D01*
X64612Y-44687D01*
X64371Y-44446D01*
X64232Y-44353D01*
X64067Y-44320D01*
X63857Y-44320D01*
X63826Y-44244D01*
X63756Y-44174D01*
X63665Y-44136D01*
X63566Y-44136D01*
X62836Y-44136D01*
X62744Y-44174D01*
X62674Y-44244D01*
X62642Y-44320D01*
X61433Y-44320D01*
X61268Y-44353D01*
X61128Y-44446D01*
X60887Y-44687D01*
X60800Y-44651D01*
X60701Y-44651D01*
X59701Y-44651D01*
X59612Y-44687D01*
X59371Y-44446D01*
X59232Y-44353D01*
X59067Y-44320D01*
X58857Y-44320D01*
X58826Y-44244D01*
X58756Y-44174D01*
X58665Y-44136D01*
X58566Y-44136D01*
X57836Y-44136D01*
X57744Y-44174D01*
X57674Y-44244D01*
X57642Y-44320D01*
X56433Y-44320D01*
X56268Y-44353D01*
X56128Y-44446D01*
X55887Y-44687D01*
X55800Y-44651D01*
X55701Y-44651D01*
X54701Y-44651D01*
X54612Y-44687D01*
X54371Y-44446D01*
X54232Y-44353D01*
X54067Y-44320D01*
X53857Y-44320D01*
X53826Y-44244D01*
X53756Y-44174D01*
X53665Y-44136D01*
X53566Y-44136D01*
X52836Y-44136D01*
X52744Y-44174D01*
X52674Y-44244D01*
X52636Y-44335D01*
X52636Y-44434D01*
X52636Y-45164D01*
X52674Y-45256D01*
X52744Y-45326D01*
X52786Y-45343D01*
X52729Y-45401D01*
X52635Y-45627D01*
X52635Y-45872D01*
X52729Y-46098D01*
X52880Y-46250D01*
X52729Y-46401D01*
X52635Y-46627D01*
X52635Y-46872D01*
X52729Y-47098D01*
X52901Y-47271D01*
X53127Y-47365D01*
X53372Y-47365D01*
X53598Y-47271D01*
X53689Y-47180D01*
X54067Y-47180D01*
X54231Y-47147D01*
X54232Y-47147D01*
X54371Y-47054D01*
X54612Y-46812D01*
X54700Y-46849D01*
X54799Y-46849D01*
X55799Y-46849D01*
X55887Y-46812D01*
X56128Y-47054D01*
X56129Y-47054D01*
X56268Y-47147D01*
X56433Y-47180D01*
X57810Y-47180D01*
X57901Y-47271D01*
X58127Y-47365D01*
X58372Y-47365D01*
X58598Y-47271D01*
X58689Y-47180D01*
X59067Y-47180D01*
X59231Y-47147D01*
X59232Y-47147D01*
X59371Y-47054D01*
X59612Y-46812D01*
X59700Y-46849D01*
X59799Y-46849D01*
X60799Y-46849D01*
X60887Y-46812D01*
X61128Y-47054D01*
X61129Y-47054D01*
X61268Y-47147D01*
X61433Y-47180D01*
X61570Y-47180D01*
X61570Y-49287D01*
X61000Y-49287D01*
X60835Y-49320D01*
X60696Y-49413D01*
X60603Y-49552D01*
X60570Y-49717D01*
X60570Y-49952D01*
X60543Y-49980D01*
X60500Y-50082D01*
X60458Y-49980D01*
X60306Y-49829D01*
X60108Y-49746D01*
X59893Y-49746D01*
X59694Y-49828D01*
X59543Y-49980D01*
X59500Y-50081D01*
X59489Y-50043D01*
X59478Y-50030D01*
X59458Y-49980D01*
X59355Y-49878D01*
X59353Y-49875D01*
X59351Y-49874D01*
X59306Y-49829D01*
X59108Y-49746D01*
X58893Y-49746D01*
X58694Y-49828D01*
X58647Y-49874D01*
X58647Y-49875D01*
X58645Y-49876D01*
X58543Y-49980D01*
X58522Y-50028D01*
X58511Y-50043D01*
X58499Y-50081D01*
X58458Y-49980D01*
X58306Y-49829D01*
X58108Y-49746D01*
X57893Y-49746D01*
X57694Y-49828D01*
X57543Y-49980D01*
X57500Y-50081D01*
X57489Y-50043D01*
X57478Y-50030D01*
X57458Y-49980D01*
X57355Y-49878D01*
X57353Y-49875D01*
X57351Y-49874D01*
X57306Y-49829D01*
X57108Y-49746D01*
X56893Y-49746D01*
X56694Y-49828D01*
X56647Y-49874D01*
X56647Y-49875D01*
X56645Y-49876D01*
X56543Y-49980D01*
X56522Y-50028D01*
X56511Y-50043D01*
X56500Y-50080D01*
X56489Y-50043D01*
X56478Y-50030D01*
X56458Y-49980D01*
X56355Y-49878D01*
X56353Y-49875D01*
X56351Y-49874D01*
X56306Y-49829D01*
X56108Y-49746D01*
X55893Y-49746D01*
X55694Y-49828D01*
X55647Y-49874D01*
X55647Y-49875D01*
X55645Y-49876D01*
X55543Y-49980D01*
X55522Y-50028D01*
X55511Y-50043D01*
X55497Y-50087D01*
X55460Y-50178D01*
X55460Y-50216D01*
X55450Y-50250D01*
X55450Y-50450D01*
X55460Y-50450D01*
X55460Y-50550D01*
X55450Y-50550D01*
X55450Y-50750D01*
X55460Y-50783D01*
X55460Y-50821D01*
X55498Y-50914D01*
X55511Y-50957D01*
X55521Y-50969D01*
X55542Y-51020D01*
X55644Y-51121D01*
X55647Y-51125D01*
X55648Y-51125D01*
X55694Y-51171D01*
X55775Y-51205D01*
X51272Y-51205D01*
X51309Y-51168D01*
X51295Y-51154D01*
X51368Y-51081D01*
X51525Y-50705D01*
X51525Y-50297D01*
X51369Y-49920D01*
X51081Y-49632D01*
X50705Y-49475D01*
X50297Y-49475D01*
X49920Y-49631D01*
X49846Y-49705D01*
X49832Y-49691D01*
X49795Y-49728D01*
X49795Y-30795D01*
X50228Y-30795D01*
X50191Y-30832D01*
X50205Y-30846D01*
X50132Y-30919D01*
X49975Y-31295D01*
X49975Y-31703D01*
X50131Y-32080D01*
X50419Y-32368D01*
X50795Y-32525D01*
X51203Y-32525D01*
X51580Y-32369D01*
X51868Y-32081D01*
X51916Y-31964D01*
X51921Y-31969D01*
X51942Y-32020D01*
X52044Y-32121D01*
X52047Y-32125D01*
X52048Y-32125D01*
X52094Y-32171D01*
X52292Y-32254D01*
X52507Y-32254D01*
X52706Y-32172D01*
X52752Y-32125D01*
X52753Y-32125D01*
X52754Y-32123D01*
X52857Y-32020D01*
X52877Y-31971D01*
X52889Y-31957D01*
X52900Y-31919D01*
X52911Y-31957D01*
X52921Y-31969D01*
X52942Y-32020D01*
X53044Y-32121D01*
X53047Y-32125D01*
X53048Y-32125D01*
X53094Y-32171D01*
X53292Y-32254D01*
X53507Y-32254D01*
X53706Y-32172D01*
X53752Y-32125D01*
X53753Y-32125D01*
X53754Y-32123D01*
X53857Y-32020D01*
X53877Y-31971D01*
X53889Y-31957D01*
X53900Y-31919D01*
X53911Y-31957D01*
X53921Y-31969D01*
X53942Y-32020D01*
X54044Y-32121D01*
X54047Y-32125D01*
X54048Y-32125D01*
X54094Y-32171D01*
X54292Y-32254D01*
X54507Y-32254D01*
X54706Y-32172D01*
X54752Y-32125D01*
X54753Y-32125D01*
X54754Y-32123D01*
X54857Y-32020D01*
X54877Y-31971D01*
X54889Y-31957D01*
X54900Y-31919D01*
X54911Y-31957D01*
X54921Y-31969D01*
X54942Y-32020D01*
X55044Y-32121D01*
X55047Y-32125D01*
X55048Y-32125D01*
X55094Y-32171D01*
X55292Y-32254D01*
X55507Y-32254D01*
X55706Y-32172D01*
X55752Y-32125D01*
X55753Y-32125D01*
X55754Y-32123D01*
X55857Y-32020D01*
X55877Y-31971D01*
X55889Y-31957D01*
X55900Y-31919D01*
X55911Y-31957D01*
X55921Y-31969D01*
X55942Y-32020D01*
X56044Y-32121D01*
X56047Y-32125D01*
X56048Y-32125D01*
X56094Y-32171D01*
X56292Y-32254D01*
X56507Y-32254D01*
X56706Y-32172D01*
X56752Y-32125D01*
X56753Y-32125D01*
X56754Y-32123D01*
X56857Y-32020D01*
X56877Y-31971D01*
X56889Y-31957D01*
X56900Y-31919D01*
X56911Y-31957D01*
X56921Y-31969D01*
X56942Y-32020D01*
X57044Y-32121D01*
X57047Y-32125D01*
X57048Y-32125D01*
X57094Y-32171D01*
X57292Y-32254D01*
X57507Y-32254D01*
X57706Y-32172D01*
X57752Y-32125D01*
X57753Y-32125D01*
X57754Y-32123D01*
X57857Y-32020D01*
X57877Y-31971D01*
X57889Y-31957D01*
X57900Y-31919D01*
X57911Y-31957D01*
X57921Y-31969D01*
X57942Y-32020D01*
X58044Y-32121D01*
X58047Y-32125D01*
X58048Y-32125D01*
X58094Y-32171D01*
X58292Y-32254D01*
X58507Y-32254D01*
X58706Y-32172D01*
X58752Y-32125D01*
X58753Y-32125D01*
X58754Y-32123D01*
X58857Y-32020D01*
X58877Y-31971D01*
X58889Y-31957D01*
X58900Y-31919D01*
X58911Y-31957D01*
X58921Y-31969D01*
X58942Y-32020D01*
X59044Y-32121D01*
X59047Y-32125D01*
X59048Y-32125D01*
X59094Y-32171D01*
X59292Y-32254D01*
X59507Y-32254D01*
X59706Y-32172D01*
X59752Y-32125D01*
X59753Y-32125D01*
X59754Y-32123D01*
X59857Y-32020D01*
X59877Y-31971D01*
X59889Y-31957D01*
X59900Y-31919D01*
X59911Y-31957D01*
X59921Y-31969D01*
X59942Y-32020D01*
X60044Y-32121D01*
X60047Y-32125D01*
X60048Y-32125D01*
X60094Y-32171D01*
X60292Y-32254D01*
X60507Y-32254D01*
X60706Y-32172D01*
X60752Y-32125D01*
X60753Y-32125D01*
X60754Y-32123D01*
X60857Y-32020D01*
X60877Y-31971D01*
X60889Y-31957D01*
X60900Y-31919D01*
X60911Y-31957D01*
X60921Y-31969D01*
X60942Y-32020D01*
X61044Y-32121D01*
X61047Y-32125D01*
X61048Y-32125D01*
X61094Y-32171D01*
X61292Y-32254D01*
X61507Y-32254D01*
X61706Y-32172D01*
X61752Y-32125D01*
X61753Y-32125D01*
X61754Y-32123D01*
X61857Y-32020D01*
X61877Y-31971D01*
X61889Y-31957D01*
X61902Y-31912D01*
X61940Y-31822D01*
X61940Y-31783D01*
X61950Y-31750D01*
X61950Y-31550D01*
X61940Y-31550D01*
X61940Y-31450D01*
X61950Y-31450D01*
X61950Y-31250D01*
X61940Y-31216D01*
X61940Y-31179D01*
X61901Y-31085D01*
X61889Y-31043D01*
X61878Y-31030D01*
X61858Y-30980D01*
X61755Y-30878D01*
X61753Y-30875D01*
X61751Y-30874D01*
X61706Y-30829D01*
X61624Y-30795D01*
X62774Y-30795D01*
X62694Y-30828D01*
X62647Y-30874D01*
X62647Y-30875D01*
X62645Y-30876D01*
X62543Y-30980D01*
X62522Y-31028D01*
X62511Y-31043D01*
X62497Y-31087D01*
X62460Y-31178D01*
X62460Y-31216D01*
X62450Y-31250D01*
X62450Y-31450D01*
X62460Y-31450D01*
X62460Y-31550D01*
X62450Y-31550D01*
X62450Y-31750D01*
X62460Y-31783D01*
X62460Y-31821D01*
X62498Y-31914D01*
X62511Y-31957D01*
X62521Y-31969D01*
X62542Y-32020D01*
X62644Y-32121D01*
X62647Y-32125D01*
X62648Y-32125D01*
X62694Y-32171D01*
X62892Y-32254D01*
X63107Y-32254D01*
X63306Y-32172D01*
X63352Y-32125D01*
X63353Y-32125D01*
X63354Y-32123D01*
X63457Y-32020D01*
X63477Y-31971D01*
X63489Y-31957D01*
X63500Y-31919D01*
X63511Y-31957D01*
X63521Y-31969D01*
X63542Y-32020D01*
X63644Y-32121D01*
X63647Y-32125D01*
X63648Y-32125D01*
X63694Y-32171D01*
X63892Y-32254D01*
X64107Y-32254D01*
X64306Y-32172D01*
X64352Y-32125D01*
X64353Y-32125D01*
X64354Y-32123D01*
X64457Y-32020D01*
X64477Y-31971D01*
X64489Y-31957D01*
X64500Y-31919D01*
X64511Y-31957D01*
X64521Y-31969D01*
X64542Y-32020D01*
X64644Y-32121D01*
X64647Y-32125D01*
X64648Y-32125D01*
X64694Y-32171D01*
X64892Y-32254D01*
X65107Y-32254D01*
X65306Y-32172D01*
X65352Y-32125D01*
X65353Y-32125D01*
X65354Y-32123D01*
X65457Y-32020D01*
X65477Y-31971D01*
X65489Y-31957D01*
X65500Y-31919D01*
X65511Y-31957D01*
X65521Y-31969D01*
X65542Y-32020D01*
X65644Y-32121D01*
X65647Y-32125D01*
X65648Y-32125D01*
X65694Y-32171D01*
X65787Y-32210D01*
X65530Y-32210D01*
X65419Y-32232D01*
X65387Y-32253D01*
X65324Y-32295D01*
X59995Y-37625D01*
X59991Y-37630D01*
X59960Y-37643D01*
X59899Y-37704D01*
X59899Y-37466D01*
X59861Y-37374D01*
X59845Y-37358D01*
X59845Y-36864D01*
X59914Y-36864D01*
X60006Y-36826D01*
X60076Y-36756D01*
X60114Y-36665D01*
X60114Y-36566D01*
X60114Y-35836D01*
X60076Y-35744D01*
X60006Y-35674D01*
X59915Y-35636D01*
X59816Y-35636D01*
X59211Y-35636D01*
X57244Y-33669D01*
X57150Y-33606D01*
X57039Y-33584D01*
X55518Y-33584D01*
X55479Y-33545D01*
X55388Y-33507D01*
X55289Y-33507D01*
X55132Y-33507D01*
X55125Y-33507D01*
X55033Y-33507D01*
X54876Y-33507D01*
X54869Y-33507D01*
X54777Y-33507D01*
X54613Y-33507D01*
X54521Y-33545D01*
X54482Y-33584D01*
X54384Y-33584D01*
X54273Y-33606D01*
X54179Y-33669D01*
X52084Y-35763D01*
X52076Y-35744D01*
X52006Y-35674D01*
X51915Y-35636D01*
X51816Y-35636D01*
X51524Y-35636D01*
X53744Y-33416D01*
X54482Y-33416D01*
X54521Y-33455D01*
X54612Y-33493D01*
X54711Y-33493D01*
X54868Y-33493D01*
X54875Y-33493D01*
X54967Y-33493D01*
X55124Y-33493D01*
X55131Y-33493D01*
X55223Y-33493D01*
X55387Y-33493D01*
X55479Y-33455D01*
X55549Y-33385D01*
X55587Y-33294D01*
X55587Y-33195D01*
X55587Y-32959D01*
X55549Y-32867D01*
X55479Y-32797D01*
X55388Y-32759D01*
X55289Y-32759D01*
X55132Y-32759D01*
X55125Y-32759D01*
X55033Y-32759D01*
X54876Y-32759D01*
X54869Y-32759D01*
X54777Y-32759D01*
X54613Y-32759D01*
X54521Y-32797D01*
X54482Y-32836D01*
X53624Y-32836D01*
X53513Y-32858D01*
X53419Y-32921D01*
X50680Y-35659D01*
X50623Y-35635D01*
X50378Y-35635D01*
X50152Y-35729D01*
X49979Y-35901D01*
X49885Y-36127D01*
X49885Y-36372D01*
X49979Y-36598D01*
X50151Y-36771D01*
X50182Y-36784D01*
X50196Y-36804D01*
X50658Y-37266D01*
X50301Y-37266D01*
X50209Y-37304D01*
X50139Y-37374D01*
X50101Y-37465D01*
X50101Y-37564D01*
X50101Y-38034D01*
X50139Y-38126D01*
X50209Y-38196D01*
X50295Y-38231D01*
X50295Y-40992D01*
X50317Y-41103D01*
X50380Y-41197D01*
X50892Y-41709D01*
X50876Y-41750D01*
X50876Y-41849D01*
X50876Y-42649D01*
X50914Y-42741D01*
X50984Y-42811D01*
X51075Y-42849D01*
X51174Y-42849D01*
X51424Y-42849D01*
X51499Y-42817D01*
X51575Y-42849D01*
X51674Y-42849D01*
X51924Y-42849D01*
X51999Y-42817D01*
X52075Y-42849D01*
X52174Y-42849D01*
X52424Y-42849D01*
X52499Y-42817D01*
X52575Y-42849D01*
X52674Y-42849D01*
X52924Y-42849D01*
X52999Y-42817D01*
X53075Y-42849D01*
X53174Y-42849D01*
X53424Y-42849D01*
X53499Y-42817D01*
X53575Y-42849D01*
X53674Y-42849D01*
X53924Y-42849D01*
X53999Y-42817D01*
X54075Y-42849D01*
X54174Y-42849D01*
X54424Y-42849D01*
X54499Y-42817D01*
X54575Y-42849D01*
X54674Y-42849D01*
X54924Y-42849D01*
X55016Y-42811D01*
X55086Y-42741D01*
X55124Y-42650D01*
X55124Y-42551D01*
X55124Y-42490D01*
X70018Y-42490D01*
X70129Y-42468D01*
X70223Y-42405D01*
X70391Y-42236D01*
X70406Y-42272D01*
X70411Y-42297D01*
X70424Y-42317D01*
X70447Y-42372D01*
X70489Y-42414D01*
X70504Y-42436D01*
X70525Y-42450D01*
X70567Y-42492D01*
X70621Y-42514D01*
X70643Y-42529D01*
X70667Y-42533D01*
X70723Y-42557D01*
X70783Y-42557D01*
X70808Y-42562D01*
X71701Y-42562D01*
X71701Y-42563D01*
X71687Y-42585D01*
X71682Y-42609D01*
X71659Y-42665D01*
X71659Y-42725D01*
X71654Y-42750D01*
X71659Y-42775D01*
X71659Y-42834D01*
X71682Y-42890D01*
X71687Y-42915D01*
X71700Y-42935D01*
X71723Y-42990D01*
X71765Y-43032D01*
X71780Y-43054D01*
X71801Y-43068D01*
X71843Y-43110D01*
X71897Y-43132D01*
X71919Y-43147D01*
X71943Y-43151D01*
X71999Y-43175D01*
X72059Y-43175D01*
X72084Y-43180D01*
X73530Y-43180D01*
X73516Y-43190D01*
X73501Y-43211D01*
X73460Y-43253D01*
X73437Y-43307D01*
X73423Y-43329D01*
X73418Y-43353D01*
X73395Y-43409D01*
X73395Y-43469D01*
X73390Y-43494D01*
X73395Y-43519D01*
X73395Y-43578D01*
X73418Y-43634D01*
X73423Y-43659D01*
X73436Y-43679D01*
X73459Y-43734D01*
X73501Y-43776D01*
X73516Y-43798D01*
X73537Y-43812D01*
X73579Y-43854D01*
X73633Y-43876D01*
X73655Y-43891D01*
X73679Y-43895D01*
X73719Y-43912D01*
X73711Y-43934D01*
X73711Y-43994D01*
X73706Y-44019D01*
X73706Y-45326D01*
X73739Y-45491D01*
X73832Y-45630D01*
X74022Y-45820D01*
G54D10*
G36*
X74408Y-37266D02*
X74301Y-37266D01*
X74209Y-37304D01*
X74139Y-37374D01*
X74101Y-37465D01*
X74101Y-37481D01*
X74096Y-37482D01*
X74002Y-37545D01*
X70180Y-41367D01*
X64156Y-41367D01*
X64326Y-41196D01*
X64406Y-41276D01*
X64562Y-41341D01*
X64731Y-41341D01*
X64887Y-41277D01*
X64958Y-41206D01*
X68992Y-41206D01*
X69103Y-41184D01*
X69197Y-41121D01*
X73902Y-36415D01*
X73979Y-36598D01*
X74070Y-36689D01*
X74070Y-36750D01*
X74103Y-36915D01*
X74196Y-37054D01*
X74408Y-37266D01*
X74408Y-37266D01*
G37*
G54D30*
X74408Y-37266D02*
X74301Y-37266D01*
X74209Y-37304D01*
X74139Y-37374D01*
X74101Y-37465D01*
X74101Y-37481D01*
X74096Y-37482D01*
X74002Y-37545D01*
X70180Y-41367D01*
X64156Y-41367D01*
X64326Y-41196D01*
X64406Y-41276D01*
X64562Y-41341D01*
X64731Y-41341D01*
X64887Y-41277D01*
X64958Y-41206D01*
X68992Y-41206D01*
X69103Y-41184D01*
X69197Y-41121D01*
X73902Y-36415D01*
X73979Y-36598D01*
X74070Y-36689D01*
X74070Y-36750D01*
X74103Y-36915D01*
X74196Y-37054D01*
X74408Y-37266D01*
G54D10*
G36*
X74751Y-43307D02*
X74633Y-43190D01*
X74618Y-43180D01*
X74751Y-43180D01*
X74751Y-43224D01*
X74751Y-43307D01*
X74751Y-43307D01*
G37*
G54D30*
X74751Y-43307D02*
X74633Y-43190D01*
X74618Y-43180D01*
X74751Y-43180D01*
X74751Y-43224D01*
X74751Y-43307D01*
G54D10*
G36*
X74774Y-30795D02*
X74694Y-30828D01*
X74647Y-30874D01*
X74647Y-30875D01*
X74645Y-30876D01*
X74543Y-30980D01*
X74522Y-31028D01*
X74511Y-31043D01*
X74500Y-31080D01*
X74489Y-31043D01*
X74478Y-31030D01*
X74458Y-30980D01*
X74355Y-30878D01*
X74353Y-30875D01*
X74351Y-30874D01*
X74306Y-30829D01*
X74224Y-30795D01*
X74774Y-30795D01*
X74774Y-30795D01*
G37*
G54D30*
X74774Y-30795D02*
X74694Y-30828D01*
X74647Y-30874D01*
X74647Y-30875D01*
X74645Y-30876D01*
X74543Y-30980D01*
X74522Y-31028D01*
X74511Y-31043D01*
X74500Y-31080D01*
X74489Y-31043D01*
X74478Y-31030D01*
X74458Y-30980D01*
X74355Y-30878D01*
X74353Y-30875D01*
X74351Y-30874D01*
X74306Y-30829D01*
X74224Y-30795D01*
X74774Y-30795D01*
G54D10*
G36*
X74775Y-51205D02*
X74225Y-51205D01*
X74306Y-51172D01*
X74352Y-51125D01*
X74353Y-51125D01*
X74354Y-51123D01*
X74457Y-51020D01*
X74477Y-50971D01*
X74489Y-50957D01*
X74500Y-50919D01*
X74511Y-50957D01*
X74521Y-50969D01*
X74542Y-51020D01*
X74644Y-51121D01*
X74647Y-51125D01*
X74648Y-51125D01*
X74694Y-51171D01*
X74775Y-51205D01*
X74775Y-51205D01*
G37*
G54D30*
X74775Y-51205D02*
X74225Y-51205D01*
X74306Y-51172D01*
X74352Y-51125D01*
X74353Y-51125D01*
X74354Y-51123D01*
X74457Y-51020D01*
X74477Y-50971D01*
X74489Y-50957D01*
X74500Y-50919D01*
X74511Y-50957D01*
X74521Y-50969D01*
X74542Y-51020D01*
X74644Y-51121D01*
X74647Y-51125D01*
X74648Y-51125D01*
X74694Y-51171D01*
X74775Y-51205D01*
G54D10*
G36*
X74787Y-32210D02*
X74213Y-32210D01*
X74306Y-32172D01*
X74352Y-32125D01*
X74353Y-32125D01*
X74354Y-32123D01*
X74457Y-32020D01*
X74477Y-31971D01*
X74489Y-31957D01*
X74500Y-31919D01*
X74511Y-31957D01*
X74521Y-31969D01*
X74542Y-32020D01*
X74644Y-32121D01*
X74647Y-32125D01*
X74648Y-32125D01*
X74694Y-32171D01*
X74787Y-32210D01*
X74787Y-32210D01*
G37*
G54D30*
X74787Y-32210D02*
X74213Y-32210D01*
X74306Y-32172D01*
X74352Y-32125D01*
X74353Y-32125D01*
X74354Y-32123D01*
X74457Y-32020D01*
X74477Y-31971D01*
X74489Y-31957D01*
X74500Y-31919D01*
X74511Y-31957D01*
X74521Y-31969D01*
X74542Y-32020D01*
X74644Y-32121D01*
X74647Y-32125D01*
X74648Y-32125D01*
X74694Y-32171D01*
X74787Y-32210D01*
G54D10*
G36*
X75774Y-30795D02*
X75694Y-30828D01*
X75647Y-30874D01*
X75647Y-30875D01*
X75645Y-30876D01*
X75543Y-30980D01*
X75522Y-31028D01*
X75511Y-31043D01*
X75500Y-31080D01*
X75489Y-31043D01*
X75478Y-31030D01*
X75458Y-30980D01*
X75355Y-30878D01*
X75353Y-30875D01*
X75351Y-30874D01*
X75306Y-30829D01*
X75224Y-30795D01*
X75774Y-30795D01*
X75774Y-30795D01*
G37*
G54D30*
X75774Y-30795D02*
X75694Y-30828D01*
X75647Y-30874D01*
X75647Y-30875D01*
X75645Y-30876D01*
X75543Y-30980D01*
X75522Y-31028D01*
X75511Y-31043D01*
X75500Y-31080D01*
X75489Y-31043D01*
X75478Y-31030D01*
X75458Y-30980D01*
X75355Y-30878D01*
X75353Y-30875D01*
X75351Y-30874D01*
X75306Y-30829D01*
X75224Y-30795D01*
X75774Y-30795D01*
G54D10*
G36*
X75775Y-51205D02*
X75225Y-51205D01*
X75306Y-51172D01*
X75352Y-51125D01*
X75353Y-51125D01*
X75354Y-51123D01*
X75457Y-51020D01*
X75477Y-50971D01*
X75489Y-50957D01*
X75500Y-50919D01*
X75511Y-50957D01*
X75521Y-50969D01*
X75542Y-51020D01*
X75644Y-51121D01*
X75647Y-51125D01*
X75648Y-51125D01*
X75694Y-51171D01*
X75775Y-51205D01*
X75775Y-51205D01*
G37*
G54D30*
X75775Y-51205D02*
X75225Y-51205D01*
X75306Y-51172D01*
X75352Y-51125D01*
X75353Y-51125D01*
X75354Y-51123D01*
X75457Y-51020D01*
X75477Y-50971D01*
X75489Y-50957D01*
X75500Y-50919D01*
X75511Y-50957D01*
X75521Y-50969D01*
X75542Y-51020D01*
X75644Y-51121D01*
X75647Y-51125D01*
X75648Y-51125D01*
X75694Y-51171D01*
X75775Y-51205D01*
G54D10*
G36*
X75787Y-32210D02*
X75213Y-32210D01*
X75306Y-32172D01*
X75352Y-32125D01*
X75353Y-32125D01*
X75354Y-32123D01*
X75457Y-32020D01*
X75477Y-31971D01*
X75489Y-31957D01*
X75500Y-31919D01*
X75511Y-31957D01*
X75521Y-31969D01*
X75542Y-32020D01*
X75644Y-32121D01*
X75647Y-32125D01*
X75648Y-32125D01*
X75694Y-32171D01*
X75787Y-32210D01*
X75787Y-32210D01*
G37*
G54D30*
X75787Y-32210D02*
X75213Y-32210D01*
X75306Y-32172D01*
X75352Y-32125D01*
X75353Y-32125D01*
X75354Y-32123D01*
X75457Y-32020D01*
X75477Y-31971D01*
X75489Y-31957D01*
X75500Y-31919D01*
X75511Y-31957D01*
X75521Y-31969D01*
X75542Y-32020D01*
X75644Y-32121D01*
X75647Y-32125D01*
X75648Y-32125D01*
X75694Y-32171D01*
X75787Y-32210D01*
G54D10*
G36*
X76220Y-47578D02*
X76189Y-47609D01*
X76151Y-47700D01*
X76151Y-47799D01*
X76151Y-48339D01*
X75933Y-48121D01*
X75933Y-47008D01*
X76220Y-47295D01*
X76220Y-47578D01*
X76220Y-47578D01*
G37*
G54D30*
X76220Y-47578D02*
X76189Y-47609D01*
X76151Y-47700D01*
X76151Y-47799D01*
X76151Y-48339D01*
X75933Y-48121D01*
X75933Y-47008D01*
X76220Y-47295D01*
X76220Y-47578D01*
G54D10*
G36*
X76521Y-49529D02*
X64754Y-49529D01*
X64643Y-49551D01*
X64549Y-49614D01*
X63550Y-50613D01*
X63550Y-50550D01*
X63540Y-50550D01*
X63540Y-50450D01*
X63550Y-50450D01*
X63550Y-50250D01*
X63540Y-50216D01*
X63540Y-50179D01*
X63501Y-50085D01*
X63489Y-50043D01*
X63478Y-50030D01*
X63458Y-49980D01*
X63355Y-49878D01*
X63353Y-49875D01*
X63351Y-49874D01*
X63306Y-49829D01*
X63108Y-49746D01*
X62893Y-49746D01*
X62694Y-49828D01*
X62647Y-49874D01*
X62647Y-49875D01*
X62645Y-49876D01*
X62543Y-49980D01*
X62522Y-50028D01*
X62511Y-50043D01*
X62499Y-50081D01*
X62458Y-49980D01*
X62430Y-49952D01*
X62430Y-49717D01*
X62430Y-47180D01*
X62810Y-47180D01*
X62901Y-47271D01*
X63127Y-47365D01*
X63372Y-47365D01*
X63598Y-47271D01*
X63689Y-47180D01*
X64067Y-47180D01*
X64231Y-47147D01*
X64232Y-47147D01*
X64371Y-47054D01*
X64612Y-46812D01*
X64700Y-46849D01*
X64799Y-46849D01*
X65799Y-46849D01*
X65887Y-46812D01*
X66128Y-47054D01*
X66129Y-47054D01*
X66268Y-47147D01*
X66433Y-47180D01*
X67810Y-47180D01*
X67901Y-47271D01*
X68127Y-47365D01*
X68372Y-47365D01*
X68598Y-47271D01*
X68771Y-47099D01*
X68865Y-46873D01*
X68865Y-46628D01*
X68771Y-46402D01*
X68619Y-46249D01*
X68771Y-46099D01*
X68865Y-45873D01*
X68865Y-45628D01*
X68771Y-45402D01*
X68713Y-45343D01*
X68756Y-45326D01*
X68811Y-45271D01*
X70094Y-46554D01*
X70233Y-46647D01*
X70234Y-46647D01*
X70398Y-46680D01*
X74717Y-46680D01*
X74751Y-46680D01*
X74751Y-46724D01*
X74751Y-46874D01*
X74789Y-46966D01*
X74859Y-47036D01*
X74950Y-47074D01*
X75049Y-47074D01*
X75353Y-47074D01*
X75353Y-48241D01*
X75375Y-48352D01*
X75438Y-48446D01*
X76521Y-49529D01*
X76521Y-49529D01*
G37*
G54D30*
X76521Y-49529D02*
X64754Y-49529D01*
X64643Y-49551D01*
X64549Y-49614D01*
X63550Y-50613D01*
X63550Y-50550D01*
X63540Y-50550D01*
X63540Y-50450D01*
X63550Y-50450D01*
X63550Y-50250D01*
X63540Y-50216D01*
X63540Y-50179D01*
X63501Y-50085D01*
X63489Y-50043D01*
X63478Y-50030D01*
X63458Y-49980D01*
X63355Y-49878D01*
X63353Y-49875D01*
X63351Y-49874D01*
X63306Y-49829D01*
X63108Y-49746D01*
X62893Y-49746D01*
X62694Y-49828D01*
X62647Y-49874D01*
X62647Y-49875D01*
X62645Y-49876D01*
X62543Y-49980D01*
X62522Y-50028D01*
X62511Y-50043D01*
X62499Y-50081D01*
X62458Y-49980D01*
X62430Y-49952D01*
X62430Y-49717D01*
X62430Y-47180D01*
X62810Y-47180D01*
X62901Y-47271D01*
X63127Y-47365D01*
X63372Y-47365D01*
X63598Y-47271D01*
X63689Y-47180D01*
X64067Y-47180D01*
X64231Y-47147D01*
X64232Y-47147D01*
X64371Y-47054D01*
X64612Y-46812D01*
X64700Y-46849D01*
X64799Y-46849D01*
X65799Y-46849D01*
X65887Y-46812D01*
X66128Y-47054D01*
X66129Y-47054D01*
X66268Y-47147D01*
X66433Y-47180D01*
X67810Y-47180D01*
X67901Y-47271D01*
X68127Y-47365D01*
X68372Y-47365D01*
X68598Y-47271D01*
X68771Y-47099D01*
X68865Y-46873D01*
X68865Y-46628D01*
X68771Y-46402D01*
X68619Y-46249D01*
X68771Y-46099D01*
X68865Y-45873D01*
X68865Y-45628D01*
X68771Y-45402D01*
X68713Y-45343D01*
X68756Y-45326D01*
X68811Y-45271D01*
X70094Y-46554D01*
X70233Y-46647D01*
X70234Y-46647D01*
X70398Y-46680D01*
X74717Y-46680D01*
X74751Y-46680D01*
X74751Y-46724D01*
X74751Y-46874D01*
X74789Y-46966D01*
X74859Y-47036D01*
X74950Y-47074D01*
X75049Y-47074D01*
X75353Y-47074D01*
X75353Y-48241D01*
X75375Y-48352D01*
X75438Y-48446D01*
X76521Y-49529D01*
G54D10*
G36*
X76708Y-32790D02*
X71899Y-37599D01*
X71899Y-37466D01*
X71861Y-37374D01*
X71845Y-37358D01*
X71845Y-37115D01*
X71812Y-36950D01*
X71763Y-36876D01*
X71768Y-36869D01*
X71768Y-36864D01*
X71914Y-36864D01*
X72006Y-36826D01*
X72076Y-36756D01*
X72114Y-36665D01*
X72114Y-36566D01*
X72114Y-35836D01*
X72076Y-35744D01*
X72006Y-35674D01*
X71915Y-35636D01*
X71816Y-35636D01*
X71086Y-35636D01*
X70994Y-35674D01*
X70924Y-35744D01*
X70906Y-35786D01*
X70849Y-35729D01*
X70623Y-35635D01*
X70555Y-35635D01*
X70500Y-35624D01*
X70390Y-35624D01*
X67687Y-32921D01*
X67593Y-32858D01*
X67526Y-32844D01*
X67479Y-32797D01*
X67462Y-32790D01*
X76708Y-32790D01*
X76708Y-32790D01*
G37*
G54D30*
X76708Y-32790D02*
X71899Y-37599D01*
X71899Y-37466D01*
X71861Y-37374D01*
X71845Y-37358D01*
X71845Y-37115D01*
X71812Y-36950D01*
X71763Y-36876D01*
X71768Y-36869D01*
X71768Y-36864D01*
X71914Y-36864D01*
X72006Y-36826D01*
X72076Y-36756D01*
X72114Y-36665D01*
X72114Y-36566D01*
X72114Y-35836D01*
X72076Y-35744D01*
X72006Y-35674D01*
X71915Y-35636D01*
X71816Y-35636D01*
X71086Y-35636D01*
X70994Y-35674D01*
X70924Y-35744D01*
X70906Y-35786D01*
X70849Y-35729D01*
X70623Y-35635D01*
X70555Y-35635D01*
X70500Y-35624D01*
X70390Y-35624D01*
X67687Y-32921D01*
X67593Y-32858D01*
X67526Y-32844D01*
X67479Y-32797D01*
X67462Y-32790D01*
X76708Y-32790D01*
G54D10*
G36*
X76774Y-30795D02*
X76694Y-30828D01*
X76647Y-30874D01*
X76647Y-30875D01*
X76645Y-30876D01*
X76543Y-30980D01*
X76522Y-31028D01*
X76511Y-31043D01*
X76500Y-31080D01*
X76489Y-31043D01*
X76478Y-31030D01*
X76458Y-30980D01*
X76355Y-30878D01*
X76353Y-30875D01*
X76351Y-30874D01*
X76306Y-30829D01*
X76224Y-30795D01*
X76774Y-30795D01*
X76774Y-30795D01*
G37*
G54D30*
X76774Y-30795D02*
X76694Y-30828D01*
X76647Y-30874D01*
X76647Y-30875D01*
X76645Y-30876D01*
X76543Y-30980D01*
X76522Y-31028D01*
X76511Y-31043D01*
X76500Y-31080D01*
X76489Y-31043D01*
X76478Y-31030D01*
X76458Y-30980D01*
X76355Y-30878D01*
X76353Y-30875D01*
X76351Y-30874D01*
X76306Y-30829D01*
X76224Y-30795D01*
X76774Y-30795D01*
G54D10*
G36*
X76775Y-51205D02*
X76225Y-51205D01*
X76306Y-51172D01*
X76352Y-51125D01*
X76353Y-51125D01*
X76354Y-51123D01*
X76457Y-51020D01*
X76477Y-50971D01*
X76489Y-50957D01*
X76500Y-50919D01*
X76511Y-50957D01*
X76521Y-50969D01*
X76542Y-51020D01*
X76644Y-51121D01*
X76647Y-51125D01*
X76648Y-51125D01*
X76694Y-51171D01*
X76775Y-51205D01*
X76775Y-51205D01*
G37*
G54D30*
X76775Y-51205D02*
X76225Y-51205D01*
X76306Y-51172D01*
X76352Y-51125D01*
X76353Y-51125D01*
X76354Y-51123D01*
X76457Y-51020D01*
X76477Y-50971D01*
X76489Y-50957D01*
X76500Y-50919D01*
X76511Y-50957D01*
X76521Y-50969D01*
X76542Y-51020D01*
X76644Y-51121D01*
X76647Y-51125D01*
X76648Y-51125D01*
X76694Y-51171D01*
X76775Y-51205D01*
G54D10*
G36*
X76787Y-32210D02*
X76213Y-32210D01*
X76306Y-32172D01*
X76352Y-32125D01*
X76353Y-32125D01*
X76354Y-32123D01*
X76457Y-32020D01*
X76477Y-31971D01*
X76489Y-31957D01*
X76500Y-31919D01*
X76511Y-31957D01*
X76521Y-31969D01*
X76542Y-32020D01*
X76644Y-32121D01*
X76647Y-32125D01*
X76648Y-32125D01*
X76694Y-32171D01*
X76787Y-32210D01*
X76787Y-32210D01*
G37*
G54D30*
X76787Y-32210D02*
X76213Y-32210D01*
X76306Y-32172D01*
X76352Y-32125D01*
X76353Y-32125D01*
X76354Y-32123D01*
X76457Y-32020D01*
X76477Y-31971D01*
X76489Y-31957D01*
X76500Y-31919D01*
X76511Y-31957D01*
X76521Y-31969D01*
X76542Y-32020D01*
X76644Y-32121D01*
X76647Y-32125D01*
X76648Y-32125D01*
X76694Y-32171D01*
X76787Y-32210D01*
G54D10*
G36*
X76838Y-49026D02*
X76811Y-48999D01*
X76820Y-48999D01*
X76838Y-49026D01*
X76838Y-49026D01*
G37*
G54D30*
X76838Y-49026D02*
X76811Y-48999D01*
X76820Y-48999D01*
X76838Y-49026D01*
G54D10*
G36*
X76927Y-44185D02*
X76463Y-43721D01*
X76463Y-41780D01*
X76441Y-41669D01*
X76378Y-41575D01*
X75848Y-41045D01*
X75754Y-40982D01*
X75643Y-40960D01*
X75631Y-40960D01*
X75550Y-40926D01*
X75451Y-40926D01*
X74951Y-40926D01*
X74859Y-40964D01*
X74789Y-41034D01*
X74751Y-41125D01*
X74751Y-41224D01*
X74751Y-41374D01*
X74789Y-41466D01*
X74823Y-41500D01*
X74789Y-41534D01*
X74751Y-41625D01*
X74751Y-41724D01*
X74751Y-41732D01*
X74599Y-41702D01*
X70926Y-41702D01*
X74206Y-38422D01*
X74942Y-38422D01*
X75053Y-38400D01*
X75147Y-38337D01*
X75235Y-38249D01*
X75245Y-38234D01*
X75699Y-38234D01*
X75791Y-38196D01*
X75791Y-38195D01*
X76927Y-39331D01*
X76927Y-44185D01*
X76927Y-44185D01*
G37*
G54D30*
X76927Y-44185D02*
X76463Y-43721D01*
X76463Y-41780D01*
X76441Y-41669D01*
X76378Y-41575D01*
X75848Y-41045D01*
X75754Y-40982D01*
X75643Y-40960D01*
X75631Y-40960D01*
X75550Y-40926D01*
X75451Y-40926D01*
X74951Y-40926D01*
X74859Y-40964D01*
X74789Y-41034D01*
X74751Y-41125D01*
X74751Y-41224D01*
X74751Y-41374D01*
X74789Y-41466D01*
X74823Y-41500D01*
X74789Y-41534D01*
X74751Y-41625D01*
X74751Y-41724D01*
X74751Y-41732D01*
X74599Y-41702D01*
X70926Y-41702D01*
X74206Y-38422D01*
X74942Y-38422D01*
X75053Y-38400D01*
X75147Y-38337D01*
X75235Y-38249D01*
X75245Y-38234D01*
X75699Y-38234D01*
X75791Y-38196D01*
X75791Y-38195D01*
X76927Y-39331D01*
X76927Y-44185D01*
G54D10*
G36*
X77186Y-33154D02*
X74680Y-35659D01*
X74665Y-35652D01*
X77164Y-33154D01*
X77186Y-33154D01*
X77186Y-33154D01*
G37*
G54D30*
X77186Y-33154D02*
X74680Y-35659D01*
X74665Y-35652D01*
X77164Y-33154D01*
X77186Y-33154D01*
G54D10*
G36*
X77774Y-30795D02*
X77694Y-30828D01*
X77647Y-30874D01*
X77647Y-30875D01*
X77645Y-30876D01*
X77543Y-30980D01*
X77522Y-31028D01*
X77511Y-31043D01*
X77500Y-31080D01*
X77489Y-31043D01*
X77478Y-31030D01*
X77458Y-30980D01*
X77355Y-30878D01*
X77353Y-30875D01*
X77351Y-30874D01*
X77306Y-30829D01*
X77224Y-30795D01*
X77774Y-30795D01*
X77774Y-30795D01*
G37*
G54D30*
X77774Y-30795D02*
X77694Y-30828D01*
X77647Y-30874D01*
X77647Y-30875D01*
X77645Y-30876D01*
X77543Y-30980D01*
X77522Y-31028D01*
X77511Y-31043D01*
X77500Y-31080D01*
X77489Y-31043D01*
X77478Y-31030D01*
X77458Y-30980D01*
X77355Y-30878D01*
X77353Y-30875D01*
X77351Y-30874D01*
X77306Y-30829D01*
X77224Y-30795D01*
X77774Y-30795D01*
G54D10*
G36*
X77775Y-51205D02*
X77225Y-51205D01*
X77306Y-51172D01*
X77352Y-51125D01*
X77353Y-51125D01*
X77354Y-51123D01*
X77457Y-51020D01*
X77477Y-50971D01*
X77489Y-50957D01*
X77500Y-50919D01*
X77511Y-50957D01*
X77521Y-50969D01*
X77542Y-51020D01*
X77644Y-51121D01*
X77647Y-51125D01*
X77648Y-51125D01*
X77694Y-51171D01*
X77775Y-51205D01*
X77775Y-51205D01*
G37*
G54D30*
X77775Y-51205D02*
X77225Y-51205D01*
X77306Y-51172D01*
X77352Y-51125D01*
X77353Y-51125D01*
X77354Y-51123D01*
X77457Y-51020D01*
X77477Y-50971D01*
X77489Y-50957D01*
X77500Y-50919D01*
X77511Y-50957D01*
X77521Y-50969D01*
X77542Y-51020D01*
X77644Y-51121D01*
X77647Y-51125D01*
X77648Y-51125D01*
X77694Y-51171D01*
X77775Y-51205D01*
G54D10*
G36*
X77787Y-32210D02*
X77213Y-32210D01*
X77306Y-32172D01*
X77352Y-32125D01*
X77353Y-32125D01*
X77354Y-32123D01*
X77457Y-32020D01*
X77477Y-31971D01*
X77489Y-31957D01*
X77500Y-31919D01*
X77511Y-31957D01*
X77521Y-31969D01*
X77542Y-32020D01*
X77644Y-32121D01*
X77647Y-32125D01*
X77648Y-32125D01*
X77694Y-32171D01*
X77787Y-32210D01*
X77787Y-32210D01*
G37*
G54D30*
X77787Y-32210D02*
X77213Y-32210D01*
X77306Y-32172D01*
X77352Y-32125D01*
X77353Y-32125D01*
X77354Y-32123D01*
X77457Y-32020D01*
X77477Y-31971D01*
X77489Y-31957D01*
X77500Y-31919D01*
X77511Y-31957D01*
X77521Y-31969D01*
X77542Y-32020D01*
X77644Y-32121D01*
X77647Y-32125D01*
X77648Y-32125D01*
X77694Y-32171D01*
X77787Y-32210D01*
G54D10*
G36*
X77926Y-47501D02*
X77551Y-47501D01*
X77459Y-47539D01*
X77389Y-47609D01*
X77351Y-47700D01*
X77351Y-47799D01*
X77351Y-47855D01*
X77348Y-47853D01*
X77183Y-47820D01*
X77149Y-47820D01*
X77149Y-47701D01*
X77111Y-47609D01*
X77080Y-47578D01*
X77080Y-47117D01*
X77047Y-46953D01*
X77047Y-46952D01*
X76954Y-46813D01*
X76087Y-45946D01*
X75948Y-45853D01*
X75783Y-45820D01*
X75749Y-45820D01*
X75749Y-45776D01*
X75749Y-45626D01*
X75711Y-45534D01*
X75677Y-45500D01*
X75711Y-45466D01*
X75749Y-45375D01*
X75749Y-45324D01*
X77926Y-47501D01*
X77926Y-47501D01*
G37*
G54D30*
X77926Y-47501D02*
X77551Y-47501D01*
X77459Y-47539D01*
X77389Y-47609D01*
X77351Y-47700D01*
X77351Y-47799D01*
X77351Y-47855D01*
X77348Y-47853D01*
X77183Y-47820D01*
X77149Y-47820D01*
X77149Y-47701D01*
X77111Y-47609D01*
X77080Y-47578D01*
X77080Y-47117D01*
X77047Y-46953D01*
X77047Y-46952D01*
X76954Y-46813D01*
X76087Y-45946D01*
X75948Y-45853D01*
X75783Y-45820D01*
X75749Y-45820D01*
X75749Y-45776D01*
X75749Y-45626D01*
X75711Y-45534D01*
X75677Y-45500D01*
X75711Y-45466D01*
X75749Y-45375D01*
X75749Y-45324D01*
X77926Y-47501D01*
G54D10*
G36*
X78774Y-30795D02*
X78694Y-30828D01*
X78647Y-30874D01*
X78647Y-30875D01*
X78645Y-30876D01*
X78543Y-30980D01*
X78522Y-31028D01*
X78511Y-31043D01*
X78500Y-31080D01*
X78489Y-31043D01*
X78478Y-31030D01*
X78458Y-30980D01*
X78355Y-30878D01*
X78353Y-30875D01*
X78351Y-30874D01*
X78306Y-30829D01*
X78224Y-30795D01*
X78774Y-30795D01*
X78774Y-30795D01*
G37*
G54D30*
X78774Y-30795D02*
X78694Y-30828D01*
X78647Y-30874D01*
X78647Y-30875D01*
X78645Y-30876D01*
X78543Y-30980D01*
X78522Y-31028D01*
X78511Y-31043D01*
X78500Y-31080D01*
X78489Y-31043D01*
X78478Y-31030D01*
X78458Y-30980D01*
X78355Y-30878D01*
X78353Y-30875D01*
X78351Y-30874D01*
X78306Y-30829D01*
X78224Y-30795D01*
X78774Y-30795D01*
G54D10*
G36*
X78775Y-51205D02*
X78225Y-51205D01*
X78306Y-51172D01*
X78352Y-51125D01*
X78353Y-51125D01*
X78354Y-51123D01*
X78457Y-51020D01*
X78477Y-50971D01*
X78489Y-50957D01*
X78500Y-50919D01*
X78511Y-50957D01*
X78521Y-50969D01*
X78542Y-51020D01*
X78644Y-51121D01*
X78647Y-51125D01*
X78648Y-51125D01*
X78694Y-51171D01*
X78775Y-51205D01*
X78775Y-51205D01*
G37*
G54D30*
X78775Y-51205D02*
X78225Y-51205D01*
X78306Y-51172D01*
X78352Y-51125D01*
X78353Y-51125D01*
X78354Y-51123D01*
X78457Y-51020D01*
X78477Y-50971D01*
X78489Y-50957D01*
X78500Y-50919D01*
X78511Y-50957D01*
X78521Y-50969D01*
X78542Y-51020D01*
X78644Y-51121D01*
X78647Y-51125D01*
X78648Y-51125D01*
X78694Y-51171D01*
X78775Y-51205D01*
G54D10*
G36*
X78787Y-32210D02*
X78213Y-32210D01*
X78306Y-32172D01*
X78352Y-32125D01*
X78353Y-32125D01*
X78354Y-32123D01*
X78457Y-32020D01*
X78477Y-31971D01*
X78489Y-31957D01*
X78500Y-31919D01*
X78511Y-31957D01*
X78521Y-31969D01*
X78542Y-32020D01*
X78644Y-32121D01*
X78647Y-32125D01*
X78648Y-32125D01*
X78694Y-32171D01*
X78787Y-32210D01*
X78787Y-32210D01*
G37*
G54D30*
X78787Y-32210D02*
X78213Y-32210D01*
X78306Y-32172D01*
X78352Y-32125D01*
X78353Y-32125D01*
X78354Y-32123D01*
X78457Y-32020D01*
X78477Y-31971D01*
X78489Y-31957D01*
X78500Y-31919D01*
X78511Y-31957D01*
X78521Y-31969D01*
X78542Y-32020D01*
X78644Y-32121D01*
X78647Y-32125D01*
X78648Y-32125D01*
X78694Y-32171D01*
X78787Y-32210D01*
G54D10*
G36*
X78820Y-44003D02*
X78789Y-44034D01*
X78751Y-44125D01*
X78751Y-44224D01*
X78751Y-44364D01*
X78640Y-44253D01*
X78640Y-43175D01*
X78692Y-43175D01*
X78717Y-43180D01*
X78751Y-43180D01*
X78751Y-43224D01*
X78751Y-43374D01*
X78789Y-43466D01*
X78820Y-43497D01*
X78820Y-43503D01*
X78789Y-43534D01*
X78751Y-43625D01*
X78751Y-43724D01*
X78751Y-43874D01*
X78789Y-43966D01*
X78820Y-43997D01*
X78820Y-44003D01*
X78820Y-44003D01*
G37*
G54D30*
X78820Y-44003D02*
X78789Y-44034D01*
X78751Y-44125D01*
X78751Y-44224D01*
X78751Y-44364D01*
X78640Y-44253D01*
X78640Y-43175D01*
X78692Y-43175D01*
X78717Y-43180D01*
X78751Y-43180D01*
X78751Y-43224D01*
X78751Y-43374D01*
X78789Y-43466D01*
X78820Y-43497D01*
X78820Y-43503D01*
X78789Y-43534D01*
X78751Y-43625D01*
X78751Y-43724D01*
X78751Y-43874D01*
X78789Y-43966D01*
X78820Y-43997D01*
X78820Y-44003D01*
G54D10*
G36*
X78909Y-47175D02*
X78782Y-47175D01*
X78715Y-47074D01*
X77407Y-45766D01*
X77427Y-45759D01*
X77547Y-45639D01*
X77551Y-45629D01*
X77567Y-45645D01*
X77567Y-45744D01*
X77631Y-45900D01*
X77751Y-46020D01*
X77907Y-46085D01*
X78076Y-46085D01*
X78232Y-46021D01*
X78327Y-45925D01*
X78413Y-46054D01*
X78536Y-46136D01*
X78534Y-46138D01*
X78414Y-46258D01*
X78349Y-46414D01*
X78349Y-46583D01*
X78413Y-46739D01*
X78533Y-46859D01*
X78689Y-46924D01*
X78771Y-46924D01*
X78789Y-46966D01*
X78859Y-47036D01*
X78909Y-47056D01*
X78909Y-47175D01*
X78909Y-47175D01*
G37*
G54D30*
X78909Y-47175D02*
X78782Y-47175D01*
X78715Y-47074D01*
X77407Y-45766D01*
X77427Y-45759D01*
X77547Y-45639D01*
X77551Y-45629D01*
X77567Y-45645D01*
X77567Y-45744D01*
X77631Y-45900D01*
X77751Y-46020D01*
X77907Y-46085D01*
X78076Y-46085D01*
X78232Y-46021D01*
X78327Y-45925D01*
X78413Y-46054D01*
X78536Y-46136D01*
X78534Y-46138D01*
X78414Y-46258D01*
X78349Y-46414D01*
X78349Y-46583D01*
X78413Y-46739D01*
X78533Y-46859D01*
X78689Y-46924D01*
X78771Y-46924D01*
X78789Y-46966D01*
X78859Y-47036D01*
X78909Y-47056D01*
X78909Y-47175D01*
G54D10*
G36*
X79013Y-35665D02*
X78994Y-35674D01*
X78924Y-35744D01*
X78906Y-35786D01*
X78849Y-35729D01*
X78623Y-35635D01*
X78378Y-35635D01*
X78152Y-35729D01*
X77979Y-35901D01*
X77885Y-36127D01*
X77885Y-36256D01*
X77571Y-36570D01*
X76114Y-36570D01*
X76114Y-36566D01*
X76114Y-36518D01*
X76119Y-36518D01*
X76213Y-36455D01*
X78493Y-34175D01*
X78521Y-34203D01*
X78612Y-34241D01*
X78710Y-34241D01*
X78710Y-35242D01*
X78732Y-35353D01*
X78795Y-35447D01*
X79013Y-35665D01*
X79013Y-35665D01*
G37*
G54D30*
X79013Y-35665D02*
X78994Y-35674D01*
X78924Y-35744D01*
X78906Y-35786D01*
X78849Y-35729D01*
X78623Y-35635D01*
X78378Y-35635D01*
X78152Y-35729D01*
X77979Y-35901D01*
X77885Y-36127D01*
X77885Y-36256D01*
X77571Y-36570D01*
X76114Y-36570D01*
X76114Y-36566D01*
X76114Y-36518D01*
X76119Y-36518D01*
X76213Y-36455D01*
X78493Y-34175D01*
X78521Y-34203D01*
X78612Y-34241D01*
X78710Y-34241D01*
X78710Y-35242D01*
X78732Y-35353D01*
X78795Y-35447D01*
X79013Y-35665D01*
G54D10*
G36*
X79090Y-38234D02*
X77906Y-39419D01*
X77813Y-39558D01*
X77787Y-39688D01*
X77787Y-39153D01*
X77754Y-38989D01*
X77754Y-38988D01*
X77661Y-38849D01*
X76474Y-37662D01*
X77959Y-37662D01*
X78252Y-37955D01*
X78346Y-38018D01*
X78351Y-38018D01*
X78351Y-38034D01*
X78389Y-38126D01*
X78459Y-38196D01*
X78550Y-38234D01*
X78649Y-38234D01*
X79090Y-38234D01*
X79090Y-38234D01*
G37*
G54D30*
X79090Y-38234D02*
X77906Y-39419D01*
X77813Y-39558D01*
X77787Y-39688D01*
X77787Y-39153D01*
X77754Y-38989D01*
X77754Y-38988D01*
X77661Y-38849D01*
X76474Y-37662D01*
X77959Y-37662D01*
X78252Y-37955D01*
X78346Y-38018D01*
X78351Y-38018D01*
X78351Y-38034D01*
X78389Y-38126D01*
X78459Y-38196D01*
X78550Y-38234D01*
X78649Y-38234D01*
X79090Y-38234D01*
G54D10*
G36*
X79235Y-37328D02*
X79211Y-37304D01*
X79120Y-37266D01*
X79021Y-37266D01*
X78551Y-37266D01*
X78459Y-37304D01*
X78440Y-37323D01*
X78284Y-37167D01*
X78228Y-37129D01*
X78493Y-36865D01*
X78622Y-36865D01*
X78848Y-36771D01*
X78906Y-36713D01*
X78924Y-36756D01*
X78994Y-36826D01*
X79085Y-36864D01*
X79184Y-36864D01*
X79235Y-36864D01*
X79235Y-37328D01*
X79235Y-37328D01*
G37*
G54D30*
X79235Y-37328D02*
X79211Y-37304D01*
X79120Y-37266D01*
X79021Y-37266D01*
X78551Y-37266D01*
X78459Y-37304D01*
X78440Y-37323D01*
X78284Y-37167D01*
X78228Y-37129D01*
X78493Y-36865D01*
X78622Y-36865D01*
X78848Y-36771D01*
X78906Y-36713D01*
X78924Y-36756D01*
X78994Y-36826D01*
X79085Y-36864D01*
X79184Y-36864D01*
X79235Y-36864D01*
X79235Y-37328D01*
G54D10*
G36*
X79520Y-48035D02*
X78951Y-48604D01*
X78630Y-48604D01*
X78665Y-48568D01*
X78666Y-48567D01*
X78687Y-48554D01*
X78715Y-48526D01*
X78728Y-48505D01*
X78729Y-48504D01*
X78743Y-48491D01*
X78750Y-48472D01*
X78808Y-48387D01*
X78808Y-48386D01*
X78840Y-48222D01*
X78841Y-48222D01*
X78841Y-48035D01*
X79520Y-48035D01*
X79520Y-48035D01*
G37*
G54D30*
X79520Y-48035D02*
X78951Y-48604D01*
X78630Y-48604D01*
X78665Y-48568D01*
X78666Y-48567D01*
X78687Y-48554D01*
X78715Y-48526D01*
X78728Y-48505D01*
X78729Y-48504D01*
X78743Y-48491D01*
X78750Y-48472D01*
X78808Y-48387D01*
X78808Y-48386D01*
X78840Y-48222D01*
X78841Y-48222D01*
X78841Y-48035D01*
X79520Y-48035D01*
G54D10*
G36*
X79728Y-30795D02*
X79691Y-30832D01*
X79705Y-30846D01*
X79632Y-30919D01*
X79531Y-31159D01*
X79501Y-31085D01*
X79489Y-31043D01*
X79478Y-31030D01*
X79458Y-30980D01*
X79355Y-30878D01*
X79353Y-30875D01*
X79351Y-30874D01*
X79306Y-30829D01*
X79224Y-30795D01*
X79728Y-30795D01*
X79728Y-30795D01*
G37*
G54D30*
X79728Y-30795D02*
X79691Y-30832D01*
X79705Y-30846D01*
X79632Y-30919D01*
X79531Y-31159D01*
X79501Y-31085D01*
X79489Y-31043D01*
X79478Y-31030D01*
X79458Y-30980D01*
X79355Y-30878D01*
X79353Y-30875D01*
X79351Y-30874D01*
X79306Y-30829D01*
X79224Y-30795D01*
X79728Y-30795D01*
G54D10*
G36*
X79733Y-32210D02*
X79213Y-32210D01*
X79306Y-32172D01*
X79352Y-32125D01*
X79353Y-32125D01*
X79354Y-32123D01*
X79457Y-32020D01*
X79477Y-31971D01*
X79489Y-31957D01*
X79502Y-31912D01*
X79532Y-31840D01*
X79631Y-32080D01*
X79705Y-32154D01*
X79691Y-32168D01*
X79733Y-32210D01*
X79733Y-32210D01*
G37*
G54D30*
X79733Y-32210D02*
X79213Y-32210D01*
X79306Y-32172D01*
X79352Y-32125D01*
X79353Y-32125D01*
X79354Y-32123D01*
X79457Y-32020D01*
X79477Y-31971D01*
X79489Y-31957D01*
X79502Y-31912D01*
X79532Y-31840D01*
X79631Y-32080D01*
X79705Y-32154D01*
X79691Y-32168D01*
X79733Y-32210D01*
G54D10*
G36*
X79775Y-51205D02*
X79225Y-51205D01*
X79306Y-51172D01*
X79352Y-51125D01*
X79353Y-51125D01*
X79354Y-51123D01*
X79457Y-51020D01*
X79477Y-50971D01*
X79489Y-50957D01*
X79500Y-50919D01*
X79511Y-50957D01*
X79521Y-50969D01*
X79542Y-51020D01*
X79644Y-51121D01*
X79647Y-51125D01*
X79648Y-51125D01*
X79694Y-51171D01*
X79775Y-51205D01*
X79775Y-51205D01*
G37*
G54D30*
X79775Y-51205D02*
X79225Y-51205D01*
X79306Y-51172D01*
X79352Y-51125D01*
X79353Y-51125D01*
X79354Y-51123D01*
X79457Y-51020D01*
X79477Y-50971D01*
X79489Y-50957D01*
X79500Y-50919D01*
X79511Y-50957D01*
X79521Y-50969D01*
X79542Y-51020D01*
X79644Y-51121D01*
X79647Y-51125D01*
X79648Y-51125D01*
X79694Y-51171D01*
X79775Y-51205D01*
G54D10*
G36*
X80052Y-44422D02*
X79948Y-44353D01*
X79783Y-44320D01*
X79749Y-44320D01*
X79749Y-44276D01*
X79749Y-44126D01*
X79711Y-44034D01*
X79680Y-44003D01*
X79680Y-43997D01*
X79711Y-43966D01*
X79749Y-43875D01*
X79749Y-43776D01*
X79749Y-43626D01*
X79711Y-43534D01*
X79680Y-43503D01*
X79680Y-43497D01*
X79711Y-43466D01*
X79749Y-43375D01*
X79749Y-43276D01*
X79749Y-43126D01*
X79711Y-43034D01*
X79677Y-43000D01*
X79711Y-42966D01*
X79749Y-42875D01*
X79749Y-42776D01*
X79749Y-42715D01*
X79841Y-42715D01*
X79866Y-42710D01*
X79925Y-42710D01*
X79981Y-42686D01*
X80006Y-42682D01*
X80026Y-42668D01*
X80052Y-42657D01*
X80052Y-44422D01*
X80052Y-44422D01*
G37*
G54D30*
X80052Y-44422D02*
X79948Y-44353D01*
X79783Y-44320D01*
X79749Y-44320D01*
X79749Y-44276D01*
X79749Y-44126D01*
X79711Y-44034D01*
X79680Y-44003D01*
X79680Y-43997D01*
X79711Y-43966D01*
X79749Y-43875D01*
X79749Y-43776D01*
X79749Y-43626D01*
X79711Y-43534D01*
X79680Y-43503D01*
X79680Y-43497D01*
X79711Y-43466D01*
X79749Y-43375D01*
X79749Y-43276D01*
X79749Y-43126D01*
X79711Y-43034D01*
X79677Y-43000D01*
X79711Y-42966D01*
X79749Y-42875D01*
X79749Y-42776D01*
X79749Y-42715D01*
X79841Y-42715D01*
X79866Y-42710D01*
X79925Y-42710D01*
X79981Y-42686D01*
X80006Y-42682D01*
X80026Y-42668D01*
X80052Y-42657D01*
X80052Y-44422D01*
G54D10*
G36*
X80775Y-51205D02*
X80225Y-51205D01*
X80306Y-51172D01*
X80352Y-51125D01*
X80353Y-51125D01*
X80354Y-51123D01*
X80457Y-51020D01*
X80477Y-50971D01*
X80489Y-50957D01*
X80500Y-50919D01*
X80511Y-50957D01*
X80521Y-50969D01*
X80542Y-51020D01*
X80644Y-51121D01*
X80647Y-51125D01*
X80648Y-51125D01*
X80694Y-51171D01*
X80775Y-51205D01*
X80775Y-51205D01*
G37*
G54D30*
X80775Y-51205D02*
X80225Y-51205D01*
X80306Y-51172D01*
X80352Y-51125D01*
X80353Y-51125D01*
X80354Y-51123D01*
X80457Y-51020D01*
X80477Y-50971D01*
X80489Y-50957D01*
X80500Y-50919D01*
X80511Y-50957D01*
X80521Y-50969D01*
X80542Y-51020D01*
X80644Y-51121D01*
X80647Y-51125D01*
X80648Y-51125D01*
X80694Y-51171D01*
X80775Y-51205D01*
G54D10*
G36*
X81520Y-46224D02*
X81451Y-46391D01*
X81451Y-46609D01*
X81459Y-46630D01*
X81092Y-46998D01*
X81029Y-47092D01*
X81007Y-47203D01*
X81007Y-47215D01*
X80912Y-47310D01*
X80912Y-42261D01*
X81254Y-42603D01*
X81254Y-45922D01*
X81276Y-46033D01*
X81339Y-46127D01*
X81361Y-46149D01*
X81455Y-46212D01*
X81520Y-46224D01*
X81520Y-46224D01*
G37*
G54D30*
X81520Y-46224D02*
X81451Y-46391D01*
X81451Y-46609D01*
X81459Y-46630D01*
X81092Y-46998D01*
X81029Y-47092D01*
X81007Y-47203D01*
X81007Y-47215D01*
X80912Y-47310D01*
X80912Y-42261D01*
X81254Y-42603D01*
X81254Y-45922D01*
X81276Y-46033D01*
X81339Y-46127D01*
X81361Y-46149D01*
X81455Y-46212D01*
X81520Y-46224D01*
G54D10*
G36*
X81773Y-32000D02*
X81689Y-32035D01*
X81535Y-32189D01*
X81526Y-32210D01*
X81267Y-32210D01*
X81309Y-32168D01*
X81295Y-32154D01*
X81368Y-32081D01*
X81507Y-31745D01*
X81535Y-31811D01*
X81689Y-31965D01*
X81773Y-32000D01*
X81773Y-32000D01*
G37*
G54D30*
X81773Y-32000D02*
X81689Y-32035D01*
X81535Y-32189D01*
X81526Y-32210D01*
X81267Y-32210D01*
X81309Y-32168D01*
X81295Y-32154D01*
X81368Y-32081D01*
X81507Y-31745D01*
X81535Y-31811D01*
X81689Y-31965D01*
X81773Y-32000D01*
G54D10*
G36*
X81773Y-42000D02*
X81689Y-42035D01*
X81597Y-42126D01*
X80516Y-41045D01*
X80422Y-40982D01*
X80311Y-40960D01*
X79631Y-40960D01*
X79550Y-40926D01*
X79451Y-40926D01*
X78951Y-40926D01*
X78859Y-40964D01*
X78789Y-41034D01*
X78751Y-41125D01*
X78751Y-41224D01*
X78751Y-41374D01*
X78789Y-41466D01*
X78823Y-41500D01*
X78789Y-41534D01*
X78751Y-41625D01*
X78751Y-41724D01*
X78751Y-41874D01*
X78789Y-41966D01*
X78823Y-42000D01*
X78789Y-42034D01*
X78751Y-42125D01*
X78751Y-42224D01*
X78751Y-42320D01*
X78717Y-42320D01*
X78692Y-42325D01*
X78640Y-42325D01*
X78640Y-39901D01*
X79969Y-38573D01*
X79969Y-38572D01*
X80062Y-38433D01*
X80094Y-38268D01*
X80095Y-38268D01*
X80095Y-38142D01*
X80111Y-38126D01*
X80149Y-38035D01*
X80149Y-37936D01*
X80149Y-37466D01*
X80111Y-37374D01*
X80095Y-37358D01*
X80095Y-36710D01*
X80114Y-36665D01*
X80114Y-36566D01*
X80114Y-35836D01*
X80076Y-35744D01*
X80006Y-35674D01*
X79915Y-35636D01*
X79816Y-35636D01*
X79768Y-35636D01*
X79768Y-35631D01*
X79705Y-35537D01*
X79290Y-35122D01*
X79290Y-34242D01*
X79356Y-34242D01*
X79356Y-34241D01*
X79358Y-34241D01*
X79359Y-34242D01*
X79387Y-34241D01*
X79479Y-34203D01*
X79549Y-34133D01*
X79587Y-34042D01*
X79587Y-33985D01*
X79587Y-33943D01*
X79587Y-33805D01*
X79587Y-33763D01*
X79587Y-33707D01*
X79587Y-33706D01*
X79549Y-33615D01*
X79479Y-33545D01*
X79388Y-33507D01*
X79387Y-33507D01*
X79359Y-33506D01*
X79358Y-33507D01*
X79289Y-33507D01*
X79154Y-33507D01*
X79153Y-33506D01*
X79125Y-33507D01*
X79033Y-33507D01*
X78876Y-33507D01*
X78869Y-33507D01*
X78777Y-33507D01*
X78613Y-33507D01*
X78521Y-33545D01*
X78482Y-33584D01*
X78384Y-33584D01*
X78273Y-33606D01*
X78179Y-33669D01*
X76084Y-35763D01*
X76076Y-35744D01*
X76006Y-35674D01*
X75915Y-35636D01*
X75816Y-35636D01*
X75524Y-35636D01*
X77744Y-33416D01*
X78482Y-33416D01*
X78521Y-33455D01*
X78612Y-33493D01*
X78711Y-33493D01*
X78868Y-33493D01*
X78875Y-33493D01*
X78967Y-33493D01*
X79124Y-33493D01*
X79125Y-33493D01*
X79131Y-33493D01*
X79153Y-33494D01*
X79154Y-33493D01*
X79223Y-33493D01*
X79358Y-33493D01*
X79359Y-33494D01*
X79387Y-33493D01*
X79479Y-33455D01*
X79549Y-33385D01*
X79587Y-33294D01*
X79587Y-33237D01*
X79587Y-33226D01*
X79588Y-33226D01*
X79588Y-33154D01*
X80409Y-33154D01*
X80460Y-33205D01*
X80554Y-33268D01*
X80665Y-33290D01*
X81493Y-33290D01*
X81451Y-33391D01*
X81451Y-33609D01*
X81535Y-33811D01*
X81689Y-33965D01*
X81773Y-34000D01*
X81689Y-34035D01*
X81535Y-34189D01*
X81451Y-34391D01*
X81451Y-34609D01*
X81535Y-34811D01*
X81689Y-34965D01*
X81773Y-35000D01*
X81689Y-35035D01*
X81535Y-35189D01*
X81451Y-35391D01*
X81451Y-35609D01*
X81535Y-35811D01*
X81689Y-35965D01*
X81773Y-36000D01*
X81689Y-36035D01*
X81535Y-36189D01*
X81451Y-36391D01*
X81451Y-36609D01*
X81535Y-36811D01*
X81689Y-36965D01*
X81773Y-37000D01*
X81689Y-37035D01*
X81535Y-37189D01*
X81451Y-37391D01*
X81451Y-37609D01*
X81535Y-37811D01*
X81689Y-37965D01*
X81773Y-38000D01*
X81689Y-38035D01*
X81535Y-38189D01*
X81451Y-38391D01*
X81451Y-38609D01*
X81535Y-38811D01*
X81689Y-38965D01*
X81773Y-39000D01*
X81689Y-39035D01*
X81535Y-39189D01*
X81451Y-39391D01*
X81451Y-39609D01*
X81535Y-39811D01*
X81689Y-39965D01*
X81773Y-40000D01*
X81689Y-40035D01*
X81535Y-40189D01*
X81451Y-40391D01*
X81451Y-40609D01*
X81535Y-40811D01*
X81689Y-40965D01*
X81773Y-41000D01*
X81689Y-41035D01*
X81535Y-41189D01*
X81451Y-41391D01*
X81451Y-41609D01*
X81535Y-41811D01*
X81689Y-41965D01*
X81773Y-42000D01*
X81773Y-42000D01*
G37*
G54D30*
X81773Y-42000D02*
X81689Y-42035D01*
X81597Y-42126D01*
X80516Y-41045D01*
X80422Y-40982D01*
X80311Y-40960D01*
X79631Y-40960D01*
X79550Y-40926D01*
X79451Y-40926D01*
X78951Y-40926D01*
X78859Y-40964D01*
X78789Y-41034D01*
X78751Y-41125D01*
X78751Y-41224D01*
X78751Y-41374D01*
X78789Y-41466D01*
X78823Y-41500D01*
X78789Y-41534D01*
X78751Y-41625D01*
X78751Y-41724D01*
X78751Y-41874D01*
X78789Y-41966D01*
X78823Y-42000D01*
X78789Y-42034D01*
X78751Y-42125D01*
X78751Y-42224D01*
X78751Y-42320D01*
X78717Y-42320D01*
X78692Y-42325D01*
X78640Y-42325D01*
X78640Y-39901D01*
X79969Y-38573D01*
X79969Y-38572D01*
X80062Y-38433D01*
X80094Y-38268D01*
X80095Y-38268D01*
X80095Y-38142D01*
X80111Y-38126D01*
X80149Y-38035D01*
X80149Y-37936D01*
X80149Y-37466D01*
X80111Y-37374D01*
X80095Y-37358D01*
X80095Y-36710D01*
X80114Y-36665D01*
X80114Y-36566D01*
X80114Y-35836D01*
X80076Y-35744D01*
X80006Y-35674D01*
X79915Y-35636D01*
X79816Y-35636D01*
X79768Y-35636D01*
X79768Y-35631D01*
X79705Y-35537D01*
X79290Y-35122D01*
X79290Y-34242D01*
X79356Y-34242D01*
X79356Y-34241D01*
X79358Y-34241D01*
X79359Y-34242D01*
X79387Y-34241D01*
X79479Y-34203D01*
X79549Y-34133D01*
X79587Y-34042D01*
X79587Y-33985D01*
X79587Y-33943D01*
X79587Y-33805D01*
X79587Y-33763D01*
X79587Y-33707D01*
X79587Y-33706D01*
X79549Y-33615D01*
X79479Y-33545D01*
X79388Y-33507D01*
X79387Y-33507D01*
X79359Y-33506D01*
X79358Y-33507D01*
X79289Y-33507D01*
X79154Y-33507D01*
X79153Y-33506D01*
X79125Y-33507D01*
X79033Y-33507D01*
X78876Y-33507D01*
X78869Y-33507D01*
X78777Y-33507D01*
X78613Y-33507D01*
X78521Y-33545D01*
X78482Y-33584D01*
X78384Y-33584D01*
X78273Y-33606D01*
X78179Y-33669D01*
X76084Y-35763D01*
X76076Y-35744D01*
X76006Y-35674D01*
X75915Y-35636D01*
X75816Y-35636D01*
X75524Y-35636D01*
X77744Y-33416D01*
X78482Y-33416D01*
X78521Y-33455D01*
X78612Y-33493D01*
X78711Y-33493D01*
X78868Y-33493D01*
X78875Y-33493D01*
X78967Y-33493D01*
X79124Y-33493D01*
X79125Y-33493D01*
X79131Y-33493D01*
X79153Y-33494D01*
X79154Y-33493D01*
X79223Y-33493D01*
X79358Y-33493D01*
X79359Y-33494D01*
X79387Y-33493D01*
X79479Y-33455D01*
X79549Y-33385D01*
X79587Y-33294D01*
X79587Y-33237D01*
X79587Y-33226D01*
X79588Y-33226D01*
X79588Y-33154D01*
X80409Y-33154D01*
X80460Y-33205D01*
X80554Y-33268D01*
X80665Y-33290D01*
X81493Y-33290D01*
X81451Y-33391D01*
X81451Y-33609D01*
X81535Y-33811D01*
X81689Y-33965D01*
X81773Y-34000D01*
X81689Y-34035D01*
X81535Y-34189D01*
X81451Y-34391D01*
X81451Y-34609D01*
X81535Y-34811D01*
X81689Y-34965D01*
X81773Y-35000D01*
X81689Y-35035D01*
X81535Y-35189D01*
X81451Y-35391D01*
X81451Y-35609D01*
X81535Y-35811D01*
X81689Y-35965D01*
X81773Y-36000D01*
X81689Y-36035D01*
X81535Y-36189D01*
X81451Y-36391D01*
X81451Y-36609D01*
X81535Y-36811D01*
X81689Y-36965D01*
X81773Y-37000D01*
X81689Y-37035D01*
X81535Y-37189D01*
X81451Y-37391D01*
X81451Y-37609D01*
X81535Y-37811D01*
X81689Y-37965D01*
X81773Y-38000D01*
X81689Y-38035D01*
X81535Y-38189D01*
X81451Y-38391D01*
X81451Y-38609D01*
X81535Y-38811D01*
X81689Y-38965D01*
X81773Y-39000D01*
X81689Y-39035D01*
X81535Y-39189D01*
X81451Y-39391D01*
X81451Y-39609D01*
X81535Y-39811D01*
X81689Y-39965D01*
X81773Y-40000D01*
X81689Y-40035D01*
X81535Y-40189D01*
X81451Y-40391D01*
X81451Y-40609D01*
X81535Y-40811D01*
X81689Y-40965D01*
X81773Y-41000D01*
X81689Y-41035D01*
X81535Y-41189D01*
X81451Y-41391D01*
X81451Y-41609D01*
X81535Y-41811D01*
X81689Y-41965D01*
X81773Y-42000D01*
G54D10*
G36*
X81773Y-48000D02*
X81689Y-48035D01*
X81535Y-48189D01*
X81451Y-48391D01*
X81451Y-48519D01*
X81310Y-48378D01*
X81289Y-48364D01*
X81247Y-48322D01*
X81189Y-48298D01*
X81170Y-48285D01*
X81147Y-48280D01*
X81119Y-48268D01*
X81555Y-47831D01*
X81689Y-47965D01*
X81773Y-48000D01*
X81773Y-48000D01*
G37*
G54D30*
X81773Y-48000D02*
X81689Y-48035D01*
X81535Y-48189D01*
X81451Y-48391D01*
X81451Y-48519D01*
X81310Y-48378D01*
X81289Y-48364D01*
X81247Y-48322D01*
X81189Y-48298D01*
X81170Y-48285D01*
X81147Y-48280D01*
X81119Y-48268D01*
X81555Y-47831D01*
X81689Y-47965D01*
X81773Y-48000D01*
G54D10*
G36*
X82500Y-48728D02*
X82499Y-48728D01*
X82500Y-48726D01*
X82500Y-48728D01*
X82500Y-48728D01*
G37*
G54D30*
X82500Y-48728D02*
X82499Y-48728D01*
X82500Y-48726D01*
X82500Y-48728D01*
G54D10*
G36*
X82523Y-47216D02*
X82500Y-47273D01*
X82479Y-47224D01*
X82523Y-47216D01*
X82523Y-47216D01*
G37*
G54D30*
X82523Y-47216D02*
X82500Y-47273D01*
X82479Y-47224D01*
X82523Y-47216D01*
G54D10*
G36*
X82523Y-49588D02*
X82420Y-49631D01*
X82132Y-49919D01*
X81975Y-50295D01*
X81975Y-50703D01*
X82131Y-51080D01*
X82205Y-51154D01*
X82191Y-51168D01*
X82228Y-51205D01*
X81225Y-51205D01*
X81306Y-51172D01*
X81352Y-51125D01*
X81353Y-51125D01*
X81354Y-51123D01*
X81457Y-51020D01*
X81477Y-50971D01*
X81489Y-50957D01*
X81502Y-50912D01*
X81540Y-50822D01*
X81540Y-50783D01*
X81550Y-50750D01*
X81550Y-50550D01*
X81540Y-50550D01*
X81540Y-50450D01*
X81550Y-50450D01*
X81550Y-50250D01*
X81540Y-50216D01*
X81540Y-50179D01*
X81501Y-50085D01*
X81489Y-50043D01*
X81478Y-50030D01*
X81458Y-49980D01*
X81355Y-49878D01*
X81353Y-49875D01*
X81351Y-49874D01*
X81306Y-49829D01*
X81108Y-49746D01*
X80893Y-49746D01*
X80694Y-49828D01*
X80647Y-49874D01*
X80647Y-49875D01*
X80645Y-49876D01*
X80543Y-49980D01*
X80522Y-50028D01*
X80511Y-50043D01*
X80500Y-50080D01*
X80489Y-50043D01*
X80478Y-50030D01*
X80458Y-49980D01*
X80355Y-49878D01*
X80353Y-49875D01*
X80351Y-49874D01*
X80306Y-49829D01*
X80108Y-49746D01*
X79893Y-49746D01*
X79694Y-49828D01*
X79647Y-49874D01*
X79647Y-49875D01*
X79645Y-49876D01*
X79543Y-49980D01*
X79522Y-50028D01*
X79511Y-50043D01*
X79500Y-50080D01*
X79489Y-50043D01*
X79478Y-50030D01*
X79458Y-49980D01*
X79432Y-49954D01*
X80592Y-48794D01*
X80604Y-48822D01*
X80609Y-48846D01*
X80621Y-48864D01*
X80645Y-48922D01*
X80688Y-48965D01*
X80702Y-48986D01*
X81178Y-49462D01*
X81317Y-49555D01*
X81318Y-49555D01*
X81482Y-49588D01*
X82523Y-49588D01*
X82523Y-49588D01*
G37*
G54D30*
X82523Y-49588D02*
X82420Y-49631D01*
X82132Y-49919D01*
X81975Y-50295D01*
X81975Y-50703D01*
X82131Y-51080D01*
X82205Y-51154D01*
X82191Y-51168D01*
X82228Y-51205D01*
X81225Y-51205D01*
X81306Y-51172D01*
X81352Y-51125D01*
X81353Y-51125D01*
X81354Y-51123D01*
X81457Y-51020D01*
X81477Y-50971D01*
X81489Y-50957D01*
X81502Y-50912D01*
X81540Y-50822D01*
X81540Y-50783D01*
X81550Y-50750D01*
X81550Y-50550D01*
X81540Y-50550D01*
X81540Y-50450D01*
X81550Y-50450D01*
X81550Y-50250D01*
X81540Y-50216D01*
X81540Y-50179D01*
X81501Y-50085D01*
X81489Y-50043D01*
X81478Y-50030D01*
X81458Y-49980D01*
X81355Y-49878D01*
X81353Y-49875D01*
X81351Y-49874D01*
X81306Y-49829D01*
X81108Y-49746D01*
X80893Y-49746D01*
X80694Y-49828D01*
X80647Y-49874D01*
X80647Y-49875D01*
X80645Y-49876D01*
X80543Y-49980D01*
X80522Y-50028D01*
X80511Y-50043D01*
X80500Y-50080D01*
X80489Y-50043D01*
X80478Y-50030D01*
X80458Y-49980D01*
X80355Y-49878D01*
X80353Y-49875D01*
X80351Y-49874D01*
X80306Y-49829D01*
X80108Y-49746D01*
X79893Y-49746D01*
X79694Y-49828D01*
X79647Y-49874D01*
X79647Y-49875D01*
X79645Y-49876D01*
X79543Y-49980D01*
X79522Y-50028D01*
X79511Y-50043D01*
X79500Y-50080D01*
X79489Y-50043D01*
X79478Y-50030D01*
X79458Y-49980D01*
X79432Y-49954D01*
X80592Y-48794D01*
X80604Y-48822D01*
X80609Y-48846D01*
X80621Y-48864D01*
X80645Y-48922D01*
X80688Y-48965D01*
X80702Y-48986D01*
X81178Y-49462D01*
X81317Y-49555D01*
X81318Y-49555D01*
X81482Y-49588D01*
X82523Y-49588D01*
G54D10*
G36*
X82773Y-32000D02*
X82689Y-32035D01*
X82535Y-32189D01*
X82500Y-32273D01*
X82465Y-32189D01*
X82311Y-32035D01*
X82226Y-32000D01*
X82311Y-31965D01*
X82465Y-31811D01*
X82500Y-31726D01*
X82535Y-31811D01*
X82689Y-31965D01*
X82773Y-32000D01*
X82773Y-32000D01*
G37*
G54D30*
X82773Y-32000D02*
X82689Y-32035D01*
X82535Y-32189D01*
X82500Y-32273D01*
X82465Y-32189D01*
X82311Y-32035D01*
X82226Y-32000D01*
X82311Y-31965D01*
X82465Y-31811D01*
X82500Y-31726D01*
X82535Y-31811D01*
X82689Y-31965D01*
X82773Y-32000D01*
G54D10*
G36*
X82773Y-34000D02*
X82689Y-34035D01*
X82535Y-34189D01*
X82500Y-34273D01*
X82465Y-34189D01*
X82311Y-34035D01*
X82226Y-34000D01*
X82311Y-33965D01*
X82465Y-33811D01*
X82500Y-33726D01*
X82535Y-33811D01*
X82689Y-33965D01*
X82773Y-34000D01*
X82773Y-34000D01*
G37*
G54D30*
X82773Y-34000D02*
X82689Y-34035D01*
X82535Y-34189D01*
X82500Y-34273D01*
X82465Y-34189D01*
X82311Y-34035D01*
X82226Y-34000D01*
X82311Y-33965D01*
X82465Y-33811D01*
X82500Y-33726D01*
X82535Y-33811D01*
X82689Y-33965D01*
X82773Y-34000D01*
G54D10*
G36*
X82773Y-35000D02*
X82689Y-35035D01*
X82535Y-35189D01*
X82500Y-35273D01*
X82465Y-35189D01*
X82311Y-35035D01*
X82226Y-35000D01*
X82311Y-34965D01*
X82465Y-34811D01*
X82500Y-34726D01*
X82535Y-34811D01*
X82689Y-34965D01*
X82773Y-35000D01*
X82773Y-35000D01*
G37*
G54D30*
X82773Y-35000D02*
X82689Y-35035D01*
X82535Y-35189D01*
X82500Y-35273D01*
X82465Y-35189D01*
X82311Y-35035D01*
X82226Y-35000D01*
X82311Y-34965D01*
X82465Y-34811D01*
X82500Y-34726D01*
X82535Y-34811D01*
X82689Y-34965D01*
X82773Y-35000D01*
G54D10*
G36*
X82773Y-36000D02*
X82689Y-36035D01*
X82535Y-36189D01*
X82500Y-36273D01*
X82465Y-36189D01*
X82311Y-36035D01*
X82226Y-36000D01*
X82311Y-35965D01*
X82465Y-35811D01*
X82500Y-35726D01*
X82535Y-35811D01*
X82689Y-35965D01*
X82773Y-36000D01*
X82773Y-36000D01*
G37*
G54D30*
X82773Y-36000D02*
X82689Y-36035D01*
X82535Y-36189D01*
X82500Y-36273D01*
X82465Y-36189D01*
X82311Y-36035D01*
X82226Y-36000D01*
X82311Y-35965D01*
X82465Y-35811D01*
X82500Y-35726D01*
X82535Y-35811D01*
X82689Y-35965D01*
X82773Y-36000D01*
G54D10*
G36*
X82773Y-37000D02*
X82689Y-37035D01*
X82535Y-37189D01*
X82500Y-37273D01*
X82465Y-37189D01*
X82311Y-37035D01*
X82226Y-37000D01*
X82311Y-36965D01*
X82465Y-36811D01*
X82500Y-36726D01*
X82535Y-36811D01*
X82689Y-36965D01*
X82773Y-37000D01*
X82773Y-37000D01*
G37*
G54D30*
X82773Y-37000D02*
X82689Y-37035D01*
X82535Y-37189D01*
X82500Y-37273D01*
X82465Y-37189D01*
X82311Y-37035D01*
X82226Y-37000D01*
X82311Y-36965D01*
X82465Y-36811D01*
X82500Y-36726D01*
X82535Y-36811D01*
X82689Y-36965D01*
X82773Y-37000D01*
G54D10*
G36*
X82773Y-38000D02*
X82689Y-38035D01*
X82535Y-38189D01*
X82500Y-38273D01*
X82465Y-38189D01*
X82311Y-38035D01*
X82226Y-38000D01*
X82311Y-37965D01*
X82465Y-37811D01*
X82500Y-37726D01*
X82535Y-37811D01*
X82689Y-37965D01*
X82773Y-38000D01*
X82773Y-38000D01*
G37*
G54D30*
X82773Y-38000D02*
X82689Y-38035D01*
X82535Y-38189D01*
X82500Y-38273D01*
X82465Y-38189D01*
X82311Y-38035D01*
X82226Y-38000D01*
X82311Y-37965D01*
X82465Y-37811D01*
X82500Y-37726D01*
X82535Y-37811D01*
X82689Y-37965D01*
X82773Y-38000D01*
G54D10*
G36*
X82773Y-39000D02*
X82689Y-39035D01*
X82535Y-39189D01*
X82500Y-39273D01*
X82465Y-39189D01*
X82311Y-39035D01*
X82226Y-39000D01*
X82311Y-38965D01*
X82465Y-38811D01*
X82500Y-38726D01*
X82535Y-38811D01*
X82689Y-38965D01*
X82773Y-39000D01*
X82773Y-39000D01*
G37*
G54D30*
X82773Y-39000D02*
X82689Y-39035D01*
X82535Y-39189D01*
X82500Y-39273D01*
X82465Y-39189D01*
X82311Y-39035D01*
X82226Y-39000D01*
X82311Y-38965D01*
X82465Y-38811D01*
X82500Y-38726D01*
X82535Y-38811D01*
X82689Y-38965D01*
X82773Y-39000D01*
G54D10*
G36*
X82773Y-40000D02*
X82689Y-40035D01*
X82535Y-40189D01*
X82500Y-40273D01*
X82465Y-40189D01*
X82311Y-40035D01*
X82226Y-40000D01*
X82311Y-39965D01*
X82465Y-39811D01*
X82500Y-39726D01*
X82535Y-39811D01*
X82689Y-39965D01*
X82773Y-40000D01*
X82773Y-40000D01*
G37*
G54D30*
X82773Y-40000D02*
X82689Y-40035D01*
X82535Y-40189D01*
X82500Y-40273D01*
X82465Y-40189D01*
X82311Y-40035D01*
X82226Y-40000D01*
X82311Y-39965D01*
X82465Y-39811D01*
X82500Y-39726D01*
X82535Y-39811D01*
X82689Y-39965D01*
X82773Y-40000D01*
G54D10*
G36*
X82773Y-41000D02*
X82689Y-41035D01*
X82535Y-41189D01*
X82500Y-41273D01*
X82465Y-41189D01*
X82311Y-41035D01*
X82226Y-41000D01*
X82311Y-40965D01*
X82465Y-40811D01*
X82500Y-40726D01*
X82535Y-40811D01*
X82689Y-40965D01*
X82773Y-41000D01*
X82773Y-41000D01*
G37*
G54D30*
X82773Y-41000D02*
X82689Y-41035D01*
X82535Y-41189D01*
X82500Y-41273D01*
X82465Y-41189D01*
X82311Y-41035D01*
X82226Y-41000D01*
X82311Y-40965D01*
X82465Y-40811D01*
X82500Y-40726D01*
X82535Y-40811D01*
X82689Y-40965D01*
X82773Y-41000D01*
G54D10*
G36*
X82773Y-42000D02*
X82689Y-42035D01*
X82535Y-42189D01*
X82500Y-42273D01*
X82465Y-42189D01*
X82311Y-42035D01*
X82226Y-42000D01*
X82311Y-41965D01*
X82465Y-41811D01*
X82500Y-41726D01*
X82535Y-41811D01*
X82689Y-41965D01*
X82773Y-42000D01*
X82773Y-42000D01*
G37*
G54D30*
X82773Y-42000D02*
X82689Y-42035D01*
X82535Y-42189D01*
X82500Y-42273D01*
X82465Y-42189D01*
X82311Y-42035D01*
X82226Y-42000D01*
X82311Y-41965D01*
X82465Y-41811D01*
X82500Y-41726D01*
X82535Y-41811D01*
X82689Y-41965D01*
X82773Y-42000D01*
G54D10*
G36*
X82773Y-43000D02*
X82689Y-43035D01*
X82535Y-43189D01*
X82500Y-43273D01*
X82465Y-43189D01*
X82311Y-43035D01*
X82226Y-43000D01*
X82311Y-42965D01*
X82465Y-42811D01*
X82500Y-42726D01*
X82535Y-42811D01*
X82689Y-42965D01*
X82773Y-43000D01*
X82773Y-43000D01*
G37*
G54D30*
X82773Y-43000D02*
X82689Y-43035D01*
X82535Y-43189D01*
X82500Y-43273D01*
X82465Y-43189D01*
X82311Y-43035D01*
X82226Y-43000D01*
X82311Y-42965D01*
X82465Y-42811D01*
X82500Y-42726D01*
X82535Y-42811D01*
X82689Y-42965D01*
X82773Y-43000D01*
G54D10*
G36*
X82773Y-44000D02*
X82689Y-44035D01*
X82535Y-44189D01*
X82500Y-44273D01*
X82465Y-44189D01*
X82311Y-44035D01*
X82226Y-44000D01*
X82311Y-43965D01*
X82465Y-43811D01*
X82500Y-43726D01*
X82535Y-43811D01*
X82689Y-43965D01*
X82773Y-44000D01*
X82773Y-44000D01*
G37*
G54D30*
X82773Y-44000D02*
X82689Y-44035D01*
X82535Y-44189D01*
X82500Y-44273D01*
X82465Y-44189D01*
X82311Y-44035D01*
X82226Y-44000D01*
X82311Y-43965D01*
X82465Y-43811D01*
X82500Y-43726D01*
X82535Y-43811D01*
X82689Y-43965D01*
X82773Y-44000D01*
G54D10*
G36*
X82773Y-45000D02*
X82689Y-45035D01*
X82535Y-45189D01*
X82500Y-45273D01*
X82465Y-45189D01*
X82311Y-45035D01*
X82226Y-45000D01*
X82311Y-44965D01*
X82465Y-44811D01*
X82500Y-44726D01*
X82535Y-44811D01*
X82689Y-44965D01*
X82773Y-45000D01*
X82773Y-45000D01*
G37*
G54D30*
X82773Y-45000D02*
X82689Y-45035D01*
X82535Y-45189D01*
X82500Y-45273D01*
X82465Y-45189D01*
X82311Y-45035D01*
X82226Y-45000D01*
X82311Y-44965D01*
X82465Y-44811D01*
X82500Y-44726D01*
X82535Y-44811D01*
X82689Y-44965D01*
X82773Y-45000D01*
G54D10*
G36*
X82773Y-46000D02*
X82689Y-46035D01*
X82666Y-46057D01*
X82661Y-46049D01*
X82444Y-45832D01*
X82465Y-45811D01*
X82500Y-45726D01*
X82535Y-45811D01*
X82689Y-45965D01*
X82773Y-46000D01*
X82773Y-46000D01*
G37*
G54D30*
X82773Y-46000D02*
X82689Y-46035D01*
X82666Y-46057D01*
X82661Y-46049D01*
X82444Y-45832D01*
X82465Y-45811D01*
X82500Y-45726D01*
X82535Y-45811D01*
X82689Y-45965D01*
X82773Y-46000D01*
G54D10*
G36*
X82773Y-47000D02*
X82726Y-47019D01*
X82733Y-46983D01*
X82773Y-47000D01*
X82773Y-47000D01*
G37*
G54D30*
X82773Y-47000D02*
X82726Y-47019D01*
X82733Y-46983D01*
X82773Y-47000D01*
G54D10*
G36*
X82773Y-48000D02*
X82689Y-48035D01*
X82535Y-48189D01*
X82500Y-48273D01*
X82465Y-48189D01*
X82311Y-48035D01*
X82226Y-48000D01*
X82311Y-47965D01*
X82465Y-47811D01*
X82500Y-47726D01*
X82535Y-47811D01*
X82689Y-47965D01*
X82773Y-48000D01*
X82773Y-48000D01*
G37*
G54D30*
X82773Y-48000D02*
X82689Y-48035D01*
X82535Y-48189D01*
X82500Y-48273D01*
X82465Y-48189D01*
X82311Y-48035D01*
X82226Y-48000D01*
X82311Y-47965D01*
X82465Y-47811D01*
X82500Y-47726D01*
X82535Y-47811D01*
X82689Y-47965D01*
X82773Y-48000D01*
G54D10*
G36*
X87026Y-41950D02*
X86993Y-41964D01*
X86784Y-42172D01*
X86784Y-41964D01*
X86842Y-41905D01*
X86950Y-41950D01*
X87026Y-41950D01*
X87026Y-41950D01*
G37*
G54D30*
X87026Y-41950D02*
X86993Y-41964D01*
X86784Y-42172D01*
X86784Y-41964D01*
X86842Y-41905D01*
X86950Y-41950D01*
X87026Y-41950D01*
G54D10*
G36*
X89205Y-51205D02*
X83772Y-51205D01*
X83809Y-51168D01*
X83795Y-51154D01*
X83868Y-51081D01*
X84025Y-50705D01*
X84025Y-50297D01*
X83869Y-49920D01*
X83581Y-49632D01*
X83382Y-49549D01*
X83382Y-49548D01*
X83513Y-49462D01*
X86658Y-46318D01*
X86658Y-46317D01*
X86751Y-46178D01*
X86783Y-46013D01*
X86784Y-46013D01*
X86784Y-43367D01*
X86991Y-43575D01*
X87340Y-43720D01*
X87718Y-43720D01*
X88067Y-43576D01*
X88335Y-43309D01*
X88480Y-42960D01*
X88480Y-42582D01*
X88336Y-42233D01*
X88069Y-41965D01*
X87720Y-41820D01*
X87643Y-41820D01*
X87677Y-41806D01*
X87945Y-41539D01*
X87951Y-41522D01*
X87963Y-41534D01*
X88194Y-41630D01*
X88445Y-41630D01*
X88677Y-41534D01*
X88854Y-41357D01*
X88950Y-41126D01*
X88950Y-40875D01*
X88854Y-40643D01*
X88677Y-40466D01*
X88451Y-40372D01*
X88885Y-39939D01*
X88885Y-39938D01*
X88886Y-39938D01*
X88979Y-39799D01*
X89011Y-39635D01*
X89012Y-39634D01*
X89012Y-37685D01*
X88979Y-37521D01*
X88979Y-37520D01*
X88886Y-37381D01*
X88866Y-37361D01*
X88899Y-37285D01*
X88899Y-37186D01*
X88899Y-36716D01*
X88861Y-36624D01*
X88845Y-36608D01*
X88845Y-36320D01*
X88812Y-36156D01*
X88812Y-36155D01*
X88719Y-36016D01*
X87649Y-34946D01*
X87510Y-34853D01*
X87345Y-34820D01*
X86599Y-34820D01*
X86599Y-34701D01*
X86561Y-34609D01*
X86530Y-34578D01*
X86530Y-34172D01*
X86561Y-34141D01*
X86599Y-34050D01*
X86599Y-33951D01*
X86599Y-32951D01*
X86561Y-32859D01*
X86530Y-32828D01*
X86530Y-32422D01*
X86561Y-32391D01*
X86599Y-32300D01*
X86599Y-32201D01*
X86599Y-31201D01*
X86561Y-31109D01*
X86491Y-31039D01*
X86400Y-31001D01*
X86301Y-31001D01*
X85801Y-31001D01*
X85709Y-31039D01*
X85639Y-31109D01*
X85601Y-31200D01*
X85601Y-31299D01*
X85601Y-32299D01*
X85639Y-32391D01*
X85670Y-32422D01*
X85670Y-32828D01*
X85639Y-32859D01*
X85601Y-32950D01*
X85601Y-33049D01*
X85601Y-34049D01*
X85639Y-34141D01*
X85670Y-34172D01*
X85670Y-34578D01*
X85639Y-34609D01*
X85601Y-34700D01*
X85601Y-34799D01*
X85601Y-35799D01*
X85639Y-35891D01*
X85709Y-35961D01*
X85800Y-35999D01*
X85899Y-35999D01*
X86399Y-35999D01*
X86491Y-35961D01*
X86561Y-35891D01*
X86599Y-35800D01*
X86599Y-35701D01*
X86599Y-35680D01*
X87167Y-35680D01*
X87985Y-36498D01*
X87985Y-36578D01*
X87961Y-36554D01*
X87870Y-36516D01*
X87771Y-36516D01*
X87301Y-36516D01*
X87209Y-36554D01*
X87139Y-36624D01*
X87103Y-36710D01*
X86599Y-36710D01*
X86599Y-36451D01*
X86561Y-36359D01*
X86491Y-36289D01*
X86400Y-36251D01*
X86301Y-36251D01*
X85801Y-36251D01*
X85709Y-36289D01*
X85639Y-36359D01*
X85601Y-36450D01*
X85601Y-36549D01*
X85601Y-37549D01*
X85639Y-37641D01*
X85709Y-37711D01*
X85800Y-37749D01*
X85899Y-37749D01*
X86399Y-37749D01*
X86491Y-37711D01*
X86561Y-37641D01*
X86599Y-37550D01*
X86599Y-37451D01*
X86599Y-37290D01*
X87103Y-37290D01*
X87139Y-37376D01*
X87209Y-37446D01*
X87300Y-37484D01*
X87399Y-37484D01*
X87869Y-37484D01*
X87961Y-37446D01*
X87985Y-37422D01*
X87985Y-37518D01*
X88018Y-37683D01*
X88111Y-37822D01*
X88152Y-37863D01*
X88152Y-38485D01*
X88143Y-38476D01*
X88131Y-38487D01*
X88069Y-38425D01*
X87720Y-38280D01*
X87342Y-38280D01*
X86993Y-38424D01*
X86725Y-38691D01*
X86580Y-39040D01*
X86580Y-39418D01*
X86724Y-39767D01*
X86991Y-40035D01*
X87027Y-40050D01*
X86952Y-40050D01*
X86603Y-40194D01*
X86335Y-40461D01*
X86190Y-40810D01*
X86190Y-41188D01*
X86234Y-41297D01*
X86050Y-41482D01*
X85957Y-41621D01*
X85924Y-41786D01*
X85924Y-45834D01*
X85830Y-45928D01*
X85830Y-41210D01*
X85830Y-40792D01*
X85670Y-40406D01*
X85375Y-40110D01*
X85330Y-40091D01*
X85330Y-37672D01*
X85361Y-37641D01*
X85399Y-37550D01*
X85399Y-37451D01*
X85399Y-36451D01*
X85361Y-36359D01*
X85330Y-36328D01*
X85330Y-35922D01*
X85361Y-35891D01*
X85399Y-35800D01*
X85399Y-35701D01*
X85399Y-34701D01*
X85361Y-34609D01*
X85330Y-34578D01*
X85330Y-34172D01*
X85361Y-34141D01*
X85399Y-34050D01*
X85399Y-33951D01*
X85399Y-32951D01*
X85361Y-32859D01*
X85330Y-32828D01*
X85330Y-32422D01*
X85361Y-32391D01*
X85399Y-32300D01*
X85399Y-32201D01*
X85399Y-31201D01*
X85361Y-31109D01*
X85291Y-31039D01*
X85200Y-31001D01*
X85101Y-31001D01*
X84601Y-31001D01*
X84509Y-31039D01*
X84439Y-31109D01*
X84401Y-31200D01*
X84401Y-31299D01*
X84401Y-32299D01*
X84439Y-32391D01*
X84470Y-32422D01*
X84470Y-32828D01*
X84439Y-32859D01*
X84401Y-32950D01*
X84401Y-33049D01*
X84401Y-34049D01*
X84439Y-34141D01*
X84470Y-34172D01*
X84470Y-34578D01*
X84439Y-34609D01*
X84401Y-34700D01*
X84401Y-34799D01*
X84401Y-35799D01*
X84439Y-35891D01*
X84470Y-35922D01*
X84470Y-36328D01*
X84439Y-36359D01*
X84401Y-36450D01*
X84401Y-36549D01*
X84401Y-37549D01*
X84439Y-37641D01*
X84470Y-37672D01*
X84470Y-39992D01*
X84186Y-40110D01*
X83890Y-40405D01*
X83730Y-40790D01*
X83730Y-41208D01*
X83890Y-41594D01*
X84185Y-41890D01*
X84570Y-42050D01*
X84988Y-42050D01*
X85374Y-41890D01*
X85670Y-41595D01*
X85830Y-41210D01*
X85830Y-45928D01*
X83495Y-48263D01*
X83465Y-48189D01*
X83311Y-48035D01*
X83226Y-48000D01*
X83311Y-47965D01*
X83465Y-47811D01*
X83549Y-47609D01*
X83549Y-47391D01*
X83465Y-47189D01*
X83311Y-47035D01*
X83226Y-47000D01*
X83311Y-46965D01*
X83465Y-46811D01*
X83549Y-46609D01*
X83549Y-46391D01*
X83465Y-46189D01*
X83311Y-46035D01*
X83226Y-46000D01*
X83311Y-45965D01*
X83465Y-45811D01*
X83549Y-45609D01*
X83549Y-45391D01*
X83465Y-45189D01*
X83311Y-45035D01*
X83226Y-45000D01*
X83311Y-44965D01*
X83465Y-44811D01*
X83549Y-44609D01*
X83549Y-44391D01*
X83465Y-44189D01*
X83311Y-44035D01*
X83226Y-44000D01*
X83311Y-43965D01*
X83465Y-43811D01*
X83549Y-43609D01*
X83549Y-43391D01*
X83465Y-43189D01*
X83311Y-43035D01*
X83226Y-43000D01*
X83311Y-42965D01*
X83465Y-42811D01*
X83549Y-42609D01*
X83549Y-42391D01*
X83465Y-42189D01*
X83311Y-42035D01*
X83226Y-42000D01*
X83311Y-41965D01*
X83465Y-41811D01*
X83549Y-41609D01*
X83549Y-41391D01*
X83465Y-41189D01*
X83311Y-41035D01*
X83226Y-41000D01*
X83311Y-40965D01*
X83465Y-40811D01*
X83549Y-40609D01*
X83549Y-40391D01*
X83465Y-40189D01*
X83311Y-40035D01*
X83226Y-40000D01*
X83311Y-39965D01*
X83465Y-39811D01*
X83549Y-39609D01*
X83549Y-39391D01*
X83465Y-39189D01*
X83311Y-39035D01*
X83226Y-39000D01*
X83311Y-38965D01*
X83465Y-38811D01*
X83549Y-38609D01*
X83549Y-38391D01*
X83465Y-38189D01*
X83311Y-38035D01*
X83226Y-38000D01*
X83311Y-37965D01*
X83465Y-37811D01*
X83549Y-37609D01*
X83549Y-37391D01*
X83465Y-37189D01*
X83311Y-37035D01*
X83226Y-37000D01*
X83311Y-36965D01*
X83465Y-36811D01*
X83549Y-36609D01*
X83549Y-36391D01*
X83465Y-36189D01*
X83311Y-36035D01*
X83226Y-36000D01*
X83311Y-35965D01*
X83465Y-35811D01*
X83549Y-35609D01*
X83549Y-35391D01*
X83465Y-35189D01*
X83311Y-35035D01*
X83226Y-35000D01*
X83311Y-34965D01*
X83465Y-34811D01*
X83549Y-34609D01*
X83549Y-34391D01*
X83465Y-34189D01*
X83311Y-34035D01*
X83226Y-34000D01*
X83311Y-33965D01*
X83465Y-33811D01*
X83549Y-33609D01*
X83549Y-33391D01*
X83465Y-33189D01*
X83311Y-33035D01*
X83226Y-33000D01*
X83311Y-32965D01*
X83465Y-32811D01*
X83549Y-32609D01*
X83549Y-32391D01*
X83465Y-32189D01*
X83311Y-32035D01*
X83226Y-32000D01*
X83311Y-31965D01*
X83465Y-31811D01*
X83549Y-31609D01*
X83549Y-31391D01*
X83465Y-31189D01*
X83311Y-31035D01*
X83109Y-30951D01*
X82891Y-30951D01*
X82689Y-31035D01*
X82535Y-31189D01*
X82500Y-31273D01*
X82465Y-31189D01*
X82311Y-31035D01*
X82109Y-30951D01*
X81891Y-30951D01*
X81689Y-31035D01*
X81535Y-31189D01*
X81507Y-31254D01*
X81369Y-30920D01*
X81295Y-30846D01*
X81309Y-30832D01*
X81272Y-30795D01*
X89205Y-30795D01*
X89205Y-51205D01*
X89205Y-51205D01*
G37*
G54D30*
X89205Y-51205D02*
X83772Y-51205D01*
X83809Y-51168D01*
X83795Y-51154D01*
X83868Y-51081D01*
X84025Y-50705D01*
X84025Y-50297D01*
X83869Y-49920D01*
X83581Y-49632D01*
X83382Y-49549D01*
X83382Y-49548D01*
X83513Y-49462D01*
X86658Y-46318D01*
X86658Y-46317D01*
X86751Y-46178D01*
X86783Y-46013D01*
X86784Y-46013D01*
X86784Y-43367D01*
X86991Y-43575D01*
X87340Y-43720D01*
X87718Y-43720D01*
X88067Y-43576D01*
X88335Y-43309D01*
X88480Y-42960D01*
X88480Y-42582D01*
X88336Y-42233D01*
X88069Y-41965D01*
X87720Y-41820D01*
X87643Y-41820D01*
X87677Y-41806D01*
X87945Y-41539D01*
X87951Y-41522D01*
X87963Y-41534D01*
X88194Y-41630D01*
X88445Y-41630D01*
X88677Y-41534D01*
X88854Y-41357D01*
X88950Y-41126D01*
X88950Y-40875D01*
X88854Y-40643D01*
X88677Y-40466D01*
X88451Y-40372D01*
X88885Y-39939D01*
X88885Y-39938D01*
X88886Y-39938D01*
X88979Y-39799D01*
X89011Y-39635D01*
X89012Y-39634D01*
X89012Y-37685D01*
X88979Y-37521D01*
X88979Y-37520D01*
X88886Y-37381D01*
X88866Y-37361D01*
X88899Y-37285D01*
X88899Y-37186D01*
X88899Y-36716D01*
X88861Y-36624D01*
X88845Y-36608D01*
X88845Y-36320D01*
X88812Y-36156D01*
X88812Y-36155D01*
X88719Y-36016D01*
X87649Y-34946D01*
X87510Y-34853D01*
X87345Y-34820D01*
X86599Y-34820D01*
X86599Y-34701D01*
X86561Y-34609D01*
X86530Y-34578D01*
X86530Y-34172D01*
X86561Y-34141D01*
X86599Y-34050D01*
X86599Y-33951D01*
X86599Y-32951D01*
X86561Y-32859D01*
X86530Y-32828D01*
X86530Y-32422D01*
X86561Y-32391D01*
X86599Y-32300D01*
X86599Y-32201D01*
X86599Y-31201D01*
X86561Y-31109D01*
X86491Y-31039D01*
X86400Y-31001D01*
X86301Y-31001D01*
X85801Y-31001D01*
X85709Y-31039D01*
X85639Y-31109D01*
X85601Y-31200D01*
X85601Y-31299D01*
X85601Y-32299D01*
X85639Y-32391D01*
X85670Y-32422D01*
X85670Y-32828D01*
X85639Y-32859D01*
X85601Y-32950D01*
X85601Y-33049D01*
X85601Y-34049D01*
X85639Y-34141D01*
X85670Y-34172D01*
X85670Y-34578D01*
X85639Y-34609D01*
X85601Y-34700D01*
X85601Y-34799D01*
X85601Y-35799D01*
X85639Y-35891D01*
X85709Y-35961D01*
X85800Y-35999D01*
X85899Y-35999D01*
X86399Y-35999D01*
X86491Y-35961D01*
X86561Y-35891D01*
X86599Y-35800D01*
X86599Y-35701D01*
X86599Y-35680D01*
X87167Y-35680D01*
X87985Y-36498D01*
X87985Y-36578D01*
X87961Y-36554D01*
X87870Y-36516D01*
X87771Y-36516D01*
X87301Y-36516D01*
X87209Y-36554D01*
X87139Y-36624D01*
X87103Y-36710D01*
X86599Y-36710D01*
X86599Y-36451D01*
X86561Y-36359D01*
X86491Y-36289D01*
X86400Y-36251D01*
X86301Y-36251D01*
X85801Y-36251D01*
X85709Y-36289D01*
X85639Y-36359D01*
X85601Y-36450D01*
X85601Y-36549D01*
X85601Y-37549D01*
X85639Y-37641D01*
X85709Y-37711D01*
X85800Y-37749D01*
X85899Y-37749D01*
X86399Y-37749D01*
X86491Y-37711D01*
X86561Y-37641D01*
X86599Y-37550D01*
X86599Y-37451D01*
X86599Y-37290D01*
X87103Y-37290D01*
X87139Y-37376D01*
X87209Y-37446D01*
X87300Y-37484D01*
X87399Y-37484D01*
X87869Y-37484D01*
X87961Y-37446D01*
X87985Y-37422D01*
X87985Y-37518D01*
X88018Y-37683D01*
X88111Y-37822D01*
X88152Y-37863D01*
X88152Y-38485D01*
X88143Y-38476D01*
X88131Y-38487D01*
X88069Y-38425D01*
X87720Y-38280D01*
X87342Y-38280D01*
X86993Y-38424D01*
X86725Y-38691D01*
X86580Y-39040D01*
X86580Y-39418D01*
X86724Y-39767D01*
X86991Y-40035D01*
X87027Y-40050D01*
X86952Y-40050D01*
X86603Y-40194D01*
X86335Y-40461D01*
X86190Y-40810D01*
X86190Y-41188D01*
X86234Y-41297D01*
X86050Y-41482D01*
X85957Y-41621D01*
X85924Y-41786D01*
X85924Y-45834D01*
X85830Y-45928D01*
X85830Y-41210D01*
X85830Y-40792D01*
X85670Y-40406D01*
X85375Y-40110D01*
X85330Y-40091D01*
X85330Y-37672D01*
X85361Y-37641D01*
X85399Y-37550D01*
X85399Y-37451D01*
X85399Y-36451D01*
X85361Y-36359D01*
X85330Y-36328D01*
X85330Y-35922D01*
X85361Y-35891D01*
X85399Y-35800D01*
X85399Y-35701D01*
X85399Y-34701D01*
X85361Y-34609D01*
X85330Y-34578D01*
X85330Y-34172D01*
X85361Y-34141D01*
X85399Y-34050D01*
X85399Y-33951D01*
X85399Y-32951D01*
X85361Y-32859D01*
X85330Y-32828D01*
X85330Y-32422D01*
X85361Y-32391D01*
X85399Y-32300D01*
X85399Y-32201D01*
X85399Y-31201D01*
X85361Y-31109D01*
X85291Y-31039D01*
X85200Y-31001D01*
X85101Y-31001D01*
X84601Y-31001D01*
X84509Y-31039D01*
X84439Y-31109D01*
X84401Y-31200D01*
X84401Y-31299D01*
X84401Y-32299D01*
X84439Y-32391D01*
X84470Y-32422D01*
X84470Y-32828D01*
X84439Y-32859D01*
X84401Y-32950D01*
X84401Y-33049D01*
X84401Y-34049D01*
X84439Y-34141D01*
X84470Y-34172D01*
X84470Y-34578D01*
X84439Y-34609D01*
X84401Y-34700D01*
X84401Y-34799D01*
X84401Y-35799D01*
X84439Y-35891D01*
X84470Y-35922D01*
X84470Y-36328D01*
X84439Y-36359D01*
X84401Y-36450D01*
X84401Y-36549D01*
X84401Y-37549D01*
X84439Y-37641D01*
X84470Y-37672D01*
X84470Y-39992D01*
X84186Y-40110D01*
X83890Y-40405D01*
X83730Y-40790D01*
X83730Y-41208D01*
X83890Y-41594D01*
X84185Y-41890D01*
X84570Y-42050D01*
X84988Y-42050D01*
X85374Y-41890D01*
X85670Y-41595D01*
X85830Y-41210D01*
X85830Y-45928D01*
X83495Y-48263D01*
X83465Y-48189D01*
X83311Y-48035D01*
X83226Y-48000D01*
X83311Y-47965D01*
X83465Y-47811D01*
X83549Y-47609D01*
X83549Y-47391D01*
X83465Y-47189D01*
X83311Y-47035D01*
X83226Y-47000D01*
X83311Y-46965D01*
X83465Y-46811D01*
X83549Y-46609D01*
X83549Y-46391D01*
X83465Y-46189D01*
X83311Y-46035D01*
X83226Y-46000D01*
X83311Y-45965D01*
X83465Y-45811D01*
X83549Y-45609D01*
X83549Y-45391D01*
X83465Y-45189D01*
X83311Y-45035D01*
X83226Y-45000D01*
X83311Y-44965D01*
X83465Y-44811D01*
X83549Y-44609D01*
X83549Y-44391D01*
X83465Y-44189D01*
X83311Y-44035D01*
X83226Y-44000D01*
X83311Y-43965D01*
X83465Y-43811D01*
X83549Y-43609D01*
X83549Y-43391D01*
X83465Y-43189D01*
X83311Y-43035D01*
X83226Y-43000D01*
X83311Y-42965D01*
X83465Y-42811D01*
X83549Y-42609D01*
X83549Y-42391D01*
X83465Y-42189D01*
X83311Y-42035D01*
X83226Y-42000D01*
X83311Y-41965D01*
X83465Y-41811D01*
X83549Y-41609D01*
X83549Y-41391D01*
X83465Y-41189D01*
X83311Y-41035D01*
X83226Y-41000D01*
X83311Y-40965D01*
X83465Y-40811D01*
X83549Y-40609D01*
X83549Y-40391D01*
X83465Y-40189D01*
X83311Y-40035D01*
X83226Y-40000D01*
X83311Y-39965D01*
X83465Y-39811D01*
X83549Y-39609D01*
X83549Y-39391D01*
X83465Y-39189D01*
X83311Y-39035D01*
X83226Y-39000D01*
X83311Y-38965D01*
X83465Y-38811D01*
X83549Y-38609D01*
X83549Y-38391D01*
X83465Y-38189D01*
X83311Y-38035D01*
X83226Y-38000D01*
X83311Y-37965D01*
X83465Y-37811D01*
X83549Y-37609D01*
X83549Y-37391D01*
X83465Y-37189D01*
X83311Y-37035D01*
X83226Y-37000D01*
X83311Y-36965D01*
X83465Y-36811D01*
X83549Y-36609D01*
X83549Y-36391D01*
X83465Y-36189D01*
X83311Y-36035D01*
X83226Y-36000D01*
X83311Y-35965D01*
X83465Y-35811D01*
X83549Y-35609D01*
X83549Y-35391D01*
X83465Y-35189D01*
X83311Y-35035D01*
X83226Y-35000D01*
X83311Y-34965D01*
X83465Y-34811D01*
X83549Y-34609D01*
X83549Y-34391D01*
X83465Y-34189D01*
X83311Y-34035D01*
X83226Y-34000D01*
X83311Y-33965D01*
X83465Y-33811D01*
X83549Y-33609D01*
X83549Y-33391D01*
X83465Y-33189D01*
X83311Y-33035D01*
X83226Y-33000D01*
X83311Y-32965D01*
X83465Y-32811D01*
X83549Y-32609D01*
X83549Y-32391D01*
X83465Y-32189D01*
X83311Y-32035D01*
X83226Y-32000D01*
X83311Y-31965D01*
X83465Y-31811D01*
X83549Y-31609D01*
X83549Y-31391D01*
X83465Y-31189D01*
X83311Y-31035D01*
X83109Y-30951D01*
X82891Y-30951D01*
X82689Y-31035D01*
X82535Y-31189D01*
X82500Y-31273D01*
X82465Y-31189D01*
X82311Y-31035D01*
X82109Y-30951D01*
X81891Y-30951D01*
X81689Y-31035D01*
X81535Y-31189D01*
X81507Y-31254D01*
X81369Y-30920D01*
X81295Y-30846D01*
X81309Y-30832D01*
X81272Y-30795D01*
X89205Y-30795D01*
X89205Y-51205D01*
M02*
